<svg width="97" height="98" viewBox="0 0 97 98" fill="none" xmlns="http://www.w3.org/2000/svg">
<path d="M23.5823 55.6498C22.0248 55.6498 20.5023 56.1164 19.2074 56.9905C17.9124 57.8647 16.903 59.1072 16.307 60.561C15.7109 62.0147 15.555 63.6143 15.8588 65.1576C16.1626 66.7009 16.9126 68.1185 18.0139 69.2312C19.1151 70.3438 20.5183 71.1016 22.0458 71.4086C23.5733 71.7155 25.1566 71.558 26.5956 70.9559C28.0345 70.3537 29.2643 69.334 30.1296 68.0257C30.9949 66.7173 31.4567 65.1792 31.4567 63.6056C31.4544 61.4964 30.624 59.4742 29.1478 57.9827C27.6715 56.4913 25.67 55.6523 23.5823 55.6498ZM23.5823 68.4989C22.6244 68.499 21.6879 68.212 20.8914 67.6744C20.0949 67.1367 19.4741 66.3725 19.1075 65.4784C18.7409 64.5842 18.6449 63.6003 18.8318 62.6511C19.0186 61.7019 19.4799 60.83 20.1573 60.1456C20.8346 59.4613 21.6976 58.9952 22.6372 58.8064C23.5767 58.6175 24.5505 58.7144 25.4355 59.0848C26.3206 59.4552 27.077 60.0823 27.6092 60.887C28.1414 61.6917 28.4255 62.6378 28.4255 63.6056C28.424 64.9029 27.9133 66.1467 27.0054 67.064C26.0974 67.9814 24.8664 68.4974 23.5823 68.4989ZM10.1211 79.7467V92.6374C10.1211 93.0435 10.2808 93.433 10.565 93.7201C10.8492 94.0073 11.2347 94.1686 11.6367 94.1686H29.4322V96.4688C29.4322 96.8749 29.5919 97.2643 29.8762 97.5515C30.1604 97.8387 30.5459 98 30.9479 98H66.0511C66.453 98 66.8385 97.8387 67.1228 97.5515C67.407 97.2643 67.5667 96.8749 67.5667 96.4688V94.1686H85.3624C85.7644 94.1686 86.1499 94.0073 86.4341 93.7201C86.7183 93.433 86.878 93.0435 86.878 92.6374V79.7467C86.8758 77.792 86.1062 75.9179 84.7381 74.5357C83.37 73.1535 81.5151 72.376 79.5803 72.3738H67.2535C66.9038 72.374 66.5546 72.3996 66.2085 72.4503C65.3285 70.9192 64.0662 69.6483 62.5477 68.7644C61.0293 67.8805 59.3079 67.4146 57.5554 67.4133H39.4437C37.6913 67.4146 35.9699 67.8805 34.4514 68.7645C32.933 69.6484 31.6708 70.9194 30.7908 72.4505C30.4448 72.3998 30.0956 72.3742 29.746 72.374H17.4188C15.4841 72.3762 13.6292 73.1537 12.2611 74.5358C10.8929 75.918 10.1234 77.792 10.1211 79.7467ZM79.5803 75.4363C80.7114 75.4376 81.7959 75.8921 82.5957 76.7002C83.3955 77.5083 83.8455 78.6039 83.8468 79.7467V91.1061H80.8364V82.7641C80.8364 82.3579 80.6767 81.9685 80.3924 81.6813C80.1082 81.3941 79.7227 81.2328 79.3207 81.2328C78.9188 81.2328 78.5333 81.3941 78.249 81.6813C77.9648 81.9685 77.8051 82.3579 77.8051 82.7641V91.1063H67.5667V77.5283C67.5667 76.8253 67.4941 76.1241 67.3501 75.4363H79.5803ZM32.4633 77.5283C32.4652 75.6585 33.2012 73.8658 34.5099 72.5436C35.8186 71.2214 37.5929 70.4778 39.4437 70.4758H57.5554C59.406 70.4779 61.1801 71.2216 62.4886 72.5436C63.7972 73.8657 64.5332 75.6581 64.5352 77.5278V94.9375H58.6853C58.6868 94.9084 58.6897 94.8801 58.6897 94.85V81.9615C58.6897 81.5554 58.53 81.1659 58.2458 80.8787C57.9615 80.5916 57.576 80.4302 57.174 80.4302C56.7721 80.4302 56.3866 80.5916 56.1023 80.8787C55.8181 81.1659 55.6584 81.5554 55.6584 81.9615V94.85C55.6584 94.8795 55.6611 94.9084 55.6628 94.9375H41.3363C41.3379 94.9084 41.3407 94.8801 41.3407 94.85V81.9615C41.3407 81.5554 41.181 81.1659 40.8968 80.8787C40.6125 80.5916 40.227 80.4302 39.8251 80.4302C39.4231 80.4302 39.0376 80.5916 38.7534 80.8787C38.4691 81.1659 38.3094 81.5554 38.3094 81.9615V94.85C38.3094 94.8795 38.3121 94.9084 38.3138 94.9375H32.4635L32.4633 77.5283ZM13.1523 79.7467C13.1536 78.6039 13.6036 77.5083 14.4034 76.7002C15.2032 75.8921 16.2877 75.4376 17.4188 75.4363H29.649C29.505 76.1241 29.4323 76.8253 29.4322 77.5283V91.1061H19.194V82.7641C19.194 82.3579 19.0343 81.9685 18.7501 81.6813C18.4659 81.3941 18.0803 81.2328 17.6784 81.2328C17.2764 81.2328 16.8909 81.3941 16.6067 81.6813C16.3224 81.9685 16.1628 82.3579 16.1628 82.7641V91.1063H13.1523V79.7467ZM73.4174 71.5614C74.9748 71.5614 76.4973 71.0948 77.7923 70.2206C79.0873 69.3465 80.0966 68.1039 80.6926 66.6502C81.2886 65.1965 81.4445 63.5968 81.1407 62.0535C80.8368 60.5103 80.0869 59.0927 78.9856 57.98C77.8843 56.8674 76.4812 56.1097 74.9536 55.8027C73.4261 55.4957 71.8428 55.6533 70.4039 56.2554C68.965 56.8576 67.7351 57.8773 66.8699 59.1856C66.0046 60.494 65.5428 62.0321 65.5428 63.6056C65.5451 65.7149 66.3755 67.737 67.8517 69.2285C69.3278 70.7199 71.3293 71.559 73.417 71.5614H73.4174ZM73.4174 58.7123C74.3753 58.7123 75.3117 58.9993 76.1082 59.537C76.9047 60.0747 77.5255 60.8389 77.8921 61.7331C78.2587 62.6272 78.3546 63.6111 78.1677 64.5603C77.9808 65.5095 77.5195 66.3814 76.8422 67.0657C76.1648 67.7501 75.3018 68.2161 74.3623 68.4049C73.4228 68.5937 72.4489 68.4968 71.5639 68.1265C70.6789 67.7561 69.9225 67.1289 69.3903 66.3242C68.8581 65.5195 68.574 64.5734 68.574 63.6056C68.5754 62.3084 69.0861 61.0646 69.994 60.1473C70.9019 59.2299 72.133 58.7139 73.417 58.7123H73.4174ZM37.6411 53.8123C37.6411 55.9822 38.2781 58.1032 39.4713 59.9073C40.6646 61.7114 42.3605 63.1175 44.3448 63.9478C46.329 64.7781 48.5124 64.9953 50.6188 64.5719C52.7252 64.1485 54.66 63.1036 56.1786 61.5692C57.6972 60.0349 58.7313 58.08 59.1502 55.9519C59.5692 53.8237 59.354 51.6179 58.5321 49.6132C57.7101 47.6086 56.3183 45.8953 54.5325 44.6898C52.7467 43.4844 50.6472 42.841 48.4996 42.8411C45.6206 42.8445 42.8605 44.0014 40.8248 46.0581C38.7891 48.1148 37.644 50.9033 37.6407 53.812L37.6411 53.8123ZM56.3276 53.8123C56.3275 55.3764 55.8684 56.9054 55.0082 58.2058C54.1481 59.5063 52.9256 60.5199 51.4953 61.1184C50.065 61.7169 48.4911 61.8735 46.9727 61.5683C45.4544 61.2631 44.0597 60.51 42.965 59.404C41.8703 58.298 41.1248 56.8889 40.8227 55.3549C40.5207 53.8209 40.6757 52.2308 41.2681 50.7857C41.8605 49.3407 42.8637 48.1056 44.1509 47.2366C45.4381 46.3676 46.9514 45.9037 48.4996 45.9036C50.5749 45.906 52.5645 46.7399 54.032 48.2225C55.4995 49.7051 56.3249 51.7153 56.3272 53.812L56.3276 53.8123ZM48.4996 1.00561e-09C44.9319 -3.78555e-05 41.4444 1.06876 38.478 3.07125C35.5116 5.07373 33.1996 7.91995 31.8343 11.25C30.469 14.58 30.1117 18.2443 30.8077 21.7795C31.5037 25.3146 33.2217 28.5619 35.7444 31.1106C38.2671 33.6593 41.4812 35.395 44.9803 36.0982C48.4794 36.8014 52.1063 36.4404 55.4024 35.0611C58.6984 33.6817 61.5156 31.3458 63.4977 28.3489C65.4797 25.3519 66.5376 21.8284 66.5376 18.224C66.5322 13.3924 64.63 8.7602 61.2484 5.34372C57.8668 1.92725 53.2819 0.00547131 48.4996 1.00561e-09ZM48.4996 33.3857C45.5315 33.3857 42.63 32.4965 40.1621 30.8305C37.6942 29.1646 35.7707 26.7967 34.6348 24.0262C33.4989 21.2558 33.2017 18.2073 33.7807 15.2662C34.3598 12.3251 35.789 9.62354 37.8878 7.50313C39.9865 5.38271 42.6605 3.93868 45.5716 3.35365C48.4827 2.76862 51.5001 3.06886 54.2422 4.2164C56.9844 5.36395 59.3282 7.30726 60.9772 9.80059C62.6262 12.2939 63.5063 15.2253 63.5063 18.224C63.5019 22.2437 61.9194 26.0975 59.1061 28.9399C56.2927 31.7823 52.4783 33.3811 48.4996 33.3857ZM52.0575 13.4905C52.0575 13.8966 52.2172 14.2861 52.5014 14.5733C52.7856 14.8604 53.1711 15.0218 53.5731 15.0218C53.9751 15.0218 54.3606 14.8604 54.6448 14.5733C54.9291 14.2861 55.0887 13.8966 55.0887 13.4905C55.0887 10.5319 52.9201 8.04787 50.0152 7.39498V5.85703C50.0152 5.45092 49.8555 5.06144 49.5713 4.77427C49.287 4.48711 48.9015 4.32578 48.4996 4.32578C48.0976 4.32578 47.7121 4.48711 47.4278 4.77427C47.1436 5.06144 46.9839 5.45092 46.9839 5.85703V7.39422C44.079 8.0471 41.9102 10.5312 41.9102 13.4897C41.9102 16.4483 44.079 18.9333 46.9839 19.5862V25.8506C45.779 25.337 44.9414 24.2351 44.9414 22.9575C44.9414 22.5513 44.7818 22.1619 44.4975 21.8747C44.2133 21.5875 43.8278 21.4262 43.4258 21.4262C43.0238 21.4262 42.6383 21.5875 42.3541 21.8747C42.0699 22.1619 41.9102 22.5513 41.9102 22.9575C41.9102 25.916 44.079 28.4003 46.9839 29.0532V30.5904C46.9839 30.9965 47.1436 31.3859 47.4278 31.6731C47.7121 31.9603 48.0976 32.1216 48.4996 32.1216C48.9015 32.1216 49.287 31.9603 49.5713 31.6731C49.8555 31.3859 50.0152 30.9965 50.0152 30.5904V29.0532C52.9201 28.4003 55.0887 25.916 55.0887 22.9575C55.0887 19.9989 52.9201 17.515 50.0152 16.8629V10.5976C51.2201 11.1111 52.0575 12.2131 52.0575 13.4905ZM44.9414 13.4905C44.9414 12.2131 45.779 11.1111 46.9839 10.5976V16.3844C45.779 15.8701 44.9414 14.7681 44.9414 13.4905ZM52.0575 22.9575C52.0575 24.2351 51.2201 25.337 50.0152 25.8506V20.0647C51.2201 20.5783 52.0575 21.6802 52.0575 22.9575Z" fill="#956DF8"/>
</svg>
