<svg width="99" height="99" viewBox="0 0 99 99" fill="none" xmlns="http://www.w3.org/2000/svg">
<path d="M60.9498 69.8935C88.9163 70.0937 103.543 35.4819 83.4788 15.5208C55.0566 -11.2443 13.4561 24.185 34.9439 56.3988C34.9437 56.3985 30.2557 61.0865 30.2557 61.0865C29.1227 60.4221 27.5488 60.6308 26.6535 61.5874C26.6535 61.5874 8.41727 79.8236 8.41727 79.8236C1.53663 87.1959 11.8159 97.4607 19.1738 90.5851C20.6032 89.1375 18.4164 86.9804 16.9862 88.3979C12.656 92.3969 6.50527 86.3958 10.6033 82.0123C10.6031 82.0125 28.7578 63.7747 28.7578 63.7747C29.0238 64.0115 35.1949 70.1607 35.2233 70.1579C35.2232 70.1579 22.5703 82.8252 22.5703 82.8252C20.9518 84.1966 23.0908 86.6045 24.6497 85.1205C24.6496 85.1206 37.397 72.3588 37.397 72.3588C37.9771 71.7931 38.2996 71.0355 38.3049 70.2243C38.3083 69.6956 38.1639 69.1927 37.9136 68.7417L42.6003 64.055C48.083 67.9262 54.5086 69.8935 60.9498 69.8935ZM40.6086 17.7084C51.825 6.49656 70.0755 6.49355 81.2919 17.7084C107.159 45.8126 68.7 84.2505 40.6084 58.3893C29.393 47.1738 29.393 28.924 40.6086 17.7084ZM35.8192 66.4614L32.5374 63.1796L36.8639 58.8531C37.8437 60.0398 38.959 61.1551 40.1457 62.1348C40.1457 62.1349 35.8192 66.4614 35.8192 66.4614Z" fill="#956DF8"/>
<path d="M45.2129 56.2917C60.5313 69.7355 85.1631 58.6209 85.0777 38.0545C85.3383 18.8041 62.6015 7.01152 47.0569 18.3235C45.4142 19.5124 47.1881 22.0055 48.8457 20.8473C62.3945 10.9964 82.2138 21.2746 81.9839 38.0551C81.9946 43.3751 79.9859 48.5078 76.3509 52.3426C75.4171 50.0079 73.9691 47.9261 72.0805 46.231C70.5596 44.8816 68.5196 47.1804 70.014 48.5333C71.8443 50.1753 73.1308 52.2815 73.8398 54.6372C73.5768 54.841 73.3212 55.0534 73.048 55.2449C65.8237 60.5885 54.8628 60.2063 48.0575 54.6265C49.6754 49.0408 55.1017 44.9365 60.9537 45.0142C72.9589 44.5867 72.956 27.2928 60.9516 26.8686C52.4676 26.8329 48.6771 37.7089 55.2046 42.9555C50.8784 44.5292 47.275 48.0465 45.5565 52.3284C38.9599 45.611 37.9976 33.6943 43.7543 25.9532C44.9037 24.2838 42.4238 22.5232 41.2268 24.1692C34.0013 33.9078 36.0752 48.8315 45.2129 56.2917ZM60.9517 29.9624C68.8534 30.2134 68.8515 41.6706 60.9516 41.9205C53.0491 41.6691 53.051 30.2125 60.9517 29.9624Z" fill="#956DF8"/>
</svg>
