<?xml version="1.0" encoding="utf-8"?>
<!-- Generator: Adobe Illustrator 27.3.1, SVG Export Plug-In . SVG Version: 6.00 Build 0)  -->
<svg version="1.1" id="_Слой_1" xmlns="http://www.w3.org/2000/svg" xmlns:xlink="http://www.w3.org/1999/xlink" x="0px"
	 y="0px" viewBox="0 0 15 15" style="enable-background:new 0 0 15 15;" xml:space="preserve">
<style type="text/css">
	.st0{clip-path:url(#SVGID_00000088818420244334627520000000523230963330071211_);}
	.st1{fill:#FFFFFF;}
</style>
<g>
	<defs>
		<rect id="SVGID_1_" x="19" y="-8.4" width="15" height="15"/>
	</defs>
	<clipPath id="SVGID_00000113342766394351695870000002008962607178881670_">
		<use xlink:href="#SVGID_1_"  style="overflow:visible;"/>
	</clipPath>
	<g style="clip-path:url(#SVGID_00000113342766394351695870000002008962607178881670_);">
		<path class="st1" d="M31.8-8.4H21.2c-1.2,0-2.2,1-2.2,2.2V4.4c0,1.2,1,2.2,2.2,2.2h10.6c1.2,0,2.2-1,2.2-2.2V-6.2
			C34.1-7.4,33.1-8.4,31.8-8.4L31.8-8.4z M30.3-1L30,0.4h-1.7v5.3H27V0.4h-1.6V-1H27v-2.6c0-1,0.8-1.8,1.8-1.8h1.6V-4h-2V-1
			C28.3-1,30.3-1,30.3-1z M33.2,4.4c0,0.7-0.6,1.3-1.3,1.3h-2.7V1.2h1.5l0.6-3.1h-2.2v-1.3h2.1v-3.1h-2.5c-1.5,0-2.6,1.2-2.6,2.6
			v1.8h-1.6v3.1h1.6v4.4h-4.8c-0.7,0-1.3-0.6-1.3-1.3V-6.2c0-0.7,0.6-1.3,1.3-1.3h10.6c0.7,0,1.3,0.6,1.3,1.3L33.2,4.4L33.2,4.4z"/>
	</g>
</g>
</svg>
