<svg width="17" height="16" viewBox="0 0 17 16" fill="none" xmlns="http://www.w3.org/2000/svg">
<g clip-path="url(#clip0_7_7953)">
<path d="M12.0973 0.34375H5.07099C2.78421 0.34375 0.923828 2.12834 0.923828 4.32195V11.0621C0.923828 13.2556 2.78421 15.0402 5.07099 15.0402H12.0974C14.3841 15.0402 16.2445 13.2556 16.2445 11.0621V4.32195C16.2445 2.12834 14.3841 0.34375 12.0973 0.34375ZM15.3463 11.0621C15.3463 12.7806 13.8888 14.1787 12.0973 14.1787H5.07099C3.27946 14.1787 1.82199 12.7806 1.82199 11.0621V4.32195C1.82199 2.60341 3.27946 1.20532 5.07099 1.20532H12.0974C13.8888 1.20532 15.3463 2.60341 15.3463 4.32195V11.0621Z" fill="white"/>
<path d="M8.5817 3.67383C6.27177 3.67383 4.39258 5.47647 4.39258 7.69229C4.39258 9.90811 6.27177 11.7107 8.5817 11.7107C10.8916 11.7107 12.7708 9.90811 12.7708 7.69229C12.7708 5.47647 10.8916 3.67383 8.5817 3.67383ZM8.5817 10.8492C6.76714 10.8492 5.29074 9.43303 5.29074 7.69229C5.29074 5.95165 6.76714 4.5354 8.5817 4.5354C10.3964 4.5354 11.8727 5.95165 11.8727 7.69229C11.8727 9.43303 10.3964 10.8492 8.5817 10.8492Z" fill="white"/>
<path d="M12.8746 2.24609C12.1919 2.24609 11.6367 2.7788 11.6367 3.4335C11.6367 4.08831 12.1919 4.62102 12.8746 4.62102C13.5572 4.62102 14.1125 4.08831 14.1125 3.4335C14.1125 2.77869 13.5572 2.24609 12.8746 2.24609ZM12.8746 3.75934C12.6873 3.75934 12.5349 3.61313 12.5349 3.4335C12.5349 3.25376 12.6873 3.10766 12.8746 3.10766C13.0619 3.10766 13.2143 3.25376 13.2143 3.4335C13.2143 3.61313 13.0619 3.75934 12.8746 3.75934Z" fill="white"/>
</g>
<defs>
<clipPath id="clip0_7_7953">
<rect width="15.3207" height="14.6965" fill="white" transform="translate(0.923828 0.34375)"/>
</clipPath>
</defs>
</svg>
