<svg width="484" height="156" viewBox="0 0 484 156" fill="none" xmlns="http://www.w3.org/2000/svg">
<g clip-path="url(#clip0_9_34)">
<path d="M154.95 75.31V29.71H162.77V52.05L183.48 29.71H193.38L175.53 48.4L194.68 75.3H185.1L170.12 54.06L162.76 61.75V75.3H154.94L154.95 75.31Z" fill="white"/>
<path d="M198.07 75.31V40.79H204.26L204.91 45.87C207.06 42.29 211.42 39.75 216.57 39.75C223.93 39.75 228.75 44.7 228.75 52.45V75.31H221.06V52.84C221.06 49 218.52 46.46 214.22 46.46C209.2 46.46 205.82 49.91 205.75 54.41V75.32H198.06L198.07 75.31Z" fill="white"/>
<path d="M232.93 57.7201C232.93 46.4501 240.55 39.7401 250.65 39.7401C261.79 39.7401 268.3 47.5601 268.3 57.7201C268.3 69.3801 260.94 76.28 250.65 76.28C239.45 76.28 232.93 68.4001 232.93 57.7201ZM260.48 57.7201C260.48 50.8801 256.64 46.32 250.64 46.32C244.64 46.32 240.74 50.8801 240.74 57.7201C240.74 65.2801 244.97 69.71 250.64 69.71C256.83 69.71 260.48 64.6301 260.48 57.7201Z" fill="white"/>
<path d="M279.5 75.31L269.27 40.79H277.15L284.12 65.8L290.96 40.79H297.34L304.24 65.54L311.08 40.79H318.96L308.73 75.31H300.78L294.14 51.73L287.56 75.31H279.48H279.5Z" fill="white"/>
<path d="M322.5 75.31V26.46H330.19V75.31H322.5Z" fill="white"/>
<path d="M334.94 58.18C334.94 46.78 342.43 39.75 352.07 39.75C361.71 39.75 368.35 46.59 368.55 57.79V59.61H342.62C343.14 65.67 346.92 69.77 352.78 69.77C356.75 69.77 359.75 67.82 360.92 64.36H368.41C366.65 71.79 360.85 76.28 352.71 76.28C342.16 76.28 334.93 68.72 334.93 58.17L334.94 58.18ZM360.61 54.21C359.63 49.26 356.57 46.26 352.08 46.26C347.59 46.26 344.13 49.26 342.96 54.21H360.61Z" fill="white"/>
<path d="M371.36 57.85C371.36 47.17 377.94 39.74 387.12 39.74C392.01 39.74 396.04 41.76 398.45 45.02V26.46H406.14V75.31H399.95L399.23 69.19C397.28 73.55 392.98 76.29 387.37 76.29C378.06 76.29 371.35 68.73 371.35 57.86L371.36 57.85ZM398.46 57.79C398.46 50.95 394.55 46.2 388.95 46.2C383.35 46.2 379.24 51.02 379.24 57.93C379.24 64.84 383.15 69.79 388.82 69.79C394.49 69.79 398.46 64.84 398.46 57.8V57.79Z" fill="white"/>
<path d="M412.2 77.27H419.89C419.89 80.53 423.34 83.13 428.49 83.13C434.61 83.13 437.8 79.48 437.8 74.27V69.38C435.59 72.7 431.74 74.7901 426.79 74.7901C417.54 74.7901 410.9 67.6201 410.9 57.3301C410.9 47.0401 417.54 39.7401 426.73 39.7401C432.14 39.7401 436.5 42.28 438.65 46.12L439.3 40.78H445.42V74.2601C445.42 83.3801 438.97 89.3701 428.48 89.3701C418.84 89.3701 412.19 84.68 412.19 77.25L412.2 77.27ZM437.8 57.2701C437.8 50.76 433.89 46.26 428.29 46.26C422.69 46.26 418.85 50.7601 418.85 57.3301C418.85 63.9001 422.69 68.34 428.29 68.34C433.89 68.34 437.8 63.7801 437.8 57.2701Z" fill="white"/>
<path d="M449.98 58.18C449.98 46.78 457.47 39.75 467.11 39.75C476.75 39.75 483.39 46.59 483.59 57.79V59.61H457.66C458.18 65.67 461.96 69.77 467.82 69.77C471.79 69.77 474.79 67.82 475.96 64.36H483.45C481.69 71.79 475.89 76.28 467.75 76.28C457.2 76.28 449.97 68.72 449.97 58.17L449.98 58.18ZM475.65 54.21C474.67 49.26 471.61 46.26 467.12 46.26C462.63 46.26 459.17 49.26 458 54.21H475.65Z" fill="white"/>
<path d="M152.86 104.36C152.86 90.55 161.59 80.71 175.79 80.71C187.65 80.71 195.79 87.61 197.74 99.27H189.73C188.3 92.1 183.02 87.74 175.79 87.74C166.6 87.74 160.87 94.19 160.87 104.35C160.87 114.51 166.6 121.16 175.79 121.16C183.15 121.16 188.3 116.93 189.73 109.7H197.74C195.66 121.56 187.71 128.26 175.79 128.26C161.78 128.26 152.86 118.62 152.86 104.35V104.36Z" fill="white"/>
<path d="M201.13 109.7C201.13 98.43 208.75 91.72 218.85 91.72C229.99 91.72 236.5 99.54 236.5 109.7C236.5 121.36 229.14 128.26 218.85 128.26C207.65 128.26 201.13 120.38 201.13 109.7ZM228.68 109.7C228.68 102.86 224.84 98.3 218.84 98.3C212.84 98.3 208.94 102.86 208.94 109.7C208.94 117.26 213.17 121.69 218.84 121.69C225.03 121.69 228.68 116.61 228.68 109.7Z" fill="white"/>
<path d="M241.13 127.29V92.77H247.32L248.23 99.54C250.44 94.85 254.48 92.37 260.22 92.37H261.52V99.86H260.22C253.05 99.86 248.82 103.7 248.82 110.22V127.29H241.13Z" fill="white"/>
<path d="M262.44 110.15C262.44 98.75 269.93 91.72 279.57 91.72C289.21 91.72 295.85 98.56 296.05 109.76V111.58H270.12C270.64 117.64 274.42 121.74 280.28 121.74C284.25 121.74 287.25 119.79 288.42 116.33H295.91C294.15 123.76 288.35 128.25 280.21 128.25C269.66 128.25 262.43 120.69 262.43 110.14L262.44 110.15ZM288.11 106.18C287.13 101.23 284.07 98.23 279.58 98.23C275.09 98.23 271.63 101.23 270.46 106.18H288.11Z" fill="white"/>
<path d="M300.16 98.25V91.84H297.75V90.4H304.11V91.84H301.72V98.25H300.16ZM304.59 98.25V90.41H306.28L308.65 96.51L310.99 90.41H312.66V98.25H311.1V93.65L309.34 98.25H307.9L306.16 93.72V98.25H304.58H304.59Z" fill="white"/>
<path d="M101.17 51.15C101.13 51.01 101.08 50.81 101.03 50.61L96.4599 31.72C96.4199 31.56 96.3799 31.41 96.3499 31.24C96.2699 30.86 96.1899 30.49 96.0699 30.1C95.4999 28.32 94.0799 27.17 92.3599 27.11H92.2299C90.4499 27.11 88.9299 28.27 88.3499 30.07C87.9699 31.3 87.6299 32.56 87.2999 33.79L79.3699 63.39C79.3699 63.39 78.9399 64.98 78.9199 65.03L72.8699 38.9C72.7899 38.56 72.6999 38.21 72.5999 37.86C72.0899 36.15 70.8199 35.08 69.1399 34.92C69.0099 34.9 68.8799 34.9 68.7399 34.9C67.1199 34.9 65.7299 35.84 65.0999 37.36C64.5199 38.74 63.9699 40.15 63.4299 41.53L63.0799 42.42C62.8399 43.05 62.5999 43.68 62.3499 44.31C62.3499 44.31 60.5899 48.82 60.4199 49.25C60.1499 48.28 59.4199 45.68 59.4199 45.68C59.3599 45.44 59.3199 45.26 59.2799 45.1C59.2099 44.79 59.1499 44.54 58.9999 44.08C58.4799 42.48 57.1899 41.4 55.5399 41.17C55.3199 41.14 55.1199 41.13 54.9099 41.13C54.0599 41.13 52.9599 41.23 52.0399 41.99C51.3999 42.52 50.9599 43.19 50.5999 43.74C49.9299 44.77 49.2699 45.81 48.6099 46.84L47.6199 48.39C47.1499 49.12 46.6799 49.86 46.1999 50.59C45.8599 51.11 45.7399 51.16 45.5199 51.16H45.3099C43.7999 51.15 42.2899 51.14 40.7599 51.14C38.9399 51.14 37.1099 51.15 35.2899 51.16H35.0799C33.4599 51.16 32.1999 51.93 31.5399 53.32C30.8399 54.81 31.0099 56.35 32.0199 57.66C32.7799 58.62 33.8699 59.13 35.1899 59.15C37.5499 59.16 39.9099 59.16 42.2799 59.16C44.2399 59.16 46.2099 59.16 48.1899 59.15C49.8599 59.13 51.1499 58.32 51.9399 56.8C52.3899 55.94 52.8699 55.09 53.3999 54.16C53.4199 54.13 53.4499 54.07 53.4899 54C53.7499 55.05 54.0199 56.16 54.1399 56.57L54.8599 59.2C55.1699 60.31 55.4899 61.44 55.8099 62.55C56.3999 64.61 57.7699 65.84 59.5699 65.93H59.6999L59.7499 65.94C61.4799 65.94 62.9499 64.79 63.6999 62.87C65.0599 59.39 66.4199 55.91 67.7899 52.42C68.8999 57.2 69.9999 61.97 71.0999 66.74L72.5299 72.93L73.3199 76.34L73.7299 78.19C74.0399 79.57 74.3699 81 74.7199 82.39C75.1399 84.1 76.3099 85.21 78.1199 85.52C78.3399 85.55 78.5399 85.57 78.7299 85.57C79.9199 85.57 80.9899 85.01 81.8199 83.96C82.2999 83.37 82.4799 82.7 82.6599 82.07C85.1499 72.86 87.6499 63.63 90.1299 54.41C90.6099 52.61 91.0899 50.81 91.5599 49C91.6999 48.47 91.8399 47.94 91.9799 47.41C92.2599 48.54 92.5299 49.66 92.7999 50.8L93.0099 51.69C93.3399 53.05 93.6599 54.41 93.9999 55.77C94.5399 57.98 96.0499 59.15 98.3599 59.15H125.93C127.3 59.15 128.44 58.71 129.22 57.87C129.91 57.12 130.26 56.11 130.28 54.77C130.28 54.25 130.28 53.73 130.25 53.22C130.23 52.82 130.22 52.41 130.22 51.96C129.58 37.72 123.4 24.64 112.8 15.13C101.75 5.19 88.0299 0.24 70.8499 0.02C70.5999 0.02 70.3499 0.02 70.0999 0.01C69.8399 0.01 69.5699 0 69.3099 0C68.9599 0 68.6199 0.01 68.2799 0.04L66.8999 0.15C65.0499 0.3 63.1299 0.45 61.2599 0.73C39.3899 3.95 23.3999 15.38 13.7499 34.72C7.39993 47.44 4.00993 61.33 0.719933 74.76L0.279933 76.57C-0.800067 80.99 1.29993 85.07 5.62993 86.98C7.38993 87.75 8.83993 88.18 10.1799 88.34L10.7899 88.41C11.6799 88.51 12.3299 88.59 12.4799 88.77C12.6899 89.03 12.8099 89.98 12.9799 91.29L13.0099 91.54C13.0699 92.03 13.0799 92.54 13.0799 93.08C13.0799 93.37 13.0799 93.65 13.0899 93.93C13.2899 99.82 13.4799 105.69 13.6699 111.58C13.8299 116.92 16.4799 120.58 21.5299 122.46C22.8999 122.97 24.3999 123.41 25.9899 123.76C28.9599 124.39 32.0199 124.7 35.3599 124.7C38.8799 124.7 42.6499 124.36 47.2199 123.63C47.3999 123.6 47.5599 123.58 47.7099 123.58C48.0199 123.58 48.2199 123.58 48.5099 124.31C49.6199 127.09 50.6399 129.59 51.8099 132.05C53.4299 135.45 55.0699 138.84 56.7099 142.22C58.3499 145.6 59.9899 148.98 61.6099 152.39C62.7299 154.69 64.4599 155.85 66.7399 155.85C67.0899 155.85 67.4499 155.82 67.8299 155.77C68.4499 155.68 69.0699 155.59 69.6899 155.5C71.9899 155.18 74.3599 154.85 76.5999 154.12C87.5199 150.54 97.6899 144.15 107.69 134.59C110.84 131.59 113.54 128.08 116.15 124.68C116.73 123.92 117.31 123.17 117.89 122.42C119.46 120.43 119.64 118.07 118.42 115.37C117.27 112.9 116.26 110.11 115.25 106.58C113.58 100.57 114.22 95.72 117.25 91.32C119.92 87.44 122.14 83.21 124.36 78.85C126.36 74.95 127.87 70.8 128.86 66.51L129.11 65.45H120.76L120.59 66.1C119.87 68.9 118.82 71.7 117.47 74.41C115.74 77.88 113.41 82.38 110.64 86.51C106.25 93.02 105.08 100.15 107.17 107.71C108.17 111.29 109.11 114.18 110.13 116.83C110.7 118.24 110.59 119.21 109.73 120.4C105.45 126.39 99.6099 131.84 91.3799 137.55C86.5499 140.88 80.0399 144.96 72.5199 146.92C70.9799 147.32 69.8699 147.6 69.1499 147.6C68.2299 147.6 67.9099 147.19 66.5099 144.18C64.7499 140.45 63.4599 137.74 62.4599 135.65C60.2533 131.01 58.2333 126.243 56.3999 121.35C55.7599 119.64 54.9699 117.53 53.9499 114.84L53.6999 114.17L45.9499 115.51C41.9099 116.21 38.5699 116.54 35.4499 116.54C31.3799 116.54 27.7199 115.96 24.2499 114.78C22.5899 114.22 21.7899 113.12 21.7399 111.33C21.6999 109.81 21.6599 108.29 21.6199 106.76C21.5399 103.13 21.4499 99.39 21.2299 95.7C21.0299 92.51 20.5799 89.09 19.8999 85.56C19.4199 83.05 17.5099 81.37 14.5299 80.82C12.6599 80.48 10.8199 80.08 9.08993 79.63C8.80993 79.56 8.44993 79.41 8.26993 79.1C8.08993 78.79 8.13993 78.38 8.21993 78.08L9.06993 74.64C12.2199 61.91 15.4699 48.75 21.7099 36.9C30.2599 20.8 44.2399 11.32 63.3199 8.74C66.2599 8.35 69.1799 8.15 71.9999 8.15C83.1299 8.15 93.3699 11.25 102.45 17.38C113.7 24.96 120.97 37.53 122.02 51.17C121.96 51.17 101.69 51.17 101.69 51.17C101.5 51.17 101.3 51.17 101.16 51.17L101.17 51.15Z" fill="white"/>
</g>
<defs>
<clipPath id="clip0_9_34">
<rect width="483.6" height="155.85" fill="white"/>
</clipPath>
</defs>
</svg>
