<?xml version="1.0" encoding="utf-8"?>
<!-- Generator: Adobe Illustrator 25.2.0, SVG Export Plug-In . SVG Version: 6.00 Build 0)  -->
<svg version="1.1" id="katman_1" xmlns="http://www.w3.org/2000/svg" xmlns:xlink="http://www.w3.org/1999/xlink"
	viewBox="00 150 560 100" width="410" height="100"  xml:space="preserve" fill="#AEAFC0">
	<path d="M149.78,238.15h5.64l-3.6,11.87h-5.64L149.78,238.15z M205.54,245.59l-1.08-7.43h-6.24l2.4,11.87h6.96l9.59-11.87h-5.76
	L205.54,245.59z M108.65,151.57c-9.71-3-21.82-2.52-31.06,1.2c-11.63,4.32-22.42,14.75-26.98,26.26c-4.8,11.27-4.8,25.3-0.12,36.45
	c3.96,10.31,12.71,19.55,22.66,24.58c1.2,0.6,2.52,1.2,3.84,1.68l10.31-32.02h23.02l-5.04-3.24H88.03l6.72-21.7l-11.39,18.35
	l3.48,2.4h-4.92l-4.32,6.96l-18.47,9.71l-0.36,0.12c-0.12,0,0-0.12,0-0.12l23.14-19.67l-29.5,3.48v-0.24l28.54-8.39l-28.66-8.39
	c-0.12,0-0.12-0.12,0-0.24l29.5,3.12l-23.14-18.95l0.12-0.12l26.02,14.27L71,160.81c0,0,0.12-0.12,0.12,0l18.23,23.62l-2.16-30.7
	c0-0.12,0.12,0,0.24,0l7.67,29.5l8.75-28.66h0.24l-3.72,29.5l19.19-22.42c0.12,0,0.12,0,0.12,0.12l-14.63,25.9l26.5-13.43
	c0-0.12,0.24,0,0.24,0l-23.62,17.87l30.22-1.92v0.12l-29.38,7.31l28.3,9.95l0.24,0.12c0,0,0,0.12-0.12,0.12l-30.1-4.56l23.26,20.03
	c0,0.12,0,0.24-0.12,0.24l-17.75-9.83l12.71,21.1v0.12c7.43-5.88,12.83-14.15,15.47-22.78c4.2-12.95,2.28-27.46-4.56-38.85
	C130.24,162.73,119.68,154.81,108.65,151.57L108.65,151.57z M224.25,250.02h12.95l0.72-2.4h-7.55l0.72-2.4h6.96l0.72-2.28h-6.96
	l0.72-2.4h7.43l0.72-2.4h-12.95L224.25,250.02z M180.12,246.07l-2.16-7.91h-8.27l-3.6,11.87h4.92l2.52-8.39l2.28,8.39h7.91
	l3.6-11.87h-4.92L180.12,246.07z M403.04,230.72l13.55-48.09h-22.78l-13.55,48.09L403.04,230.72z M372.94,230.72l18.47-65.83h-22.78
	l-18.47,65.83H372.94z M421.51,164.88h-22.78L395,178.08h22.78L421.51,164.88z M245.11,164.88h-22.78l-3.72,13.19h22.78
	L245.11,164.88z M226.65,230.72l13.55-48.09h-22.78l-13.55,48.09L226.65,230.72z M180.12,206.02h24.1l4.08-14.39h-24.1l3.12-11.27
	h24.1l4.56-15.59h-47.25l-18.47,65.83h23.02L180.12,206.02z M392.13,241.03h4.44l-2.76,8.99h5.64l2.76-8.99h4.44l0.84-2.88h-14.51
	L392.13,241.03z M489.5,182.63l-12.35,26.62l0.36-26.5v-0.12H458.8h-4.32h-8.03l3-10.67h-22.78l-12.47,43.89
	c-0.72,2.52-0.96,4.68-0.96,6.72c0,4.92,2.52,8.27,9.23,8.27h20.27l3.36-11.87h-4.92c-3.12,0-3.96-0.72-3.96-2.88
	c0-1.2,0.36-2.88,0.84-4.32l5.16-18.23h12.11l3.48,37.29c-0.36,2.04-1.08,3.48-2.04,4.44c-0.36,0.24-0.72,0.48-1.08,0.72
	c-1.92,0.84-6.24,0.72-7.79,0.6h-0.24v0.12h-0.12l-3.6,13.07h15.59c9.23,0,13.67-4.68,20.27-14.87L513,182.75h-23.5L489.5,182.63z
	 M425.34,237.91c-5.4,0-8.51,1.2-9.23,3.72c-0.24,0.72-0.24,1.56,0.36,2.04c1.44,1.44,7.67,1.92,8.15,2.64
	c0.12,0.12,0.12,0.36,0.12,0.6c-0.24,0.96-1.68,1.2-2.76,1.2c-0.72,0-1.68-0.12-2.04-0.48c-0.24-0.36-0.24-0.84-0.12-1.08h-5.28
	c-0.48,1.8-0.72,3.72,6.6,3.72c6.12,0,8.99-1.56,9.71-3.84c0.36-1.2,0-1.8-0.36-2.16c-1.32-1.44-7.43-1.92-8.15-2.64
	c-0.12-0.12-0.12-0.36-0.12-0.6c0.24-0.6,0.96-0.96,2.16-0.96c0.72,0,1.8,0.12,2.16,0.36c0.36,0.24,0.48,0.6,0.36,0.96h5.04
	C432.3,239.35,430.98,237.91,425.34,237.91L425.34,237.91z M498.13,225.68c0,2.76-2.28,5.04-5.04,5.04c-2.76,0-5.04-2.28-5.04-5.04
	c0-2.76,2.28-5.04,5.04-5.04C495.85,220.64,498.13,222.92,498.13,225.68z M497.17,225.68c0-2.28-1.8-4.08-4.08-4.08
	s-4.08,1.8-4.08,4.08c0,2.28,1.8,4.08,4.08,4.08C495.37,229.88,497.17,227.96,497.17,225.68z M375.58,246.07l-2.16-7.91h-8.27
	l-3.6,11.87h4.92l2.64-8.39l2.28,8.39h8.03l3.6-11.87h-4.92L375.58,246.07z M264.9,225.32c-4.56,3.84-9.11,6.48-16.43,6.48
	c-7.43,0-12.11-3.48-12.11-11.03c0-8.27,3.24-20.63,8.15-29.26c3.48-6.48,9.83-9.83,17.39-9.83c6.48,0,11.15,2.88,13.07,6.36
	l6.36-23.26h22.78l-18.47,65.83h-22.3L264.9,225.32z M267.66,214.65l4.56-15.83c-0.84-1.2-2.16-1.92-3.6-1.92
	c-2.04,0-4.08,0.6-5.16,3.48c-1.68,4.08-3.24,8.03-3.24,11.99c0,1.8,1.32,3.48,3.48,3.48C265.5,215.85,266.58,215.25,267.66,214.65
	L267.66,214.65z M493.81,226.04l1.32,2.16h-0.96l-1.32-2.16h-0.72v2.16h-0.96v-5.16h1.92c1.2,0,1.8,0.6,1.8,1.56
	C495.13,225.56,494.53,226.04,493.81,226.04L493.81,226.04z M492.85,225.32c0.6,0,1.2,0,1.2-0.72c0-0.72-0.6-0.72-1.2-0.72h-0.72
	v1.44L492.85,225.32z M261.3,238.03c-5.4,0-8.51,1.2-9.23,3.72c-0.24,0.72-0.24,1.56,0.36,2.04c1.44,1.44,7.67,1.92,8.15,2.64
	c0.12,0.12,0.12,0.36,0.12,0.6c-0.24,0.96-1.68,1.2-2.76,1.2c-0.72,0-1.68-0.12-2.04-0.48c-0.24-0.36-0.24-0.84-0.12-1.08h-5.28
	c-0.48,1.8-0.72,3.72,6.6,3.72c6.12,0,8.99-1.56,9.71-3.84c0.36-1.2,0-1.8-0.36-2.16c-1.32-1.44-7.43-1.92-8.15-2.64
	c-0.12-0.12-0.12-0.36-0.12-0.6c0.24-0.6,0.96-0.96,2.16-0.96c0.72,0,1.8,0.12,2.16,0.36c0.36,0.24,0.48,0.6,0.36,0.96h5.04
	C268.38,239.35,267.06,238.03,261.3,238.03L261.3,238.03z M340.44,238.15l-3.6,11.87h12.95l0.72-2.4h-7.55l0.72-2.4h6.96l0.72-2.28
	h-6.96l0.72-2.4h7.43l0.72-2.4H340.44z M278.93,241.03h4.44l-2.76,8.87h5.64l2.76-8.87h4.44l0.84-2.88h-14.51L278.93,241.03z
	 M315.14,246.07l-0.48-7.91h-8.63l-3.6,11.87h4.8l2.64-8.87l0.72,8.87h5.52l6.36-8.87l-2.76,8.87h5.28l3.6-11.87h-8.63
	L315.14,246.07z M319.94,231.92c-13.55,0-23.98-1.92-23.98-14.87c0-7.19,3.6-18.95,8.39-25.3c5.76-7.55,15.71-10.31,24.94-10.31
	c14.15,0,23.26,2.88,23.26,14.87c0,2.88-1.2,9.35-2.52,13.31h-31.42c-0.6,2.52-1.2,4.32-1.2,6.36c0,0.96,0.12,3.48,3.36,3.48
	s4.56-1.2,5.88-5.88h22.3C346.2,227.24,329.89,231.92,319.94,231.92L319.94,231.92z M321.26,200.38h9.35
	c0.24-0.96,0.6-2.52,0.6-3.36c0-2.64-1.56-3.48-3.96-3.48C324.38,193.54,322.46,195.46,321.26,200.38z" />
</svg>