<svg width="68" height="68" viewBox="0 0 68 68" fill="none" xmlns="http://www.w3.org/2000/svg">
<rect width="68" height="68" rx="6" fill="white"/>
<path d="M20.2823 5.00977L14.103 10.3276L21.6492 19.2925V49.4607L14.0078 57.191L19.7501 62.9903L29.7668 52.8644V16.274L20.2823 5.00977Z" fill="url(#paint0_linear_2004_32)"/>
<path d="M46.352 49.4607V19.2925L53.8981 10.3276L47.7188 5.00977L38.2344 16.274V52.8644L48.2511 62.9903L53.9933 57.191L46.352 49.4607Z" fill="url(#paint1_linear_2004_32)"/>
<path d="M20.2823 5.00977L14.103 10.3276L21.6492 19.2925V49.4607L14.0078 57.1911L19.7501 62.9902L29.7668 52.8644V16.274L20.2823 5.00977Z" fill="url(#paint2_linear_2004_32)"/>
<path d="M20.2823 5.00977L14.103 10.3276L21.6492 19.2925V49.4607L14.0078 57.1911L19.7501 62.9902L29.7668 52.8644V16.274L20.2823 5.00977Z" fill="url(#paint3_linear_2004_32)"/>
<path d="M46.3443 49.4607V19.2925L53.8904 10.3276L47.7111 5.00977L38.2266 16.274V52.8644L48.2434 62.9902L53.9856 57.1911L46.3443 49.4607Z" fill="url(#paint4_linear_2004_32)"/>
<path d="M46.3443 49.4607V19.2925L53.8904 10.3276L47.7111 5.00977L38.2266 16.274V52.8644L48.2434 62.9902L53.9856 57.1911L46.3443 49.4607Z" fill="url(#paint5_linear_2004_32)"/>
<defs>
<linearGradient id="paint0_linear_2004_32" x1="14.0078" y1="34" x2="29.7668" y2="34" gradientUnits="userSpaceOnUse">
<stop stop-color="#AC48FA"/>
<stop offset="0.56" stop-color="#54B8FD"/>
<stop offset="1" stop-color="#40FFFE"/>
</linearGradient>
<linearGradient id="paint1_linear_2004_32" x1="38.2344" y1="5.00977" x2="53.9933" y2="5.00977" gradientUnits="userSpaceOnUse">
<stop stop-color="#AC48FA"/>
<stop offset="0.56" stop-color="#54B8FD"/>
<stop offset="1" stop-color="#40FFFE"/>
</linearGradient>
<linearGradient id="paint2_linear_2004_32" x1="33.9964" y1="62.9902" x2="33.9964" y2="5.00977" gradientUnits="userSpaceOnUse">
<stop stop-color="#A54CF7"/>
<stop offset="0.5" stop-color="#6ABCFA"/>
<stop offset="1" stop-color="#6BF9F5"/>
</linearGradient>
<linearGradient id="paint3_linear_2004_32" x1="33.9964" y1="62.9902" x2="33.9964" y2="5.00977" gradientUnits="userSpaceOnUse">
<stop stop-color="#A54CF7"/>
<stop offset="0.5" stop-color="#6ABCFA"/>
<stop offset="1" stop-color="#6BF9F5"/>
</linearGradient>
<linearGradient id="paint4_linear_2004_32" x1="33.9969" y1="62.9902" x2="33.9969" y2="5.00977" gradientUnits="userSpaceOnUse">
<stop stop-color="#A54CF7"/>
<stop offset="0.5" stop-color="#6ABCFA"/>
<stop offset="1" stop-color="#6BF9F5"/>
</linearGradient>
<linearGradient id="paint5_linear_2004_32" x1="33.9969" y1="62.9902" x2="33.9969" y2="5.00977" gradientUnits="userSpaceOnUse">
<stop stop-color="#A54CF7"/>
<stop offset="0.5" stop-color="#6ABCFA"/>
<stop offset="1" stop-color="#6BF9F5"/>
</linearGradient>
</defs>
</svg>
