<svg width="145" height="58" viewBox="0 0 145 58" fill="none" xmlns="http://www.w3.org/2000/svg">
<g clip-path="url(#clip0_2078_1529)">
<path d="M52.9062 27.4483V11.2344H58.6821C63.4496 11.2344 66.7716 14.5247 66.7716 19.2479C66.7716 23.9711 63.4496 27.4483 58.6821 27.4483H52.9062ZM55.6569 24.9452H58.867C61.8473 24.9452 63.9313 22.6062 63.9313 19.2479C63.9313 16.0765 61.8473 13.7375 58.867 13.7375H55.6569V24.9452Z" fill="black"/>
<path d="M68.25 21.3532C68.25 17.2983 70.8831 14.8008 74.2723 14.8008C77.6617 14.8008 79.9978 17.2304 80.0706 21.2173V21.8629H70.9503C71.1351 24.0149 72.4629 25.476 74.5245 25.476C75.9194 25.476 76.9783 24.7794 77.3872 23.5562H80.0203C79.404 26.1952 77.3648 27.7923 74.502 27.7923C70.7934 27.7923 68.25 25.1079 68.25 21.3532ZM77.2752 19.9374C76.9334 18.1761 75.8522 17.1114 74.2723 17.1114C72.6926 17.1114 71.4769 18.1761 71.0623 19.9374H77.2695H77.2752Z" fill="black"/>
<path d="M81.9956 27.4468V15.1688H84.1692L84.3765 16.8849C85.1328 15.6786 86.6229 14.8008 88.4325 14.8008C90.242 14.8008 91.5025 15.6786 92.1411 17.0944C92.8303 15.7975 94.3877 14.8008 96.3092 14.8008C98.8526 14.8008 100.477 16.63 100.477 19.2691V27.4468H97.7489V19.4107C97.7489 18.0459 96.9254 17.1623 95.6201 17.1623C93.7657 17.1623 92.5949 18.3913 92.5725 20.011V27.4468H89.8667V19.4107C89.8667 18.0459 89.0431 17.1623 87.7379 17.1623C85.8834 17.1623 84.7127 18.3913 84.6902 20.011V27.4468H81.9844H81.9956Z" fill="black"/>
<path d="M102.305 24.0432C102.327 21.172 105.145 20.5717 107.504 20.2941C109.336 20.0846 110.686 20.0167 110.714 19.0425C110.691 17.8362 109.773 17.0491 108.215 17.0491C106.658 17.0491 105.465 17.9269 105.308 19.2012H102.579C102.831 16.6074 105.123 14.8008 108.26 14.8008C111.397 14.8008 113.347 16.6074 113.347 19.2238V24.7794C113.347 25.1249 113.532 25.3118 113.941 25.3118H114.607V27.4412H113.324C112.086 27.4412 111.33 26.9315 111.123 26.0028C111.078 25.8837 111.033 25.7252 111.011 25.5836C110.299 26.9032 108.972 27.6903 106.91 27.6903C104.114 27.6903 102.283 26.3255 102.305 24.0318V24.0432ZM110.714 22.8369V21.121C110.254 21.8402 109.089 21.9988 107.806 22.163C106.294 22.35 105.033 22.5595 105.033 23.8564C105.033 24.9211 105.879 25.5496 107.459 25.5496C109.313 25.5496 110.714 24.485 110.714 22.8426V22.8369Z" fill="black"/>
<path d="M116.201 27.4468V15.1688H118.375L118.604 16.9754C119.361 15.7012 120.896 14.8008 122.705 14.8008C125.293 14.8008 126.991 16.562 126.991 19.3144V27.4412H124.285V19.4503C124.285 18.0855 123.395 17.1794 121.882 17.1794C120.117 17.1794 118.924 18.4083 118.901 20.0053V27.4412H116.195L116.201 27.4468Z" fill="black"/>
<path d="M128.766 21.2405C128.766 17.4404 131.078 14.8013 134.311 14.8013C136.031 14.8013 137.449 15.5206 138.301 16.6759V10.0781H141.006V27.4473H138.826L138.575 25.2727C137.885 26.8244 136.373 27.7985 134.406 27.7985C131.129 27.7985 128.77 25.1141 128.77 21.246L128.766 21.2405ZM138.295 21.2178C138.295 18.7883 136.922 17.0949 134.95 17.0949C132.978 17.0949 131.539 18.8109 131.539 21.2631C131.539 23.7153 132.91 25.4765 134.905 25.4765C136.899 25.4765 138.295 23.7153 138.295 21.2178Z" fill="black"/>
<path d="M52.1641 42.4901C52.1641 37.5801 55.234 34.0859 60.2256 34.0859C64.3936 34.0859 67.2564 36.5381 67.9454 40.6836H65.1275C64.6233 38.1352 62.769 36.5834 60.2256 36.5834C56.993 36.5834 54.9819 38.877 54.9819 42.4901C54.9819 46.1033 56.9987 48.4649 60.2256 48.4649C62.8138 48.4649 64.6233 46.9586 65.1275 44.3873H67.9454C67.2116 48.6008 64.416 50.9851 60.2256 50.9851C55.3013 50.9851 52.1641 47.5589 52.1641 42.4845V42.4901Z" fill="black"/>
<path d="M69.4924 47.2346C69.5149 44.3634 72.3327 43.7629 74.6912 43.4855C76.5232 43.276 77.8733 43.208 77.9013 42.2339C77.8789 41.0276 76.9601 40.2404 75.4027 40.2404C73.8453 40.2404 72.6521 41.1183 72.4952 42.3925H69.7669C70.019 39.7988 72.3103 37.9922 75.4475 37.9922C78.5847 37.9922 80.5344 39.7988 80.5344 42.4152V47.9708C80.5344 48.322 80.7193 48.5031 81.1282 48.5031H81.7948V50.6326H80.5119C79.2738 50.6326 78.5176 50.1229 78.3103 49.194C78.2655 49.0751 78.2207 48.9166 78.1982 48.775C77.4867 50.0945 76.159 50.8817 74.0975 50.8817C71.3019 50.8817 69.47 49.5169 69.4924 47.2233V47.2346ZM77.9013 46.034V44.3181C77.4419 45.0373 76.2767 45.1958 74.9938 45.36C73.4812 45.5469 72.2207 45.7508 72.2207 47.0477C72.2207 48.1123 73.0666 48.7354 74.6464 48.7354C76.5007 48.7354 77.9013 47.6707 77.9013 46.0283V46.034Z" fill="black"/>
<path d="M83.4196 55.2729V38.3681H85.5933L85.8678 40.3842C86.6688 38.9458 88.2487 38 90.1759 38C93.3859 38 95.6492 40.639 95.6492 44.4391C95.6492 48.2392 93.3803 50.9915 90.1534 50.9915C88.4111 50.9915 86.9714 50.2043 86.1422 48.9301V55.2786H83.4141L83.4196 55.2729ZM92.8817 44.4334C92.8817 42.0039 91.5316 40.3106 89.5372 40.3106C87.5428 40.3106 86.1479 41.9812 86.1479 44.3655C86.1479 46.8913 87.5428 48.6753 89.5596 48.6753C91.5764 48.6753 92.8817 46.9366 92.8817 44.4391V44.4334Z" fill="black"/>
<path d="M102.622 50.6427C99.9894 50.6427 98.5663 49.3232 98.5663 46.8936V40.6867H96.4375V38.3704H98.5663V34.1797H101.272V38.3704H104.409V40.6867H101.272V46.7067C101.272 47.7488 101.799 48.3265 102.807 48.3265H104.18V50.6427H102.622Z" fill="black"/>
<path d="M105.984 46.4918V38.3651H108.69V46.3785C108.69 47.766 109.654 48.5758 111.094 48.5758C112.948 48.5758 114.046 47.347 114.074 45.7725V38.3594H116.78V50.6317H114.601L114.393 48.8477C113.682 50.1672 112.242 50.9772 110.545 50.9772C107.659 50.9772 105.984 49.1479 105.984 46.4861V46.4918Z" fill="black"/>
<path d="M119.347 50.6404V38.3681H121.521L121.84 40.7749C122.619 39.1043 124.041 38.2266 126.053 38.2266H126.512V40.8883H126.053C123.532 40.8883 122.042 42.2531 122.042 44.5693V50.6347H119.336L119.347 50.6404Z" fill="black"/>
<path d="M127.139 44.5523C127.139 40.4975 129.772 38 133.161 38C136.551 38 138.886 40.4295 138.959 44.4165V45.0621H129.838C130.023 47.2141 131.351 48.6753 133.413 48.6753C134.808 48.6753 135.867 47.9787 136.275 46.7553H138.908C138.292 49.3945 136.253 50.9915 133.385 50.9915C129.676 50.9915 127.133 48.3071 127.133 44.5523H127.139ZM136.164 43.1422C135.822 41.3809 134.74 40.3163 133.161 40.3163C131.581 40.3163 130.365 41.3809 129.951 43.1422H136.158H136.164Z" fill="black"/>
<path d="M139.961 37.7995C139.961 36.5196 140.868 35.5625 142.185 35.5625C143.501 35.5625 144.398 36.48 144.398 37.7995C144.398 39.1191 143.49 40.0478 142.185 40.0478C140.879 40.0478 139.961 39.1303 139.961 37.7995ZM143.905 37.7995C143.905 36.7801 143.199 36.0156 142.179 36.0156C141.16 36.0156 140.448 36.7462 140.448 37.7995C140.448 38.8529 141.155 39.5891 142.179 39.5891C143.205 39.5891 143.905 38.8586 143.905 37.7995ZM141.34 38.819V36.7801H142.432C142.84 36.7801 143.121 37.035 143.121 37.3861C143.121 37.6466 142.953 37.8505 142.712 37.9297C142.846 37.9525 142.936 38.0204 142.987 38.1846L143.188 38.8133H142.762L142.594 38.2752C142.572 38.1846 142.504 38.1337 142.392 38.1337H141.754V38.8133H141.34V38.819ZM141.754 37.7769H142.437C142.622 37.7769 142.712 37.6239 142.712 37.4654C142.712 37.3125 142.622 37.1596 142.437 37.1596H141.754V37.7769Z" fill="black"/>
<path d="M6.87603 0.0117188L0.6968 5.32952L8.24297 14.2945V44.4627L0.601562 52.193L6.34382 57.9922L16.3605 47.8663V11.2759L6.87603 0.0117188Z" fill="url(#paint0_linear_2078_1529)"/>
<path d="M32.938 44.4627V14.2945L40.4842 5.32952L34.3049 0.0117188L24.8203 11.2759V47.8663L34.8372 57.9922L40.5794 52.193L32.938 44.4627Z" fill="url(#paint1_linear_2078_1529)"/>
</g>
<defs>
<linearGradient id="paint0_linear_2078_1529" x1="20.5902" y1="57.9922" x2="20.5902" y2="0.0117188" gradientUnits="userSpaceOnUse">
<stop stop-color="#A54CF7"/>
<stop offset="0.5" stop-color="#6ABCFA"/>
<stop offset="1" stop-color="#6BF9F5"/>
</linearGradient>
<linearGradient id="paint1_linear_2078_1529" x1="20.5907" y1="57.9922" x2="20.5907" y2="0.0117188" gradientUnits="userSpaceOnUse">
<stop stop-color="#A54CF7"/>
<stop offset="0.5" stop-color="#6ABCFA"/>
<stop offset="1" stop-color="#6BF9F5"/>
</linearGradient>
<clipPath id="clip0_2078_1529">
<rect width="145" height="58" fill="white"/>
</clipPath>
</defs>
</svg>
