<svg width="100" height="100" viewBox="0 0 100 100" fill="none" xmlns="http://www.w3.org/2000/svg">
<g clip-path="url(#clip0_7_10131)">
<path d="M26.7503 62.9368C27.6841 62.3982 28.0038 61.2026 27.4651 60.2688C26.9257 59.3357 25.731 59.0153 24.7971 59.5539C23.8633 60.0933 23.5429 61.2889 24.0823 62.2219C24.6209 63.1558 25.8164 63.4762 26.7503 62.9368Z" fill="#9E59F7"/>
<path d="M18.7469 76.4152L28.5827 93.4524C30.7052 97.1328 35.4797 98.4955 39.2555 96.3127C42.9916 94.1536 44.2756 89.3799 42.1142 85.6407L36.2549 75.4905L41.3292 72.5609C42.263 72.0207 42.5834 70.8267 42.044 69.8929L39.5042 65.4937C39.8071 65.435 41.7984 65.0444 76.9142 58.1558C81.2553 57.92 83.8562 53.1723 81.6635 49.3766L75.1724 38.134L79.3205 31.8512C79.7279 31.2332 79.7523 30.439 79.3823 29.7981L75.4761 23.0323C75.106 22.3915 74.4034 22.0161 73.6671 22.0596L66.1529 22.5105L58.947 10.0288C57.9033 8.22064 56.0333 7.12582 53.9459 7.09988C53.9207 7.09912 53.8963 7.09912 53.8711 7.09912C51.8539 7.09912 50.0229 8.10315 48.938 9.80069L23.4237 42.3034L6.83667 51.8799C0.312774 55.645 -1.94705 64.0144 1.83255 70.5558C5.28561 76.5373 12.5656 78.8902 18.7469 76.4152ZM38.7321 87.5946C39.8109 89.4607 39.1723 91.8487 37.3008 92.9298C35.4233 94.0155 33.0322 93.3487 31.9656 91.5001L22.2 74.5834L28.9657 70.6772C40.2679 90.2557 38.5505 87.281 38.7321 87.5946ZM34.3017 72.1069L32.3486 68.724L35.7315 66.7709L37.6846 70.1538L34.3017 72.1069ZM72.6967 26.0307L75.3959 30.706L72.9889 34.3513L68.3365 26.2924L72.6967 26.0307ZM52.2049 11.9423C52.729 11.0847 53.5606 10.9962 53.8978 11.0054C54.2312 11.0092 55.0621 11.1129 55.5633 11.9812L78.2806 51.3298C79.0207 52.6107 78.1212 54.2213 76.6372 54.2579C76.371 54.264 76.2481 54.3121 75.5661 54.4395L51.5358 12.8174C52.0401 12.1689 52.1049 12.1063 52.2049 11.9423ZM48.9364 16.1285L71.5141 55.2345L37.4397 61.9178L27.079 43.9727L48.9364 16.1285ZM5.21542 68.6027C4.35788 67.1188 3.90469 65.4342 3.90469 63.7298C3.90469 60.2462 5.77695 57.0022 8.78979 55.2627L24.0127 46.4737L33.7784 63.388L18.5554 72.1779C13.8916 74.8695 7.90784 73.2658 5.21542 68.6027Z" fill="#9E59F7"/>
<path d="M20.6996 64.1736C20.1602 63.2398 18.9655 62.9193 18.0316 63.4587L14.6488 65.4119C13.7165 65.9505 12.5194 65.6293 11.9808 64.697C11.4414 63.7631 10.2466 63.4427 9.31277 63.9821C8.37893 64.5215 8.05849 65.7163 8.59789 66.6501C10.2054 69.4348 13.7912 70.4167 16.6019 68.7947L19.9848 66.8416C20.9186 66.3022 21.239 65.1082 20.6996 64.1736Z" fill="#9E59F7"/>
<path d="M97.098 11.2779L86.2147 17.3341C85.2725 17.859 84.933 19.0484 85.4579 19.9906C85.9813 20.9321 87.1699 21.2731 88.1144 20.7475L98.997 14.6912C99.94 14.1663 100.279 12.9769 99.7538 12.0347C99.2297 11.0917 98.0403 10.753 97.098 11.2779Z" fill="#9E59F7"/>
<path d="M95.9551 31.5064L88.4088 29.4846C87.3666 29.2053 86.2955 29.8233 86.0162 30.8655C85.737 31.9077 86.3558 32.9781 87.3979 33.2573L94.9449 35.2791C95.9932 35.5606 97.059 34.9327 97.3367 33.8982C97.616 32.856 96.9972 31.7848 95.9551 31.5064Z" fill="#9E59F7"/>
<path d="M76.9935 4.18189L74.9694 11.7289C74.6902 12.7711 75.3082 13.8415 76.3503 14.1215C77.3918 14.3999 78.4629 13.7835 78.7429 12.7405L80.7662 5.19355C81.0455 4.15137 80.4275 3.0802 79.3853 2.80097C78.3439 2.52173 77.2727 3.13971 76.9935 4.18189Z" fill="#9E59F7"/>
</g>
<defs>
<clipPath id="clip0_7_10131">
<rect width="100" height="100" fill="white" transform="translate(0 -0.000488281)"/>
</clipPath>
</defs>
</svg>
