<svg width="91" height="91" viewBox="0 0 91 91" fill="none" xmlns="http://www.w3.org/2000/svg">
<g clip-path="url(#clip0_7_10126)">
<path d="M6.6478 30.6653V34.4734C6.6478 35.2826 7.13302 36.0001 7.88395 36.3018C8.63328 36.6027 9.48054 36.4215 10.0413 35.8359L14.9676 30.691H30.5956C33.6736 30.691 36.1778 28.1868 36.1778 25.1088V22.0906H39.8262L43.1598 29.0569C43.4929 29.7531 44.1793 30.1857 44.9512 30.1857C45.7231 30.1857 46.4095 29.7531 46.7425 29.0569L50.0761 22.0906H54.8209V25.1088C54.8209 28.1868 57.325 30.691 60.4032 30.691H76.0312L80.9575 35.8359C81.517 36.4203 82.3635 36.6032 83.1148 36.3018C83.8658 36.0001 84.351 35.2826 84.351 34.4734V30.6912H84.5335C87.6115 30.6912 90.1158 28.1869 90.1158 25.1089V14.6478C90.1158 11.5698 87.6115 9.06556 84.5335 9.06556H63.4818V5.6863C63.4818 2.55053 60.9307 -0.000488281 57.795 -0.000488281H33.0719C29.9363 -0.000488281 27.3853 2.55053 27.3853 5.6863V9.06574H15.6134C14.8773 9.06574 14.2804 9.66257 14.2804 10.3987C14.2804 11.1349 14.8773 11.7318 15.6134 11.7318H27.3853V16.4042C27.3853 19.5398 29.9363 22.0908 33.0719 22.0908H33.5115V25.1089C33.5115 26.7169 32.2033 28.0252 30.5952 28.0252H14.7217C14.1544 28.0252 13.604 28.2602 13.2115 28.67L9.31364 32.7408V30.1161C9.31364 28.9633 8.37574 28.0252 7.22278 28.0252C5.19696 28.0252 3.54865 26.3771 3.54865 24.3511V14.6478C3.54865 13.0399 4.85678 11.7316 6.46492 11.7316H9.49547C10.2316 11.7316 10.8285 11.1347 10.8285 10.3986C10.8285 9.6624 10.2316 9.06556 9.49547 9.06556H6.46509C3.38709 9.06556 0.882812 11.5698 0.882812 14.6478V24.3509C0.882812 27.653 3.42033 30.3736 6.6478 30.6653ZM84.5331 11.7316C86.1411 11.7316 87.4494 13.0399 87.4494 14.6478V25.1088C87.4494 26.7167 86.1411 28.025 84.5331 28.025H83.7753C82.6225 28.025 81.6844 28.9629 81.6844 30.1159V32.7407L77.7865 28.6698C77.3941 28.26 76.8436 28.025 76.2763 28.025H60.4027C58.7947 28.025 57.4864 26.7167 57.4864 25.1088V22.0906H57.7948C60.9304 22.0906 63.4814 19.5396 63.4814 16.404V11.7316H84.5331ZM30.0513 16.404V5.6863C30.0513 4.02057 31.4064 2.66553 33.0719 2.66553H57.795C59.4605 2.66553 60.8156 4.02057 60.8156 5.6863V16.4042C60.8156 18.0698 59.4605 19.4248 57.795 19.4248H49.7251C48.9177 19.4248 48.1706 19.8955 47.8223 20.6238L44.9508 26.6241L42.0793 20.6235C41.7308 19.8951 40.9838 19.4246 40.1765 19.4246H33.0719C31.4064 19.4246 30.0513 18.0696 30.0513 16.404Z" fill="#956DF8"/>
<path d="M90.038 83.6454C90.0092 82.9096 89.3864 82.3365 88.654 82.3655C87.9184 82.3943 87.3453 83.0139 87.3741 83.7495L87.5135 87.314C87.535 87.8676 87.0951 88.3324 86.5304 88.3324C86.5295 88.3324 86.5285 88.3324 86.5274 88.3324H79.4308V84.0645C79.4308 83.3443 79.2641 82.6623 78.9677 82.0548C80.007 81.8551 80.7613 81.136 81.0351 80.8741L86.053 76.0743C86.406 75.7366 86.7306 75.3756 87.032 74.9984L87.1369 77.6806C87.1649 78.3987 87.7557 78.9615 88.4679 78.9615C88.4855 78.9615 88.5033 78.9612 88.5209 78.9605C89.2565 78.9317 89.8295 78.3121 89.8007 77.5765L89.3496 66.0356C89.337 64.0219 88.3469 61.3911 86.5198 60.0847L86.2876 57.6681C87.4355 56.58 89.6689 53.8187 88.8893 49.3229L88.2994 45.9195C87.5188 41.415 83.2409 38.3999 78.7355 39.1814L71.6084 40.4168C70.369 40.6315 69.554 41.825 69.8046 43.0574C69.9949 43.9937 70.4032 44.8262 70.9657 45.5132C69.5502 48.522 70.3371 50.8587 70.1762 51.1044L68.9882 52.8876C68.0103 54.3556 69.0039 56.3372 70.7666 56.4302L71.4292 56.465L71.6525 58.7892C71.805 60.3746 73.2142 61.5283 74.7896 61.3731L76.5266 61.2048C76.543 61.2061 76.5595 61.2183 76.5611 61.2373L76.6612 62.2449C71.8378 66.7633 71.3194 72.8583 71.2988 72.9255L63.506 73.2184C62.6292 73.2438 61.8024 73.4475 61.0575 73.7923L60.8165 71.4199C60.3964 67.2837 57.3951 63.8627 53.3488 62.9073L50.3099 62.1898C50.3094 62.1157 50.3096 62.0633 50.3098 60.3028C52.0109 59.0725 52.9754 57.3988 53.2952 55.536C54.2857 55.202 54.9995 54.2582 54.9948 53.1536L54.9895 50.6573C54.9884 50.4066 54.9477 50.16 54.8745 49.9242C54.9037 49.798 54.9207 49.6672 54.9207 49.5323V45.3209C54.9207 43.7047 53.606 42.3899 51.9899 42.3899C51.698 42.3899 51.7069 42.0264 51.5607 41.7171C51.1423 40.5603 50.0346 39.7828 48.8044 39.7828H37.5013C36.1232 39.7828 35.002 40.904 35.002 42.2821V44.0415C35.002 45.9469 36.0347 47.6147 37.5691 48.5174C36.5473 49.0094 35.869 50.0388 35.8699 51.2195L35.871 52.728C35.872 54.1091 36.8123 55.2744 38.0861 55.6188C38.3836 57.2483 39.2028 58.7791 40.555 59.9143C40.555 62.2058 40.555 62.1111 40.5537 62.1905L37.5159 62.9077C33.4694 63.863 30.4684 67.2839 30.0482 71.4203L29.8133 73.7338C29.1043 73.4248 28.3247 73.2429 27.5015 73.2191L19.6973 72.9259C19.6445 72.7545 19.3081 66.9039 14.3349 62.2453L14.4355 61.2334C14.4369 61.2187 14.4543 61.2057 14.4696 61.2054L16.2057 61.3737C17.787 61.5279 19.1915 60.372 19.3438 58.7898L19.5671 56.4655L20.2296 56.4307C21.0463 56.3877 21.7814 55.9071 22.1483 55.1762C22.5151 54.4454 22.4615 53.5686 22.0081 52.8881L20.8254 51.1129C20.6464 50.8397 21.4519 48.5352 20.0311 45.5146C20.5936 44.8275 21.0015 43.9943 21.1919 43.0578C21.4423 41.8254 20.6271 40.6319 19.3881 40.4174L12.2609 39.1819C7.75572 38.4011 3.47783 41.4145 2.69704 45.92L2.10714 49.3235C1.32778 53.8192 3.56119 56.5807 4.70882 57.6688L4.4767 60.0854C3.57292 60.7315 2.83887 61.6959 2.33055 62.9146C1.8329 64.1079 1.65143 65.3034 1.64681 66.0364L0.819279 87.21C0.737521 89.298 2.41196 90.9986 4.45857 90.9986H4.46923H86.5237H86.5345C88.6028 90.9986 90.2586 89.2829 90.1775 87.21L90.038 83.6454ZM79.1912 41.8085C82.2449 41.2799 85.1437 43.3215 85.6729 46.375L86.2628 49.7785C86.7467 52.5707 85.6487 54.4035 84.8553 55.3204C84.1676 54.621 83.2345 53.387 82.9873 51.6676C82.7875 50.2772 81.4874 49.2717 80.0508 49.5206L80.0094 49.5278C79.8288 49.5588 79.6571 49.4381 79.6256 49.2582L79.2787 47.2824C78.9936 45.6577 77.44 44.565 75.8138 44.8469C74.3807 45.095 73.0196 44.2754 72.5401 42.9616L79.1912 41.8085ZM76.2696 58.5518L74.5319 58.7203C74.4173 58.7309 74.3174 58.6481 74.3066 58.5349L74.046 55.8234C73.8438 53.7201 71.5995 53.8109 71.5817 53.804L72.4002 52.5751C73.4675 50.9483 72.181 49.8024 73.1703 47.1435C73.8288 47.4128 74.5453 47.5585 75.2871 47.5585C75.6103 47.5585 75.9389 47.5308 76.2691 47.4736C76.449 47.4425 76.621 47.5633 76.6527 47.7432L76.9996 49.7193C77.2792 51.3112 78.7769 52.3919 80.367 52.17C80.8371 55.1435 82.6871 57.0266 83.623 57.8087L83.8214 59.875L79.2263 61.0928L79.2149 60.9787C79.0723 59.4947 77.7553 58.4076 76.2696 58.5518ZM78.6998 63.9904L85.0449 62.3087C86.9721 63.7875 86.6852 67.1733 86.7514 67.8192C86.7515 67.8306 86.7505 67.8418 86.751 67.8531C86.8464 70.2179 85.9204 72.5121 84.2103 74.1478L79.1923 78.9477C78.7124 79.4068 78.4867 79.4423 78.4289 79.4423C72.7263 79.4875 74.2826 79.4546 67.4387 79.4654V75.7385L75.1737 75.4477C75.7174 75.4321 76.241 75.1939 76.6107 74.7944L80.6272 70.4509C81.127 69.9104 81.0939 69.0671 80.5534 68.5673C80.0127 68.0673 79.1692 68.1004 78.6698 68.641L74.8305 72.7927L74.0042 72.8238C74.4836 69.4133 76.1424 66.2919 78.6998 63.9904ZM63.5952 75.8834L64.7727 75.8391V79.4658H60.1961C60.1779 79.464 60.1456 79.456 60.1456 79.4233C60.1456 77.4792 61.6821 75.939 63.5952 75.8834ZM37.6684 42.449H48.8047C48.916 42.449 49.016 42.5192 49.0539 42.6239C49.1133 42.7085 49.5931 45.056 51.9902 45.056C52.1363 45.056 52.2551 45.175 52.2551 45.3211V48.6072C51.627 48.5848 51.4103 48.0749 51.1295 47.8148C50.4292 47.0213 49.4206 46.5661 48.3622 46.5661H40.1926C38.8008 46.5661 37.6684 45.4337 37.6684 44.0417V42.449ZM39.2956 53.0561C39.2954 53.0561 39.2952 53.0561 39.295 53.0561L38.8679 53.0562C38.8679 53.0562 38.8679 53.0562 38.8678 53.0562C38.6858 53.0562 38.5375 52.9082 38.5374 52.7262L38.5363 51.2177C38.5361 51.0356 38.6827 50.8873 38.8665 50.8873L39.2794 50.8872C40.0172 50.8866 40.6145 50.2864 40.6115 49.5486L40.6103 49.2323H48.362C48.6558 49.2323 48.9359 49.3586 49.1301 49.5789C49.3239 49.7351 50.2543 51.2741 52.2913 51.2741H52.3251L52.3288 53.0006L52.0672 53.0017C51.342 53.0049 50.7527 53.5869 50.7402 54.3119C50.6908 57.2125 48.2795 59.1232 45.7041 59.1699C43.1556 59.1452 40.7025 57.2852 40.6282 54.3555C40.6097 53.6324 40.0186 53.0561 39.2956 53.0561ZM47.6439 61.5724C47.6432 62.1591 47.629 62.5504 47.7072 62.9639C46.3319 63.8849 44.5306 63.8849 43.1547 62.9615C43.2374 62.5204 43.2212 62.0832 43.2212 61.424C44.6951 61.919 46.1463 61.9673 47.6439 61.5724ZM38.1287 65.5024L41.1479 64.7897C42.3567 65.7813 43.852 66.3197 45.4327 66.3197C47.0137 66.3197 48.5088 65.7813 49.7176 64.7897L52.7367 65.5024C55.6779 66.1967 57.8592 68.6832 58.1647 71.6897L58.589 75.8651C57.8891 76.8709 57.4797 78.096 57.4797 79.4231C57.4797 79.4375 57.4815 79.4512 57.4819 79.4656H33.5149C33.5151 79.4514 33.5171 79.4375 33.5171 79.4231C33.5171 78.0244 33.063 76.7384 32.293 75.7039L32.7007 71.6897C33.0063 68.6833 35.1876 66.1968 38.1287 65.5024ZM29.9802 77.093C30.5224 77.7147 30.8511 78.5275 30.8511 79.4235C30.8511 79.4562 30.8187 79.4642 30.8006 79.466H26.2239V75.8393C27.1437 75.984 28.324 75.4796 29.9802 77.093ZM19.0387 53.8237C17.9525 53.8809 17.0548 54.7406 16.9504 55.8236L16.6901 58.5345C16.6792 58.6469 16.5808 58.7309 16.4638 58.7201L14.727 58.5518C13.2374 58.4076 11.9238 59.5 11.7823 60.9741L11.7706 61.0928L7.17541 59.875L7.37377 57.8087C8.30972 57.0266 10.1596 55.1435 10.6299 52.17C12.2197 52.3922 13.7176 51.3114 13.997 49.7193L14.344 47.7432C14.3756 47.5633 14.5477 47.4428 14.7275 47.4736C15.8156 47.6623 16.8801 47.529 17.8256 47.1423C18.2081 48.1692 18.3083 49.2648 18.1713 50.3433C18.1125 50.8072 18.003 51.6706 18.6014 52.5829L19.4147 53.8038L19.0387 53.8237ZM4.73388 49.7786C4.73388 49.7785 4.73388 49.7785 4.73388 49.7786L5.32378 46.3752C5.80011 43.6265 8.18566 41.7248 10.8359 41.7248C11.6838 41.7248 11.6614 41.8101 18.4566 42.9616C17.9794 44.2694 16.6222 45.0962 15.1829 44.8469C13.5575 44.565 12.0032 45.6577 11.7179 47.2824L11.371 49.2584C11.3394 49.4383 11.1679 49.5588 10.9878 49.528L10.9453 49.5206C10.2682 49.4029 9.58976 49.5609 9.03416 49.9644C8.4807 50.3664 8.1071 50.9872 8.00934 51.6676C7.76212 53.3877 6.8283 54.6221 6.14225 55.3202C5.34617 54.4006 4.25026 52.5687 4.73388 49.7786ZM5.95154 62.3087L12.2967 63.9904C14.8541 66.2919 16.513 69.4135 16.9922 72.8244L16.1661 72.7933L12.3039 68.6165C11.804 68.076 10.9606 68.043 10.4201 68.5428C9.87947 69.0425 9.84658 69.8861 10.3464 70.4266L14.3859 74.7951C14.7553 75.1945 15.2789 75.4325 15.8112 75.4477L23.5577 75.7389V79.4658C19.6433 79.4594 25.5611 79.4782 12.5675 79.4427C12.5098 79.4427 12.284 79.407 11.8042 78.9479L6.78618 74.148C5.07602 72.5123 4.15002 70.2179 4.24546 67.8533C4.246 67.8418 4.24493 67.8306 4.24511 67.8192C4.30021 67.2816 3.99824 63.8076 5.95154 62.3087ZM4.46532 88.3326C4.46443 88.3326 4.46337 88.3326 4.46248 88.3326C4.1941 88.3326 3.94367 88.2261 3.75723 88.0327C3.57007 87.8387 3.47267 87.5834 3.48316 87.314L3.96464 74.9986C4.2659 75.3758 4.59062 75.7367 4.9436 76.0744L9.9614 80.8741C10.2355 81.1363 10.9908 81.8567 12.0286 82.0555C11.7323 82.6629 11.5658 83.3445 11.5658 84.0645V88.3326H4.46532ZM14.2316 84.0647C14.2316 82.999 15.0986 82.1318 16.1643 82.1318C16.1837 82.1318 74.776 82.132 74.8323 82.1318C75.898 82.1318 76.765 82.999 76.765 84.0647V88.3326H14.2316V84.0647Z" fill="#956DF8"/>
</g>
<defs>
<clipPath id="clip0_7_10126">
<rect width="91" height="91" fill="white" transform="translate(0 -0.000488281)"/>
</clipPath>
</defs>
</svg>
