<svg width="102" height="102" viewBox="0 0 102 102" fill="none" xmlns="http://www.w3.org/2000/svg">
<path d="M91.9753 10.5321C87.7838 6.37238 79.6875 8.63551 73.7588 11.2971C67.075 14.2757 60.9346 18.3478 55.59 23.3458C53.7379 25.2105 51.9875 27.1737 50.3466 29.2268L30.8072 31.0755C30.5333 31.1002 30.2705 31.1954 30.0443 31.3518C29.8181 31.5082 29.6362 31.7205 29.5163 31.968L18.4557 54.9977C18.3401 55.2403 18.2878 55.5081 18.3035 55.7764C18.3193 56.0446 18.4026 56.3045 18.5457 56.5319C18.6888 56.7593 18.8871 56.9469 19.1221 57.0771C19.3572 57.2073 19.6213 57.276 19.89 57.2767H19.9857L37.8038 56.1771C38.5674 57.4905 39.482 58.71 40.5291 59.8108L33.7557 66.5842C33.5363 66.808 33.3878 67.0914 33.3287 67.3991C33.2696 67.7067 33.3024 68.025 33.4232 68.3141C33.5439 68.6032 33.7472 68.8503 34.0076 69.0245C34.268 69.1987 34.5739 69.2923 34.8872 69.2936C35.097 69.2948 35.3049 69.2546 35.4991 69.1753C35.6932 69.096 35.8699 68.9791 36.0188 68.8314L42.7603 62.1536C43.7382 63.0809 44.8059 63.9084 45.9478 64.6239L44.88 82.1552C44.8633 82.4322 44.9192 82.7088 45.0422 82.9576C45.1652 83.2064 45.351 83.4187 45.5813 83.5736C45.8406 83.7479 46.1454 83.8421 46.4578 83.8446C46.7007 83.8456 46.9405 83.791 47.1591 83.6852L70.125 72.6246C70.3725 72.5047 70.5848 72.3228 70.7412 72.0966C70.8976 71.8704 70.9928 71.6075 71.0175 71.3336L72.8822 51.7624C74.9788 50.1028 76.9795 48.3255 78.8747 46.4393C83.5947 41.2675 87.5209 35.4238 90.525 29.0993C93.4575 22.9155 96.1032 14.6599 91.9753 10.5321ZM32.0025 34.1674L47.8125 32.6693C43.3004 38.8018 39.9018 45.68 37.7719 52.9896L22.5038 53.9299L32.0025 34.1674ZM67.9735 70.1224L48.211 79.6849L49.1353 64.5761C56.4164 62.2841 63.2786 58.8288 69.4557 54.3442L67.9735 70.1224ZM76.6594 44.1921C68.4374 52.3424 58.3487 58.3606 47.2707 61.7233C46.4694 61.1615 45.7177 60.5324 45.0235 59.8427L51.5738 53.2924C51.8706 52.9938 52.0372 52.5898 52.0372 52.1688C52.0372 51.7477 51.8706 51.3438 51.5738 51.0452C51.4256 50.8958 51.2493 50.7772 51.0551 50.6963C50.8609 50.6154 50.6526 50.5738 50.4422 50.5738C50.2318 50.5738 50.0235 50.6154 49.8293 50.6963C49.6351 50.7772 49.4588 50.8958 49.3107 51.0452L42.7763 57.5796C41.9512 56.7659 41.2335 55.85 40.6407 54.8542C40.8797 52.7664 45.0075 38.4546 57.8372 25.6249C62.1694 21.5573 67.0712 18.1426 72.3882 15.4886C73.5038 21.5608 80.9625 28.2386 86.4769 30.0555C83.842 35.1799 80.5409 39.9334 76.6594 44.1921ZM87.8157 27.1708C83.1141 25.7683 75.4163 18.9311 75.3525 14.0383C82.2375 11.058 87.4491 10.5958 89.6963 12.7793C91.9435 14.9627 91.1466 20.1264 87.8953 27.1708H87.8157Z" fill="#956DF8"/>
<path d="M75.4502 26.6761C74.4026 25.631 73.1136 24.8602 71.6972 24.4319C70.2809 24.0036 68.7808 23.9309 67.3296 24.2203C65.8785 24.5096 64.521 25.1522 63.3773 26.091C62.2336 27.0299 61.3389 28.2361 60.7722 29.603C60.2056 30.97 59.9846 32.4555 60.1288 33.9282C60.2729 35.4008 60.7777 36.8153 61.5986 38.0464C62.4195 39.2776 63.5311 40.2875 64.8351 40.9868C66.1392 41.686 67.5954 42.0532 69.0752 42.0557C70.8584 42.0588 72.6023 41.5324 74.086 40.5431C75.5696 39.5539 76.7262 38.1464 77.409 36.4991C78.0918 34.8518 78.2702 33.0389 77.9214 31.2901C77.5727 29.5413 76.7126 27.9354 75.4502 26.6761ZM73.203 37.1629C72.6641 37.7046 72.0234 38.1342 71.3176 38.4269C70.6119 38.7196 69.8551 38.8696 69.0911 38.8682C68.3268 38.8714 67.5695 38.7222 66.8635 38.4294C66.1576 38.1366 65.517 37.706 64.9792 37.1629C64.4151 36.6284 63.9637 35.9863 63.6519 35.2745C63.34 34.5627 63.1739 33.7956 63.1634 33.0186C63.153 32.2415 63.2983 31.4702 63.5908 30.7502C63.8834 30.0303 64.3172 29.3762 64.8667 28.8267C65.4162 28.2772 66.0703 27.8433 66.7903 27.5508C67.5102 27.2582 68.2815 27.1129 69.0586 27.1234C69.8357 27.1339 70.6027 27.3 71.3146 27.6118C72.0264 27.9237 72.6685 28.375 73.203 28.9392C74.293 30.03 74.9053 31.509 74.9053 33.0511C74.9053 34.5931 74.293 36.0721 73.203 37.1629Z" fill="#956DF8"/>
<path d="M31.8752 76.3202C31.4525 76.2399 31.0152 76.3308 30.6596 76.5729C30.3039 76.815 30.059 77.1885 29.9787 77.6112C29.8983 78.0339 29.9892 78.4711 30.2313 78.8268C30.4734 79.1825 30.8469 79.4274 31.2696 79.5077C32.194 79.6136 33.0732 79.9651 33.8159 80.5256C34.5586 81.0862 35.1377 81.8353 35.493 82.6952C35.749 83.7377 35.7277 84.829 35.4313 85.8606C35.135 86.8923 34.5738 87.8285 33.8037 88.5762C33.1997 89.3749 32.3379 89.9399 31.3647 90.1752C30.3914 90.4105 29.3667 90.3017 28.4646 89.8671C27.6866 89.4824 27.0323 88.8871 26.5758 88.1489C26.1194 87.4108 25.8793 86.5594 25.8827 85.6915C25.9769 85.2027 26.0302 84.7069 26.0421 84.2093C26.0865 83.7866 25.9611 83.3636 25.6936 83.0333C25.4261 82.7031 25.0384 82.4926 24.6157 82.4482C24.193 82.4038 23.77 82.5292 23.4397 82.7967C23.1095 83.0642 22.899 83.4519 22.8546 83.8746C22.758 84.3473 22.6993 84.827 22.6793 85.309C22.5363 86.0223 22.2161 86.6881 21.7482 87.2452C21.2803 87.8022 20.6797 88.2325 20.0018 88.4965C18.9881 88.8771 17.8859 88.9563 16.8282 88.7244C15.7706 88.4925 14.8026 87.9594 14.0412 87.1896C13.3058 86.3218 12.816 85.2729 12.6226 84.152C12.4292 83.031 12.5393 81.8787 12.9415 80.8146C13.1586 80.2653 13.5436 79.7986 14.0415 79.4809C14.5395 79.1633 15.125 79.0109 15.7146 79.0456H15.9377C16.3604 79.0561 16.77 78.8983 17.0763 78.6069C17.3827 78.3155 17.5607 77.9143 17.5713 77.4916C17.5819 77.069 17.4241 76.6594 17.1327 76.353C16.8413 76.0467 16.4401 75.8686 16.0174 75.8581H15.6987C14.3599 75.8581 12.814 75.4118 12.5112 73.9615C12.4701 72.7803 12.8064 71.6167 13.4712 70.6395C14.1361 69.6623 15.0949 68.9223 16.2087 68.5268C17.7864 67.969 19.5078 67.969 21.0855 68.5268C23.508 69.1006 26.5362 69.8337 29.4368 66.3115C29.7052 65.9839 29.8325 65.5631 29.7906 65.1417C29.7488 64.7203 29.5412 64.3327 29.2137 64.0643C28.8861 63.7959 28.4653 63.6686 28.0438 63.7105C27.6224 63.7523 27.2349 63.9598 26.9665 64.2874C25.3727 66.2637 24.0977 65.9768 21.8187 65.4349C19.5882 64.6909 17.1706 64.7303 14.9655 65.5465C11.1883 67.1402 8.76584 71.0609 9.43522 74.4715C9.64976 75.6731 10.3029 76.7523 11.268 77.4996C10.7272 78.0518 10.2948 78.7005 9.99303 79.4121C9.34845 81.0521 9.16956 82.8383 9.47612 84.5736C9.78267 86.3089 10.5627 87.9257 11.7302 89.2456C12.9276 90.4712 14.4595 91.3169 16.1348 91.6769C17.81 92.0369 19.5541 91.8952 21.1493 91.2696C22.1146 90.8783 22.9923 90.2986 23.7312 89.5643C24.4989 90.8689 25.6358 91.917 26.9983 92.5765C27.9913 93.0637 29.0799 93.325 30.1858 93.3415C31.3131 93.3231 32.423 93.0599 33.4384 92.5701C34.4539 92.0802 35.3507 91.3755 36.0668 90.5046C37.2089 89.336 38.0202 87.8851 38.4178 86.3003C38.8155 84.7154 38.7851 83.0533 38.3299 81.484C37.8 80.1337 36.925 78.9461 35.7923 78.0399C34.6596 77.1338 33.3089 76.5408 31.8752 76.3202Z" fill="#956DF8"/>
</svg>
