<svg width="100" height="100" viewBox="0 0 100 100" fill="none" xmlns="http://www.w3.org/2000/svg">
<path d="M98.5323 92.2768H91.7867V64.8105C91.7867 63.9999 91.1295 63.3428 90.319 63.3428C89.5084 63.3428 88.8513 63.9999 88.8513 64.8105V92.2768H77.4204V43.9657C77.4204 43.696 77.6397 43.4764 77.9096 43.4764H88.362C88.6317 43.4764 88.8513 43.696 88.8513 43.9657V58.9396C88.8513 59.7502 89.5084 60.4074 90.319 60.4074C91.1295 60.4074 91.7867 59.7502 91.7867 58.9396V43.9657C91.7867 42.0774 90.2505 40.541 88.362 40.541H77.9096C76.0213 40.541 74.4849 42.0774 74.4849 43.9657V92.277H69.6961V54.6471C69.6961 52.7588 68.1597 51.2224 66.2714 51.2224H55.819C53.9305 51.2224 52.3943 52.7588 52.3943 54.6471V92.277H47.6055V65.3285C47.6055 63.4402 46.0693 61.9038 44.1808 61.9038H33.7284C31.8401 61.9038 30.3037 63.4402 30.3037 65.3285V78.1625C30.3037 78.9731 30.9609 79.6303 31.7714 79.6303C32.582 79.6303 33.2391 78.9731 33.2391 78.1625V65.3285C33.2391 65.0586 33.4587 64.8393 33.7284 64.8393H44.1808C44.4507 64.8393 44.6701 65.0586 44.6701 65.3285V92.2768H33.2391V84.0334C33.2391 83.2228 32.582 82.5657 31.7714 82.5657C30.9609 82.5657 30.3037 83.2228 30.3037 84.0334V92.2768H25.5149V76.0099C25.5149 74.1216 23.9787 72.5852 22.0902 72.5852H11.638C9.74971 72.5852 8.21331 74.1216 8.21331 76.0099V92.2768H1.46771C0.657143 92.2768 0 92.934 0 93.7445C0 94.5551 0.657143 95.2122 1.46771 95.2122H98.5323C99.3429 95.2122 100 94.5551 100 93.7445C100 92.934 99.3429 92.2768 98.5323 92.2768ZM55.3297 54.6471C55.3297 54.3774 55.5493 54.1578 55.819 54.1578H66.2714C66.5411 54.1578 66.7607 54.3774 66.7607 54.6471V92.277H55.3297V54.6471ZM11.1487 76.0099C11.1487 75.7402 11.3683 75.5207 11.638 75.5207H22.0904C22.3603 75.5207 22.5796 75.7402 22.5796 76.0099V92.2768H11.1487V76.0099Z" fill="#9E59F7"/>
<path d="M15.6716 55.0626C15.752 55.0626 15.8332 55.0597 15.9146 55.0542C26.7389 54.3023 36.9176 51.9401 46.1682 48.033C58.6246 42.772 68.9367 34.8416 76.8393 24.4501L81.786 27.8896C82.7606 28.6162 84.2455 27.7428 84.0843 26.5379L82.034 6.11366C81.9673 5.24145 81.0449 4.59977 80.2037 4.83988L60.3254 10.0172C59.1387 10.2849 58.8365 11.9816 59.8573 12.6426L64.8493 16.1135C63.8561 17.6739 61.6678 20.7681 57.8524 24.5528C57.2768 25.1238 57.2731 26.053 57.844 26.6283C58.4148 27.2039 59.3442 27.2076 59.9195 26.6368C65.8015 20.8021 68.0222 16.536 68.1138 16.3573C68.4491 15.7033 68.2491 14.9021 67.6457 14.4825L64.1526 12.0538L79.2847 8.11268L80.8455 23.66L77.3494 21.2293C76.6947 20.7741 75.797 20.9248 75.3266 21.5683C67.6361 32.0908 57.4414 40.0851 45.0262 45.3287C33.8761 50.0379 22.9303 51.624 15.7115 52.1256C15.2898 52.2336 15.162 51.4593 15.5819 51.4142C31.6631 46.4516 45.0931 39.4751 55.4988 30.6786C56.1179 30.1553 56.1954 29.2293 55.6722 28.6103C55.1491 27.9914 54.2226 27.9135 53.6039 28.4369C43.5017 36.9769 30.4181 43.7638 14.7166 48.6094C13.086 49.1125 12.1293 50.6939 12.4416 52.3694C12.7385 53.9628 14.0765 55.0626 15.6716 55.0626Z" fill="#9E59F7"/>
</svg>
