<?xml version="1.0" encoding="UTF-8"?>
<svg id="_Слой_2" data-name="Слой 2"
  xmlns="http://www.w3.org/2000/svg"
  xmlns:xlink="http://www.w3.org/1999/xlink" viewBox="0 0 185.04 76.82">
  <defs>
    <style>
      .cls-1 {
        fill: #fff;
      }

      .cls-2 {
        fill: #956df8;
      }

      .cls-3 {
        clip-path: url(#clippath);
      }

      .cls-4 {
        fill: none;
      }
    </style>
    <clipPath id="clippath">
      <rect class="cls-4" x="14.02" y="12.02" width="52.77" height="52.77"/>
    </clipPath>
  </defs>
  <g id="_Слой_1-2" data-name=" Слой 1-2">
    <rect class="cls-1" width="185.04" height="76.82" rx="15" ry="15"/>
    <g class="cls-3">
      <g>
        <path class="cls-2" d="m41.1,40.83c-.1-.02-.2-.03-.3,0-.99-.12-1.74-.95-1.74-1.95,0-.48-.39-.87-.87-.87s-.87.39-.87.87c0,1.67,1.12,3.12,2.72,3.57v.87c0,.48.39.87.87.87s.87-.39.87-.87v-.81c1.85-.39,3.11-2.11,2.92-4-.2-1.88-1.78-3.32-3.68-3.32-1.09,0-1.97-.88-1.97-1.97s.88-1.97,1.97-1.97,1.97.88,1.97,1.97c0,.48.39.87.87.87s.87-.39.87-.87c0-1.75-1.23-3.26-2.94-3.62v-.79c0-.48-.39-.87-.87-.87s-.87.39-.87.87v.84c-1.79.49-2.94,2.22-2.69,4.06.25,1.84,1.81,3.21,3.66,3.2,1.07,0,1.94.86,1.96,1.93s-.82,1.96-1.89,2h0Z"/>
        <path class="cls-2" d="m28.48,36.1c0,6.93,5.62,12.55,12.55,12.55s12.55-5.62,12.55-12.55-5.62-12.55-12.55-12.55-12.54,5.62-12.55,12.55Zm12.55-10.82c5.98,0,10.82,4.84,10.82,10.82s-4.84,10.82-10.82,10.82-10.82-4.84-10.82-10.82,4.85-10.81,10.82-10.82Z"/>
        <path class="cls-2" d="m57.85,50.79l-6.78,3.2c-.94-1.74-2.73-2.85-4.71-2.91l-6.26-.17c-.99-.03-1.96-.28-2.85-.73l-.64-.33c-3.26-1.7-7.15-1.7-10.41,0l.04-1.44c.01-.48-.36-.88-.84-.89l-6.86-.19c-.48,0-.88.36-.89.84l-.41,15.06c-.01.48.36.88.84.89l6.86.19h.02c.47,0,.85-.37.87-.84l.02-.72,1.78-.96c.7-.38,1.52-.47,2.28-.25l10.65,2.99s.04.01.06.01c.77.16,1.55.24,2.34.24,1.67,0,3.31-.36,4.82-1.05.04-.02.07-.04.11-.06l15.44-9.99c.38-.25.51-.75.28-1.15-1.15-2.03-3.69-2.81-5.78-1.76h.02Zm-38.85,11.64l.37-13.33,5.13.14-.37,13.33-5.13-.14Zm28.02-.23c-1.88.85-3.98,1.08-6,.67l-10.62-2.98c-1.2-.34-2.47-.2-3.57.39l-.91.49.24-8.86c2.89-1.92,6.59-2.12,9.67-.52l.64.33c1.11.57,2.34.89,3.59.93l6.26.17c1.76.05,3.25,1.3,3.61,3.03l-9.32-.26c-.48,0-.88.36-.89.84s.36.88.84.89l10.29.28h.02c.47,0,.85-.37.86-.84,0-.38-.02-.75-.08-1.12l6.95-3.29h.02c.99-.5,2.18-.33,2.99.42l-14.6,9.44h0Z"/>
        <path class="cls-2" d="m41.9,21.11v-8.22c0-.48-.39-.87-.87-.87s-.87.39-.87.87v8.22c0,.48.39.87.87.87s.87-.39.87-.87Z"/>
        <path class="cls-2" d="m48.38,21.11v-3.9c0-.48-.39-.87-.87-.87s-.87.39-.87.87v3.9c0,.48.39.87.87.87s.87-.39.87-.87Z"/>
        <path class="cls-2" d="m35.4,21.11v-3.9c0-.48-.39-.87-.87-.87s-.87.39-.87.87v3.9c0,.48.39.87.87.87s.87-.39.87-.87Z"/>
      </g>
    </g>
    <rect class="cls-2" x="73.48" y="14.7" width="98.2" height="26.05" rx="8" ry="8"/>
    <path class="cls-2" d="m107.5,63.12c-1.15,0-2.15-.25-2.98-.75s-1.47-1.2-1.93-2.1c-.45-.9-.67-1.95-.67-3.14s.22-2.24.67-3.14c.45-.9,1.1-1.6,1.93-2.1.84-.5,1.83-.75,2.98-.75,1.32,0,2.43.33,3.33.98.9.66,1.54,1.54,1.9,2.66l-2.19.61c-.21-.7-.57-1.24-1.08-1.62-.51-.39-1.16-.58-1.96-.58-.73,0-1.34.16-1.83.49-.49.33-.85.78-1.1,1.38s-.37,1.29-.37,2.09.12,1.5.37,2.09c.24.59.61,1.05,1.1,1.38.49.32,1.1.49,1.83.49.8,0,1.45-.19,1.96-.58s.87-.93,1.08-1.62l2.19.61c-.37,1.12-1,2.01-1.9,2.66-.9.66-2,.98-3.33.98v-.04Zm11.52,0c-.87,0-1.63-.19-2.29-.58s-1.17-.92-1.54-1.61c-.36-.69-.54-1.48-.54-2.37s.19-1.69.56-2.38c.37-.69.89-1.22,1.54-1.61.66-.38,1.41-.58,2.26-.58s1.63.19,2.29.58c.66.39,1.18.93,1.54,1.62.37.68.55,1.47.55,2.36s-.19,1.69-.56,2.38c-.37.68-.88,1.22-1.54,1.61-.66.38-1.42.58-2.28.58h0Zm0-2.03c.7,0,1.22-.24,1.56-.7.35-.47.52-1.08.52-1.82s-.18-1.38-.53-1.84-.86-.69-1.55-.69c-.47,0-.86.11-1.17.32s-.53.51-.68.89c-.14.38-.22.82-.22,1.32,0,.77.17,1.39.52,1.85.35.45.87.68,1.54.68h.01Zm9.93,2.03c-1.09,0-1.97-.24-2.64-.74s-1.07-1.19-1.22-2.1l2.22-.34c.09.4.29.72.6.95.31.23.71.34,1.19.34.39,0,.7-.07.91-.22s.32-.37.32-.64c0-.17-.04-.31-.13-.41-.09-.11-.28-.21-.58-.31-.29-.1-.75-.23-1.38-.4-.7-.18-1.27-.38-1.69-.61-.42-.22-.73-.49-.91-.8-.19-.31-.28-.69-.28-1.14,0-.55.14-1.03.42-1.44s.68-.73,1.19-.94c.52-.22,1.12-.34,1.82-.34s1.28.1,1.8.31c.52.21.94.5,1.26.89.32.38.52.84.6,1.36l-2.22.4c-.04-.32-.18-.57-.42-.76s-.57-.3-.98-.33c-.4-.03-.72.03-.97.16-.24.13-.36.33-.36.58,0,.15.05.27.15.38.11.1.32.21.65.31.33.11.83.25,1.5.42.66.17,1.18.37,1.58.6.4.22.69.5.87.82s.27.7.27,1.14c0,.89-.32,1.58-.96,2.09s-1.53.76-2.66.76h.05Zm11.2-.24c-.6.11-1.18.16-1.76.14-.57,0-1.08-.11-1.54-.3-.45-.19-.79-.5-1.02-.92-.21-.4-.32-.79-.34-1.2,0-.41-.02-.88-.02-1.39v-7.38h2.18v8.16c0,.27.07.48.17.64.19.3.5.47.92.5s.89,0,1.4-.06v1.81h.01Zm-6.14-6.96v-1.68h6.14v1.68h-6.14Z"/>
    <path class="cls-1" d="m85.63,36.64v-1.92h2.18v1.92h-2.18Zm0-12.78v-1.92h2.18v1.92h-2.18Zm1.1,11.42c-.83,0-1.57-.15-2.22-.46-.65-.31-1.18-.74-1.59-1.3-.41-.57-.67-1.23-.78-2l2.16-.34c.14.63.45,1.13.9,1.5.46.37,1.02.56,1.66.56.6,0,1.1-.14,1.5-.42s.6-.63.6-1.05c0-.28-.09-.51-.26-.7-.17-.19-.44-.34-.81-.46l-2.85-.88c-1.64-.51-2.46-1.51-2.46-3.01,0-.7.17-1.31.5-1.83.34-.52.81-.91,1.42-1.19s1.34-.42,2.17-.42c.76.01,1.44.15,2.03.42.59.26,1.09.64,1.48,1.14.4.5.69,1.1.87,1.82l-2.24.4c-.07-.34-.21-.64-.42-.9-.2-.26-.46-.46-.76-.61-.3-.15-.63-.23-1-.24-.35-.01-.67.04-.96.15-.28.11-.51.27-.68.47-.17.2-.25.42-.25.67,0,.28.12.52.35.72.23.2.61.37,1.12.51l2.03.58c1.02.29,1.75.69,2.2,1.19s.68,1.17.68,1.99c0,.73-.18,1.36-.55,1.91-.37.55-.88.98-1.54,1.29s-1.42.46-2.29.46v.03Zm8.78-.24v-9.15l-2.16,1.33v-2.4l2.16-1.3h2.22v11.52s-2.22,0-2.22,0Zm9.26.21c-.58,0-1.12-.11-1.65-.34-.52-.23-.98-.56-1.37-.98-.38-.42-.66-.92-.82-1.49l2.11-.56c.11.42.33.75.66.98s.69.34,1.07.34c.33,0,.63-.08.9-.24.28-.16.5-.38.66-.65.17-.27.25-.57.25-.9,0-.5-.17-.92-.51-1.27-.34-.36-.77-.54-1.3-.54-.16,0-.31.02-.46.07-.15.04-.29.1-.43.18l-.98-1.71,3.66-3.04.16.46h-5.34v-2.05h7.2v2.05l-2.85,2.75-.02-.61c.66.1,1.22.33,1.67.7.46.36.81.8,1.04,1.33.24.52.36,1.08.36,1.67,0,.73-.18,1.38-.55,1.96-.37.58-.86,1.03-1.46,1.38-.61.34-1.27.5-2,.5h0Zm10.16.03c-.58,0-1.13-.12-1.64-.36s-.94-.57-1.31-1c-.37-.43-.63-.92-.79-1.49l2.1-.56c.07.27.19.51.37.7.18.2.39.35.62.46.24.11.49.16.74.16.33,0,.63-.08.9-.24.28-.16.5-.38.66-.65.17-.27.25-.57.25-.9s-.08-.63-.25-.9c-.16-.27-.38-.49-.66-.65-.27-.16-.57-.24-.9-.24-.4,0-.74.07-.99.21-.26.13-.45.26-.58.38l-1.84-.56.35-6.13h6.29v2.03h-5.09l.77-.72-.24,3.95-.37-.45c.29-.23.62-.41.98-.51.37-.11.71-.16,1.03-.16.73,0,1.36.16,1.91.49.56.32.99.76,1.3,1.33.32.56.47,1.2.47,1.93s-.19,1.38-.57,1.97c-.38.58-.88,1.05-1.5,1.39s-1.29.51-2.02.51h0Zm6.48,1.92l.13-.91c.26.02.46-.02.62-.13.16-.1.27-.25.33-.45.06-.19.08-.42.04-.67h-1.12v-2.18h2.18v2.18c0,.77-.18,1.35-.54,1.74-.36.39-.9.53-1.64.42Zm10.14-1.92c-.85,0-1.6-.18-2.24-.54s-1.14-.86-1.5-1.5-.54-1.39-.54-2.24v-3.46c0-.85.18-1.6.54-2.24s.86-1.14,1.5-1.5,1.39-.54,2.24-.54,1.6.18,2.24.54,1.14.86,1.5,1.5.54,1.39.54,2.24v3.46c0,.85-.18,1.6-.54,2.24-.36.64-.86,1.14-1.5,1.5s-1.39.54-2.24.54Zm0-2.06c.38,0,.73-.09,1.04-.27s.55-.43.74-.74c.18-.31.27-.66.27-1.04v-3.79c0-.38-.09-.73-.27-1.04-.18-.31-.43-.55-.74-.74-.31-.18-.66-.27-1.04-.27s-.73.09-1.04.27-.55.43-.74.74c-.18.31-.27.66-.27,1.04v3.79c0,.38.09.73.27,1.04.18.31.43.55.74.74.31.18.66.27,1.04.27Zm11.42,2.06c-.85,0-1.6-.18-2.24-.54s-1.14-.86-1.5-1.5-.54-1.39-.54-2.24v-3.46c0-.85.18-1.6.54-2.24s.86-1.14,1.5-1.5,1.39-.54,2.24-.54,1.6.18,2.24.54,1.14.86,1.5,1.5.54,1.39.54,2.24v3.46c0,.85-.18,1.6-.54,2.24-.36.64-.86,1.14-1.5,1.5s-1.39.54-2.24.54Zm0-2.06c.38,0,.73-.09,1.04-.27s.55-.43.74-.74c.18-.31.27-.66.27-1.04v-3.79c0-.38-.09-.73-.27-1.04-.18-.31-.43-.55-.74-.74-.31-.18-.66-.27-1.04-.27s-.73.09-1.04.27-.56.43-.74.74c-.18.31-.27.66-.27,1.04v3.79c0,.38.09.73.27,1.04.18.31.43.55.74.74.31.18.66.27,1.04.27Zm11.42,2.06c-.85,0-1.6-.18-2.24-.54s-1.14-.86-1.5-1.5-.54-1.39-.54-2.24v-3.46c0-.85.18-1.6.54-2.24s.86-1.14,1.5-1.5,1.39-.54,2.24-.54,1.6.18,2.24.54,1.14.86,1.5,1.5.54,1.39.54,2.24v3.46c0,.85-.18,1.6-.54,2.24-.36.64-.86,1.14-1.5,1.5s-1.39.54-2.24.54Zm0-2.06c.38,0,.73-.09,1.04-.27s.56-.43.74-.74c.18-.31.27-.66.27-1.04v-3.79c0-.38-.09-.73-.27-1.04-.18-.31-.43-.55-.74-.74-.31-.18-.66-.27-1.04-.27s-.73.09-1.04.27-.55.43-.74.74c-.18.31-.27.66-.27,1.04v3.79c0,.38.09.73.27,1.04.18.31.43.55.74.74.31.18.66.27,1.04.27Z"/>
  </g>
</svg>