<?xml version="1.0" encoding="UTF-8"?>
<svg id="_Слой_2" data-name="Слой 2" xmlns="http://www.w3.org/2000/svg" xmlns:xlink="http://www.w3.org/1999/xlink" viewBox="0 0 291 122">
  <defs>
    <style>
      .cls-1 {
        fill: #fff;
      }

      .cls-2 {
        fill: #e2e2e2;
      }

      .cls-3 {
        fill: #956df8;
      }

      .cls-4 {
        fill: url(#_Безымянный_градиент);
        fill-opacity: .5;
        isolation: isolate;
        opacity: .5;
      }

      .cls-5 {
        fill: none;
        stroke: #fff;
        stroke-linecap: round;
        stroke-linejoin: round;
        stroke-width: .95px;
      }

      .cls-6 {
        fill: #7d8389;
      }
    </style>
    <linearGradient id="_Безымянный_градиент" data-name="Безымянный градиент" x1="197.17" y1="84.76" x2="197.17" y2="116.4" gradientTransform="translate(0 179.56) scale(1 -1)" gradientUnits="userSpaceOnUse">
      <stop offset="0" stop-color="#fff"/>
      <stop offset="1" stop-color="#2f80ed"/>
    </linearGradient>
  </defs>
  <g id="_Слой_1-2" data-name="Слой 1">
    <rect class="cls-1" width="291" height="122" rx="15" ry="15"/>
    <path class="cls-2" d="m273.5,19h-17.71c-1.91,0-3.45,1.74-3.45,3.89v6.75c0,2.15,1.54,3.89,3.45,3.89h4.5c2.29,0,4.34,2.44,4.34,4.86,0-2.44,2.05-4.86,4.34-4.86h4.52c1.91,0,3.45-1.74,3.45-3.89v-6.75c.02-2.15-1.53-3.89-3.43-3.89Z"/>
    <path class="cls-3" d="m259.02,30v-5.15l-1.21.75v-1.35l1.21-.73h1.25v6.48h-1.25Zm2.78,0v-1.06l2.72-2.41c.2-.18.35-.35.43-.51.08-.16.13-.31.13-.45,0-.2-.04-.37-.12-.53-.08-.16-.2-.28-.34-.36-.15-.09-.32-.14-.52-.14s-.39.05-.55.14c-.16.09-.28.22-.37.37-.09.15-.13.32-.12.5h-1.26c0-.44.1-.83.29-1.15s.47-.57.82-.75c.35-.18.75-.27,1.21-.27.42,0,.8.09,1.13.28.34.18.6.44.79.77.19.33.29.71.29,1.15,0,.32-.04.59-.13.8-.09.21-.22.4-.4.58-.18.18-.39.38-.65.6l-1.76,1.54-.1-.27h3.04v1.15h-4.54Zm8.07,0v-1.01h-2.82v-1.14l2.04-4.33h1.4l-2.04,4.33h1.41v-1.62h1.24v1.62h.58v1.14h-.58v1.01h-1.24Z"/>
    <path class="cls-3" d="m15.96,74v-8.64h1.63v7.12h3.72v1.52h-5.35Zm9.86.18c-.66,0-1.25-.14-1.76-.43-.5-.29-.9-.68-1.19-1.18-.28-.5-.43-1.08-.43-1.73,0-.71.14-1.32.42-1.85.28-.52.67-.93,1.16-1.22.49-.29,1.06-.44,1.7-.44.68,0,1.26.16,1.73.48.48.32.83.77,1.06,1.35.23.58.31,1.26.24,2.05h-1.61v-.6c0-.66-.11-1.13-.32-1.42-.21-.29-.55-.44-1.03-.44-.56,0-.97.17-1.23.51-.26.34-.39.83-.39,1.49,0,.6.13,1.07.39,1.4.26.33.65.49,1.16.49.32,0,.59-.07.82-.21.23-.14.4-.34.52-.61l1.63.47c-.24.59-.63,1.05-1.16,1.38-.52.33-1.1.49-1.72.49Zm-2.15-2.96v-1.21h4.3v1.21h-4.3Zm9.45,2.96c-.82,0-1.48-.18-1.98-.55-.5-.37-.8-.9-.91-1.57l1.67-.25c.07.3.22.54.45.71.24.17.53.26.89.26.3,0,.52-.06.68-.17.16-.12.24-.28.24-.48,0-.13-.03-.23-.1-.31-.06-.08-.21-.16-.43-.23-.22-.08-.56-.18-1.03-.3-.53-.14-.95-.29-1.27-.46-.32-.17-.54-.37-.68-.6-.14-.24-.21-.52-.21-.85,0-.42.11-.78.32-1.08.21-.31.51-.54.89-.71.39-.17.84-.25,1.37-.25s.96.08,1.35.23c.39.16.71.38.95.67.24.29.39.63.45,1.02l-1.67.3c-.03-.24-.13-.43-.31-.57s-.42-.22-.73-.25c-.3-.02-.54.02-.73.12-.18.1-.27.24-.27.43,0,.11.04.21.11.28.08.08.24.15.49.23.25.08.62.18,1.13.31.49.13.89.28,1.18.45.3.17.52.37.65.61.14.24.2.52.2.86,0,.66-.24,1.19-.72,1.57-.48.38-1.14.57-1.99.57Zm7.04,0c-.82,0-1.48-.18-1.98-.55-.5-.37-.8-.9-.91-1.57l1.67-.25c.07.3.22.54.45.71.24.17.53.26.89.26.3,0,.52-.06.68-.17.16-.12.24-.28.24-.48,0-.13-.03-.23-.1-.31-.06-.08-.21-.16-.43-.23-.22-.08-.56-.18-1.03-.3-.53-.14-.95-.29-1.27-.46-.32-.17-.54-.37-.68-.6-.14-.24-.21-.52-.21-.85,0-.42.11-.78.32-1.08.21-.31.51-.54.89-.71.39-.17.84-.25,1.37-.25s.96.08,1.35.23c.39.16.71.38.95.67.24.29.39.63.45,1.02l-1.67.3c-.03-.24-.13-.43-.31-.57s-.42-.22-.73-.25c-.3-.02-.54.02-.73.12-.18.1-.27.24-.27.43,0,.11.04.21.11.28.08.08.24.15.49.23.25.08.62.18,1.13.31.49.13.89.28,1.18.45.3.17.52.37.65.61.14.24.2.52.2.86,0,.66-.24,1.19-.72,1.57s-1.14.57-1.99.57Zm11.28-.18c-.45.08-.89.12-1.32.11-.43,0-.81-.08-1.15-.22-.34-.14-.59-.37-.77-.69-.16-.3-.24-.6-.25-.9,0-.31-.01-.66-.01-1.04v-5.53h1.63v5.44c0,.25,0,.48,0,.68,0,.2.05.36.13.48.14.23.37.35.69.37.32.02.67,0,1.05-.05v1.36Zm-4.61-5.22v-1.26h4.61v1.26h-4.61Zm10.95,5.22v-3.06c0-.15,0-.34-.02-.56-.02-.23-.07-.46-.15-.7s-.22-.43-.41-.58c-.19-.16-.46-.23-.8-.23-.14,0-.29.02-.45.07-.16.04-.31.13-.45.26-.14.12-.26.31-.35.55-.09.24-.13.57-.13.97l-.94-.44c0-.51.1-.99.31-1.44.21-.45.52-.81.94-1.09.42-.28.95-.41,1.58-.41.51,0,.92.09,1.24.26.32.17.57.39.74.65.18.26.31.54.38.83.08.28.12.54.14.78s.02.41.02.52v3.64h-1.66Zm-4.43,0v-8.64h1.45v4.44h.2v4.2h-1.66Zm9.92.18c-.46,0-.86-.09-1.18-.26-.32-.18-.56-.42-.73-.71-.16-.3-.25-.63-.25-.99,0-.3.05-.57.14-.82.09-.25.24-.47.44-.65.21-.19.49-.35.83-.48.24-.09.53-.17.86-.23.33-.07.71-.13,1.13-.19.42-.06.88-.13,1.39-.21l-.59.32c0-.38-.09-.67-.28-.85s-.49-.27-.92-.27c-.24,0-.49.06-.75.17-.26.12-.44.32-.55.62l-1.48-.47c.16-.54.47-.97.92-1.31.45-.34,1.07-.5,1.85-.5.57,0,1.08.09,1.52.26.44.18.78.48,1.01.91.13.24.2.48.23.72.02.24.04.51.04.8v3.96h-1.43v-1.33l.2.28c-.32.44-.66.75-1.03.95-.36.19-.83.29-1.39.29Zm.35-1.28c.3,0,.55-.05.76-.16.21-.11.37-.23.49-.37.12-.14.21-.25.25-.34.08-.18.13-.38.14-.61.02-.24.02-.43.02-.59l.48.12c-.48.08-.88.15-1.18.2-.3.05-.54.1-.73.14-.18.04-.35.09-.49.14-.16.06-.29.13-.39.21-.1.07-.17.15-.22.24-.04.09-.07.19-.07.29,0,.15.04.28.11.38.08.1.18.18.32.24.14.06.3.08.49.08Zm9.74,1.1v-3.06c0-.15,0-.34-.02-.56-.02-.23-.07-.46-.15-.7s-.22-.43-.41-.58c-.19-.16-.46-.23-.8-.23-.14,0-.29.02-.45.07-.16.04-.31.13-.45.26-.14.12-.26.31-.35.55-.09.24-.13.57-.13.97l-.94-.44c0-.51.1-.99.31-1.44.21-.45.52-.81.94-1.09.42-.28.95-.41,1.58-.41.51,0,.92.09,1.24.26.32.17.57.39.74.65.18.26.31.54.38.83.08.28.12.54.14.78.02.24.02.41.02.52v3.64h-1.66Zm-4.43,0v-6.48h1.45v2.15h.2v4.33h-1.66Zm-31.93,16v-8.64h1.46l2.86,5.74,2.86-5.74h1.46v8.64h-1.52v-5.16l-2.51,5.16h-.58l-2.51-5.16v5.16h-1.52Zm13.82.18c-.66,0-1.25-.14-1.76-.43-.5-.29-.9-.68-1.19-1.18-.28-.5-.43-1.08-.43-1.73,0-.71.14-1.32.42-1.85.28-.52.67-.93,1.16-1.22.49-.29,1.06-.44,1.7-.44.68,0,1.26.16,1.73.48.48.32.83.77,1.06,1.35.23.58.31,1.26.24,2.05h-1.61v-.6c0-.66-.11-1.13-.32-1.42-.21-.29-.55-.44-1.03-.44-.56,0-.97.17-1.23.51-.26.34-.39.83-.39,1.49,0,.6.13,1.07.39,1.4.26.33.65.49,1.16.49.32,0,.59-.07.82-.21.23-.14.4-.34.52-.61l1.63.47c-.24.59-.63,1.05-1.16,1.38-.52.33-1.1.49-1.72.49Zm-2.15-2.96v-1.21h4.3v1.21h-4.3Zm9.93,2.96c-.66,0-1.25-.14-1.76-.43-.5-.29-.9-.68-1.19-1.18-.28-.5-.43-1.08-.43-1.73,0-.71.14-1.32.42-1.85.28-.52.67-.93,1.16-1.22.49-.29,1.06-.44,1.7-.44.68,0,1.26.16,1.73.48s.83.77,1.06,1.35.31,1.26.24,2.05h-1.61v-.6c0-.66-.11-1.13-.32-1.42-.21-.29-.55-.44-1.03-.44-.56,0-.97.17-1.23.51-.26.34-.39.83-.39,1.49,0,.6.13,1.07.39,1.4.26.33.65.49,1.16.49.32,0,.59-.07.82-.21.23-.14.4-.34.52-.61l1.63.47c-.24.59-.63,1.05-1.16,1.38-.52.33-1.1.49-1.72.49Zm-2.15-2.96v-1.21h4.3v1.21h-4.3Zm10.81,2.78c-.45.08-.89.12-1.32.11-.43,0-.81-.08-1.15-.22-.34-.14-.59-.37-.77-.69-.16-.3-.24-.6-.25-.9,0-.31-.01-.66-.01-1.04v-5.53h1.63v5.44c0,.25,0,.48,0,.68,0,.2.05.36.13.48.14.23.37.35.69.37.32.02.67,0,1.05-.05v1.36Zm-4.61-5.22v-1.26h4.61v1.26h-4.61Zm6.65-2.16v-1.44h1.63v1.44h-1.63Zm0,7.38v-6.48h1.63v6.48h-1.63Zm8.33,0v-3.06c0-.15,0-.34-.02-.56-.02-.23-.07-.46-.15-.7-.08-.23-.22-.43-.41-.58-.19-.16-.46-.23-.8-.23-.14,0-.29.02-.45.07-.16.04-.31.13-.45.26-.14.12-.26.31-.35.55-.09.24-.13.57-.13.97l-.94-.44c0-.51.1-.99.31-1.44.21-.45.52-.81.94-1.09.42-.28.95-.41,1.58-.41.51,0,.92.09,1.24.26.32.17.57.39.74.65.18.26.31.54.38.83.08.28.12.54.14.78.02.24.02.41.02.52v3.64h-1.66Zm-4.43,0v-6.48h1.45v2.15h.2v4.33h-1.66Zm10.89,3.06c-.37,0-.72-.06-1.05-.18-.33-.12-.63-.28-.89-.49-.26-.21-.47-.45-.64-.73l1.51-.73c.1.19.25.34.44.44.2.1.41.15.64.15.24,0,.47-.04.69-.13.22-.08.39-.2.52-.37.13-.16.19-.36.19-.6v-1.88h.2v-5.02h1.43v6.92c0,.16,0,.31-.02.45-.01.14-.04.29-.07.43-.1.4-.3.72-.58.98-.28.26-.62.45-1.03.57-.41.13-.85.19-1.33.19Zm-.14-2.88c-.6,0-1.12-.15-1.57-.45-.45-.3-.8-.71-1.05-1.22-.25-.52-.37-1.1-.37-1.75s.13-1.25.38-1.76c.26-.52.61-.92,1.07-1.22.46-.3,1-.44,1.62-.44s1.13.15,1.55.45c.42.3.74.71.95,1.22s.32,1.1.32,1.75-.11,1.23-.33,1.75c-.22.52-.54.92-.97,1.22-.43.3-.97.45-1.61.45Zm.26-1.45c.36,0,.65-.08.87-.25.22-.16.38-.39.47-.69.1-.3.14-.64.14-1.03s-.05-.74-.14-1.03c-.1-.3-.25-.53-.46-.69-.21-.16-.48-.25-.82-.25-.36,0-.66.09-.9.27-.23.18-.4.41-.52.71-.11.3-.17.62-.17.98s.05.7.16,1c.11.3.27.53.5.71.22.18.51.26.86.26Zm-64.68,17.45c-.86,0-1.61-.19-2.24-.56-.62-.38-1.11-.9-1.45-1.58-.34-.68-.5-1.46-.5-2.36s.17-1.68.5-2.36c.34-.68.82-1.2,1.45-1.58.63-.38,1.37-.56,2.24-.56.99,0,1.82.25,2.5.74.68.49,1.15,1.16,1.43,2l-1.64.46c-.16-.52-.43-.93-.81-1.22-.38-.29-.87-.44-1.47-.44-.55,0-1.01.12-1.37.37-.36.24-.64.59-.82,1.03-.18.44-.28.97-.28,1.57s.09,1.12.28,1.57c.18.44.46.79.82,1.03.37.24.83.37,1.37.37.6,0,1.09-.15,1.47-.44.38-.29.65-.7.81-1.22l1.64.46c-.28.84-.75,1.51-1.43,2-.67.49-1.5.74-2.5.74Zm7.53,0c-.46,0-.86-.09-1.18-.26-.32-.18-.56-.42-.73-.71-.16-.3-.25-.63-.25-.99,0-.3.05-.57.14-.82.09-.25.24-.47.44-.65.21-.19.49-.35.83-.48.24-.09.53-.17.86-.23.33-.07.71-.13,1.13-.19.42-.06.88-.13,1.39-.21l-.59.32c0-.38-.09-.67-.28-.85-.18-.18-.49-.27-.92-.27-.24,0-.49.06-.75.17s-.44.32-.55.62l-1.48-.47c.16-.54.47-.97.92-1.31.45-.34,1.07-.5,1.85-.5.57,0,1.08.09,1.52.26.44.18.78.48,1.01.91.13.24.2.48.23.72.02.24.04.51.04.8v3.96h-1.43v-1.33l.2.28c-.32.44-.66.75-1.03.95-.36.19-.83.29-1.39.29Zm.35-1.28c.3,0,.55-.05.76-.16.21-.11.37-.23.49-.37.12-.14.21-.25.25-.34.08-.18.13-.38.14-.61.02-.24.02-.43.02-.59l.48.12c-.48.08-.88.15-1.18.2-.3.05-.54.1-.73.14-.18.04-.35.09-.49.14-.16.06-.29.13-.39.21-.1.07-.17.15-.22.24-.04.09-.07.19-.07.29,0,.15.04.28.11.38.08.1.18.18.32.24.14.06.3.08.49.08Zm9.74,1.1v-3.06c0-.15,0-.34-.02-.56-.02-.23-.07-.46-.15-.7-.08-.23-.22-.43-.41-.58-.19-.16-.46-.23-.8-.23-.14,0-.29.02-.45.07-.16.04-.31.13-.45.26-.14.12-.26.31-.35.55-.09.24-.13.57-.13.97l-.94-.44c0-.51.1-.99.31-1.44s.52-.81.94-1.09c.42-.28.95-.41,1.58-.41.51,0,.92.09,1.24.26s.57.39.74.65c.18.26.31.54.38.83.08.28.12.54.14.78.02.24.02.41.02.52v3.64h-1.66Zm-4.43,0v-6.48h1.45v2.15h.2v4.33h-1.66Zm10.86.18c-.67,0-1.25-.15-1.73-.45-.48-.3-.85-.71-1.1-1.22-.26-.52-.38-1.1-.38-1.75s.13-1.24.4-1.76c.27-.52.64-.92,1.13-1.22.48-.3,1.06-.44,1.72-.44.76,0,1.4.19,1.92.58.52.38.85.91,1,1.58l-1.63.43c-.1-.34-.26-.6-.5-.79-.24-.19-.5-.28-.8-.28-.34,0-.63.08-.85.25-.22.16-.38.39-.49.68-.1.28-.16.61-.16.97,0,.56.12,1.02.37,1.37.25.35.62.52,1.12.52.37,0,.65-.08.84-.25.19-.17.34-.41.43-.72l1.67.35c-.18.69-.53,1.22-1.04,1.59-.51.37-1.14.56-1.9.56Zm7.46,0c-.66,0-1.25-.14-1.76-.43-.5-.29-.9-.68-1.19-1.18-.28-.5-.43-1.08-.43-1.73,0-.71.14-1.32.42-1.85.28-.52.67-.93,1.16-1.22.49-.29,1.06-.44,1.7-.44.68,0,1.26.16,1.73.48.48.32.83.77,1.06,1.35s.31,1.26.24,2.05h-1.61v-.6c0-.66-.11-1.13-.32-1.42-.21-.29-.55-.44-1.03-.44-.56,0-.97.17-1.23.51-.26.34-.39.83-.39,1.49,0,.6.13,1.07.39,1.4.26.33.65.49,1.16.49.32,0,.59-.07.82-.21.23-.14.4-.34.52-.61l1.63.47c-.24.59-.63,1.05-1.16,1.38-.52.33-1.1.49-1.72.49Zm-2.15-2.96v-1.21h4.3v1.21h-4.3Zm7.04,2.78v-8.82h1.63v8.82h-1.63Zm6.79,0v-8.64h3.65c.08,0,.2,0,.34.01.14,0,.27.02.38.04.52.08.94.25,1.27.51.33.26.58.59.73.98.16.39.23.83.23,1.31,0,.72-.18,1.34-.54,1.86-.36.51-.92.83-1.69.95l-.72.05h-2.02v2.93h-1.63Zm4.87,0l-1.7-3.52,1.68-.32,1.87,3.84h-1.85Zm-3.24-4.45h1.94c.08,0,.18,0,.28-.01.1,0,.19-.02.28-.05.22-.06.39-.16.51-.3.12-.14.2-.3.25-.47.05-.18.07-.34.07-.5s-.02-.32-.07-.49c-.04-.18-.13-.33-.25-.47-.12-.14-.29-.25-.51-.31-.08-.02-.18-.04-.28-.05-.1,0-.19-.01-.28-.01h-1.94v2.66Zm8.69,4.63c-.46,0-.86-.09-1.18-.26-.32-.18-.56-.42-.73-.71-.16-.3-.25-.63-.25-.99,0-.3.05-.57.14-.82.09-.25.24-.47.44-.65.21-.19.49-.35.83-.48.24-.09.53-.17.86-.23.33-.07.71-.13,1.13-.19.42-.06.88-.13,1.39-.21l-.59.32c0-.38-.09-.67-.28-.85-.18-.18-.49-.27-.92-.27-.24,0-.49.06-.75.17-.26.12-.44.32-.55.62l-1.48-.47c.16-.54.47-.97.92-1.31.45-.34,1.07-.5,1.85-.5.57,0,1.08.09,1.52.26.44.18.78.48,1.01.91.13.24.2.48.23.72.02.24.04.51.04.8v3.96h-1.43v-1.33l.2.28c-.32.44-.66.75-1.03.95-.36.19-.83.29-1.39.29Zm.35-1.28c.3,0,.55-.05.76-.16.21-.11.37-.23.49-.37.12-.14.21-.25.25-.34.08-.18.13-.38.14-.61.02-.24.02-.43.02-.59l.48.12c-.48.08-.88.15-1.18.2-.3.05-.54.1-.73.14-.18.04-.35.09-.49.14-.16.06-.29.13-.39.21-.1.07-.17.15-.22.24-.04.09-.07.19-.07.29,0,.15.04.28.11.38.08.1.18.18.32.24s.3.08.49.08Zm9.22,1.1c-.45.08-.89.12-1.32.11-.43,0-.81-.08-1.15-.22-.34-.14-.59-.37-.77-.69-.16-.3-.24-.6-.25-.9,0-.31-.01-.66-.01-1.04v-5.53h1.63v5.44c0,.25,0,.48,0,.68,0,.2.05.36.13.48.14.23.37.35.69.37s.67,0,1.05-.05v1.36Zm-4.61-5.22v-1.26h4.61v1.26h-4.61Zm9.19,5.4c-.66,0-1.25-.14-1.76-.43-.5-.29-.9-.68-1.19-1.18-.28-.5-.43-1.08-.43-1.73,0-.71.14-1.32.42-1.85.28-.52.67-.93,1.16-1.22.49-.29,1.06-.44,1.7-.44.68,0,1.26.16,1.73.48.48.32.83.77,1.06,1.35s.31,1.26.24,2.05h-1.61v-.6c0-.66-.11-1.13-.32-1.42-.21-.29-.55-.44-1.03-.44-.56,0-.97.17-1.23.51-.26.34-.39.83-.39,1.49,0,.6.13,1.07.39,1.4.26.33.65.49,1.16.49.32,0,.59-.07.82-.21s.4-.34.52-.61l1.63.47c-.24.59-.63,1.05-1.16,1.38-.52.33-1.1.49-1.72.49Zm-2.15-2.96v-1.21h4.3v1.21h-4.3Z"/>
    <path d="m16.27,90l2.9-7.1h-3.7v-1.54h5.45v1.54l-2.89,7.1h-1.76Zm7.9,0l-1.08-1.08,7.56-7.56,1.08,1.09-7.56,7.55Zm5.76.18c-.4,0-.76-.1-1.09-.29-.32-.2-.58-.46-.78-.78-.2-.33-.29-.69-.29-1.09s.1-.75.3-1.08c.2-.33.46-.59.79-.79.33-.2.68-.29,1.07-.29s.76.1,1.09.29c.33.19.59.45.78.78.2.32.29.69.29,1.09s-.1.76-.29,1.09c-.19.32-.45.58-.78.78-.33.19-.69.29-1.09.29Zm0-1.38c.14,0,.27-.04.38-.11.12-.07.22-.17.29-.28.07-.12.11-.25.11-.39s-.04-.27-.11-.38c-.07-.12-.17-.22-.29-.29-.12-.07-.24-.11-.38-.11s-.27.04-.39.11c-.12.07-.21.17-.28.29-.07.12-.11.24-.11.38s.04.27.11.39c.07.12.17.21.28.28.12.07.25.11.39.11Zm-5.04-3.3c-.4,0-.76-.1-1.09-.29-.33-.2-.59-.46-.79-.78-.19-.33-.29-.69-.29-1.09s.1-.75.3-1.08c.2-.33.46-.59.79-.79.33-.2.68-.29,1.07-.29s.76.1,1.08.29c.33.19.59.45.79.78.2.32.29.69.29,1.09s-.1.76-.29,1.09c-.2.32-.46.58-.79.78-.32.19-.68.29-1.08.29Zm0-1.38c.14,0,.27-.04.38-.11.12-.07.22-.17.29-.28.07-.12.11-.25.11-.39s-.04-.27-.11-.38c-.07-.12-.17-.22-.29-.29-.12-.07-.24-.11-.38-.11s-.27.04-.39.11c-.12.07-.21.17-.28.29-.07.12-.11.24-.11.38s.04.27.11.39c.07.12.17.21.28.28.12.07.25.11.39.11Z"/>
    <path class="cls-3" d="m23.31,12.49h0c5.59,0,10.12,4.53,10.12,10.12h0c0,5.59-4.53,10.12-10.12,10.12h0c-5.59,0-10.12-4.53-10.12-10.12h0c0-5.59,4.53-10.12,10.12-10.12Z"/>
    <path class="cls-5" d="m27.69,24.46c-.3.71-.77,1.34-1.38,1.83-.6.49-1.31.82-2.07.97-.76.15-1.55.11-2.29-.11-.74-.22-1.42-.62-1.97-1.17-.55-.54-.96-1.22-1.19-1.96-.23-.74-.28-1.53-.14-2.29.14-.76.47-1.48.95-2.08.48-.61,1.11-1.09,1.82-1.4"/>
    <path class="cls-5" d="m28.06,22.61c0-.62-.12-1.24-.36-1.82-.24-.58-.59-1.1-1.03-1.54-.44-.44-.96-.79-1.54-1.03-.58-.24-1.19-.36-1.82-.36v4.75h4.75Z"/>
    <path d="m48.17,20.61v-8.01l-1.89,1.16v-2.1l1.89-1.13h1.95v10.08h-1.95Zm4.89-.01v-1.65l4.23-3.75c.32-.28.54-.54.67-.79.13-.25.2-.48.2-.69,0-.31-.06-.58-.19-.82-.13-.24-.3-.43-.53-.57-.23-.14-.5-.21-.81-.21s-.61.07-.85.22c-.24.14-.43.34-.57.58-.14.24-.2.5-.19.78h-1.96c0-.69.15-1.29.46-1.79.3-.5.73-.89,1.27-1.17.54-.28,1.17-.41,1.89-.41.66,0,1.25.14,1.76.43.52.28.93.68,1.23,1.2.3.51.45,1.11.45,1.78,0,.5-.07.91-.21,1.25-.14.33-.35.63-.62.91-.28.28-.61.59-1.01.94l-2.73,2.39-.15-.42h4.73v1.79h-7.06Zm13.12.01v-1.57h-4.38v-1.78l3.18-6.73h2.18l-3.18,6.73h2.2v-2.52h1.93v2.52h.9v1.78h-.9v1.57h-1.93Z"/>
    <path class="cls-3" d="m74.61,20.61v-10.08h1.71l3.33,6.69,3.33-6.69h1.71v10.08h-1.78v-6.02l-2.93,6.02h-.67l-2.93-6.02v6.02h-1.78Zm16.12.21c-.77,0-1.46-.17-2.05-.5-.59-.34-1.05-.8-1.39-1.38-.33-.59-.5-1.26-.5-2.02,0-.83.16-1.54.49-2.16.33-.61.78-1.08,1.35-1.42.57-.34,1.23-.51,1.98-.51.79,0,1.47.19,2.02.56.56.37.97.9,1.23,1.58.27.68.36,1.47.28,2.39h-1.88v-.7c0-.77-.12-1.32-.37-1.66-.24-.34-.64-.51-1.2-.51-.65,0-1.13.2-1.43.59-.3.39-.46.97-.46,1.74,0,.7.15,1.25.46,1.64.31.38.76.57,1.35.57.37,0,.69-.08.96-.25.27-.16.47-.4.61-.71l1.9.55c-.29.69-.74,1.23-1.35,1.61-.61.38-1.28.57-2.01.57Zm-2.51-3.46v-1.41h5.01v1.41h-5.01Zm11.58,3.46c-.77,0-1.46-.17-2.05-.5-.59-.34-1.05-.8-1.39-1.38-.33-.59-.5-1.26-.5-2.02,0-.83.16-1.54.49-2.16.33-.61.78-1.08,1.35-1.42.57-.34,1.24-.51,1.98-.51.79,0,1.47.19,2.02.56.56.37.97.9,1.23,1.58s.36,1.47.28,2.39h-1.88v-.7c0-.77-.12-1.32-.37-1.66-.24-.34-.64-.51-1.2-.51-.65,0-1.13.2-1.43.59-.3.39-.46.97-.46,1.74,0,.7.15,1.25.46,1.64.31.38.76.57,1.35.57.37,0,.69-.08.96-.25.27-.16.47-.4.61-.71l1.9.55c-.28.69-.74,1.23-1.35,1.61-.61.38-1.28.57-2.01.57Zm-2.51-3.46v-1.41h5.01v1.41h-5.01Zm12.61,3.25c-.52.1-1.04.14-1.54.13-.5,0-.95-.1-1.34-.26-.39-.17-.69-.44-.9-.81-.19-.35-.29-.7-.29-1.05,0-.36-.01-.77-.01-1.22v-6.45h1.9v6.34c0,.29,0,.56,0,.8,0,.23.06.42.15.56.17.27.44.41.8.43.37.02.78,0,1.23-.06v1.58Zm-5.38-6.09v-1.47h5.38v1.47h-5.38Zm7.76-2.52v-1.68h1.9v1.68h-1.9Zm0,8.61v-7.56h1.9v7.56h-1.9Zm9.71,0v-3.57c0-.17,0-.39-.03-.66-.02-.27-.08-.54-.18-.81-.1-.27-.26-.5-.48-.68-.22-.18-.53-.27-.94-.27-.16,0-.34.03-.53.08s-.36.15-.52.3c-.16.14-.3.36-.41.64-.1.28-.15.66-.15,1.13l-1.09-.52c0-.6.12-1.16.36-1.68.24-.52.61-.94,1.09-1.27.49-.32,1.11-.48,1.85-.48.59,0,1.08.1,1.45.3s.66.46.87.76c.21.31.36.63.45.97.09.33.14.63.16.91.02.28.03.48.03.6v4.24h-1.93Zm-5.17,0v-7.56h1.69v2.51h.24v5.05h-1.93Zm12.71,3.57c-.43,0-.84-.07-1.23-.21-.39-.14-.74-.33-1.04-.57-.3-.24-.55-.53-.74-.85l1.76-.85c.12.22.29.39.52.51.23.12.48.18.74.18.29,0,.55-.05.81-.15.25-.09.45-.24.6-.43.15-.19.23-.42.22-.7v-2.2h.24v-5.85h1.67v8.08c0,.19,0,.36-.03.53-.01.17-.04.33-.08.5-.12.46-.35.84-.68,1.14-.33.3-.73.52-1.2.67-.48.15-.99.22-1.55.22Zm-.17-3.36c-.7,0-1.3-.17-1.83-.53-.52-.35-.93-.83-1.22-1.43-.29-.6-.43-1.28-.43-2.04s.15-1.45.44-2.05c.3-.6.72-1.08,1.25-1.42.54-.35,1.17-.52,1.89-.52s1.32.17,1.81.52c.49.35.86.83,1.11,1.43s.38,1.28.38,2.04-.13,1.44-.38,2.04c-.25.6-.63,1.08-1.13,1.43-.5.35-1.13.53-1.88.53Zm.31-1.69c.42,0,.76-.1,1.01-.29.26-.19.44-.46.55-.81.11-.35.17-.75.17-1.2s-.06-.86-.17-1.2-.29-.61-.54-.81c-.24-.19-.56-.29-.96-.29-.42,0-.77.1-1.05.31-.27.21-.47.48-.6.83-.13.35-.2.73-.2,1.15s.06.81.19,1.16c.13.35.32.62.58.83.26.21.6.31,1.01.31Zm8.88,1.69c-.95,0-1.72-.21-2.31-.64-.58-.43-.94-1.05-1.06-1.83l1.95-.29c.08.35.25.63.53.83.27.2.62.3,1.04.3.35,0,.61-.07.8-.2.19-.14.28-.32.28-.56,0-.15-.04-.27-.11-.36-.08-.09-.24-.18-.5-.27-.26-.09-.66-.21-1.2-.35-.62-.16-1.11-.34-1.48-.53-.37-.2-.63-.43-.8-.7-.16-.28-.25-.61-.25-.99,0-.49.12-.91.37-1.26.25-.36.6-.63,1.04-.83.45-.2.98-.29,1.6-.29s1.12.09,1.57.27c.46.18.83.44,1.11.78.28.34.46.73.52,1.19l-1.95.35c-.03-.28-.15-.5-.36-.67-.21-.16-.49-.26-.85-.29-.35-.02-.63.02-.85.14-.21.12-.32.28-.32.5,0,.13.04.24.13.33.09.09.28.18.57.27.29.09.73.21,1.32.36.57.15,1.03.32,1.38.53.35.2.6.43.76.71.16.28.24.61.24,1,0,.77-.28,1.38-.84,1.83-.56.44-1.33.67-2.32.67Zm8.76-8.82v-1.68h1.9v1.68h-1.9Zm0,8.61v-7.56h1.9v7.56h-1.9Zm9.71,0v-3.57c0-.17,0-.39-.03-.66-.02-.27-.08-.54-.17-.81-.1-.27-.26-.5-.48-.68-.22-.18-.53-.27-.94-.27-.16,0-.34.03-.52.08-.19.05-.36.15-.53.3-.16.14-.3.36-.41.64-.1.28-.15.66-.15,1.13l-1.09-.52c0-.6.12-1.16.36-1.68.24-.52.61-.94,1.09-1.27.49-.32,1.11-.48,1.85-.48.59,0,1.08.1,1.45.3.37.2.66.46.87.76.21.31.36.63.45.97.09.33.14.63.16.91.02.28.03.48.03.6v4.24h-1.93Zm-5.17,0v-7.56h1.69v2.51h.24v5.05h-1.93Zm20.72.21l-2.94-2.93,1.18-1.18,2.93,2.93-1.16,1.18Zm-3.56,0c-1.01,0-1.88-.22-2.61-.66-.73-.44-1.29-1.05-1.69-1.84-.39-.79-.59-1.71-.59-2.75s.2-1.96.59-2.75c.4-.79.96-1.4,1.69-1.84.73-.44,1.6-.66,2.61-.66s1.88.22,2.6.66c.73.44,1.29,1.05,1.69,1.84.4.79.6,1.71.6,2.75s-.2,1.96-.6,2.75c-.39.79-.95,1.4-1.69,1.84-.73.44-1.6.66-2.6.66Zm0-1.79c.64,0,1.17-.13,1.6-.41.43-.28.74-.69.95-1.21.21-.52.32-1.13.32-1.83s-.11-1.31-.32-1.82c-.21-.51-.53-.91-.95-1.2-.42-.28-.96-.43-1.6-.44-.64,0-1.17.13-1.6.41-.42.28-.74.69-.96,1.21-.21.52-.31,1.13-.31,1.83s.1,1.31.31,1.82c.22.51.54.91.96,1.2.43.28.96.43,1.6.44Zm9.78,1.76c-.5,0-.99-.1-1.44-.3-.46-.21-.86-.49-1.2-.86-.34-.37-.58-.8-.72-1.3l1.85-.49c.1.37.29.66.57.86.29.2.6.3.94.3.29,0,.55-.07.79-.21.24-.14.43-.33.57-.57.14-.24.22-.5.22-.79,0-.43-.15-.81-.45-1.11-.29-.31-.67-.47-1.13-.47-.14,0-.27.02-.41.06-.13.04-.26.09-.38.16l-.85-1.5,3.21-2.66.14.41h-4.68v-1.79h6.3v1.79l-2.49,2.41v-.53c.57.09,1.05.29,1.45.61.4.31.71.7.91,1.16.21.46.32.94.32,1.46,0,.63-.16,1.21-.48,1.72-.32.5-.75.91-1.28,1.2-.53.29-1.12.44-1.75.44Zm9.25-.18v-10.08h6.16v1.9h-4.26v2.18h3.42v1.9h-3.42v4.09h-1.9Zm10.45,0v-4.1l-3.44-5.98h2.23l2.18,3.79,2.18-3.79h2.23l-3.44,5.98v4.1h-1.93Zm6.63-.01v-1.65l4.23-3.75c.32-.28.54-.54.67-.79.13-.25.2-.48.2-.69,0-.31-.06-.58-.19-.82-.13-.24-.3-.43-.53-.57-.23-.14-.5-.21-.8-.21s-.61.07-.85.22c-.24.14-.43.34-.57.58-.13.24-.2.5-.19.78h-1.96c0-.69.15-1.29.46-1.79.3-.5.73-.89,1.27-1.17.54-.28,1.17-.41,1.89-.41.66,0,1.25.14,1.76.43.52.28.93.68,1.23,1.2.3.51.45,1.11.45,1.78,0,.5-.07.91-.21,1.25-.14.33-.35.63-.62.91-.27.28-.61.59-1.01.94l-2.73,2.39-.15-.42h4.73v1.79h-7.06Zm12.23.2c-.5,0-.98-.1-1.44-.3-.46-.21-.86-.49-1.2-.86-.34-.37-.58-.8-.72-1.3l1.85-.49c.1.37.29.66.57.86.29.2.6.3.94.3.29,0,.55-.07.79-.21.24-.14.43-.33.57-.57.14-.24.22-.5.22-.79,0-.43-.15-.81-.45-1.11-.29-.31-.67-.47-1.13-.47-.14,0-.27.02-.41.06-.13.04-.26.09-.38.16l-.85-1.5,3.21-2.66.14.41h-4.68v-1.79h6.3v1.79l-2.49,2.41v-.53c.56.09,1.05.29,1.45.61.4.31.71.7.91,1.16.21.46.32.94.32,1.46,0,.63-.16,1.21-.48,1.72-.32.5-.75.91-1.28,1.2-.53.29-1.11.44-1.75.44Zm8.44-10.26h1.9l-2.69,10.08h-1.9l2.69-10.08ZM49.79,35.82c-.68,0-1.29-.14-1.82-.41-.53-.28-.94-.66-1.25-1.15-.3-.49-.45-1.05-.45-1.67,0-.53.12-1.03.36-1.51.24-.47.59-.86,1.04-1.15l-.04.59c-.34-.33-.61-.68-.81-1.05-.19-.37-.29-.78-.29-1.25,0-.58.14-1.09.41-1.53.28-.43.66-.77,1.15-1.01.49-.24,1.05-.36,1.69-.36s1.19.12,1.68.36c.49.24.87.57,1.15,1.01.28.43.42.94.42,1.53,0,.46-.09.88-.27,1.25-.18.36-.46.72-.83,1.06v-.59c.44.28.78.66,1.02,1.13.24.48.36.98.36,1.51,0,.63-.15,1.18-.46,1.67-.3.49-.72.87-1.25,1.15-.53.28-1.14.41-1.82.41Zm0-1.79c.45,0,.81-.12,1.09-.36s.42-.6.42-1.08-.14-.83-.42-1.08c-.28-.25-.64-.38-1.09-.38s-.81.13-1.08.38c-.28.25-.41.61-.41,1.08s.14.84.41,1.08.64.36,1.08.36Zm0-4.7c.36,0,.66-.09.89-.27.23-.18.34-.46.34-.84s-.11-.66-.34-.84c-.23-.19-.52-.28-.89-.28s-.66.09-.89.28c-.23.18-.34.46-.34.84s.11.66.34.84c.23.18.53.27.89.27Zm9.27,6.29v-10.08h6.16v1.9h-4.26v2.18h3.42v1.9h-3.42v4.09h-1.9Zm11.18.21c-.76,0-1.43-.17-2-.51-.57-.34-1.02-.81-1.34-1.41-.32-.6-.48-1.29-.48-2.07s.16-1.48.49-2.08c.33-.6.78-1.07,1.35-1.41s1.23-.5,1.98-.5,1.43.17,2,.51c.58.34,1.03.81,1.35,1.41.32.6.48,1.29.48,2.07s-.16,1.48-.49,2.08c-.32.6-.77,1.07-1.35,1.41-.57.34-1.24.5-1.99.5Zm0-1.78c.61,0,1.07-.21,1.36-.62.3-.42.46-.95.46-1.6s-.15-1.21-.46-1.61c-.3-.4-.76-.6-1.36-.6-.42,0-.76.09-1.02.28s-.46.45-.6.78c-.13.33-.19.72-.19,1.15,0,.68.15,1.22.45,1.62.31.4.76.59,1.35.59Zm5.93,1.57v-7.56h1.68v1.85l-.18-.24c.1-.26.23-.5.39-.71.16-.21.36-.39.6-.53.18-.11.38-.2.6-.26.22-.07.44-.11.67-.12.23-.02.46-.01.69.01v1.78c-.21-.07-.45-.09-.73-.06-.28.02-.53.08-.75.19-.22.1-.41.24-.57.41-.15.17-.27.37-.35.6-.08.23-.12.49-.12.78v3.86h-1.92Zm10.87,0c-.52.1-1.04.14-1.54.13-.5,0-.95-.1-1.34-.26-.39-.17-.69-.44-.9-.81-.19-.35-.28-.7-.29-1.05-.01-.36-.01-.77-.01-1.22v-6.45h1.9v6.34c0,.29,0,.56,0,.8,0,.23.06.42.15.56.17.27.44.41.81.43.37.02.78,0,1.22-.06v1.58Zm-5.38-6.09v-1.47h5.38v1.47h-5.38Zm10.43,6.31c-.59,0-1.07-.1-1.45-.3-.37-.2-.67-.46-.88-.76-.21-.31-.35-.63-.44-.96-.09-.34-.14-.64-.16-.92-.02-.28-.03-.48-.03-.6v-4.24h1.93v3.57c0,.17.01.39.03.67.02.27.08.53.18.81.1.27.26.5.48.68.22.18.54.27.95.27.16,0,.34-.03.52-.08.19-.05.36-.15.53-.29.16-.15.3-.37.4-.65.11-.29.16-.67.16-1.13l1.09.52c0,.6-.12,1.16-.36,1.68-.24.52-.61.94-1.1,1.27-.49.32-1.1.48-1.84.48Zm2.45-.22v-2.51h-.24v-5.05h1.92v7.56h-1.68Zm9.35,0v-3.57c0-.17,0-.39-.03-.66-.02-.27-.08-.54-.17-.81-.1-.27-.26-.5-.48-.68-.22-.18-.53-.27-.94-.27-.16,0-.34.03-.52.08-.19.05-.36.15-.53.3-.16.14-.3.36-.41.64-.1.28-.15.66-.15,1.13l-1.09-.52c0-.6.12-1.16.36-1.68.24-.52.61-.94,1.09-1.27.49-.32,1.11-.48,1.85-.48.59,0,1.07.1,1.45.3.37.2.66.45.87.76.21.31.36.63.45.97.09.33.14.63.16.91.02.28.03.48.03.6v4.24h-1.93Zm-5.17,0v-7.56h1.69v2.51h.24v5.05h-1.93Zm12.85.21c-.77,0-1.46-.17-2.05-.5-.59-.34-1.05-.8-1.39-1.38-.33-.59-.5-1.26-.5-2.02,0-.83.16-1.54.49-2.16.33-.61.78-1.08,1.35-1.42.57-.34,1.24-.51,1.98-.51.79,0,1.47.19,2.02.56.56.37.97.9,1.23,1.58.27.68.36,1.47.28,2.39h-1.88v-.7c0-.77-.12-1.32-.37-1.66-.24-.34-.64-.51-1.2-.51-.65,0-1.13.2-1.44.6-.3.39-.45.97-.45,1.74,0,.7.15,1.25.45,1.64.31.38.76.57,1.35.57.37,0,.69-.08.96-.24.27-.16.47-.4.61-.71l1.9.55c-.28.69-.74,1.23-1.35,1.61-.61.38-1.28.57-2.01.57Zm-2.51-3.46v-1.41h5.01v1.41h-5.01Zm13.18,3.25v-8.01l-1.89,1.16v-2.1l1.89-1.13h1.95v10.08h-1.95Zm8.9.21c-.75,0-1.4-.16-1.96-.47-.56-.31-1-.75-1.31-1.31-.31-.56-.47-1.21-.47-1.96v-3.02c0-.75.16-1.4.47-1.96.31-.56.75-1,1.31-1.31s1.21-.47,1.96-.47,1.4.16,1.96.47,1,.75,1.31,1.31c.31.56.47,1.21.47,1.96v3.02c0,.75-.16,1.4-.47,1.96-.31.56-.75,1-1.31,1.31-.56.31-1.21.47-1.96.47Zm0-1.81c.34,0,.64-.08.91-.24.27-.16.49-.37.64-.64.16-.27.24-.57.24-.91v-3.32c0-.34-.08-.64-.24-.91-.16-.27-.37-.49-.64-.64-.27-.16-.57-.24-.91-.24s-.64.08-.91.24c-.27.16-.49.37-.64.64-.16.27-.24.57-.24.91v3.32c0,.34.08.64.24.91.16.27.37.49.64.64s.57.24.91.24Zm9.99,1.81c-.75,0-1.4-.16-1.96-.47-.56-.31-1-.75-1.31-1.31-.31-.56-.47-1.21-.47-1.96v-3.02c0-.75.16-1.4.47-1.96.31-.56.75-1,1.31-1.31s1.21-.47,1.96-.47,1.4.16,1.96.47,1,.75,1.31,1.31c.31.56.47,1.21.47,1.96v3.02c0,.75-.16,1.4-.47,1.96-.31.56-.75,1-1.31,1.31-.56.31-1.21.47-1.96.47Zm0-1.81c.34,0,.64-.08.91-.24.27-.16.49-.37.64-.64.16-.27.24-.57.24-.91v-3.32c0-.34-.08-.64-.24-.91-.16-.27-.37-.49-.64-.64-.27-.16-.57-.24-.91-.24s-.64.08-.91.24c-.27.16-.49.37-.64.64-.16.27-.24.57-.24.91v3.32c0,.34.08.64.24.91.16.27.37.49.64.64.27.16.57.24.91.24Zm9.62,1.6v-10.08h4.26c.1,0,.23,0,.39.01.17,0,.32.02.45.04.6.09,1.09.29,1.48.59.39.3.67.69.85,1.15.18.46.27.97.27,1.53s-.09,1.08-.28,1.54c-.18.46-.47.84-.85,1.14-.38.3-.87.5-1.47.6-.13.02-.28.03-.45.04s-.3.01-.39.01h-2.35v3.42h-1.9Zm1.9-5.19h2.27c.1,0,.21,0,.32-.01.12,0,.22-.03.32-.06.26-.07.46-.19.6-.35.14-.17.24-.35.29-.55.06-.21.08-.4.08-.58s-.03-.37-.08-.57c-.05-.21-.15-.39-.29-.55-.14-.17-.34-.29-.6-.36-.1-.03-.21-.05-.32-.06-.12,0-.22-.01-.32-.01h-2.27v3.11Zm7.76,5.19v-7.56h1.68v1.85l-.18-.24c.1-.26.23-.5.39-.71.16-.21.36-.39.6-.53.18-.11.38-.2.6-.26.21-.07.44-.11.66-.12.23-.02.46-.01.69.01v1.78c-.21-.07-.46-.09-.74-.06-.28.02-.53.08-.75.19-.22.1-.41.24-.57.41-.15.17-.27.37-.35.6-.08.23-.12.49-.12.78v3.86h-1.92Zm9.6.21c-.76,0-1.43-.17-2-.51-.57-.34-1.02-.81-1.34-1.41-.32-.6-.48-1.29-.48-2.07s.16-1.48.49-2.08c.33-.6.78-1.07,1.35-1.41s1.24-.5,1.98-.5,1.43.17,2,.51c.58.34,1.03.81,1.35,1.41.32.6.48,1.29.48,2.07s-.16,1.48-.49,2.08c-.32.6-.77,1.07-1.35,1.41-.57.34-1.24.5-1.99.5Zm0-1.78c.61,0,1.07-.21,1.37-.62.3-.42.45-.95.45-1.6s-.15-1.21-.46-1.61c-.3-.4-.76-.6-1.36-.6-.41,0-.76.09-1.02.28-.27.19-.46.45-.6.78-.13.33-.19.72-.19,1.15,0,.68.15,1.22.46,1.62.31.4.76.59,1.35.59Zm8.68,1.78c-.95,0-1.72-.21-2.31-.64-.58-.43-.94-1.05-1.06-1.83l1.95-.29c.08.35.26.63.53.83.28.2.62.3,1.04.3.35,0,.61-.07.8-.2.19-.14.28-.32.28-.56,0-.15-.04-.27-.11-.36-.07-.09-.24-.18-.5-.27-.26-.09-.66-.21-1.2-.35-.62-.16-1.11-.34-1.48-.53-.37-.2-.63-.43-.8-.7-.16-.28-.25-.61-.25-.99,0-.49.12-.91.37-1.26.25-.36.6-.63,1.04-.83.45-.2.99-.29,1.6-.29s1.12.09,1.57.27c.46.18.83.44,1.11.78.28.34.46.73.52,1.19l-1.95.35c-.03-.28-.15-.5-.36-.67-.21-.16-.49-.26-.85-.29-.35-.02-.63.02-.85.14-.21.12-.32.28-.32.5,0,.13.04.24.13.33.09.09.28.18.57.27.29.09.73.21,1.32.36.57.15,1.03.32,1.38.52.35.2.6.43.76.71.16.28.24.61.24,1,0,.77-.28,1.38-.84,1.83-.56.44-1.33.66-2.32.66Zm8.97,0c-.75,0-1.38-.17-1.88-.52-.5-.35-.89-.83-1.14-1.43-.25-.6-.38-1.28-.38-2.04s.13-1.43.38-2.04c.25-.6.62-1.08,1.11-1.43.49-.35,1.09-.53,1.81-.53s1.35.17,1.89.52c.54.35.95.82,1.25,1.42.3.6.45,1.28.45,2.05s-.15,1.43-.44,2.04c-.29.6-.7,1.08-1.22,1.43-.52.35-1.13.52-1.83.52Zm-3.72,3.15v-10.92h1.68v5.18h.24v5.74h-1.92Zm3.42-4.84c.41,0,.75-.1,1.01-.31.26-.21.46-.48.58-.83.13-.35.19-.74.19-1.16s-.07-.8-.2-1.15c-.13-.35-.33-.63-.61-.83-.27-.21-.62-.31-1.04-.31-.4,0-.72.1-.97.29-.24.19-.42.46-.53.81-.11.35-.17.75-.17,1.2s.06.86.17,1.2.29.61.55.81c.26.19.6.29,1.02.29Zm9.41,1.69c-.78,0-1.46-.17-2.05-.5-.59-.34-1.05-.8-1.39-1.38-.33-.59-.5-1.26-.5-2.02,0-.83.16-1.54.49-2.16.33-.61.78-1.08,1.35-1.42.57-.34,1.23-.51,1.98-.51.79,0,1.47.19,2.02.56.56.37.97.9,1.23,1.58.27.68.36,1.47.28,2.39h-1.88v-.7c0-.77-.12-1.32-.37-1.66-.24-.34-.64-.51-1.2-.51-.65,0-1.13.2-1.43.6-.3.39-.46.97-.46,1.74,0,.7.15,1.25.46,1.64.31.38.76.57,1.35.57.37,0,.69-.08.96-.24.27-.16.47-.4.61-.71l1.9.55c-.29.69-.74,1.23-1.35,1.61-.61.38-1.28.57-2.01.57Zm-2.51-3.46v-1.41h5.01v1.41h-5.01Zm11.4,3.46c-.78,0-1.46-.17-2.02-.52-.56-.35-.99-.83-1.29-1.43-.3-.6-.45-1.28-.45-2.04s.15-1.45.46-2.05c.31-.6.75-1.08,1.32-1.42.56-.35,1.23-.52,2-.52.89,0,1.64.23,2.24.68.61.45.99,1.06,1.16,1.84l-1.9.5c-.11-.39-.31-.7-.59-.92-.28-.22-.59-.33-.94-.33-.4,0-.73.1-.99.29-.26.19-.45.46-.57.79-.12.33-.18.71-.18,1.13,0,.66.14,1.19.43,1.6.29.41.73.61,1.3.61.43,0,.76-.1.98-.29s.39-.48.5-.84l1.95.41c-.21.8-.62,1.42-1.22,1.86-.6.43-1.34.65-2.21.65Zm9.93-.21c-.52.1-1.04.14-1.54.13-.5,0-.95-.1-1.34-.26-.39-.17-.69-.44-.9-.81-.19-.35-.29-.7-.29-1.05,0-.36-.01-.77-.01-1.22v-6.45h1.9v6.34c0,.29,0,.56,0,.8,0,.23.06.42.15.56.17.27.44.41.8.43.37.02.78,0,1.23-.06v1.58Zm-5.38-6.09v-1.47h5.38v1.47h-5.38Zm10.57,6.3c-.95,0-1.72-.21-2.31-.64-.58-.43-.94-1.05-1.06-1.83l1.95-.29c.08.35.25.63.52.83.28.2.62.3,1.04.3.35,0,.61-.07.8-.2.19-.14.28-.32.28-.56,0-.15-.04-.27-.11-.36-.07-.09-.24-.18-.5-.27-.26-.09-.66-.21-1.2-.35-.62-.16-1.11-.34-1.48-.53-.37-.2-.63-.43-.8-.7-.16-.28-.24-.61-.24-.99,0-.49.12-.91.37-1.26.25-.36.6-.63,1.04-.83.45-.2.99-.29,1.6-.29s1.12.09,1.58.27c.46.18.83.44,1.11.78.29.34.46.73.52,1.19l-1.95.35c-.03-.28-.15-.5-.36-.67-.21-.16-.49-.26-.85-.29-.35-.02-.63.02-.85.14-.21.12-.32.28-.32.5,0,.13.05.24.13.33.09.09.28.18.57.27.29.09.73.21,1.32.36.57.15,1.03.32,1.38.52.35.2.61.43.76.71.16.28.24.61.24,1,0,.77-.28,1.38-.84,1.83-.56.44-1.33.66-2.32.66Z"/>
    <path class="cls-4" d="m119.27,94.8l20.88-11.26,15.63-15.78,26.73-2.72,21.8,2.5,22.77-12.05,24.71-2.26,23.28-14.69v56.27H119.27Z"/>
    <path class="cls-6" d="m118.29,105.23c-.19-.2-.29-.45-.29-.79v-1.49c0-.33.1-.59.29-.78.19-.19.45-.29.78-.29s.59.09.78.29c.19.19.29.45.29.78v1.5c0,.33-.1.59-.29.79-.19.2-.46.29-.78.29-.33-.01-.59-.11-.78-.3Zm1.23-.29c.11-.12.16-.26.16-.45v-1.56c0-.19-.06-.34-.16-.45-.11-.12-.26-.17-.44-.17s-.33.05-.43.17c-.11.12-.16.26-.16.45v1.56c0,.19.05.34.16.45.11.12.25.17.43.17s.33-.05.44-.17Z"/>
    <path class="cls-6" d="m121.19,101.92h.34s.04.01.05.02c.01.01.02.03.02.05v3.4s0,.04-.02.05c0,.01-.03.02-.05.02h-.32s-.04-.01-.05-.02c-.01,0-.02-.03-.02-.05v-2.97s-.51.16-.51.16c-.06,0-.08-.02-.08-.06v-.23s.02-.06.05-.08l.49-.25s.07-.03.1-.03Z"/>
    <path class="cls-6" d="m134.98,105.23c-.19-.2-.29-.45-.29-.79v-1.49c0-.33.1-.59.29-.78.19-.19.45-.29.79-.29s.59.09.78.29c.19.19.29.45.29.78v1.5c0,.33-.1.59-.29.79-.19.2-.46.29-.78.29-.33-.01-.58-.11-.79-.3Zm1.23-.29c.11-.12.16-.26.16-.45v-1.56c0-.19-.06-.34-.16-.45-.11-.12-.26-.17-.44-.17s-.33.05-.43.17c-.11.12-.16.26-.16.45v1.56c0,.19.05.34.16.45.11.12.25.17.43.17.19,0,.33-.05.44-.17Z"/>
    <path class="cls-6" d="m137.43,105.45s-.02-.03-.02-.05v-.26s0-.07.03-.09c.18-.21.36-.44.56-.68.19-.24.32-.4.37-.46.01-.01.06-.07.15-.19.3-.38.45-.66.45-.87,0-.16-.05-.28-.15-.39-.1-.09-.24-.15-.4-.15-.17,0-.3.05-.4.15-.1.1-.15.23-.15.39v.13s-.01.04-.02.05c0,0-.03.02-.05.02h-.32s-.04-.01-.05-.02c0-.01-.02-.03-.02-.05v-.19c0-.18.05-.34.14-.46.09-.14.21-.24.36-.31.15-.07.32-.11.51-.11.21,0,.39.04.54.13.15.08.27.19.36.34.08.15.13.3.13.48,0,.28-.14.61-.43,1-.18.25-.51.65-.98,1.21,0,.03,1.43.03,1.43.03.02,0,.04.01.05.02,0,.01.02.03.02.05v.27s0,.04-.02.05c-.01,0-.03.02-.05.02h-1.99s-.04-.02-.06-.04Z"/>
    <path class="cls-6" d="m152.29,105.23c-.19-.2-.29-.45-.29-.79v-1.49c0-.33.1-.59.29-.78.19-.19.45-.29.78-.29s.59.09.78.29c.19.19.29.45.29.78v1.5c0,.33-.1.59-.29.79-.19.2-.46.29-.78.29-.33-.01-.59-.11-.78-.3Zm1.23-.29c.11-.12.16-.26.16-.45v-1.56c0-.19-.06-.34-.16-.45-.11-.12-.26-.17-.44-.17s-.33.05-.43.17c-.11.12-.16.26-.16.45v1.56c0,.19.05.34.16.45.11.12.25.17.43.17s.33-.05.44-.17Z"/>
    <path class="cls-6" d="m156.72,104.37c0,.16-.03.32-.08.49-.07.21-.19.37-.35.48-.16.12-.36.17-.6.17s-.43-.06-.6-.19c-.17-.13-.29-.29-.36-.51-.04-.12-.06-.24-.06-.38,0-.05.02-.07.07-.07h.32c.05,0,.07.02.07.07.02.13.03.21.04.24.03.13.09.22.18.29.09.07.2.11.33.11.12,0,.23-.03.31-.09.08-.05.14-.15.18-.25.04-.13.07-.25.07-.4,0-.18-.03-.34-.08-.46-.08-.22-.24-.33-.48-.33-.05,0-.11,0-.17.04-.06.01-.08,0-.1-.02l-.15-.2s-.02-.03-.02-.05c0-.01.01-.03.02-.05l.81-.91s-1.3-.03-1.3-.03c-.02,0-.04-.01-.05-.02,0-.01-.02-.03-.02-.05v-.27s.01-.04.02-.05c.01-.01.03-.02.05-.02h1.84s.04.01.05.02c0,.01.02.03.02.05v.29s0,.07-.03.09l-.74.85c.35.06.58.23.71.56.07.18.1.38.1.6Z"/>
    <path class="cls-6" d="m169.42,105.23c-.19-.2-.29-.45-.29-.79v-1.49c0-.33.1-.59.29-.78.19-.19.45-.29.78-.29s.59.09.78.29c.19.2.29.45.29.78v1.5c0,.33-.1.59-.29.79-.19.2-.46.29-.78.29-.33-.01-.58-.11-.78-.3Zm1.23-.29c.11-.12.16-.26.16-.45v-1.56c0-.19-.06-.34-.16-.45-.11-.12-.26-.17-.44-.17s-.33.05-.43.17c-.11.12-.16.26-.16.45v1.56c0,.19.05.34.16.45.11.12.25.17.43.17.19,0,.34-.05.44-.17Z"/>
    <path class="cls-6" d="m174.06,104.1s.02.03.02.05v.28s-.01.04-.02.05c0,.01-.03.02-.05.02h-.18s-.02.88-.02.88c0,.02,0,.04-.02.05,0,0-.03.02-.05.02h-.32s-.04-.01-.05-.02c0-.01-.02-.03-.02-.05v-.85s-1.47-.02-1.47-.02c-.02,0-.04-.01-.05-.02,0-.01-.02-.03-.02-.05v-.23s.01-.06.02-.09l.95-2.14s.04-.05.08-.05h.34s.06.02.06.05c-.01.04-.9,2.08-.9,2.08,0,.03.97.03.97.03.02-.02.02-.76.02-.76,0-.02.01-.04.02-.05,0-.01.03-.02.05-.02h.32s.04.01.05.02c.01.01.02.03.02.05v.73s.21.02.21.02c.01,0,.03,0,.04.02Z"/>
    <path class="cls-6" d="m186.79,105.23c-.19-.2-.29-.45-.29-.79v-1.49c0-.33.1-.59.29-.78.19-.19.45-.29.78-.29s.59.09.78.29c.19.2.29.45.29.78v1.5c0,.33-.1.59-.29.79-.19.2-.46.29-.78.29-.33-.01-.59-.11-.78-.3Zm1.23-.29c.11-.12.16-.26.16-.45v-1.56c0-.19-.06-.34-.16-.45-.11-.12-.26-.17-.44-.17s-.33.05-.43.17c-.11.12-.16.26-.16.45v1.56c0,.19.05.34.16.45.11.12.25.17.43.17s.33-.05.44-.17Z"/>
    <path class="cls-6" d="m191.27,104.36c0,.16-.02.3-.06.44-.06.22-.18.39-.35.51-.17.13-.38.19-.62.19s-.44-.06-.6-.18c-.17-.13-.29-.28-.35-.49-.03-.08-.04-.16-.05-.22,0-.05.02-.08.07-.08h.33s.07.02.08.07c0,.04,0,.06.02.08.03.13.09.22.18.29.09.07.2.1.33.1s.24-.04.33-.12c.09-.07.15-.18.18-.32.03-.07.04-.17.04-.28,0-.09,0-.2-.03-.32-.02-.13-.08-.23-.17-.29-.09-.07-.21-.11-.35-.11-.12,0-.22.02-.31.07-.09.05-.16.13-.2.22-.02.04-.05.06-.09.06h-.34s-.04-.01-.05-.02c0-.01-.02-.03-.02-.05v-1.93s0-.04.02-.05c.01,0,.03-.02.05-.02h1.77s.04.01.05.02c.01.01.02.03.02.05v.27s0,.04-.02.05c-.01,0-.03.02-.05.02h-1.35s-.03,1.07-.03,1.07c.18-.13.38-.19.61-.19s.42.06.58.18c.16.11.27.28.33.49.03.14.05.28.05.45Z"/>
    <path class="cls-6" d="m204.03,105.23c-.19-.2-.29-.45-.29-.79v-1.49c0-.33.1-.59.29-.78.19-.19.45-.29.79-.29s.58.09.78.29c.2.19.29.45.29.78v1.5c0,.33-.1.59-.29.79-.2.2-.45.29-.78.29-.33-.01-.58-.11-.79-.3Zm1.24-.29c.11-.12.16-.26.16-.45v-1.56c0-.19-.05-.34-.16-.45-.11-.12-.26-.17-.44-.17s-.33.05-.44.17c-.11.12-.16.26-.16.45v1.56c0,.19.05.34.16.45.11.12.25.17.44.17.18,0,.33-.05.44-.17Z"/>
    <path class="cls-6" d="m208.51,104.36c0,.21-.03.39-.1.55-.07.19-.19.34-.35.44-.16.1-.35.16-.57.16-.24,0-.44-.05-.61-.17-.17-.12-.28-.27-.35-.48-.05-.15-.07-.31-.07-.49v-1.57c0-.27.09-.5.28-.66.18-.17.42-.25.72-.25.19,0,.36.04.5.12.15.07.26.18.34.32.08.14.12.28.12.46v.07s-.01.04-.02.05c-.01.01-.03.02-.05.02h-.32s-.04,0-.05-.01c-.02-.23-.07-.36-.16-.45-.09-.09-.21-.15-.36-.15-.16,0-.29.05-.38.15-.1.09-.15.23-.15.39v.63c.17-.15.37-.23.63-.23.38,0,.65.16.81.47.09.18.14.39.14.64Zm-.47,0c0-.17-.03-.32-.09-.42-.09-.2-.25-.29-.47-.29-.11,0-.21.02-.29.08-.08.05-.14.13-.18.22-.05.12-.08.25-.08.43,0,.15.02.26.06.36.04.1.1.19.19.24.08.05.18.08.3.08.24,0,.4-.1.48-.32.06-.1.08-.22.08-.38Z"/>
    <path class="cls-6" d="m221.38,105.23c-.19-.2-.29-.45-.29-.79v-1.49c0-.33.1-.59.29-.78.19-.19.45-.29.78-.29s.58.09.79.29c.2.19.29.45.29.78v1.5c0,.33-.1.59-.29.79-.2.2-.46.29-.79.29-.33-.01-.58-.11-.78-.3Zm1.23-.29c.11-.12.16-.26.16-.45v-1.56c0-.19-.05-.34-.16-.45-.11-.12-.26-.17-.44-.17s-.33.05-.44.17c-.11.12-.16.26-.16.45v1.56c0,.19.05.34.16.45.11.12.25.17.44.17s.33-.05.44-.17Z"/>
    <path class="cls-6" d="m224.2,105.38l1.09-3.01s-1.18-.03-1.18-.03c-.02.02-.02.23-.02.23,0,.02,0,.04-.02.05-.01.01-.03.02-.05.02h-.24s-.04-.01-.05-.02c0-.01-.02-.03-.02-.05v-.58s.01-.04.02-.05c.01-.01.03-.02.05-.02h1.95s.04,0,.05.02c.01.01.02.03.02.05v.31s0,.05-.01.1l-1.09,3.03s-.04.06-.08.06h-.35c-.07-.01-.09-.03-.07-.1Z"/>
    <path class="cls-6" d="m238.51,105.23c-.19-.2-.29-.45-.29-.79v-1.49c0-.33.1-.59.29-.78.19-.19.45-.29.79-.29s.58.09.78.29c.2.19.29.45.29.78v1.5c0,.33-.1.59-.29.79-.2.2-.46.29-.78.29-.33-.01-.59-.11-.79-.3Zm1.23-.29c.11-.12.16-.26.16-.45v-1.56c0-.19-.05-.34-.16-.45-.11-.12-.26-.17-.44-.17s-.33.05-.44.17c-.11.12-.16.26-.16.45v1.56c0,.19.05.34.16.45.11.12.25.17.44.17.18,0,.33-.05.44-.17Z"/>
    <path class="cls-6" d="m242.56,103.6c.14.08.24.2.3.36.06.14.09.3.09.5,0,.22-.04.41-.13.57-.08.16-.2.27-.35.36-.15.08-.34.13-.55.13s-.38-.04-.54-.13c-.15-.08-.27-.21-.36-.38-.08-.17-.13-.35-.13-.56,0-.19.04-.36.11-.51.07-.15.17-.26.29-.35-.1-.11-.19-.19-.25-.31-.09-.14-.14-.29-.14-.48,0-.2.05-.37.15-.51.08-.14.2-.24.35-.32.15-.07.32-.12.52-.12.22,0,.4.04.56.13.15.08.27.21.35.37.07.14.11.29.11.46s-.04.32-.13.46c-.08.11-.17.21-.27.29,0,.01.01.02.02.03Zm-1.19-.74c0,.13.03.24.09.33.04.07.11.14.19.18.08.04.17.06.28.06.22,0,.38-.08.48-.26.05-.08.08-.19.08-.31,0-.12-.02-.22-.06-.3-.05-.09-.11-.16-.2-.21-.08-.05-.19-.07-.3-.07-.23,0-.39.09-.49.27-.05.09-.07.2-.07.32Zm1.12,1.55c0-.11-.02-.21-.05-.3-.04-.1-.1-.19-.19-.25-.09-.05-.19-.08-.31-.08-.23,0-.39.1-.49.33-.04.1-.06.2-.06.33,0,.17.03.3.09.42.1.17.25.25.46.25s.36-.07.45-.23c.06-.12.1-.27.1-.45Z"/>
    <path class="cls-6" d="m255.76,105.23c-.19-.2-.29-.45-.29-.79v-1.49c0-.33.1-.59.29-.78.19-.19.45-.29.79-.29s.58.09.78.29c.2.19.29.45.29.78v1.5c0,.33-.1.59-.29.79-.2.2-.46.29-.78.29-.33-.01-.59-.11-.79-.3Zm1.23-.29c.11-.12.16-.26.16-.45v-1.56c0-.19-.05-.34-.16-.45-.11-.12-.26-.17-.44-.17s-.33.05-.44.17c-.11.12-.16.26-.16.45v1.56c0,.19.05.34.16.45.11.12.25.17.44.17.18,0,.33-.05.44-.17Z"/>
    <path class="cls-6" d="m260.18,103.03v1.57c0,.27-.09.5-.28.66-.18.17-.42.25-.72.25-.19,0-.36-.04-.5-.12-.15-.07-.26-.18-.34-.32-.08-.14-.12-.28-.12-.46v-.07s0-.04.02-.05c.01-.01.03-.02.05-.02h.32c.05,0,.07.01.07.04,0,.2.05.33.14.42.09.09.21.15.36.15.16,0,.29-.05.38-.15.1-.09.15-.23.15-.39v-.63c-.17.15-.37.23-.63.23-.38,0-.65-.16-.81-.47-.09-.18-.13-.4-.13-.64,0-.21.03-.39.1-.55.07-.19.19-.34.35-.44.16-.1.34-.16.57-.16s.44.05.61.17c.17.12.28.27.35.48.04.15.06.32.06.49Zm-.46-.03c0-.15-.02-.26-.06-.36-.04-.11-.1-.19-.19-.24-.08-.05-.19-.08-.3-.08-.24,0-.4.1-.48.33-.05.1-.07.23-.07.39,0,.17.03.3.09.42.09.2.25.29.47.29.11,0,.21-.02.29-.08.08-.05.14-.13.18-.22.04-.13.07-.26.07-.44Z"/>
    <path class="cls-6" d="m273.73,101.92h.34s.04,0,.05.02c0,.01.02.03.02.05v3.4s-.01.04-.02.05c-.01.01-.03.02-.05.02h-.32s-.04,0-.05-.02c-.01,0-.02-.03-.02-.05v-2.97s-.51.16-.51.16c-.06,0-.08-.02-.08-.06v-.23s.02-.06.05-.08l.49-.25s.06-.03.1-.03Z"/>
    <path class="cls-6" d="m275.14,105.23c-.19-.2-.29-.45-.29-.79v-1.49c0-.33.1-.59.29-.78.19-.19.45-.29.79-.29s.58.09.78.29c.2.19.29.45.29.78v1.5c0,.33-.1.59-.29.79-.2.2-.46.29-.78.29-.33-.01-.59-.11-.79-.3Zm1.23-.29c.11-.12.16-.26.16-.45v-1.56c0-.19-.05-.34-.16-.45-.11-.12-.26-.17-.44-.17s-.33.05-.44.17c-.11.12-.16.26-.16.45v1.56c0,.19.05.34.16.45.11.12.25.17.44.17.18,0,.33-.05.44-.17Z"/>
    <path class="cls-3" d="m275.17,40.05c.47-.29.62-.9.33-1.37-.29-.47-.91-.62-1.38-.33l1.05,1.71Zm-134.84,42.06l.45.89.14-.07.11-.11-.71-.71Zm15-15.01l-.1-.99-.36.03-.25.25.71.71Zm26.69-2.49l.12-.99h-.11s-.11,0-.11,0l.1,1Zm21.85,2.64l-.12.99.31.04.27-.14-.47-.89Zm22.29-11.68l-.09-1-.2.02-.18.09.47.89Zm25.23-2.13l.09,1,.24-.02.2-.12-.52-.85Zm-132.42,40.51l21.8-10.95-.9-1.79-21.8,10.95.9,1.79Zm22.06-11.13l15-15.01-1.42-1.42-15,15.01,1.42,1.42Zm14.39-14.72l26.69-2.49-.19-1.99-26.69,2.49.19,1.99Zm26.48-2.49l21.85,2.63.23-1.99-21.85-2.64-.23,1.99Zm22.43,2.53l22.29-11.68-.93-1.77-22.29,11.68.93,1.77Zm21.91-11.57l25.23-2.13-.17-1.99-25.23,2.13.17,1.99Zm25.67-2.27l23.25-14.25-1.05-1.71-23.25,14.25,1.05,1.71Z"/>
  </g>
</svg>