<svg  width="220" height="190" viewBox="0 0 213 192" fill="none" xmlns="http://www.w3.org/2000/svg" preserveAspectRatio="none">
<path d="M38.5324 0.00195312C21.0691 0.00195312 6.91 13.5566 6.91 30.2745V79.8713C6.91 80.6956 7.6087 81.3645 8.46969 81.3645C9.33069 81.3645 10.0294 80.6956 10.0294 79.8713V30.2702C10.0294 15.2008 22.7911 2.98823 38.5279 2.98823H115.5V0.00195312H38.5324Z" fill="#956DF8"/>
<path d="M175.023 0.00195312H113.662V2.98823H175.023C190.764 2.98823 203.521 15.2051 203.521 30.2702V71.0722C203.521 71.8965 204.22 72.5654 205.081 72.5654C205.942 72.5654 206.641 71.8965 206.641 71.0722V30.2702C206.645 13.5523 192.491 0.00195312 175.023 0.00195312Z" fill="#956DF8"/>
<path d="M212.892 86.8099C212.892 82.5031 209.06 79.0335 204.489 79.3615C200.707 79.6334 197.642 82.5334 197.317 86.1453C197.042 89.1834 198.679 91.8891 201.207 93.283C202.632 94.0684 203.533 95.5097 203.533 97.0849V97.8962H206.653V97.0849C206.653 95.5313 207.505 94.077 208.92 93.3132C211.287 92.0315 212.892 89.5976 212.892 86.8099ZM205.089 91.2893C202.506 91.2893 200.405 89.2783 200.405 86.8056C200.405 84.3329 202.506 82.3219 205.089 82.3219C207.672 82.3219 209.772 84.3329 209.772 86.8056C209.772 89.2783 207.672 91.2893 205.089 91.2893Z" fill="#956DF8"/>
<path d="M205.089 89.631C206.717 89.631 208.037 88.3675 208.037 86.8088C208.037 85.2501 206.717 83.9865 205.089 83.9865C203.461 83.9865 202.141 85.2501 202.141 86.8088C202.141 88.3675 203.461 89.631 205.089 89.631Z" fill="#956DF8"/>
<path d="M212.891 103.873C212.891 99.5663 209.06 96.0967 204.489 96.4247C200.707 96.6965 197.641 99.5965 197.317 103.213C197.042 106.251 198.678 108.957 201.207 110.35C202.632 111.136 203.533 112.577 203.533 114.152V160.94C203.533 176.009 190.771 188.222 175.035 188.222H38.5331C22.7918 188.222 10.0346 176.005 10.0346 160.94V105.884C10.0346 104.309 10.9317 102.868 12.3607 102.082C14.885 100.688 16.5214 97.9825 16.2464 94.9445C15.9173 91.3282 12.852 88.4282 9.07447 88.1564C4.50353 87.8284 0.671875 91.298 0.671875 95.6048C0.671875 98.3925 2.27666 100.831 4.64778 102.112C6.05873 102.876 6.9152 104.33 6.9152 105.884V160.94C6.9152 177.658 21.0743 191.212 38.5376 191.212H175.03C192.493 191.212 206.652 177.658 206.652 160.94V114.148C206.652 112.594 207.504 111.14 208.92 110.376C211.287 109.095 212.891 106.661 212.891 103.873ZM3.79128 95.6048C3.79128 93.132 5.89194 91.121 8.47492 91.121C11.0579 91.121 13.1586 93.132 13.1586 95.6048C13.1586 98.0775 11.0579 100.088 8.47492 100.088C5.89194 100.088 3.79128 98.0775 3.79128 95.6048ZM205.088 108.352C202.505 108.352 200.405 106.341 200.405 103.869C200.405 101.396 202.505 99.385 205.088 99.385C207.671 99.385 209.772 101.396 209.772 103.869C209.772 106.341 207.671 108.352 205.088 108.352Z" fill="#956DF8"/>
<path d="M205.089 106.694C206.717 106.694 208.037 105.43 208.037 103.871C208.037 102.313 206.717 101.049 205.089 101.049C203.461 101.049 202.141 102.313 202.141 103.871C202.141 105.43 203.461 106.694 205.089 106.694Z" fill="#956DF8"/>
</svg>
