<svg width="56" height="53" viewBox="0 0 56 53" fill="none" xmlns="http://www.w3.org/2000/svg">
<path d="M11.1519 28.1448L8.80877 41.8951C8.57923 43.2331 10.0701 44.2492 11.3156 43.5856L21.2131 38.3487C21.2131 28.1513 29.8789 19.8554 40.5311 19.8554C41.6992 19.8554 42.8401 19.9729 43.9515 20.1622L45.7287 18.4195C46.6946 17.4731 46.1401 15.8674 44.7674 15.6673L31.1403 13.6722L25.0313 1.20987C24.4699 0.0654607 22.5086 0.0654607 21.9472 1.20987L15.8314 13.6743L2.20432 15.6673C0.829336 15.8696 0.279343 17.4752 1.24297 18.4195L11.1519 28.1448Z" fill="#9968F7"/>
<path d="M40.5264 24.207C32.3811 24.207 25.7539 30.5513 25.7539 38.3489C25.7539 46.1466 32.3811 52.4909 40.5264 52.4909C48.6718 52.4909 55.299 46.1466 55.299 38.3489C55.299 30.5513 48.6718 24.207 40.5264 24.207ZM45.7082 41.0033C46.3741 41.6408 46.3741 42.6742 45.7082 43.3117C45.3764 43.6293 44.94 43.7881 44.5036 43.7881C44.0673 43.7881 43.6309 43.6293 43.2991 43.3095L40.5264 40.6552L37.7537 43.3095C37.4219 43.6293 36.9856 43.7881 36.5492 43.7881C36.1129 43.7881 35.6765 43.6293 35.3447 43.3095C34.6788 42.672 34.6788 41.6386 35.3447 41.0011L38.1174 38.3468L35.3447 35.6924C34.6788 35.055 34.6788 34.0215 35.3447 33.384C36.0106 32.7466 37.0901 32.7466 37.756 33.384L40.5287 36.0384L43.3014 33.384C43.9673 32.7466 45.0468 32.7466 45.7127 33.384C46.3786 34.0215 46.3786 35.055 45.7127 35.6924L42.94 38.3468L45.7082 41.0033Z" fill="#9968F7"/>
</svg>
