<svg width="45" height="43" viewBox="0 0 45 43" fill="none" xmlns="http://www.w3.org/2000/svg">
<path d="M12.7374 24.2939C19.5183 24.2939 25.0353 19.0125 25.0353 12.521C25.0353 6.02952 19.5183 0.748047 12.7374 0.748047C5.95643 0.748047 0.439453 6.02952 0.439453 12.521C0.439453 19.0125 5.95643 24.2939 12.7374 24.2939ZM9.27516 15.5313C9.66203 14.9639 10.4563 14.8053 11.0481 15.1756C11.6724 15.5672 11.8731 15.5967 12.7288 15.5918C13.553 15.5869 13.8809 14.9671 13.945 14.6025C14.003 14.2747 13.9381 13.8389 13.3036 13.6239C12.2395 13.2642 11.1489 12.8513 10.376 12.2708C9.55443 11.6536 9.17609 10.5948 9.39045 9.50826C9.61062 8.3913 10.4005 7.49255 11.4689 7.12588C11.5522 6.5257 12.0876 6.06222 12.7374 6.06222C13.4325 6.06222 13.997 6.59258 14.0165 7.2535C14.303 7.35463 14.5767 7.47375 14.8279 7.60006C15.5545 7.96511 15.7241 8.88887 15.1679 9.46648C15.1593 9.47539 15.1507 9.48439 15.1421 9.4933C14.75 9.90045 14.114 10.0004 13.6132 9.7232C13.2112 9.50058 12.7324 9.31671 12.3607 9.42405C12.02 9.52216 11.9278 9.86063 11.9081 9.96283C11.8663 10.1746 11.926 10.3168 11.9576 10.3405C12.441 10.7035 13.3403 11.0355 14.1567 11.3118C15.8306 11.8776 16.7607 13.3639 16.472 15.0088C16.2389 16.3374 15.2765 17.3934 14.0145 17.8285C13.9737 18.4707 13.4184 18.9798 12.7374 18.9798C12.1068 18.9798 11.5838 18.5433 11.4773 17.9689C10.8791 17.8715 10.3352 17.6603 9.64581 17.2285C9.05406 16.8574 8.88744 16.0978 9.27516 15.5313Z" fill="#9A67F7"/>
<path d="M12.0527 29.6074H5.22049C4.51336 29.6074 3.93945 30.1568 3.93945 30.8338V41.3804C3.93945 42.0573 4.51336 42.6067 5.22049 42.6067H12.0527C12.7598 42.6067 13.3337 42.0573 13.3337 41.3804V30.8338C13.3337 30.1568 12.7598 29.6074 12.0527 29.6074Z" fill="#9A67F7"/>
<path d="M39.3808 20.4531H32.5486C31.8415 20.4531 31.2676 21.0025 31.2676 21.6795V41.3828C31.2676 42.0597 31.8415 42.6091 32.5486 42.6091H39.3808C40.0879 42.6091 40.6618 42.0597 40.6618 41.3828V21.6795C40.6618 21.0025 40.0879 20.4531 39.3808 20.4531Z" fill="#9A67F7"/>
<path d="M25.7187 25.6836H18.8865C18.1794 25.6836 17.6055 26.233 17.6055 26.9099V41.3809C17.6055 42.0578 18.1794 42.6072 18.8865 42.6072H25.7187C26.4258 42.6072 26.9997 42.0578 26.9997 41.3809V26.9099C26.9997 26.233 26.4258 25.6836 25.7187 25.6836Z" fill="#9A67F7"/>
<path d="M43.9272 10.4983L37.0096 1.25984C36.7689 0.93854 36.3811 0.748047 35.9686 0.748047H35.9651C35.5509 0.748864 35.1624 0.94181 34.9232 1.26557L28.0911 10.5041C27.8144 10.8785 27.7785 11.369 27.9988 11.7762C28.2183 12.1833 28.6573 12.4392 29.1364 12.4392H31.2714V16.4453C31.2714 17.1222 31.8453 17.6717 32.5525 17.6717H39.3847C40.0918 17.6717 40.6657 17.1222 40.6657 16.4453V12.4392H42.8861C43.3661 12.4392 43.8059 12.1817 44.0254 11.7729C44.245 11.3641 44.2073 10.872 43.9272 10.4983Z" fill="#9A67F7"/>
</svg>
