<svg width="100" height="92" viewBox="0 0 100 92" fill="none" xmlns="http://www.w3.org/2000/svg">
<path d="M98.5323 88.2768H91.7867V60.8105C91.7867 59.9999 91.1295 59.3428 90.319 59.3428C89.5084 59.3428 88.8513 59.9999 88.8513 60.8105V88.2768H77.4204V39.9657C77.4204 39.696 77.6397 39.4764 77.9096 39.4764H88.362C88.6317 39.4764 88.8513 39.696 88.8513 39.9657V54.9396C88.8513 55.7502 89.5084 56.4074 90.319 56.4074C91.1295 56.4074 91.7867 55.7502 91.7867 54.9396V39.9657C91.7867 38.0774 90.2505 36.541 88.362 36.541H77.9096C76.0213 36.541 74.4849 38.0774 74.4849 39.9657V88.277H69.6961V50.6471C69.6961 48.7588 68.1597 47.2224 66.2714 47.2224H55.819C53.9305 47.2224 52.3943 48.7588 52.3943 50.6471V88.277H47.6055V61.3285C47.6055 59.4402 46.0693 57.9038 44.1808 57.9038H33.7284C31.8401 57.9038 30.3037 59.4402 30.3037 61.3285V74.1625C30.3037 74.9731 30.9609 75.6302 31.7714 75.6302C32.582 75.6302 33.2391 74.9731 33.2391 74.1625V61.3285C33.2391 61.0586 33.4587 60.8393 33.7284 60.8393H44.1808C44.4507 60.8393 44.6701 61.0586 44.6701 61.3285V88.2768H33.2391V80.0334C33.2391 79.2228 32.582 78.5657 31.7714 78.5657C30.9609 78.5657 30.3037 79.2228 30.3037 80.0334V88.2768H25.5149V72.0099C25.5149 70.1216 23.9787 68.5852 22.0902 68.5852H11.638C9.74971 68.5852 8.21331 70.1216 8.21331 72.0099V88.2768H1.46771C0.657143 88.2768 0 88.934 0 89.7445C0 90.5551 0.657143 91.2122 1.46771 91.2122H98.5323C99.3429 91.2122 100 90.5551 100 89.7445C100 88.934 99.3429 88.2768 98.5323 88.2768ZM55.3297 50.6471C55.3297 50.3774 55.5493 50.1578 55.819 50.1578H66.2714C66.5411 50.1578 66.7607 50.3774 66.7607 50.6471V88.277H55.3297V50.6471ZM11.1487 72.0099C11.1487 71.7402 11.3683 71.5207 11.638 71.5207H22.0904C22.3603 71.5207 22.5796 71.7402 22.5796 72.0099V88.2768H11.1487V72.0099Z" fill="#9E59F7"/>
<path d="M15.6716 51.0626C15.752 51.0626 15.8332 51.0597 15.9146 51.0542C26.7389 50.3023 36.9176 47.9401 46.1682 44.033C58.6246 38.772 68.9367 30.8416 76.8393 20.4501L81.786 23.8896C82.7606 24.6162 84.2455 23.7428 84.0843 22.5379L82.034 2.11366C81.9673 1.24145 81.0449 0.599766 80.2037 0.839883L60.3254 6.01718C59.1387 6.28489 58.8365 7.98157 59.8573 8.64262L64.8493 12.1135C63.8561 13.6739 61.6678 16.7681 57.8524 20.5528C57.2768 21.1238 57.2731 22.053 57.844 22.6283C58.4148 23.2039 59.3442 23.2076 59.9195 22.6368C65.8015 16.8021 68.0222 12.536 68.1138 12.3573C68.4491 11.7033 68.2491 10.9021 67.6457 10.4825L64.1526 8.05378L79.2847 4.11268L80.8455 19.66L77.3494 17.2293C76.6947 16.7741 75.797 16.9248 75.3266 17.5683C67.6361 28.0908 57.4414 36.0851 45.0262 41.3287C33.8761 46.0379 22.9303 47.624 15.7115 48.1256C15.2898 48.2336 15.162 47.4593 15.5819 47.4142C31.6631 42.4516 45.0931 35.4751 55.4988 26.6786C56.1179 26.1553 56.1954 25.2293 55.6722 24.6103C55.1491 23.9914 54.2226 23.9135 53.6039 24.4369C43.5017 32.9769 30.4181 39.7638 14.7166 44.6094C13.086 45.1125 12.1293 46.6939 12.4416 48.3694C12.7385 49.9628 14.0765 51.0626 15.6716 51.0626Z" fill="#9E59F7"/>
</svg>
