<svg width="77" height="98" viewBox="0 0 77 98" fill="none" xmlns="http://www.w3.org/2000/svg">
<path d="M13.5823 55.6498C12.0248 55.6498 10.5023 56.1164 9.20735 56.9905C7.91235 57.8647 6.90301 59.1072 6.30697 60.561C5.71093 62.0147 5.55496 63.6143 5.85878 65.1576C6.16261 66.7009 6.91258 68.1185 8.01385 69.2312C9.11513 70.3438 10.5183 71.1016 12.0458 71.4086C13.5733 71.7155 15.1566 71.558 16.5956 70.9559C18.0345 70.3537 19.2643 69.334 20.1296 68.0257C20.9949 66.7173 21.4567 65.1792 21.4567 63.6056C21.4544 61.4964 20.624 59.4742 19.1478 57.9827C17.6715 56.4913 15.67 55.6523 13.5823 55.6498ZM13.5823 68.4989C12.6244 68.499 11.6879 68.212 10.8914 67.6744C10.0949 67.1367 9.47409 66.3725 9.10748 65.4784C8.74087 64.5842 8.64493 63.6003 8.83179 62.6511C9.01865 61.7019 9.47992 60.83 10.1573 60.1456C10.8346 59.4613 11.6976 58.9952 12.6372 58.8064C13.5767 58.6175 14.5505 58.7144 15.4355 59.0848C16.3206 59.4552 17.077 60.0823 17.6092 60.887C18.1414 61.6917 18.4255 62.6378 18.4255 63.6056C18.424 64.9029 17.9133 66.1467 17.0054 67.064C16.0974 67.9814 14.8664 68.4974 13.5823 68.4989ZM0.121094 79.7467V92.6374C0.121094 93.0435 0.280776 93.433 0.56501 93.7201C0.849245 94.0073 1.23475 94.1686 1.63672 94.1686H19.4322V96.4688C19.4322 96.8749 19.5919 97.2643 19.8762 97.5515C20.1604 97.8387 20.5459 98 20.9479 98H56.0511C56.453 98 56.8385 97.8387 57.1228 97.5515C57.407 97.2643 57.5667 96.8749 57.5667 96.4688V94.1686H75.3624C75.7644 94.1686 76.1499 94.0073 76.4341 93.7201C76.7183 93.433 76.878 93.0435 76.878 92.6374V79.7467C76.8758 77.792 76.1062 75.9179 74.7381 74.5357C73.37 73.1535 71.5151 72.376 69.5803 72.3738H57.2535C56.9038 72.374 56.5546 72.3996 56.2085 72.4503C55.3285 70.9192 54.0662 69.6483 52.5477 68.7644C51.0293 67.8805 49.3079 67.4146 47.5554 67.4133H29.4437C27.6913 67.4146 25.9699 67.8805 24.4514 68.7645C22.933 69.6484 21.6708 70.9194 20.7908 72.4505C20.4448 72.3998 20.0956 72.3742 19.746 72.374H7.41883C5.48406 72.3762 3.62916 73.1537 2.26105 74.5358C0.892947 75.918 0.12335 77.792 0.121094 79.7467ZM69.5803 75.4363C70.7114 75.4376 71.7959 75.8921 72.5957 76.7002C73.3955 77.5083 73.8455 78.6039 73.8468 79.7467V91.1061H70.8364V82.7641C70.8364 82.3579 70.6767 81.9685 70.3924 81.6813C70.1082 81.3941 69.7227 81.2328 69.3207 81.2328C68.9188 81.2328 68.5333 81.3941 68.249 81.6813C67.9648 81.9685 67.8051 82.3579 67.8051 82.7641V91.1063H57.5667V77.5283C57.5667 76.8253 57.4941 76.1241 57.3501 75.4363H69.5803ZM22.4633 77.5283C22.4652 75.6585 23.2012 73.8658 24.5099 72.5436C25.8186 71.2214 27.5929 70.4778 29.4437 70.4758H47.5554C49.406 70.4779 51.1801 71.2216 52.4886 72.5436C53.7972 73.8657 54.5332 75.6581 54.5352 77.5278V94.9375H48.6853C48.6868 94.9084 48.6897 94.8801 48.6897 94.85V81.9615C48.6897 81.5554 48.53 81.1659 48.2458 80.8787C47.9615 80.5916 47.576 80.4302 47.174 80.4302C46.7721 80.4302 46.3866 80.5916 46.1023 80.8787C45.8181 81.1659 45.6584 81.5554 45.6584 81.9615V94.85C45.6584 94.8795 45.6611 94.9084 45.6628 94.9375H31.3363C31.3379 94.9084 31.3407 94.8801 31.3407 94.85V81.9615C31.3407 81.5554 31.181 81.1659 30.8968 80.8787C30.6125 80.5916 30.227 80.4302 29.8251 80.4302C29.4231 80.4302 29.0376 80.5916 28.7534 80.8787C28.4691 81.1659 28.3094 81.5554 28.3094 81.9615V94.85C28.3094 94.8795 28.3121 94.9084 28.3138 94.9375H22.4635L22.4633 77.5283ZM3.15234 79.7467C3.15365 78.6039 3.60357 77.5083 4.40341 76.7002C5.20325 75.8921 6.28769 75.4376 7.41883 75.4363H19.649C19.505 76.1241 19.4323 76.8253 19.4322 77.5283V91.1061H9.194V82.7641C9.194 82.3579 9.03432 81.9685 8.75009 81.6813C8.46585 81.3941 8.08035 81.2328 7.67838 81.2328C7.27641 81.2328 6.8909 81.3941 6.60667 81.6813C6.32243 81.9685 6.16275 82.3579 6.16275 82.7641V91.1063H3.15234V79.7467ZM63.4174 71.5614C64.9748 71.5614 66.4973 71.0948 67.7923 70.2206C69.0873 69.3465 70.0966 68.1039 70.6926 66.6502C71.2886 65.1965 71.4445 63.5968 71.1407 62.0535C70.8368 60.5103 70.0869 59.0927 68.9856 57.98C67.8843 56.8674 66.4812 56.1097 64.9536 55.8027C63.4261 55.4957 61.8428 55.6533 60.4039 56.2554C58.965 56.8576 57.7351 57.8773 56.8699 59.1856C56.0046 60.494 55.5428 62.0321 55.5428 63.6056C55.5451 65.7149 56.3755 67.737 57.8517 69.2285C59.3278 70.7199 61.3293 71.559 63.417 71.5614H63.4174ZM63.4174 58.7123C64.3753 58.7123 65.3117 58.9993 66.1082 59.537C66.9047 60.0747 67.5255 60.8389 67.8921 61.7331C68.2587 62.6272 68.3546 63.6111 68.1677 64.5603C67.9808 65.5095 67.5195 66.3814 66.8422 67.0657C66.1648 67.7501 65.3018 68.2161 64.3623 68.4049C63.4228 68.5937 62.4489 68.4968 61.5639 68.1265C60.6789 67.7561 59.9225 67.1289 59.3903 66.3242C58.8581 65.5195 58.574 64.5734 58.574 63.6056C58.5754 62.3084 59.0861 61.0646 59.994 60.1473C60.9019 59.2299 62.133 58.7139 63.417 58.7123H63.4174ZM27.6411 53.8123C27.6411 55.9822 28.2781 58.1032 29.4713 59.9073C30.6646 61.7114 32.3605 63.1175 34.3448 63.9478C36.329 64.7781 38.5124 64.9953 40.6188 64.5719C42.7252 64.1485 44.66 63.1036 46.1786 61.5692C47.6972 60.0349 48.7313 58.08 49.1502 55.9519C49.5692 53.8237 49.354 51.6179 48.5321 49.6132C47.7101 47.6086 46.3183 45.8953 44.5325 44.6898C42.7467 43.4844 40.6472 42.841 38.4996 42.8411C35.6206 42.8445 32.8605 44.0014 30.8248 46.0581C28.7891 48.1148 27.644 50.9033 27.6407 53.812L27.6411 53.8123ZM46.3276 53.8123C46.3275 55.3764 45.8684 56.9054 45.0082 58.2058C44.1481 59.5063 42.9256 60.5199 41.4953 61.1184C40.065 61.7169 38.4911 61.8735 36.9727 61.5683C35.4544 61.2631 34.0597 60.51 32.965 59.404C31.8703 58.298 31.1248 56.8889 30.8227 55.3549C30.5207 53.8209 30.6757 52.2308 31.2681 50.7857C31.8605 49.3407 32.8637 48.1056 34.1509 47.2366C35.4381 46.3676 36.9514 45.9037 38.4996 45.9036C40.5749 45.906 42.5645 46.7399 44.032 48.2225C45.4995 49.7051 46.3249 51.7153 46.3272 53.812L46.3276 53.8123ZM38.4996 1.00561e-09C34.9319 -3.78555e-05 31.4444 1.06876 28.478 3.07125C25.5116 5.07373 23.1996 7.91995 21.8343 11.25C20.469 14.58 20.1117 18.2443 20.8077 21.7795C21.5037 25.3146 23.2217 28.5619 25.7444 31.1106C28.2671 33.6593 31.4812 35.395 34.9803 36.0982C38.4794 36.8014 42.1063 36.4404 45.4024 35.0611C48.6984 33.6817 51.5156 31.3458 53.4977 28.3489C55.4797 25.3519 56.5376 21.8284 56.5376 18.224C56.5322 13.3924 54.63 8.7602 51.2484 5.34372C47.8668 1.92725 43.2819 0.00547131 38.4996 1.00561e-09ZM38.4996 33.3857C35.5315 33.3857 32.63 32.4965 30.1621 30.8305C27.6942 29.1646 25.7707 26.7967 24.6348 24.0262C23.4989 21.2558 23.2017 18.2073 23.7807 15.2662C24.3598 12.3251 25.789 9.62354 27.8878 7.50313C29.9865 5.38271 32.6605 3.93868 35.5716 3.35365C38.4827 2.76862 41.5001 3.06886 44.2422 4.2164C46.9844 5.36395 49.3282 7.30726 50.9772 9.80059C52.6262 12.2939 53.5063 15.2253 53.5063 18.224C53.5019 22.2437 51.9194 26.0975 49.1061 28.9399C46.2927 31.7823 42.4783 33.3811 38.4996 33.3857ZM42.0575 13.4905C42.0575 13.8966 42.2172 14.2861 42.5014 14.5733C42.7856 14.8604 43.1711 15.0218 43.5731 15.0218C43.9751 15.0218 44.3606 14.8604 44.6448 14.5733C44.9291 14.2861 45.0887 13.8966 45.0887 13.4905C45.0887 10.5319 42.9201 8.04787 40.0152 7.39498V5.85703C40.0152 5.45092 39.8555 5.06144 39.5713 4.77427C39.287 4.48711 38.9015 4.32578 38.4996 4.32578C38.0976 4.32578 37.7121 4.48711 37.4278 4.77427C37.1436 5.06144 36.9839 5.45092 36.9839 5.85703V7.39422C34.079 8.0471 31.9102 10.5312 31.9102 13.4897C31.9102 16.4483 34.079 18.9333 36.9839 19.5862V25.8506C35.779 25.337 34.9414 24.2351 34.9414 22.9575C34.9414 22.5513 34.7818 22.1619 34.4975 21.8747C34.2133 21.5875 33.8278 21.4262 33.4258 21.4262C33.0238 21.4262 32.6383 21.5875 32.3541 21.8747C32.0699 22.1619 31.9102 22.5513 31.9102 22.9575C31.9102 25.916 34.079 28.4003 36.9839 29.0532V30.5904C36.9839 30.9965 37.1436 31.3859 37.4278 31.6731C37.7121 31.9603 38.0976 32.1216 38.4996 32.1216C38.9015 32.1216 39.287 31.9603 39.5713 31.6731C39.8555 31.3859 40.0152 30.9965 40.0152 30.5904V29.0532C42.9201 28.4003 45.0887 25.916 45.0887 22.9575C45.0887 19.9989 42.9201 17.515 40.0152 16.8629V10.5976C41.2201 11.1111 42.0575 12.2131 42.0575 13.4905ZM34.9414 13.4905C34.9414 12.2131 35.779 11.1111 36.9839 10.5976V16.3844C35.779 15.8701 34.9414 14.7681 34.9414 13.4905ZM42.0575 22.9575C42.0575 24.2351 41.2201 25.337 40.0152 25.8506V20.0647C41.2201 20.5783 42.0575 21.6802 42.0575 22.9575Z" fill="#956DF8"/>
</svg>
