<svg width="91" height="91" viewBox="0 0 91 91" fill="none" xmlns="http://www.w3.org/2000/svg">
<path d="M6.6478 30.6658V34.4739C6.6478 35.2831 7.13302 36.0006 7.88395 36.3022C8.63328 36.6031 9.48054 36.422 10.0413 35.8364L14.9676 30.6915H30.5956C33.6736 30.6915 36.1778 28.1872 36.1778 25.1092V22.0911H39.8262L43.1598 29.0574C43.4929 29.7536 44.1793 30.1862 44.9512 30.1862C45.7231 30.1862 46.4095 29.7536 46.7425 29.0574L50.0761 22.0911H54.8209V25.1092C54.8209 28.1872 57.325 30.6915 60.4032 30.6915H76.0312L80.9575 35.8364C81.517 36.4208 82.3635 36.6037 83.1148 36.3022C83.8658 36.0006 84.351 35.2831 84.351 34.4739V30.6917H84.5335C87.6115 30.6917 90.1158 28.1874 90.1158 25.1094V14.6483C90.1158 11.5703 87.6115 9.06605 84.5335 9.06605H63.4818V5.68679C63.4818 2.55102 60.9307 0 57.795 0H33.0719C29.9363 0 27.3853 2.55102 27.3853 5.68679V9.06623H15.6134C14.8773 9.06623 14.2804 9.66306 14.2804 10.3992C14.2804 11.1354 14.8773 11.7322 15.6134 11.7322H27.3853V16.4047C27.3853 19.5403 29.9363 22.0913 33.0719 22.0913H33.5115V25.1094C33.5115 26.7174 32.2033 28.0257 30.5952 28.0257H14.7217C14.1544 28.0257 13.604 28.2607 13.2115 28.6705L9.31364 32.7413V30.1166C9.31364 28.9638 8.37574 28.0257 7.22278 28.0257C5.19696 28.0257 3.54865 26.3776 3.54865 24.3516V14.6483C3.54865 13.0404 4.85678 11.7321 6.46492 11.7321H9.49547C10.2316 11.7321 10.8285 11.1352 10.8285 10.3991C10.8285 9.66288 10.2316 9.06605 9.49547 9.06605H6.46509C3.38709 9.06605 0.882812 11.5703 0.882812 14.6483V24.3514C0.882812 27.6535 3.42033 30.3741 6.6478 30.6658ZM84.5331 11.7321C86.1411 11.7321 87.4494 13.0404 87.4494 14.6483V25.1092C87.4494 26.7172 86.1411 28.0255 84.5331 28.0255H83.7753C82.6225 28.0255 81.6844 28.9634 81.6844 30.1164V32.7412L77.7865 28.6703C77.3941 28.2605 76.8436 28.0255 76.2763 28.0255H60.4027C58.7947 28.0255 57.4864 26.7172 57.4864 25.1092V22.0911H57.7948C60.9304 22.0911 63.4814 19.5401 63.4814 16.4045V11.7321H84.5331ZM30.0513 16.4045V5.68679C30.0513 4.02106 31.4064 2.66602 33.0719 2.66602H57.795C59.4605 2.66602 60.8156 4.02106 60.8156 5.68679V16.4047C60.8156 18.0703 59.4605 19.4253 57.795 19.4253H49.7251C48.9177 19.4253 48.1706 19.8959 47.8223 20.6243L44.9508 26.6246L42.0793 20.6239C41.7308 19.8956 40.9838 19.4251 40.1765 19.4251H33.0719C31.4064 19.4251 30.0513 18.0701 30.0513 16.4045Z" fill="#956DF8"/>
<path d="M90.038 83.6459C90.0092 82.9101 89.3864 82.337 88.654 82.366C87.9184 82.3948 87.3453 83.0144 87.3741 83.75L87.5135 87.3145C87.535 87.8681 87.0951 88.3329 86.5304 88.3329C86.5295 88.3329 86.5285 88.3329 86.5274 88.3329H79.4308V84.065C79.4308 83.3448 79.2641 82.6628 78.9677 82.0553C80.007 81.8556 80.7613 81.1364 81.0351 80.8746L86.053 76.0747C86.406 75.737 86.7306 75.3761 87.032 74.9989L87.1369 77.6811C87.1649 78.3992 87.7557 78.962 88.4679 78.962C88.4855 78.962 88.5033 78.9617 88.5209 78.961C89.2565 78.9322 89.8295 78.3126 89.8007 77.577L89.3496 66.0361C89.337 64.0224 88.3469 61.3916 86.5198 60.0852L86.2876 57.6686C87.4355 56.5805 89.6689 53.8192 88.8893 49.3234L88.2994 45.92C87.5188 41.4155 83.2409 38.4004 78.7355 39.1819L71.6084 40.4173C70.369 40.632 69.554 41.8255 69.8046 43.0579C69.9949 43.9942 70.4032 44.8267 70.9657 45.5137C69.5502 48.5225 70.3371 50.8592 70.1762 51.1048L68.9882 52.888C68.0103 54.3561 69.0039 56.3377 70.7666 56.4306L71.4292 56.4655L71.6525 58.7897C71.805 60.3751 73.2142 61.5288 74.7896 61.3736L76.5266 61.2053C76.543 61.2065 76.5595 61.2188 76.5611 61.2378L76.6612 62.2454C71.8378 66.7638 71.3194 72.8588 71.2988 72.926L63.506 73.2189C62.6292 73.2443 61.8024 73.448 61.0575 73.7928L60.8165 71.4204C60.3964 67.2842 57.3951 63.8631 53.3488 62.9078L50.3099 62.1903C50.3094 62.1162 50.3096 62.0638 50.3098 60.3033C52.0109 59.073 52.9754 57.3993 53.2952 55.5365C54.2857 55.2025 54.9995 54.2587 54.9948 53.1541L54.9895 50.6578C54.9884 50.4071 54.9477 50.1605 54.8745 49.9247C54.9037 49.7985 54.9207 49.6677 54.9207 49.5328V45.3214C54.9207 43.7052 53.606 42.3903 51.9899 42.3903C51.698 42.3903 51.7069 42.0269 51.5607 41.7176C51.1423 40.5607 50.0346 39.7833 48.8044 39.7833H37.5013C36.1232 39.7833 35.002 40.9045 35.002 42.2826V44.042C35.002 45.9473 36.0347 47.6152 37.5691 48.5179C36.5473 49.0099 35.869 50.0393 35.8699 51.22L35.871 52.7284C35.872 54.1096 36.8123 55.2748 38.0861 55.6193C38.3836 57.2488 39.2028 58.7796 40.555 59.9148C40.555 62.2063 40.555 62.1116 40.5537 62.191L37.5159 62.9082C33.4694 63.8635 30.4684 67.2844 30.0482 71.4208L29.8133 73.7343C29.1043 73.4253 28.3247 73.2434 27.5015 73.2196L19.6973 72.9264C19.6445 72.755 19.3081 66.9044 14.3349 62.2458L14.4355 61.2339C14.4369 61.2192 14.4543 61.2062 14.4696 61.2058L16.2057 61.3742C17.787 61.5284 19.1915 60.3724 19.3438 58.7903L19.5671 56.466L20.2296 56.4312C21.0463 56.3882 21.7814 55.9076 22.1483 55.1767C22.5151 54.4459 22.4615 53.5691 22.0081 52.8886L20.8254 51.1134C20.6464 50.8402 21.4519 48.5357 20.0311 45.5151C20.5936 44.828 21.0015 43.9948 21.1919 43.0583C21.4423 41.8259 20.6271 40.6324 19.3881 40.4178L12.2609 39.1824C7.75572 38.4016 3.47783 41.4149 2.69704 45.9205L2.10714 49.3239C1.32778 53.8197 3.56119 56.5812 4.70882 57.6693L4.4767 60.0859C3.57292 60.732 2.83887 61.6964 2.33055 62.9151C1.8329 64.1084 1.65143 65.3039 1.64681 66.0368L0.819279 87.2105C0.737521 89.2985 2.41196 90.9991 4.45857 90.9991H86.5345C88.6028 90.9991 90.2586 89.2834 90.1775 87.2105L90.038 83.6459ZM79.1912 41.809C82.2449 41.2804 85.1437 43.322 85.6729 46.3755L86.2628 49.7789C86.7467 52.5711 85.6487 54.4039 84.8553 55.3209C84.1676 54.6215 83.2345 53.3875 82.9873 51.6681C82.7875 50.2777 81.4874 49.2722 80.0508 49.521L80.0094 49.5283C79.8288 49.5593 79.6571 49.4386 79.6256 49.2587L79.2787 47.2828C78.9936 45.6582 77.44 44.5655 75.8138 44.8473C74.3807 45.0955 73.0196 44.2759 72.5401 42.9621L79.1912 41.809ZM76.2696 58.5523L74.5319 58.7208C74.4173 58.7314 74.3174 58.6486 74.3066 58.5354L74.046 55.8239C73.8438 53.7206 71.5995 53.8114 71.5817 53.8044L72.4002 52.5756C73.4675 50.9488 72.181 49.8029 73.1703 47.144C73.8288 47.4133 74.5453 47.559 75.2871 47.559C75.6103 47.559 75.9389 47.5313 76.2691 47.4741C76.449 47.443 76.621 47.5638 76.6527 47.7437L76.9996 49.7198C77.2792 51.3117 78.7769 52.3923 80.367 52.1705C80.8371 55.144 82.6871 57.0271 83.623 57.8092L83.8214 59.8755L79.2263 61.0933L79.2149 60.9792C79.0723 59.4951 77.7553 58.4081 76.2696 58.5523ZM78.6998 63.9909L85.0449 62.3092C86.9721 63.788 86.6852 67.1738 86.7514 67.8197C86.7515 67.8311 86.7505 67.8423 86.751 67.8536C86.8464 70.2184 85.9204 72.5126 84.2103 74.1483L79.1923 78.9482C78.7124 79.4073 78.4867 79.4428 78.4289 79.4428C72.7263 79.488 74.2826 79.4551 67.4387 79.4659V75.739L75.1737 75.4482C75.7174 75.4326 76.241 75.1944 76.6107 74.7949L80.6272 70.4514C81.127 69.9109 81.0939 69.0676 80.5534 68.5678C80.0127 68.0678 79.1692 68.1009 78.6698 68.6415L74.8305 72.7932L74.0042 72.8243C74.4836 69.4138 76.1424 66.2924 78.6998 63.9909ZM63.5952 75.8839L64.7727 75.8396V79.4663H60.1961C60.1779 79.4645 60.1456 79.4565 60.1456 79.4238C60.1456 77.4797 61.6821 75.9395 63.5952 75.8839ZM37.6684 42.4495H48.8047C48.916 42.4495 49.016 42.5197 49.0539 42.6244C49.1133 42.709 49.5931 45.0565 51.9902 45.0565C52.1363 45.0565 52.2551 45.1754 52.2551 45.3215V48.6077C51.627 48.5853 51.4103 48.0754 51.1295 47.8153C50.4292 47.0217 49.4206 46.5666 48.3622 46.5666H40.1926C38.8008 46.5666 37.6684 45.4342 37.6684 44.0422V42.4495ZM39.2956 53.0565C39.2957 53.0565 39.2954 53.0565 39.2956 53.0565L38.8679 53.0567C38.6859 53.0567 38.5375 52.9087 38.5374 52.7267L38.5363 51.2182C38.5361 51.0361 38.6827 50.8878 38.8665 50.8878L39.2794 50.8876C40.0172 50.8871 40.6145 50.2869 40.6115 49.5491L40.6103 49.2328H48.362C48.6558 49.2328 48.9359 49.3591 49.1301 49.5793C49.3239 49.7356 50.2543 51.2746 52.2913 51.2746H52.3251L52.3288 53.0011L52.0672 53.0022C51.342 53.0054 50.7527 53.5874 50.7402 54.3124C50.6908 57.213 48.2795 59.1237 45.7041 59.1704C43.1556 59.1457 40.7025 57.2857 40.6282 54.356C40.6097 53.6329 40.0186 53.0565 39.2956 53.0565ZM47.6439 61.5729C47.6432 62.1596 47.629 62.5509 47.7072 62.9643C46.3319 63.8854 44.5306 63.8854 43.1547 62.962C43.2374 62.5209 43.2212 62.0837 43.2212 61.4245C44.6951 61.9194 46.1463 61.9678 47.6439 61.5729ZM38.1287 65.5029L41.1479 64.7902C42.3567 65.7818 43.852 66.3201 45.4327 66.3201C47.0137 66.3201 48.5088 65.7818 49.7176 64.7902L52.7367 65.5029C55.6779 66.1972 57.8592 68.6837 58.1647 71.6902L58.589 75.8655C57.8891 76.8713 57.4797 78.0965 57.4797 79.4236C57.4797 79.438 57.4815 79.4517 57.4819 79.4661H33.5149C33.5151 79.4519 33.5171 79.438 33.5171 79.4236C33.5171 78.0248 33.063 76.7389 32.293 75.7043L32.7007 71.6902C33.0063 68.6838 35.1876 66.1973 38.1287 65.5029ZM29.9802 77.0935C30.5224 77.7152 30.8511 78.528 30.8511 79.424C30.8511 79.4567 30.8187 79.4647 30.8006 79.4664H26.2239V75.8398C27.1437 75.9845 28.324 75.48 29.9802 77.0935ZM19.0387 53.8242C17.9525 53.8814 17.0548 54.7411 16.9504 55.824L16.6901 58.535C16.6792 58.6474 16.5808 58.7314 16.4638 58.7206L14.727 58.5523C13.2374 58.4081 11.9238 59.5005 11.7823 60.9746L11.7706 61.0933L7.17541 59.8755L7.37377 57.8092C8.30972 57.0271 10.1596 55.144 10.6299 52.1705C12.2197 52.3927 13.7176 51.3119 13.997 49.7198L14.344 47.7437C14.3756 47.5638 14.5477 47.4433 14.7275 47.4741C15.8156 47.6628 16.8801 47.5295 17.8256 47.1428C18.2081 48.1697 18.3083 49.2653 18.1713 50.3438C18.1125 50.8077 18.003 51.6711 18.6014 52.5834L19.4147 53.8043L19.0387 53.8242ZM4.73388 49.7791C4.73388 49.7789 4.73388 49.7789 4.73388 49.7791L5.32378 46.3757C5.80011 43.627 8.18566 41.7253 10.8359 41.7253C11.6838 41.7253 11.6614 41.8106 18.4566 42.9621C17.9794 44.2699 16.6222 45.0967 15.1829 44.8473C13.5575 44.5655 12.0032 45.6582 11.7179 47.2828L11.371 49.2589C11.3394 49.4388 11.1679 49.5593 10.9878 49.5285L10.9453 49.521C10.2682 49.4034 9.58976 49.5614 9.03416 49.9649C8.4807 50.3669 8.1071 50.9877 8.00934 51.6681C7.76212 53.3882 6.8283 54.6226 6.14225 55.3207C5.34617 54.4011 4.25026 52.5692 4.73388 49.7791ZM5.95154 62.3092L12.2967 63.9909C14.8541 66.2924 16.513 69.414 16.9922 72.8249L16.1661 72.7938L12.3039 68.617C11.804 68.0765 10.9606 68.0435 10.4201 68.5432C9.87947 69.043 9.84658 69.8866 10.3464 70.4271L14.3859 74.7956C14.7553 75.195 15.2789 75.4329 15.8112 75.4482L23.5577 75.7394V79.4663C19.6433 79.4599 25.5611 79.4787 12.5675 79.4432C12.5098 79.4432 12.284 79.4074 11.8042 78.9483L6.78618 74.1485C5.07602 72.5128 4.15002 70.2184 4.24546 67.8538C4.246 67.8423 4.24493 67.8311 4.24511 67.8197C4.30021 67.282 3.99824 63.808 5.95154 62.3092ZM4.46532 88.3331C4.46443 88.3331 4.46337 88.3331 4.46248 88.3331C4.1941 88.3331 3.94367 88.2266 3.75723 88.0332C3.57007 87.8391 3.47267 87.5839 3.48316 87.3145L3.96464 74.9991C4.2659 75.3762 4.59062 75.7372 4.9436 76.0749L9.9614 80.8746C10.2355 81.1368 10.9908 81.8572 12.0286 82.056C11.7323 82.6634 11.5658 83.345 11.5658 84.065V88.3331H4.46532ZM14.2316 84.0651C14.2316 82.9995 15.0986 82.1323 16.1643 82.1323C16.1837 82.1323 74.776 82.1325 74.8323 82.1323C75.898 82.1323 76.765 82.9995 76.765 84.0651V88.3331H14.2316V84.0651Z" fill="#956DF8"/>
</svg>
