<svg width="86" height="86" viewBox="0 0 86 86" fill="none" xmlns="http://www.w3.org/2000/svg">
<path d="M82.9755 2.53256C78.784 -1.62713 70.6877 0.635994 64.759 3.29756C58.0752 6.27623 51.9348 10.3483 46.5902 15.3463C44.7381 17.211 42.9877 19.1742 41.3468 21.2272L21.8074 23.076C21.5335 23.1007 21.2707 23.1959 21.0445 23.3523C20.8183 23.5087 20.6364 23.721 20.5165 23.9685L9.45584 46.9982C9.3403 47.2408 9.28797 47.5086 9.30371 47.7769C9.31945 48.0451 9.40276 48.305 9.54588 48.5324C9.689 48.7598 9.8873 48.9474 10.1223 49.0776C10.3574 49.2078 10.6215 49.2765 10.8902 49.2772H10.9858L28.804 48.1776C29.5676 49.491 30.4822 50.7105 31.5293 51.8113L24.7558 58.5847C24.5365 58.8085 24.388 59.0919 24.3289 59.3996C24.2698 59.7072 24.3026 60.0255 24.4234 60.3146C24.5441 60.6037 24.7474 60.8508 25.0078 61.025C25.2681 61.1992 25.5741 61.2928 25.8874 61.2941C26.0972 61.2953 26.3051 61.2551 26.4993 61.1758C26.6934 61.0965 26.87 60.9796 27.019 60.8319L33.7605 54.1541C34.7384 55.0814 35.8061 55.9089 36.948 56.6244L35.8802 74.1557C35.8635 74.4327 35.9194 74.7093 36.0424 74.9581C36.1654 75.2068 36.3512 75.4192 36.5815 75.5741C36.8408 75.7484 37.1456 75.8426 37.458 75.845C37.7009 75.846 37.9407 75.7915 38.1593 75.6857L61.1252 64.625C61.3727 64.5052 61.585 64.3233 61.7414 64.0971C61.8978 63.8708 61.993 63.608 62.0177 63.3341L63.8824 43.7629C65.979 42.1033 67.9797 40.326 69.8749 38.4397C74.5948 33.268 78.521 27.4243 81.5252 21.0997C84.4577 14.916 87.1033 6.66037 82.9755 2.53256ZM23.0027 26.1679L38.8127 24.6697C34.3006 30.8023 30.902 37.6804 28.7721 44.9901L13.504 45.9304L23.0027 26.1679ZM58.9737 62.1229L39.2112 71.6854L40.1355 56.5766C47.4166 54.2846 54.2788 50.8293 60.4558 46.3447L58.9737 62.1229ZM67.6596 36.1926C59.4376 44.3429 49.3488 50.3611 38.2708 53.7238C37.4696 53.162 36.7178 52.5328 36.0237 51.8432L42.574 45.2929C42.8708 44.9943 43.0374 44.5903 43.0374 44.1693C43.0374 43.7482 42.8708 43.3443 42.574 43.0457C42.4258 42.8963 42.2495 42.7777 42.0553 42.6968C41.8611 42.6159 41.6528 42.5742 41.4424 42.5742C41.232 42.5742 41.0237 42.6159 40.8295 42.6968C40.6353 42.7777 40.459 42.8963 40.3108 43.0457L33.7765 49.5801C32.9513 48.7664 32.2337 47.8505 31.6408 46.8547C31.8799 44.7669 36.0077 30.4551 48.8374 17.6254C53.1696 13.5577 58.0714 10.1431 63.3883 7.48912C64.504 13.5613 71.9627 20.2391 77.4771 22.056C74.8422 27.1804 71.5411 31.9338 67.6596 36.1926ZM78.8158 19.1713C74.1143 17.7688 66.4165 10.9316 66.3527 6.03881C73.2377 3.05849 78.4493 2.59631 80.6965 4.77974C82.9437 6.96318 82.1468 12.1269 78.8955 19.1713H78.8158Z" fill="#956DF8"/>
<path d="M66.4502 18.6765C65.4026 17.6315 64.1136 16.8607 62.6972 16.4324C61.2809 16.0041 59.7808 15.9314 58.3296 16.2207C56.8785 16.5101 55.521 17.1527 54.3773 18.0915C53.2336 19.0304 52.3389 20.2366 51.7722 21.6035C51.2056 22.9705 50.9846 24.456 51.1288 25.9286C51.2729 27.4013 51.7777 28.8158 52.5986 30.0469C53.4195 31.2781 54.5311 32.2879 55.8351 32.9872C57.1392 33.6865 58.5954 34.0537 60.0752 34.0562C61.8584 34.0593 63.6023 33.5328 65.086 32.5436C66.5696 31.5544 67.7262 30.1469 68.409 28.4996C69.0918 26.8523 69.2702 25.0394 68.9214 23.2906C68.5727 21.5418 67.7126 19.9359 66.4502 18.6765ZM64.203 29.1634C63.6641 29.7051 63.0234 30.1347 62.3176 30.4274C61.6119 30.7201 60.8551 30.8701 60.0911 30.8687C59.3268 30.8719 58.5695 30.7227 57.8635 30.4299C57.1576 30.1371 56.517 29.7065 55.9792 29.1634C55.4151 28.6289 54.9637 27.9868 54.6519 27.275C54.34 26.5632 54.1739 25.7961 54.1634 25.019C54.153 24.242 54.2983 23.4707 54.5908 22.7507C54.8834 22.0308 55.3172 21.3767 55.8667 20.8272C56.4162 20.2777 57.0703 19.8438 57.7903 19.5513C58.5102 19.2587 59.2815 19.1134 60.0586 19.1239C60.8357 19.1344 61.6027 19.3005 62.3146 19.6123C63.0264 19.9242 63.6685 20.3755 64.203 20.9397C65.293 22.0305 65.9053 23.5095 65.9053 25.0515C65.9053 26.5936 65.293 28.0726 64.203 29.1634Z" fill="#956DF8"/>
<path d="M22.8752 68.3207C22.4525 68.2404 22.0152 68.3313 21.6596 68.5734C21.3039 68.8155 21.059 69.189 20.9787 69.6117C20.8983 70.0344 20.9892 70.4716 21.2313 70.8273C21.4734 71.183 21.8469 71.4279 22.2696 71.5082C23.194 71.6141 24.0732 71.9656 24.8159 72.5261C25.5586 73.0866 26.1377 73.8358 26.493 74.6957C26.749 75.7382 26.7277 76.8294 26.4313 77.8611C26.135 78.8928 25.5738 79.829 24.8037 80.5767C24.1997 81.3754 23.3379 81.9404 22.3647 82.1757C21.3914 82.411 20.3667 82.3022 19.4646 81.8676C18.6866 81.4829 18.0323 80.8876 17.5758 80.1494C17.1194 79.4113 16.8793 78.5598 16.8827 77.692C16.9769 77.2032 17.0302 76.7074 17.0421 76.2098C17.0865 75.7871 16.9611 75.3641 16.6936 75.0338C16.4261 74.7036 16.0384 74.4931 15.6157 74.4487C15.193 74.4043 14.77 74.5297 14.4397 74.7972C14.1095 75.0647 13.899 75.4524 13.8546 75.8751C13.758 76.3478 13.6993 76.8274 13.6793 77.3095C13.5363 78.0228 13.2161 78.6886 12.7482 79.2457C12.2803 79.8027 11.6797 80.233 11.0018 80.497C9.98809 80.8776 8.88591 80.9568 7.82823 80.7249C6.77056 80.493 5.8026 79.9599 5.04115 79.1901C4.30576 78.3222 3.81597 77.2734 3.6226 76.1525C3.42923 75.0315 3.53933 73.8792 3.94147 72.8151C4.15858 72.2658 4.54355 71.7991 5.0415 71.4814C5.53945 71.1638 6.12496 71.0114 6.71459 71.046H6.93772C7.3604 71.0566 7.76998 70.8988 8.07634 70.6074C8.3827 70.316 8.56074 69.9148 8.57131 69.4921C8.58188 69.0694 8.4241 68.6599 8.13269 68.3535C7.84127 68.0472 7.44009 67.8691 7.0174 67.8585H6.69865C5.3599 67.8585 3.81397 67.4123 3.51115 65.962C3.4701 64.7808 3.80638 63.6172 4.47122 62.64C5.13605 61.6628 6.09488 60.9228 7.20865 60.5273C8.78642 59.9695 10.5078 59.9695 12.0855 60.5273C14.508 61.101 17.5362 61.8342 20.4368 58.312C20.7052 57.9844 20.8325 57.5636 20.7906 57.1422C20.7488 56.7207 20.5412 56.3332 20.2137 56.0648C19.8861 55.7964 19.4653 55.6691 19.0438 55.7109C18.6224 55.7528 18.2349 55.9603 17.9665 56.2879C16.3727 58.2642 15.0977 57.9773 12.8187 57.4354C10.5882 56.6914 8.1706 56.7307 5.96553 57.547C2.18834 59.1407 -0.234159 63.0614 0.435216 66.472C0.649764 67.6736 1.30293 68.7528 2.26803 69.5001C1.72724 70.0523 1.29477 70.701 0.993029 71.4126C0.34845 73.0526 0.169564 74.8388 0.476117 76.5741C0.78267 78.3093 1.56274 79.9262 2.73022 81.246C3.92756 82.4717 5.45954 83.3174 7.13475 83.6774C8.80996 84.0374 10.5541 83.8957 12.1493 83.2701C13.1146 82.8788 13.9923 82.2991 14.7312 81.5648C15.4989 82.8694 16.6358 83.9175 17.9983 84.577C18.9913 85.0642 20.0799 85.3254 21.1858 85.342C22.3131 85.3236 23.423 85.0604 24.4384 84.5706C25.4539 84.0807 26.3507 83.376 27.0668 82.5051C28.2089 81.3365 29.0202 79.8856 29.4178 78.3007C29.8155 76.7159 29.7851 75.0538 29.3299 73.4845C28.8 72.1342 27.925 70.9466 26.7923 70.0404C25.6596 69.1343 24.3089 68.5413 22.8752 68.3207Z" fill="#956DF8"/>
</svg>
