<svg width="87" height="87" viewBox="0 0 87 87" fill="none" xmlns="http://www.w3.org/2000/svg">
<path d="M54.9498 63.894C82.9163 64.0942 97.5431 29.4824 77.4788 9.52131C49.0566 -17.2438 7.45606 18.1855 28.9439 50.3992L24.2557 55.087C23.1227 54.4226 21.5488 54.6313 20.6535 55.5879L2.41727 73.8241C-4.46337 81.1964 5.81593 91.4612 13.1738 84.5856C14.6032 83.138 12.4164 80.9809 10.9862 82.3984C6.65604 86.3974 0.505274 80.3963 4.60326 76.0128L22.7578 57.7752C23.0238 58.012 29.1949 64.1612 29.2233 64.1584L16.5703 76.8257C14.9518 78.1971 17.0908 80.605 18.6497 79.121L31.397 66.3593C31.9771 65.7936 32.2996 65.036 32.3049 64.2248C32.3083 63.6961 32.1639 63.1932 31.9136 62.7421L36.6003 58.0554C42.083 61.9267 48.5086 63.894 54.9498 63.894ZM34.6086 11.7089C45.825 0.497053 64.0755 0.494037 75.2919 11.7089C101.159 39.8131 62.7 78.251 34.6084 52.3898C23.393 41.1743 23.393 22.9245 34.6086 11.7089ZM29.8192 60.4619L26.5374 57.1801L30.8639 52.8535C31.8437 54.0402 32.959 55.1556 34.1457 56.1353L29.8192 60.4619Z" fill="#956DF8"/>
<path d="M39.2129 50.2922C54.5313 63.736 79.1631 52.6214 79.0777 32.055C79.3383 12.8046 56.6015 1.01201 41.0569 12.324C39.4142 13.5129 41.1881 16.0059 42.8457 14.8478C56.3945 4.99686 76.2138 15.2751 75.9839 32.0556C75.9946 37.3756 73.9859 42.5082 70.3509 46.3431C69.4171 44.0084 67.9691 41.9266 66.0805 40.2315C64.5596 38.8821 62.5196 41.1809 64.014 42.5337C65.8443 44.1758 67.1308 46.282 67.8398 48.6377C67.5768 48.8415 67.3212 49.0539 67.048 49.2454C59.8237 54.5889 48.8628 54.2068 42.0575 48.627C43.6754 43.0413 49.1017 38.937 54.9537 39.0147C66.9589 38.5872 66.956 21.2933 54.9516 20.8691C46.4676 20.8333 42.6771 31.7094 49.2046 36.9559C44.8784 38.5297 41.275 42.047 39.5565 46.3289C32.9599 39.6115 31.9976 27.6948 37.7543 19.9537C38.9037 18.2843 36.4238 16.5237 35.2268 18.1697C28.0013 27.9083 30.0752 42.832 39.2129 50.2922ZM54.9517 23.9629C62.8534 24.2139 62.8515 35.6711 54.9516 35.9209C47.0491 35.6696 47.051 24.213 54.9517 23.9629Z" fill="#956DF8"/>
</svg>
