<svg width="720" height="197" viewBox="0 0 720 197" fill="none" xmlns="http://www.w3.org/2000/svg">
<g clip-path="url(#clip0_2067_1477)">
<path d="M181.421 65.3103C177.033 55.4081 170.736 46.4678 162.891 39.0004C154.939 31.3925 145.609 25.3716 135.401 21.2604C113.8 12.5799 89.6813 12.5799 68.0808 21.2604C57.8655 25.3693 48.5284 31.3904 40.5708 39.0004C32.7321 46.4635 26.4392 55.3967 22.0508 65.2904L41.5708 92.4204C44.2908 62.9404 70.2208 39.7403 101.711 39.7403C131.711 39.7403 156.631 60.7404 161.301 88.2304L184.741 120.77C190.3 102.479 189.111 82.7997 181.391 65.3103H181.421Z" fill="#956DF8"/>
<path d="M161.88 102.66C159.16 132.14 133.23 155.33 101.74 155.33C71.7398 155.33 46.8198 134.33 42.1498 106.84L18.7198 74.2998C13.1605 92.5913 14.3492 112.27 22.0698 129.76C26.4482 139.663 32.7345 148.607 40.5698 156.08C48.5245 163.681 57.854 169.699 68.0598 173.81C89.6638 182.49 113.786 182.49 135.39 173.81C145.593 169.698 154.919 163.681 162.87 156.08C170.709 148.613 177.001 139.676 181.39 129.78L161.88 102.66Z" fill="#BECBED"/>
<path opacity="0.44" d="M176.9 62.0299L151.57 45.1599L144.89 40.7199C132.222 31.9448 117.169 27.2645 101.76 27.3099C61.2497 27.3099 28.4097 58.7499 28.4097 97.5399C28.2597 119.98 39.4097 138.96 55.6897 152.64C61.8297 158.393 67.9597 164.15 74.0797 169.91C120.7 221.6 209.45 194.07 210.95 123.14C210.93 97.6799 197.42 75.2399 176.9 62.0299Z" fill="url(#paint0_linear_2067_1477)"/>
<g opacity="0.9">
<path d="M111.34 189.67C161.98 189.67 203.02 151.46 203.02 104.34C203.02 57.2195 162.02 19.0195 111.34 19.0195C60.6601 19.0195 19.6602 57.2195 19.6602 104.34C19.6602 151.46 60.7101 189.67 111.34 189.67Z" fill="url(#paint1_radial_2067_1477)"/>
</g>
<path d="M435.779 65.3103C431.395 55.4086 425.102 46.4682 417.259 39.0004C409.308 31.3925 399.978 25.3716 389.769 21.2604C368.169 12.5799 344.05 12.5799 322.449 21.2604C312.24 25.369 302.909 31.3902 294.959 39.0004C287.118 46.4609 280.824 55.3947 276.439 65.2904L295.969 92.4204C298.689 62.9404 324.619 39.7403 356.109 39.7403C386.109 39.7403 411.029 60.7404 415.699 88.2304L439.139 120.77C444.701 102.478 443.509 82.7972 435.779 65.3103Z" fill="#956DF8"/>
<path d="M416.251 102.66C413.571 132.14 387.571 155.33 356.111 155.33C326.111 155.33 301.191 134.33 296.521 106.85L273.091 74.2998C267.532 92.5947 268.72 112.277 276.441 129.77C280.825 139.672 287.119 148.612 294.961 156.08C302.913 163.685 312.243 169.702 322.451 173.81C344.055 182.49 368.177 182.49 389.781 173.81C399.984 169.698 409.31 163.681 417.261 156.08C425.099 148.613 431.392 139.676 435.781 129.78L416.251 102.66Z" fill="#956DF8"/>
<path opacity="0.44" d="M431.249 62.0199L405.909 45.1599L399.239 40.7199C386.568 31.9446 371.512 27.2644 356.099 27.3099C315.589 27.3099 282.749 58.7499 282.749 97.5399C282.619 119.74 293.549 138.67 309.609 152.24C315.889 158.127 322.163 164.017 328.429 169.91C375.039 221.6 463.789 194.07 465.289 123.14C465.289 97.6799 451.779 75.2399 431.249 62.0199Z" fill="url(#paint2_linear_2067_1477)"/>
<g opacity="0.9">
<path d="M365.709 189.67C416.349 189.67 457.389 151.46 457.389 104.34C457.389 57.2195 416.389 19.0195 365.709 19.0195C315.029 19.0195 274.029 57.2195 274.029 104.34C274.029 151.46 315.079 189.67 365.709 189.67Z" fill="url(#paint3_radial_2067_1477)"/>
</g>
<path d="M690.14 65.31C685.74 55.4044 679.429 46.4638 671.57 39C663.622 31.3923 654.295 25.3713 644.09 21.26C622.486 12.58 598.364 12.58 576.76 21.26C566.553 25.3689 557.226 31.3902 549.28 39C541.435 46.4579 535.141 55.3923 530.76 65.29L550.29 92.42C553 62.94 578.94 39.74 610.42 39.74C640.42 39.74 665.35 60.74 670.01 88.23L693.45 120.77C699.009 102.479 697.82 82.7994 690.1 65.31H690.14Z" fill="#BECBED"/>
<path d="M670.569 102.66C667.859 132.14 641.919 155.33 610.439 155.33C580.439 155.33 555.509 134.33 550.849 106.84L527.409 74.2998C521.85 92.5913 523.039 112.27 530.759 129.76C535.147 139.665 541.444 148.609 549.289 156.08C557.238 163.683 566.565 169.701 576.769 173.81C598.373 182.49 622.495 182.49 644.099 173.81C654.3 169.7 663.623 163.682 671.569 156.08C679.414 148.618 685.708 139.681 690.089 129.78L670.569 102.66Z" fill="#956DF8"/>
<path opacity="0.44" d="M685.57 61.9998L660.48 45.3098C645.38 34.4498 630.42 27.2598 610.48 27.3098C569.97 27.3098 537.13 58.7498 537.13 97.5398C537 119.74 547.92 138.67 563.99 152.24L582.57 169.72C629.33 221.6 718 194.3 719.65 123.14C719.66 97.6698 706.13 75.2098 685.57 61.9998Z" fill="url(#paint4_linear_2067_1477)"/>
<g opacity="0.9">
<path d="M620.071 189.67C670.701 189.67 711.751 151.46 711.751 104.34C711.751 57.2195 670.701 19.0195 620.071 19.0195C569.441 19.0195 528.391 57.2195 528.391 104.34C528.391 151.46 569.431 189.67 620.071 189.67Z" fill="url(#paint5_radial_2067_1477)"/>
</g>
<path d="M101.73 194.94C88.3793 194.973 75.1438 192.465 62.7305 187.55C50.8955 182.879 40.0413 176.031 30.7305 167.36L32.6605 165.46C51.4323 182.818 76.0933 192.404 101.66 192.28C154.39 192.28 197.83 152.83 200.57 102.47L203.35 102.61C201.906 127.729 190.59 151.258 171.87 168.07C152.663 185.465 127.644 195.05 101.73 194.94Z" fill="#956DF8"/>
<path d="M200.63 92.2701C199.211 68.7399 188.893 46.6308 171.77 30.43L173.77 28.54C191.378 45.1939 201.987 67.9268 203.44 92.12L200.63 92.2701Z" fill="#956DF8"/>
<path d="M18.2803 152.29C18.0539 152.291 17.8306 152.239 17.6288 152.136C17.427 152.033 17.2527 151.884 17.1203 151.7L17.0403 151.58C16.939 151.435 16.8683 151.271 16.8325 151.098C16.7967 150.925 16.7966 150.747 16.8321 150.573C16.8677 150.4 16.9382 150.236 17.0393 150.091C17.1405 149.946 17.2701 149.823 17.4203 149.73C17.7277 149.531 18.1001 149.458 18.4597 149.527C18.8193 149.596 19.1384 149.802 19.3503 150.1L19.4303 150.22C19.5314 150.364 19.602 150.527 19.6377 150.7C19.6734 150.872 19.6735 151.05 19.6379 151.222C19.6023 151.395 19.5318 151.558 19.4308 151.702C19.3297 151.846 19.2003 151.968 19.0504 152.06C18.8222 152.212 18.5541 152.292 18.2803 152.29ZM8.44034 134.43C8.16506 134.434 7.89492 134.356 7.66369 134.206C7.43247 134.057 7.25045 133.843 7.14035 133.59L7.09033 133.46C7.02195 133.296 6.98799 133.119 6.99057 132.942C6.99315 132.764 7.03223 132.588 7.10534 132.426C7.17846 132.264 7.28406 132.119 7.41565 131.999C7.54723 131.879 7.70199 131.788 7.87033 131.73C8.20797 131.599 8.58333 131.602 8.91849 131.74C9.25364 131.878 9.52289 132.139 9.67035 132.47L9.73034 132.61C9.79578 132.775 9.82744 132.951 9.82345 133.128C9.81947 133.305 9.77993 133.479 9.70715 133.641C9.63438 133.802 9.52985 133.947 9.39984 134.067C9.26982 134.188 9.11697 134.28 8.95035 134.34C8.78675 134.399 8.61423 134.43 8.44034 134.43ZM2.73035 115C2.40836 115.004 2.09514 114.895 1.84494 114.693C1.59474 114.49 1.42333 114.206 1.36035 113.89V113.75C1.33343 113.574 1.34159 113.395 1.3844 113.222C1.42721 113.049 1.5038 112.886 1.60977 112.743C1.71574 112.6 1.84898 112.479 2.00183 112.388C2.15467 112.296 2.32409 112.236 2.50033 112.21C2.85761 112.148 3.22511 112.227 3.52542 112.43C3.82573 112.633 4.03542 112.945 4.11035 113.3V113.44C4.13866 113.616 4.13148 113.797 4.08923 113.97C4.04698 114.143 3.97051 114.307 3.86432 114.45C3.75812 114.594 3.62434 114.714 3.47082 114.805C3.31731 114.896 3.14715 114.956 2.97034 114.98L2.73035 115ZM1.39035 94.8802H1.34033C1.16087 94.8776 0.983699 94.8395 0.819029 94.7681C0.654359 94.6967 0.505454 94.5935 0.380888 94.4643C0.256322 94.3351 0.158574 94.1825 0.09326 94.0153C0.027946 93.8481 -0.00364389 93.6696 0.000333984 93.4902V93.3502C0.00755669 93.1677 0.0506686 92.9884 0.127196 92.8225C0.203722 92.6566 0.312168 92.5074 0.446348 92.3835C0.580529 92.2595 0.737832 92.1632 0.909239 92.1C1.08065 92.0368 1.2628 92.008 1.44534 92.0152C1.62788 92.0225 1.8072 92.0655 1.97308 92.1421C2.13896 92.2186 2.28814 92.3271 2.41211 92.4613C2.53607 92.5954 2.6324 92.7527 2.69559 92.9241C2.75877 93.0955 2.78756 93.2777 2.78033 93.4602V93.6002C2.75727 93.9512 2.6001 94.2799 2.34134 94.5182C2.08257 94.7565 1.74206 94.8861 1.39035 94.8802ZM4.44034 74.8802C4.32744 74.8943 4.21323 74.8943 4.10034 74.8802C3.92722 74.8415 3.7636 74.7685 3.61911 74.6656C3.47462 74.5627 3.35218 74.4319 3.259 74.2809C3.16582 74.13 3.10379 73.9619 3.07654 73.7866C3.04929 73.6113 3.05738 73.4323 3.10034 73.2602V73.1202C3.19451 72.7651 3.42448 72.4613 3.74063 72.2742C4.05678 72.0872 4.43378 72.0318 4.79034 72.1202C4.96346 72.159 5.12708 72.2319 5.27157 72.3348C5.41606 72.4378 5.5385 72.5686 5.63168 72.7195C5.72486 72.8705 5.7869 73.0386 5.81415 73.2138C5.84139 73.3891 5.8333 73.5681 5.79034 73.7402V73.8802C5.70674 74.1722 5.52915 74.4285 5.28506 74.6093C5.04098 74.7901 4.74405 74.8854 4.44034 74.8802ZM11.8103 55.9702C11.5961 55.9681 11.3847 55.9204 11.1903 55.8302C11.0284 55.7577 10.883 55.6527 10.7631 55.5219C10.6432 55.391 10.5514 55.237 10.4933 55.0693C10.4353 54.9016 10.4121 54.7238 10.4254 54.5468C10.4386 54.3698 10.4879 54.1974 10.5703 54.0402L10.6303 53.9102C10.8046 53.5885 11.097 53.347 11.446 53.2369C11.7949 53.1269 12.173 53.1567 12.5003 53.3202C12.661 53.3929 12.8052 53.4974 12.9242 53.6276C13.0431 53.7577 13.1344 53.9107 13.1924 54.0772C13.2504 54.2437 13.2739 54.4202 13.2615 54.5961C13.2491 54.772 13.2011 54.9435 13.1203 55.1002L13.0504 55.2302C12.9308 55.4542 12.7518 55.6408 12.533 55.7696C12.3142 55.8984 12.0642 55.9644 11.8103 55.9602V55.9702ZM23.1503 38.9702C22.839 38.9741 22.5357 38.8718 22.2903 38.6802C22.1476 38.5762 22.0277 38.444 21.9381 38.2917C21.8486 38.1395 21.7912 37.9704 21.7697 37.7951C21.7481 37.6198 21.7628 37.4419 21.8128 37.2725C21.8628 37.1031 21.947 36.9457 22.0603 36.8102L22.1603 36.7002C22.2777 36.5549 22.4226 36.4342 22.5867 36.3449C22.7508 36.2557 22.931 36.1997 23.1168 36.1802C23.3025 36.1607 23.4904 36.178 23.6694 36.2312C23.8485 36.2844 24.0153 36.3724 24.1603 36.4902C24.3024 36.595 24.4214 36.7278 24.51 36.8804C24.5986 37.0331 24.655 37.2023 24.6756 37.3775C24.6962 37.5528 24.6807 37.7305 24.6299 37.8995C24.5791 38.0685 24.4942 38.2254 24.3803 38.3602L24.2903 38.4702C24.1469 38.6274 23.97 38.7504 23.7727 38.83C23.5754 38.9096 23.3627 38.9439 23.1503 38.9302V38.9702ZM37.9403 24.5902C37.7373 24.5898 37.5368 24.5458 37.3522 24.4613C37.1676 24.3768 37.0033 24.2536 36.8703 24.1002C36.7549 23.9673 36.6679 23.812 36.6147 23.6442C36.5615 23.4763 36.5433 23.2993 36.5611 23.1242C36.5789 22.949 36.6324 22.7793 36.7182 22.6255C36.8041 22.4718 36.9205 22.3373 37.0603 22.2302L37.1703 22.1302C37.4628 21.8951 37.8354 21.7833 38.209 21.8188C38.5825 21.8543 38.9274 22.0342 39.1703 22.3202C39.2858 22.4532 39.3728 22.6084 39.426 22.7763C39.4792 22.9441 39.4974 23.1211 39.4796 23.2963C39.4618 23.4715 39.4083 23.6412 39.3224 23.7949C39.2366 23.9487 39.1202 24.0832 38.9803 24.1902L38.8703 24.2802C38.6015 24.4764 38.2724 24.572 37.9403 24.5502V24.5902ZM156.38 18.1602C156.111 18.1604 155.848 18.0841 155.62 17.9402L155.5 17.8702C155.349 17.7785 155.217 17.657 155.114 17.5131C155.011 17.3692 154.938 17.2059 154.9 17.0329C154.861 16.86 154.858 16.6811 154.891 16.507C154.924 16.333 154.992 16.1674 155.09 16.0202C155.301 15.7231 155.616 15.5172 155.973 15.4448C156.33 15.3723 156.701 15.4386 157.01 15.6302L157.14 15.7102C157.292 15.8009 157.423 15.9215 157.526 16.0645C157.629 16.2076 157.702 16.3701 157.74 16.5422C157.779 16.7143 157.782 16.8925 157.749 17.0657C157.716 17.239 157.649 17.4039 157.55 17.5502C157.415 17.7316 157.238 17.878 157.034 17.9771C156.831 18.0763 156.607 18.1254 156.38 18.1202V18.1602ZM55.5703 13.4102C55.3204 13.4134 55.0743 13.3491 54.8578 13.2242C54.6414 13.0992 54.4626 12.9182 54.3403 12.7002C54.2553 12.5445 54.2031 12.3729 54.187 12.1962C54.1708 12.0195 54.1909 11.8413 54.2462 11.6727C54.3015 11.504 54.3907 11.3485 54.5084 11.2157C54.626 11.0828 54.7696 10.9755 54.9303 10.9002L55.0603 10.8402C55.3868 10.6746 55.7645 10.6415 56.1148 10.7477C56.4651 10.8539 56.7608 11.0912 56.9403 11.4102C57.0234 11.5662 57.0737 11.7374 57.0884 11.9135C57.103 12.0896 57.0816 12.2668 57.0254 12.4343C56.9693 12.6018 56.8796 12.7561 56.7618 12.8878C56.644 13.0195 56.5006 13.1258 56.3403 13.2002L56.2104 13.2702C56.0109 13.3662 55.7917 13.4141 55.5703 13.4102ZM137.57 8.96021C137.403 8.95953 137.237 8.92906 137.08 8.87022L136.94 8.82023C136.772 8.76345 136.618 8.67315 136.485 8.55479C136.353 8.43642 136.247 8.29246 136.172 8.13163C136.097 7.9708 136.056 7.79644 136.05 7.61915C136.045 7.44186 136.076 7.26532 136.14 7.10023C136.282 6.76633 136.548 6.50048 136.882 6.35871C137.216 6.21694 137.592 6.21031 137.93 6.34022L138.07 6.39024C138.238 6.44701 138.393 6.53731 138.525 6.65568C138.657 6.77405 138.764 6.91801 138.839 7.07883C138.914 7.23966 138.955 7.414 138.96 7.59129C138.966 7.76858 138.935 7.94514 138.87 8.11024C138.763 8.36522 138.582 8.58231 138.35 8.73374C138.119 8.88517 137.847 8.96402 137.57 8.96021ZM75.1603 6.06022C74.857 6.06367 74.5609 5.96782 74.3172 5.78727C74.0734 5.60672 73.8954 5.35137 73.8103 5.06022C73.7643 4.88676 73.7539 4.70578 73.7797 4.52818C73.8054 4.35057 73.8669 4.18003 73.9603 4.0268C74.0538 3.87358 74.1772 3.74085 74.3233 3.6366C74.4694 3.53236 74.6351 3.45876 74.8103 3.42023H74.9604C75.309 3.3261 75.6805 3.37028 75.9973 3.54359C76.314 3.71689 76.5516 4.00589 76.6603 4.35023C76.7078 4.52372 76.7194 4.7051 76.6942 4.88322C76.6691 5.06133 76.6079 5.23241 76.5142 5.38599C76.4206 5.53957 76.2965 5.67241 76.1497 5.77631C76.0029 5.88022 75.8363 5.95299 75.6603 5.99021H75.5204C75.4077 6.0303 75.2898 6.05389 75.1703 6.06022H75.1603ZM117.16 3.79023H116.94H116.8C116.623 3.76805 116.453 3.71102 116.298 3.62244C116.143 3.53387 116.007 3.41548 115.898 3.27415C115.79 3.13281 115.71 2.97133 115.664 2.79902C115.618 2.6267 115.606 2.44699 115.63 2.27024C115.699 1.91392 115.903 1.598 116.199 1.38908C116.496 1.18015 116.862 1.0945 117.22 1.15021H117.37C117.547 1.17109 117.717 1.22703 117.871 1.3147C118.025 1.40238 118.16 1.52003 118.269 1.66074C118.377 1.80146 118.456 1.96239 118.5 2.13404C118.545 2.30569 118.556 2.48459 118.53 2.66022C118.475 2.97381 118.311 3.25816 118.069 3.46439C117.826 3.67062 117.519 3.78585 117.2 3.79023H117.16ZM95.9403 2.79023C95.5928 2.79903 95.255 2.67438 94.9965 2.4419C94.738 2.20942 94.5784 1.88677 94.5504 1.54023C94.5423 1.36128 94.57 1.1825 94.6317 1.01435C94.6935 0.846198 94.788 0.69203 94.91 0.560798C95.0319 0.429567 95.1787 0.323899 95.3419 0.249977C95.5051 0.176055 95.6813 0.135353 95.8604 0.130226H96.0103C96.3717 0.105305 96.7284 0.223449 97.0034 0.459175C97.2784 0.694901 97.4497 1.02932 97.4803 1.39024C97.4857 1.56885 97.4557 1.74675 97.3923 1.9138C97.3288 2.08084 97.2331 2.23376 97.1105 2.36378C96.9879 2.49379 96.8409 2.59837 96.6779 2.67155C96.5148 2.74472 96.339 2.78505 96.1603 2.79023H95.9403Z" fill="#956DF8"/>
<path d="M249.88 96.1299H207.57V98.7899H249.87L249.88 96.1299Z" fill="#956DF8"/>
<path d="M202.16 103.88C200.883 103.825 199.651 103.396 198.616 102.647C197.581 101.897 196.789 100.86 196.339 99.6645C195.888 98.4688 195.799 97.1671 196.082 95.921C196.365 94.675 197.008 93.5397 197.931 92.656C198.854 91.7724 200.016 91.1795 201.274 90.9509C202.531 90.7223 203.827 90.8681 205.002 91.3703C206.177 91.8725 207.179 92.7089 207.882 93.7755C208.586 94.8421 208.961 96.0919 208.96 97.3697C208.921 99.1344 208.182 100.811 206.907 102.032C205.632 103.253 203.925 103.917 202.16 103.88ZM202.16 93.5197C201.406 93.5491 200.676 93.7997 200.063 94.2402C199.45 94.6807 198.98 95.2918 198.712 95.9973C198.443 96.7029 198.388 97.4719 198.553 98.2085C198.718 98.9452 199.096 99.6171 199.64 100.141C200.184 100.664 200.87 101.016 201.612 101.153C202.355 101.29 203.121 101.205 203.816 100.91C204.511 100.615 205.103 100.122 205.52 99.4922C205.937 98.8628 206.159 98.1246 206.16 97.3697C206.136 96.3299 205.703 95.3417 204.953 94.6205C204.204 93.8993 203.2 93.5036 202.16 93.5197Z" fill="#956DF8"/>
<path d="M203.06 99.4196C203.337 99.3161 203.589 99.1579 203.803 98.9545C204.016 98.751 204.186 98.5066 204.303 98.2358C204.42 97.965 204.481 97.6733 204.482 97.3784C204.483 97.0835 204.425 96.7914 204.31 96.5196C204.059 95.9738 203.608 95.5446 203.05 95.3198C202.493 95.0949 201.871 95.0913 201.31 95.3096C201.034 95.4142 200.781 95.5734 200.568 95.7778C200.354 95.9821 200.184 96.2274 200.067 96.4991C199.951 96.7707 199.89 97.063 199.889 97.3586C199.888 97.6543 199.946 97.9471 200.06 98.2196C200.314 98.7636 200.766 99.1906 201.323 99.4135C201.88 99.6364 202.502 99.6386 203.06 99.4196Z" fill="#956DF8"/>
<path d="M355.72 194.95C342.617 194.973 329.625 192.551 317.41 187.81C304.878 182.965 293.428 175.689 283.72 166.4C275.147 158.23 268.135 148.565 263.03 137.88C258.174 127.683 255.196 116.694 254.24 105.44L257.01 105.22C259.033 127.819 269.23 148.904 285.69 164.52C324.3 201.52 387.14 201.52 425.75 164.52C442.212 148.905 452.41 127.819 454.43 105.22L457.2 105.44C456.244 116.694 453.267 127.683 448.41 137.88C443.302 148.566 436.287 158.231 427.71 166.4C418.009 175.692 406.561 182.969 394.03 187.81C381.815 192.548 368.823 194.97 355.72 194.95Z" fill="#956DF8"/>
<path d="M256.241 85.5999H256.051C255.874 85.58 255.703 85.5254 255.547 85.4391C255.392 85.3529 255.255 85.2367 255.144 85.0973C255.033 84.9579 254.951 84.798 254.903 84.6268C254.854 84.4557 254.84 84.2766 254.861 84.0999V83.9499C254.92 83.5921 255.118 83.2722 255.412 83.0604C255.707 82.8486 256.073 82.7621 256.431 82.8199C256.609 82.8371 256.781 82.89 256.938 82.9754C257.095 83.0609 257.234 83.177 257.345 83.3171C257.456 83.4571 257.537 83.618 257.585 83.7903C257.632 83.9626 257.645 84.1427 257.621 84.3199V84.4699C257.56 84.7902 257.388 85.0788 257.136 85.2854C256.884 85.4919 256.567 85.6033 256.241 85.5999ZM455.241 85.5999C454.911 85.6045 454.591 85.491 454.338 85.2801C454.085 85.0692 453.916 84.7747 453.861 84.4499V84.2999C453.84 84.1232 453.854 83.944 453.903 83.7729C453.951 83.6017 454.033 83.4418 454.144 83.3024C454.255 83.163 454.392 83.0468 454.547 82.9606C454.703 82.8743 454.874 82.8197 455.051 82.7999C455.393 82.7595 455.738 82.8476 456.019 83.0472C456.3 83.2467 456.496 83.5435 456.571 83.8799V84.0399C456.592 84.2166 456.578 84.3957 456.529 84.5668C456.48 84.738 456.398 84.8979 456.288 85.0373C456.177 85.1767 456.04 85.2929 455.885 85.3791C455.729 85.4654 455.558 85.52 455.381 85.5399L455.241 85.5999ZM261.641 65.0999C261.474 65.0992 261.308 65.0687 261.151 65.0099C260.982 64.9552 260.827 64.8667 260.694 64.7497C260.56 64.6328 260.453 64.4898 260.377 64.3297C260.301 64.1695 260.259 63.9956 260.252 63.8185C260.246 63.6414 260.276 63.4649 260.341 63.2999L260.391 63.1599C260.531 62.824 260.795 62.5553 261.129 62.4099C261.463 62.2645 261.84 62.2538 262.181 62.3799C262.349 62.4357 262.503 62.5249 262.636 62.6422C262.768 62.7594 262.875 62.9022 262.951 63.062C263.027 63.2217 263.069 63.3952 263.076 63.5718C263.083 63.7485 263.054 63.9247 262.991 64.0899V64.2299C262.885 64.4976 262.698 64.7255 262.455 64.8815C262.213 65.0375 261.929 65.1139 261.641 65.0999ZM449.791 65.0999C449.512 65.1021 449.239 65.0203 449.007 64.8651C448.775 64.7099 448.595 64.4886 448.491 64.2299V64.0999C448.428 63.934 448.399 63.7571 448.405 63.5798C448.412 63.4024 448.455 63.2282 448.53 63.0677C448.606 62.9071 448.713 62.7634 448.846 62.6452C448.978 62.5271 449.133 62.4368 449.301 62.3799C449.642 62.2538 450.019 62.2645 450.353 62.4099C450.686 62.5553 450.951 62.824 451.091 63.1599L451.151 63.2999C451.212 63.4665 451.24 63.6437 451.232 63.8211C451.224 63.9985 451.18 64.1725 451.104 64.3329C451.027 64.4932 450.92 64.6366 450.787 64.7546C450.654 64.8725 450.499 64.9628 450.331 65.0199C450.155 65.0659 449.972 65.0827 449.791 65.0699V65.0999ZM271.571 46.2299C271.303 46.2299 271.041 46.1573 270.811 46.0199C270.659 45.9282 270.528 45.8067 270.425 45.6628C270.322 45.5188 270.249 45.3555 270.21 45.1826C270.172 45.0096 270.169 44.8307 270.202 44.6567C270.235 44.4826 270.302 44.317 270.401 44.1699L270.491 44.0499C270.701 43.75 271.019 43.5423 271.378 43.4698C271.737 43.3972 272.11 43.4652 272.421 43.6599C272.572 43.7524 272.702 43.8745 272.804 44.0188C272.907 44.1631 272.979 44.3266 273.016 44.4994C273.053 44.6723 273.055 44.8509 273.022 45.0246C272.988 45.1983 272.92 45.3633 272.821 45.5099L272.731 45.6299C272.601 45.8172 272.428 45.97 272.226 46.0746C272.023 46.1792 271.799 46.2325 271.571 46.2299ZM439.781 46.2299C439.551 46.2305 439.325 46.1753 439.121 46.069C438.917 45.9628 438.742 45.8086 438.611 45.6199L438.531 45.4999C438.429 45.3551 438.359 45.1908 438.324 45.0173C438.289 44.8439 438.29 44.6651 438.327 44.4922C438.365 44.3193 438.438 44.156 438.542 44.0128C438.646 43.8695 438.778 43.7494 438.931 43.6599C439.239 43.4648 439.609 43.3955 439.967 43.4662C440.324 43.537 440.641 43.7423 440.851 44.0399L440.941 44.1699C441.041 44.3158 441.109 44.4806 441.143 44.6542C441.176 44.8277 441.174 45.0063 441.135 45.1789C441.097 45.3514 441.023 45.5142 440.919 45.6571C440.815 45.8001 440.683 45.9202 440.531 46.0099C440.315 46.1366 440.071 46.2055 439.821 46.2098L439.781 46.2299ZM285.661 29.8799C285.289 29.8769 284.932 29.7341 284.661 29.4799C284.534 29.3576 284.432 29.2109 284.363 29.0485C284.294 28.8861 284.258 28.7114 284.258 28.5349C284.258 28.3583 284.294 28.1836 284.363 28.0212C284.432 27.8589 284.534 27.7121 284.661 27.5899L284.771 27.4898C285.039 27.2308 285.398 27.086 285.771 27.086C286.144 27.086 286.502 27.2308 286.771 27.4898C286.898 27.6121 287 27.7588 287.069 27.9212C287.138 28.0836 287.174 28.2583 287.174 28.4349C287.174 28.6114 287.138 28.7861 287.069 28.9485C287 29.1109 286.898 29.2576 286.771 29.3799L286.661 29.4799C286.392 29.7384 286.034 29.8819 285.661 29.8799ZM425.761 29.8799C425.392 29.8911 425.034 29.7584 424.761 29.5099L424.641 29.3998C424.513 29.2792 424.41 29.1336 424.34 28.9719C424.27 28.8103 424.234 28.636 424.234 28.4598C424.234 28.2837 424.27 28.1095 424.34 27.9478C424.41 27.7861 424.513 27.6405 424.641 27.5199C424.908 27.2585 425.267 27.1121 425.641 27.1121C426.015 27.1121 426.374 27.2585 426.641 27.5199L426.751 27.6199C426.881 27.7406 426.984 27.8868 427.055 28.0494C427.126 28.212 427.163 28.3875 427.163 28.5649C427.163 28.7422 427.126 28.9177 427.055 29.0803C426.984 29.2429 426.881 29.3891 426.751 29.5099C426.482 29.7587 426.127 29.8917 425.761 29.8799ZM303.071 16.8799C302.836 16.8815 302.605 16.8237 302.399 16.7117C302.192 16.5998 302.018 16.4375 301.891 16.2398C301.794 16.0918 301.729 15.9256 301.7 15.7514C301.67 15.5772 301.677 15.3988 301.719 15.2272C301.761 15.0556 301.838 14.8945 301.945 14.7539C302.052 14.6133 302.187 14.4962 302.341 14.4099L302.471 14.3299C302.788 14.148 303.161 14.0922 303.517 14.1738C303.873 14.2554 304.185 14.4682 304.391 14.7699C304.486 14.9189 304.549 15.0857 304.577 15.26C304.605 15.4343 304.597 15.6125 304.554 15.7838C304.511 15.955 304.434 16.1156 304.327 16.256C304.219 16.3963 304.085 16.5133 303.931 16.5999L303.801 16.6798C303.579 16.8082 303.327 16.8771 303.071 16.8799ZM408.351 16.8799C408.094 16.882 407.841 16.8128 407.621 16.6798L407.481 16.5999C407.328 16.5124 407.194 16.3948 407.088 16.2541C406.982 16.1134 406.905 15.9526 406.863 15.7814C406.821 15.6102 406.814 15.4323 406.843 15.2584C406.872 15.0845 406.936 14.9183 407.031 14.7699C407.233 14.4668 407.544 14.2531 407.9 14.1731C408.255 14.093 408.628 14.1527 408.941 14.3399L409.071 14.4199C409.226 14.5054 409.362 14.6219 409.47 14.7621C409.578 14.9023 409.656 15.0632 409.699 15.2348C409.742 15.4065 409.749 15.5852 409.72 15.7598C409.692 15.9344 409.627 16.1012 409.531 16.2499C409.401 16.4437 409.226 16.6026 409.02 16.7125C408.814 16.8224 408.584 16.8799 408.351 16.8799ZM323.041 7.87986C322.755 7.88237 322.476 7.7975 322.24 7.63663C322.004 7.47577 321.823 7.2466 321.721 6.97987C321.664 6.81256 321.64 6.63541 321.653 6.45896C321.665 6.28251 321.713 6.11038 321.793 5.95274C321.873 5.79509 321.984 5.65517 322.12 5.5413C322.255 5.42743 322.412 5.34193 322.581 5.28986H322.741C323.085 5.17301 323.46 5.19424 323.789 5.3491C324.117 5.50395 324.372 5.7803 324.501 6.11985C324.558 6.2878 324.581 6.46557 324.568 6.64252C324.555 6.81948 324.506 6.992 324.425 7.14976C324.344 7.30751 324.232 7.44726 324.095 7.56068C323.959 7.6741 323.801 7.75884 323.631 7.80985L323.491 7.85987C323.343 7.89061 323.191 7.89735 323.041 7.87986ZM388.381 7.87986C388.228 7.88106 388.076 7.85742 387.931 7.80985L387.791 7.75986C387.621 7.70886 387.463 7.62411 387.327 7.51069C387.19 7.39727 387.078 7.25749 386.997 7.09974C386.916 6.94198 386.867 6.76949 386.854 6.59254C386.841 6.41558 386.864 6.23781 386.921 6.06986C387.053 5.73343 387.309 5.46024 387.636 5.30601C387.963 5.15177 388.337 5.1281 388.681 5.23984L388.831 5.28986C389.001 5.34198 389.159 5.42777 389.296 5.54215C389.432 5.65654 389.545 5.79717 389.626 5.95573C389.707 6.11428 389.755 6.28751 389.768 6.46516C389.781 6.6428 389.758 6.82122 389.701 6.98984C389.599 7.25553 389.417 7.48338 389.181 7.64255C388.945 7.80173 388.666 7.88456 388.381 7.87986ZM344.571 3.24985C344.235 3.25521 343.909 3.13695 343.654 2.91755C343.4 2.69815 343.235 2.39291 343.191 2.05985C343.173 1.88218 343.191 1.70273 343.243 1.53205C343.296 1.36137 343.382 1.2029 343.497 1.06596C343.611 0.929007 343.752 0.816356 343.911 0.734596C344.069 0.652835 344.243 0.603614 344.421 0.589851H344.571C344.931 0.546962 345.293 0.646314 345.581 0.866737C345.868 1.08716 346.059 1.41124 346.111 1.76987C346.127 1.94729 346.109 2.12622 346.056 2.29633C346.003 2.46645 345.916 2.62437 345.802 2.76102C345.688 2.89768 345.547 3.01035 345.389 3.09254C345.231 3.17472 345.058 3.22477 344.881 3.23984H344.721L344.571 3.24985ZM366.811 3.24985H366.661H366.511C366.332 3.23603 366.159 3.18687 365.999 3.10523C365.84 3.0236 365.699 2.91112 365.583 2.77433C365.468 2.63754 365.381 2.47921 365.327 2.30848C365.274 2.13775 365.254 1.95805 365.271 1.77985C365.323 1.42122 365.513 1.09717 365.801 0.876747C366.089 0.656324 366.451 0.556972 366.811 0.599861H366.961C367.139 0.613624 367.312 0.662845 367.471 0.744606C367.63 0.826366 367.771 0.939017 367.885 1.07597C368 1.21291 368.086 1.37138 368.138 1.54206C368.191 1.71274 368.209 1.89219 368.191 2.06986C368.145 2.39671 367.981 2.69563 367.731 2.9109C367.481 3.12617 367.161 3.24308 366.831 3.23984L366.811 3.24985Z" fill="#956DF8"/>
<path d="M504.64 96.1396H461.57V98.7997H504.65L504.64 96.1396Z" fill="#956DF8"/>
<path d="M255.29 104.05C254.017 103.993 252.788 103.563 251.756 102.814C250.724 102.065 249.935 101.03 249.487 99.8366C249.038 98.6431 248.95 97.3443 249.233 96.1011C249.516 94.858 250.157 93.7254 251.078 92.8437C251.999 91.962 253.159 91.3702 254.413 91.1416C255.667 90.913 256.961 91.0578 258.134 91.5579C259.307 92.058 260.307 92.8915 261.01 93.9549C261.713 95.0183 262.089 96.2648 262.09 97.5397C262.051 99.3044 261.313 100.981 260.038 102.202C258.763 103.423 257.055 104.087 255.29 104.05ZM255.29 93.6997C254.535 93.7291 253.806 93.9799 253.193 94.4209C252.579 94.8619 252.109 95.4735 251.841 96.1797C251.573 96.8858 251.518 97.6553 251.684 98.3922C251.85 99.1291 252.229 99.801 252.774 100.324C253.319 100.847 254.006 101.198 254.749 101.334C255.492 101.47 256.259 101.384 256.953 101.087C257.648 100.79 258.24 100.296 258.655 99.6649C259.071 99.0342 259.292 98.2951 259.29 97.5397C259.267 96.5008 258.833 95.5136 258.083 94.794C257.333 94.0744 256.329 93.6809 255.29 93.6997Z" fill="#956DF8"/>
<path d="M456.15 103.88C454.876 103.823 453.647 103.393 452.615 102.644C451.584 101.895 450.794 100.86 450.346 99.6666C449.897 98.4732 449.809 97.1744 450.092 95.9312C450.375 94.6881 451.017 93.5554 451.938 92.6738C452.859 91.7921 454.018 91.2003 455.273 90.9717C456.527 90.7431 457.821 90.8879 458.993 91.388C460.166 91.8881 461.166 92.7215 461.869 93.7849C462.573 94.8483 462.948 96.0948 462.95 97.3697C462.908 99.1336 462.169 100.809 460.894 102.029C459.62 103.249 457.914 103.915 456.15 103.88ZM456.15 93.5198C455.395 93.5492 454.666 93.7997 454.053 94.2402C453.44 94.6808 452.97 95.2918 452.701 95.9974C452.433 96.703 452.378 97.4719 452.543 98.2086C452.708 98.9453 453.086 99.6172 453.63 100.141C454.174 100.664 454.86 101.016 455.602 101.153C456.344 101.29 457.111 101.205 457.806 100.91C458.5 100.615 459.093 100.122 459.51 99.4923C459.927 98.8628 460.149 98.1247 460.15 97.3697C460.126 96.33 459.692 95.3418 458.943 94.6206C458.194 93.8993 457.19 93.5037 456.15 93.5198Z" fill="#956DF8"/>
<path d="M255.29 99.7604C255.725 99.7428 256.145 99.5977 256.498 99.3433C256.851 99.0889 257.122 98.7364 257.276 98.3295C257.431 97.9226 257.462 97.4793 257.366 97.0548C257.271 96.6302 257.053 96.2432 256.739 95.9416C256.425 95.6401 256.03 95.4374 255.602 95.3588C255.174 95.2802 254.732 95.3291 254.331 95.4994C253.931 95.6698 253.589 95.9541 253.349 96.3169C253.109 96.6798 252.981 97.1053 252.98 97.5404C252.996 98.1399 253.248 98.709 253.68 99.1245C254.112 99.5401 254.691 99.7685 255.29 99.7604Z" fill="#956DF8"/>
<path d="M456.15 99.5901C456.584 99.5705 457.003 99.4239 457.355 99.1683C457.707 98.9128 457.976 98.5596 458.128 98.1526C458.281 97.7457 458.311 97.3028 458.215 96.8789C458.118 96.4551 457.899 96.0689 457.585 95.7684C457.271 95.4678 456.875 95.2661 456.448 95.1882C456.02 95.1104 455.579 95.1598 455.179 95.3304C454.779 95.5009 454.438 95.7852 454.198 96.1477C453.959 96.5103 453.831 96.9354 453.83 97.3701C453.846 97.9713 454.098 98.5419 454.533 98.9577C454.967 99.3736 455.549 99.6008 456.15 99.5901Z" fill="#956DF8"/>
<path d="M511.571 92.2702L508.801 92.1202C510.201 67.2202 521.401 44.0302 540.331 26.8002C559.553 9.43579 584.567 -0.122235 610.471 0.000185022C611.631 0.000185022 612.791 0.000203334 613.921 0.0502033L613.821 2.71018C612.731 2.71018 611.601 2.66019 610.471 2.66019C557.851 2.66019 514.411 42.0202 511.571 92.2702Z" fill="#956DF8"/>
<path d="M610.459 194.94C584.525 195.066 559.482 185.481 540.259 168.07C521.538 151.26 510.222 127.73 508.779 102.61L511.559 102.48C514.299 152.83 557.739 192.28 610.459 192.28C611.599 192.28 612.729 192.28 613.819 192.28L613.919 194.94C612.789 194.93 611.629 194.94 610.459 194.94Z" fill="#956DF8"/>
<path d="M635.649 191.88C635.347 191.884 635.051 191.789 634.809 191.608C634.567 191.427 634.391 191.171 634.309 190.88C634.263 190.707 634.253 190.528 634.279 190.351C634.305 190.175 634.367 190.006 634.46 189.854C634.554 189.703 634.678 189.572 634.823 189.469C634.969 189.367 635.135 189.296 635.309 189.26H635.459C635.809 189.167 636.182 189.214 636.497 189.391C636.813 189.569 637.047 189.862 637.149 190.21C637.192 190.382 637.2 190.562 637.173 190.738C637.146 190.914 637.084 191.083 636.991 191.234C636.898 191.386 636.776 191.518 636.631 191.622C636.487 191.726 636.323 191.8 636.149 191.84H635.999C635.885 191.867 635.767 191.881 635.649 191.88ZM656.219 184.39C655.966 184.39 655.717 184.323 655.499 184.195C655.281 184.066 655.101 183.881 654.979 183.66C654.897 183.505 654.848 183.335 654.833 183.16C654.819 182.986 654.84 182.81 654.895 182.644C654.95 182.478 655.038 182.324 655.154 182.193C655.27 182.062 655.411 181.955 655.569 181.88L655.709 181.81C656.035 181.649 656.41 181.619 656.757 181.725C657.104 181.831 657.398 182.065 657.579 182.38C657.664 182.535 657.716 182.707 657.733 182.884C657.749 183.06 657.729 183.238 657.673 183.407C657.618 183.576 657.529 183.731 657.411 183.864C657.294 183.997 657.15 184.104 656.989 184.18L656.839 184.25C656.647 184.349 656.435 184.404 656.219 184.41V184.39ZM674.569 172.8C674.365 172.801 674.164 172.759 673.977 172.676C673.791 172.594 673.625 172.472 673.489 172.32C673.374 172.187 673.287 172.031 673.234 171.863C673.18 171.696 673.162 171.519 673.18 171.343C673.198 171.168 673.251 170.999 673.337 170.845C673.423 170.691 673.539 170.557 673.679 170.45L673.789 170.35C674.08 170.114 674.451 170.001 674.823 170.033C675.196 170.064 675.542 170.239 675.789 170.52C675.906 170.652 675.995 170.807 676.049 170.975C676.104 171.143 676.124 171.32 676.109 171.496C676.093 171.672 676.041 171.843 675.957 171.998C675.873 172.154 675.758 172.29 675.619 172.4L675.489 172.5C675.226 172.703 674.901 172.809 674.569 172.8ZM689.859 157.66C689.553 157.662 689.254 157.563 689.009 157.38C688.865 157.277 688.743 157.146 688.652 156.994C688.56 156.843 688.501 156.674 688.478 156.499C688.454 156.323 688.467 156.145 688.516 155.975C688.564 155.805 688.647 155.646 688.759 155.51L688.849 155.4C689.082 155.102 689.423 154.909 689.798 154.862C690.172 154.815 690.55 154.919 690.849 155.15C690.993 155.252 691.114 155.383 691.206 155.534C691.297 155.685 691.357 155.854 691.382 156.029C691.406 156.204 691.394 156.382 691.347 156.552C691.301 156.722 691.22 156.882 691.109 157.02L691.009 157.14C690.873 157.309 690.698 157.444 690.501 157.534C690.303 157.624 690.087 157.667 689.869 157.66H689.859ZM701.359 139.66C701.157 139.659 700.956 139.618 700.769 139.54C700.606 139.469 700.459 139.367 700.336 139.238C700.214 139.11 700.118 138.958 700.056 138.792C699.993 138.626 699.965 138.449 699.972 138.271C699.98 138.094 700.023 137.92 700.099 137.76L700.169 137.63C700.337 137.306 700.622 137.059 700.966 136.94C701.311 136.821 701.688 136.838 702.019 136.99C702.182 137.059 702.329 137.16 702.452 137.288C702.574 137.415 702.67 137.566 702.732 137.731C702.795 137.897 702.823 138.073 702.816 138.25C702.808 138.427 702.765 138.6 702.689 138.76L702.619 138.9C702.505 139.135 702.328 139.333 702.107 139.473C701.886 139.613 701.631 139.688 701.369 139.69L701.359 139.66ZM708.479 119.73H708.179C708.004 119.696 707.838 119.628 707.69 119.53C707.542 119.432 707.415 119.305 707.316 119.157C707.217 119.009 707.149 118.843 707.115 118.668C707.082 118.493 707.083 118.314 707.119 118.14V117.99C707.209 117.64 707.432 117.34 707.74 117.153C708.049 116.966 708.418 116.908 708.769 116.99C708.944 117.02 709.111 117.086 709.26 117.183C709.409 117.28 709.536 117.406 709.635 117.554C709.734 117.701 709.803 117.867 709.836 118.042C709.869 118.216 709.867 118.396 709.829 118.57V118.72C709.753 119.017 709.581 119.281 709.338 119.47C709.095 119.658 708.796 119.76 708.489 119.76L708.479 119.73ZM710.869 98.7895C710.509 98.7949 710.162 98.6584 709.901 98.4096C709.641 98.1607 709.49 97.8194 709.479 97.4595V97.3095C709.479 96.9409 709.626 96.5873 709.886 96.3266C710.147 96.066 710.501 95.9195 710.869 95.9195C711.238 95.9195 711.591 96.066 711.852 96.3266C712.113 96.5873 712.259 96.9409 712.259 97.3095V97.4595C712.259 97.6398 712.223 97.8183 712.154 97.9846C712.084 98.1509 711.982 98.3018 711.854 98.4283C711.725 98.5549 711.573 98.6547 711.406 98.7218C711.238 98.789 711.06 98.8222 710.879 98.8195L710.869 98.7895ZM708.499 77.8795C708.194 77.8869 707.895 77.7927 707.648 77.6117C707.402 77.4308 707.223 77.1732 707.139 76.8795V76.7295C707.061 76.3861 707.123 76.0259 707.311 75.7278C707.498 75.4298 707.796 75.2182 708.139 75.1395C708.491 75.0599 708.861 75.1195 709.17 75.3059C709.479 75.4922 709.705 75.7909 709.799 76.1395V76.2895C709.836 76.4636 709.837 76.6432 709.803 76.8179C709.769 76.9925 709.701 77.1587 709.602 77.3067C709.504 77.4547 709.377 77.5816 709.228 77.6799C709.08 77.7783 708.914 77.8461 708.739 77.8795H708.499ZM701.389 57.9395C701.129 57.9423 700.874 57.8726 700.651 57.7384C700.429 57.6042 700.248 57.4107 700.129 57.1795L700.069 57.0495C699.993 56.8898 699.949 56.7163 699.941 56.5393C699.932 56.3624 699.96 56.1856 700.022 56.0195C700.083 55.8534 700.178 55.7014 700.299 55.5726C700.421 55.4437 700.567 55.3407 700.729 55.2695C701.06 55.1159 701.438 55.0968 701.783 55.2162C702.128 55.3355 702.414 55.5841 702.579 55.9095L702.649 56.0495C702.727 56.2089 702.771 56.3824 702.779 56.5595C702.787 56.7366 702.759 56.9134 702.696 57.0792C702.634 57.2449 702.538 57.3962 702.414 57.5235C702.291 57.6508 702.143 57.7515 701.979 57.8195C701.793 57.8985 701.592 57.9393 701.389 57.9395ZM689.899 39.9395C689.689 39.9412 689.48 39.8953 689.29 39.8053C689.099 39.7152 688.932 39.5834 688.799 39.4195L688.709 39.3095C688.598 39.1728 688.515 39.0148 688.467 38.8452C688.419 38.6756 688.405 38.4979 688.428 38.323C688.45 38.1481 688.508 37.9795 688.598 37.8276C688.687 37.6758 688.807 37.5437 688.949 37.4395C689.247 37.2076 689.624 37.1027 689.999 37.1476C690.373 37.1926 690.715 37.3837 690.949 37.6795L691.049 37.7995C691.161 37.9363 691.244 38.0947 691.293 38.2649C691.341 38.4351 691.354 38.6135 691.331 38.7889C691.307 38.9643 691.248 39.133 691.156 39.2845C691.065 39.436 690.943 39.567 690.799 39.6695C690.542 39.8705 690.225 39.9796 689.899 39.9795V39.9395ZM674.569 24.8795C674.246 24.8805 673.932 24.7712 673.679 24.5695L673.559 24.4795C673.42 24.3718 673.305 24.2366 673.22 24.0825C673.135 23.9284 673.082 23.7586 673.065 23.5834C673.048 23.4083 673.068 23.2315 673.121 23.064C673.175 22.8965 673.263 22.7419 673.379 22.6095C673.622 22.3228 673.968 22.1431 674.342 22.1094C674.717 22.0757 675.089 22.1907 675.379 22.4295L675.509 22.5295C675.648 22.639 675.763 22.7755 675.847 22.9309C675.931 23.0862 675.983 23.257 675.999 23.433C676.014 23.6089 675.994 23.7862 675.939 23.9541C675.885 24.122 675.796 24.277 675.679 24.4095C675.54 24.5639 675.368 24.686 675.176 24.7672C674.984 24.8484 674.777 24.8867 674.569 24.8795ZM656.209 13.2695C655.99 13.2687 655.775 13.2174 655.579 13.1195L655.439 13.0495C655.278 12.9763 655.134 12.8706 655.015 12.7391C654.896 12.6075 654.806 12.453 654.75 12.2851C654.693 12.1171 654.672 11.9394 654.688 11.763C654.703 11.5865 654.755 11.4152 654.839 11.2595C655.015 10.9395 655.308 10.7002 655.657 10.592C656.006 10.4839 656.383 10.5152 656.709 10.6795L656.849 10.7495C657.009 10.8239 657.153 10.9302 657.271 11.0619C657.388 11.1936 657.478 11.3479 657.534 11.5154C657.59 11.683 657.612 11.8602 657.597 12.0363C657.583 12.2123 657.532 12.3836 657.449 12.5395C657.324 12.7462 657.148 12.9172 656.938 13.0363C656.728 13.1553 656.491 13.2184 656.249 13.2195L656.209 13.2695ZM635.639 5.76954C635.523 5.78367 635.405 5.78367 635.289 5.76954H635.139C634.966 5.7308 634.802 5.6578 634.658 5.55488C634.513 5.45196 634.391 5.32119 634.298 5.17023C634.205 5.01928 634.143 4.8512 634.115 4.67591C634.088 4.50062 634.096 4.32163 634.139 4.14951C634.233 3.79444 634.463 3.49061 634.779 3.30353C635.096 3.11646 635.473 3.06114 635.829 3.14951H635.979C636.153 3.18815 636.318 3.26144 636.463 3.36503C636.609 3.46861 636.732 3.60039 636.825 3.75248C636.918 3.90457 636.98 4.07387 637.006 4.25031C637.033 4.42676 637.024 4.60672 636.979 4.77952C636.889 5.05295 636.715 5.29095 636.481 5.45969C636.248 5.62844 635.967 5.71936 635.679 5.71952L635.639 5.76954Z" fill="#956DF8"/>
<path d="M510.031 103.88C508.757 103.823 507.528 103.393 506.496 102.644C505.464 101.895 504.675 100.86 504.227 99.6666C503.778 98.4732 503.69 97.1744 503.973 95.9312C504.256 94.6881 504.898 93.5554 505.819 92.6738C506.74 91.7921 507.899 91.2003 509.153 90.9717C510.408 90.7431 511.701 90.8879 512.874 91.388C514.047 91.8881 515.047 92.7215 515.75 93.7849C516.454 94.8483 516.829 96.0948 516.831 97.3697C516.789 99.1336 516.049 100.809 514.775 102.029C513.5 103.249 511.795 103.915 510.031 103.88ZM510.031 93.5198C509.276 93.5492 508.547 93.7997 507.934 94.2402C507.321 94.6808 506.851 95.2918 506.582 95.9974C506.314 96.703 506.259 97.4719 506.424 98.2086C506.589 98.9453 506.967 99.6172 507.511 100.141C508.055 100.664 508.74 101.016 509.483 101.153C510.225 101.29 510.992 101.205 511.686 100.91C512.381 100.615 512.974 100.122 513.391 99.4923C513.807 98.8628 514.03 98.1247 514.031 97.3697C514.007 96.33 513.573 95.3418 512.824 94.6206C512.075 93.8993 511.07 93.5037 510.031 93.5198Z" fill="#956DF8"/>
<path d="M510.031 99.5901C510.465 99.5705 510.884 99.4239 511.236 99.1683C511.588 98.9128 511.856 98.5596 512.009 98.1526C512.162 97.7457 512.192 97.3028 512.095 96.8789C511.999 96.4551 511.78 96.0689 511.466 95.7684C511.152 95.4678 510.756 95.2661 510.329 95.1882C509.901 95.1104 509.46 95.1598 509.06 95.3304C508.66 95.5009 508.319 95.7852 508.079 96.1477C507.839 96.5103 507.711 96.9354 507.711 97.3701C507.717 97.6682 507.783 97.9621 507.903 98.2351C508.023 98.508 508.196 98.7546 508.411 98.9607C508.626 99.1669 508.88 99.3286 509.158 99.4366C509.436 99.5446 509.733 99.5967 510.031 99.5901Z" fill="#956DF8"/>
</g>
<defs>
<linearGradient id="paint0_linear_2067_1477" x1="28.3897" y1="111.96" x2="210.93" y2="111.96" gradientUnits="userSpaceOnUse">
<stop offset="0.17" stop-opacity="0.3"/>
<stop offset="0.92" stop-color="#020202" stop-opacity="0.05"/>
</linearGradient>
<radialGradient id="paint1_radial_2067_1477" cx="0" cy="0" r="1" gradientUnits="userSpaceOnUse" gradientTransform="translate(111.34 104.34) scale(88.56 88.56)">
<stop offset="0.26"/>
<stop offset="1" stop-opacity="0"/>
</radialGradient>
<linearGradient id="paint2_linear_2067_1477" x1="298.609" y1="60.7999" x2="448.489" y2="164.99" gradientUnits="userSpaceOnUse">
<stop offset="0.17" stop-opacity="0.3"/>
<stop offset="0.92" stop-color="#020202" stop-opacity="0.05"/>
</linearGradient>
<radialGradient id="paint3_radial_2067_1477" cx="0" cy="0" r="1" gradientUnits="userSpaceOnUse" gradientTransform="translate(365.709 104.34) scale(88.56 88.56)">
<stop offset="0.26"/>
<stop offset="1" stop-opacity="0"/>
</radialGradient>
<linearGradient id="paint4_linear_2067_1477" x1="537.11" y1="111.97" x2="719.66" y2="111.97" gradientUnits="userSpaceOnUse">
<stop offset="0.17" stop-opacity="0.3"/>
<stop offset="0.92" stop-color="#020202" stop-opacity="0.05"/>
</linearGradient>
<radialGradient id="paint5_radial_2067_1477" cx="0" cy="0" r="1" gradientUnits="userSpaceOnUse" gradientTransform="translate(620.071 104.34) scale(88.56 88.56)">
<stop offset="0.26"/>
<stop offset="1" stop-opacity="0"/>
</radialGradient>
<clipPath id="clip0_2067_1477">
<rect width="719.66" height="196.62" fill="white"/>
</clipPath>
</defs>
</svg>
