<svg width="220" height="190" viewBox="0 0 213 192" fill="none" xmlns="http://www.w3.org/2000/svg"
    preserveAspectRatio="none">
    <path
        d="M37.8646 0C20.4013 0 6.24219 13.5547 6.24219 30.2725V79.8694C6.24219 80.6936 6.9409 81.3625 7.8019 81.3625C8.66289 81.3625 9.3616 80.6936 9.3616 79.8694V30.2682C9.3616 15.1988 22.1188 2.98627 37.8601 2.98627H113.5V0H37.8646Z"
        fill="#956DF8" />
    <path
        d="M174.359 0H112.354V2.98627H174.359C190.1 2.98627 202.857 15.2031 202.857 30.2682V79.8694C202.857 80.6936 203.556 81.3625 204.417 81.3625C205.278 81.3625 205.977 80.6936 205.977 79.8694V30.2682C205.981 13.5504 191.822 0 174.359 0Z"
        fill="#956DF8" />
    <path
        d="M212.219 95.6046C212.219 91.2979 208.388 87.8283 203.817 88.1562C200.035 88.4281 196.969 91.3281 196.645 94.9444C196.37 97.9824 198.006 100.688 200.531 102.082C201.955 102.867 202.857 104.309 202.857 105.884V160.94C202.857 176.009 190.095 188.222 174.358 188.222H37.8612C22.1199 188.222 9.36275 176.009 9.36275 160.94V105.884C9.36275 104.309 10.2598 102.867 11.6888 102.082C14.2132 100.688 15.8495 97.9824 15.5745 94.9444C15.2455 91.3281 12.1801 88.4281 8.40259 88.1562C3.83165 87.8283 0 91.2979 0 95.6046C0 98.3924 1.60478 100.831 3.9759 102.112C5.38685 102.876 6.24333 104.33 6.24333 105.884V160.94C6.24333 177.658 20.4024 191.212 37.8657 191.212H174.358C191.822 191.212 205.981 177.658 205.981 160.94V105.884C205.981 104.33 206.833 102.876 208.248 102.112C210.615 100.831 212.219 98.3924 212.219 95.6046ZM3.12392 95.6046C3.12392 93.1319 5.22457 91.1209 7.80755 91.1209C10.3905 91.1209 12.4912 93.1319 12.4912 95.6046C12.4912 98.0774 10.3905 100.088 7.80755 100.088C5.22457 100.088 3.12392 98.0774 3.12392 95.6046ZM204.416 100.088C201.833 100.088 199.733 98.0774 199.733 95.6046C199.733 93.1319 201.833 91.1209 204.416 91.1209C206.999 91.1209 209.1 93.1319 209.1 95.6046C209.1 98.0774 206.999 100.088 204.416 100.088Z"
        fill="#956DF8" />
    <path
        d="M204.415 98.4277C206.043 98.4277 207.363 97.1642 207.363 95.6055C207.363 94.0468 206.043 92.7832 204.415 92.7832C202.787 92.7832 201.467 94.0468 201.467 95.6055C201.467 97.1642 202.787 98.4277 204.415 98.4277Z"
        fill="#956DF8" />
</svg>