<svg width="220" height="190" viewBox="0 0 213 192" fill="none" xmlns="http://www.w3.org/2000/svg"
    preserveAspectRatio="none">
    <path
        d="M38.1948 0.00195312C20.7314 0.00195312 6.57236 13.5566 6.57236 30.2745V79.8713C6.57236 80.6956 7.27111 81.3645 8.1321 81.3645C8.9931 81.3645 9.69179 80.6956 9.69179 79.8713V30.2702C9.69179 15.2008 22.4534 2.98823 38.1903 2.98823H115V0.00195312H38.1948Z"
        fill="#956DF8" />
    <path
        d="M204.753 115.488C206.381 115.488 207.701 114.225 207.701 112.666C207.701 111.107 206.381 109.844 204.753 109.844C203.125 109.844 201.805 111.107 201.805 112.666C201.805 114.225 203.125 115.488 204.753 115.488Z"
        fill="#956DF8" />
    <path
        d="M174.691 0.00227356H112.623V2.98855H174.691C190.433 2.98855 203.19 15.2054 203.19 30.2705V62.8043C203.19 63.6285 203.889 64.2974 204.75 64.2974C205.611 64.2974 206.309 63.6285 206.309 62.8043V30.2705C206.314 13.5526 192.155 0.00227356 174.691 0.00227356Z"
        fill="#956DF8" />
    <path
        d="M212.546 78.5424C212.546 74.2357 208.714 70.7661 204.143 71.0941C200.361 71.3659 197.296 74.2659 196.971 77.8779C196.696 80.9159 198.333 83.6216 200.857 85.0155C202.282 85.8009 203.183 87.2423 203.183 88.8174V89.6287H206.303V88.8174C206.303 87.2639 207.155 85.8096 208.57 85.0457C210.941 83.7684 212.546 81.3302 212.546 78.5424ZM204.743 83.0261C202.16 83.0261 200.059 81.0151 200.059 78.5424C200.059 76.0697 202.16 74.0587 204.743 74.0587C207.326 74.0587 209.427 76.0697 209.427 78.5424C209.427 81.0151 207.326 83.0261 204.743 83.0261Z"
        fill="#956DF8" />
    <path
        d="M204.749 81.3656C203.122 81.3656 201.801 80.1011 201.801 78.5433C201.801 76.9854 203.122 75.721 204.749 75.721C206.376 75.721 207.697 76.9854 207.697 78.5433C207.697 80.1011 206.376 81.3656 204.749 81.3656Z"
        fill="#956DF8" />
    <path
        d="M212.546 95.6049C212.546 91.2982 208.714 87.8286 204.143 88.1566C200.361 88.4284 197.296 91.3284 196.971 94.9447C196.696 97.9827 198.333 100.688 200.857 102.082C202.282 102.868 203.183 104.309 203.183 105.884V106.696H206.303V105.884C206.303 104.331 207.155 102.876 208.57 102.113C210.941 100.831 212.546 98.3927 212.546 95.6049ZM204.743 100.089C202.16 100.089 200.059 98.0777 200.059 95.6049C200.059 93.1322 202.16 91.1212 204.743 91.1212C207.326 91.1212 209.427 93.1322 209.427 95.6049C209.427 98.0777 207.326 100.089 204.743 100.089Z"
        fill="#956DF8" />
    <path
        d="M204.749 98.4281C206.377 98.4281 207.697 97.1645 207.697 95.6058C207.697 94.0471 206.377 92.7835 204.749 92.7835C203.121 92.7835 201.801 94.0471 201.801 95.6058C201.801 97.1645 203.121 98.4281 204.749 98.4281Z"
        fill="#956DF8" />
    <path
        d="M212.549 112.668C212.549 108.361 208.717 104.892 204.146 105.22C200.364 105.492 197.299 108.391 196.974 112.008C196.699 115.046 198.336 117.752 200.86 119.145C202.285 119.931 203.186 121.372 203.186 122.947V160.94C203.186 176.009 190.425 188.222 174.688 188.222H38.1952C22.4539 188.222 9.69675 176.005 9.69675 160.94V105.884C9.69675 104.309 10.5938 102.868 12.0228 102.082C14.5472 100.688 16.1835 97.9827 15.9085 94.9447C15.5795 91.3284 12.5141 88.4284 8.73658 88.1566C4.16564 87.8286 0.333984 91.2982 0.333984 95.6049C0.333984 98.3927 1.9388 100.831 4.30992 102.113C5.72087 102.876 6.57731 104.331 6.57731 105.884V160.94C6.57731 177.658 20.7364 191.213 38.1997 191.213H174.692C192.156 191.213 206.31 177.662 206.31 160.944V122.952C206.31 121.398 207.162 119.944 208.578 119.18C210.944 117.894 212.549 115.456 212.549 112.668ZM3.44891 95.6049C3.44891 93.1322 5.54956 91.1212 8.13255 91.1212C10.7155 91.1212 12.8162 93.1322 12.8162 95.6049C12.8162 98.0777 10.7155 100.089 8.13255 100.089C5.54956 100.089 3.44891 98.0777 3.44891 95.6049ZM204.746 117.152C202.163 117.152 200.062 115.141 200.062 112.668C200.062 110.195 202.163 108.184 204.746 108.184C207.329 108.184 209.429 110.195 209.429 112.668C209.429 115.141 207.329 117.152 204.746 117.152Z"
        fill="#956DF8" />
</svg>