<svg width="37" height="44" viewBox="0 0 37 44" fill="none" xmlns="http://www.w3.org/2000/svg">
<path fill-rule="evenodd" clip-rule="evenodd" d="M7.3072 0.414062H30.1281C33.9093 0.414062 36.9743 3.34116 36.9743 6.95189V27.655H7.3072C4.67703 27.655 2.27778 28.5993 0.460938 30.152V6.95189C0.460938 3.34116 3.52612 0.414062 7.3072 0.414062ZM26.691 10.0804C27.4023 10.6748 27.4745 11.7074 26.8519 12.3867L20.3025 19.5346C18.8952 21.0705 16.4711 21.276 14.8023 20.0012L10.8022 16.9453C10.064 16.3814 9.94435 15.3528 10.5349 14.648C11.1254 13.9431 12.2024 13.8288 12.9406 14.3927L16.9406 17.4486C17.1791 17.6307 17.5255 17.6014 17.7265 17.3819L24.2759 10.2341C24.8982 9.55479 25.9797 9.48597 26.691 10.0804ZM7.3072 30.9239C3.52612 30.9239 0.460938 33.8509 0.460938 37.4617C0.460938 41.0726 3.52612 43.9996 7.3072 43.9996H30.1281C33.9093 43.9996 36.9743 41.0726 36.9743 37.4617V30.9239H7.3072Z" fill="#9A67F7"/>
</svg>
