<svg width="484" height="156" viewBox="0 0 484 156" fill="none" xmlns="http://www.w3.org/2000/svg">
<path d="M154.95 75.31V29.71H162.77V52.05L183.48 29.71H193.38L175.53 48.4L194.68 75.3H185.1L170.12 54.06L162.76 61.75V75.3H154.94L154.95 75.31Z" fill="#231F20"/>
<path d="M198.07 75.31V40.79H204.26L204.91 45.87C207.06 42.29 211.42 39.75 216.57 39.75C223.93 39.75 228.75 44.7 228.75 52.45V75.31H221.06V52.84C221.06 49 218.52 46.46 214.22 46.46C209.2 46.46 205.82 49.91 205.75 54.41V75.32H198.06L198.07 75.31Z" fill="#231F20"/>
<path d="M232.93 57.7201C232.93 46.4501 240.55 39.7401 250.65 39.7401C261.79 39.7401 268.3 47.5601 268.3 57.7201C268.3 69.3801 260.94 76.28 250.65 76.28C239.45 76.28 232.93 68.4001 232.93 57.7201ZM260.48 57.7201C260.48 50.8801 256.64 46.32 250.64 46.32C244.64 46.32 240.74 50.8801 240.74 57.7201C240.74 65.2801 244.97 69.71 250.64 69.71C256.83 69.71 260.48 64.6301 260.48 57.7201Z" fill="#231F20"/>
<path d="M279.5 75.31L269.27 40.79H277.15L284.12 65.8L290.96 40.79H297.34L304.24 65.54L311.08 40.79H318.96L308.73 75.31H300.78L294.14 51.73L287.56 75.31H279.48H279.5Z" fill="#231F20"/>
<path d="M322.5 75.31V26.46H330.19V75.31H322.5Z" fill="#231F20"/>
<path d="M334.94 58.18C334.94 46.78 342.43 39.75 352.07 39.75C361.71 39.75 368.35 46.59 368.55 57.79V59.61H342.62C343.14 65.67 346.92 69.77 352.78 69.77C356.75 69.77 359.75 67.82 360.92 64.36H368.41C366.65 71.79 360.85 76.28 352.71 76.28C342.16 76.28 334.93 68.72 334.93 58.17L334.94 58.18ZM360.61 54.21C359.63 49.26 356.57 46.26 352.08 46.26C347.59 46.26 344.13 49.26 342.96 54.21H360.61Z" fill="#231F20"/>
<path d="M371.36 57.85C371.36 47.17 377.94 39.74 387.12 39.74C392.01 39.74 396.04 41.76 398.45 45.02V26.46H406.14V75.31H399.95L399.23 69.19C397.28 73.55 392.98 76.29 387.37 76.29C378.06 76.29 371.35 68.73 371.35 57.86L371.36 57.85ZM398.46 57.79C398.46 50.95 394.55 46.2 388.95 46.2C383.35 46.2 379.24 51.02 379.24 57.93C379.24 64.84 383.15 69.79 388.82 69.79C394.49 69.79 398.46 64.84 398.46 57.8V57.79Z" fill="#231F20"/>
<path d="M412.2 77.27H419.89C419.89 80.53 423.34 83.13 428.49 83.13C434.61 83.13 437.8 79.48 437.8 74.27V69.38C435.59 72.7 431.74 74.7901 426.79 74.7901C417.54 74.7901 410.9 67.6201 410.9 57.3301C410.9 47.0401 417.54 39.7401 426.73 39.7401C432.14 39.7401 436.5 42.28 438.65 46.12L439.3 40.78H445.42V74.2601C445.42 83.3801 438.97 89.3701 428.48 89.3701C418.84 89.3701 412.19 84.68 412.19 77.25L412.2 77.27ZM437.8 57.2701C437.8 50.76 433.89 46.26 428.29 46.26C422.69 46.26 418.85 50.7601 418.85 57.3301C418.85 63.9001 422.69 68.34 428.29 68.34C433.89 68.34 437.8 63.7801 437.8 57.2701Z" fill="#231F20"/>
<path d="M449.98 58.18C449.98 46.78 457.47 39.75 467.11 39.75C476.75 39.75 483.39 46.59 483.59 57.79V59.61H457.66C458.18 65.67 461.96 69.77 467.82 69.77C471.79 69.77 474.79 67.82 475.96 64.36H483.45C481.69 71.79 475.89 76.28 467.75 76.28C457.2 76.28 449.97 68.72 449.97 58.17L449.98 58.18ZM475.65 54.21C474.67 49.26 471.61 46.26 467.12 46.26C462.63 46.26 459.17 49.26 458 54.21H475.65Z" fill="#231F20"/>
<path d="M152.86 104.36C152.86 90.55 161.59 80.71 175.79 80.71C187.65 80.71 195.79 87.61 197.74 99.27H189.73C188.3 92.1 183.02 87.74 175.79 87.74C166.6 87.74 160.87 94.19 160.87 104.35C160.87 114.51 166.6 121.16 175.79 121.16C183.15 121.16 188.3 116.93 189.73 109.7H197.74C195.66 121.56 187.71 128.26 175.79 128.26C161.78 128.26 152.86 118.62 152.86 104.35V104.36Z" fill="#231F20"/>
<path d="M201.13 109.7C201.13 98.43 208.75 91.72 218.85 91.72C229.99 91.72 236.5 99.54 236.5 109.7C236.5 121.36 229.14 128.26 218.85 128.26C207.65 128.26 201.13 120.38 201.13 109.7ZM228.68 109.7C228.68 102.86 224.84 98.3 218.84 98.3C212.84 98.3 208.94 102.86 208.94 109.7C208.94 117.26 213.17 121.69 218.84 121.69C225.03 121.69 228.68 116.61 228.68 109.7Z" fill="#231F20"/>
<path d="M241.13 127.29V92.77H247.32L248.23 99.54C250.44 94.85 254.48 92.37 260.22 92.37H261.52V99.86H260.22C253.05 99.86 248.82 103.7 248.82 110.22V127.29H241.13Z" fill="#231F20"/>
<path d="M262.44 110.15C262.44 98.75 269.93 91.72 279.57 91.72C289.21 91.72 295.85 98.56 296.05 109.76V111.58H270.12C270.64 117.64 274.42 121.74 280.28 121.74C284.25 121.74 287.25 119.79 288.42 116.33H295.91C294.15 123.76 288.35 128.25 280.21 128.25C269.66 128.25 262.43 120.69 262.43 110.14L262.44 110.15ZM288.11 106.18C287.13 101.23 284.07 98.23 279.58 98.23C275.09 98.23 271.63 101.23 270.46 106.18H288.11Z" fill="#231F20"/>
<path d="M300.16 98.26V91.85H297.75V90.41H304.11V91.85H301.72V98.26H300.16ZM304.59 98.26V90.42H306.28L308.65 96.52L310.99 90.42H312.66V98.26H311.1V93.66L309.34 98.26H307.9L306.16 93.73V98.26H304.58H304.59Z" fill="#231F20"/>
<mask id="mask0_9_54" style="mask-type:luminance" maskUnits="userSpaceOnUse" x="0" y="0" width="131" height="156">
<path d="M101.17 51.15C101.13 51.01 101.08 50.81 101.03 50.61L96.4599 31.72C96.4199 31.56 96.3799 31.41 96.3499 31.24C96.2699 30.86 96.1899 30.49 96.0699 30.1C95.4999 28.32 94.0799 27.17 92.3599 27.11H92.2299C90.4499 27.11 88.9299 28.27 88.3499 30.07C87.9699 31.3 87.6299 32.56 87.2999 33.79L79.3699 63.39C79.3699 63.39 78.9399 64.98 78.9199 65.03L72.8699 38.9C72.7899 38.56 72.6999 38.21 72.5999 37.86C72.0899 36.15 70.8199 35.08 69.1399 34.92C69.0099 34.9 68.8799 34.9 68.7399 34.9C67.1199 34.9 65.7299 35.84 65.0999 37.36C64.5199 38.74 63.9699 40.15 63.4299 41.53L63.0799 42.42C62.8399 43.05 62.5999 43.68 62.3499 44.31C62.3499 44.31 60.5899 48.82 60.4199 49.25C60.1499 48.28 59.4199 45.68 59.4199 45.68C59.3599 45.44 59.3199 45.26 59.2799 45.1C59.2099 44.79 59.1499 44.54 58.9999 44.08C58.4799 42.48 57.1899 41.4 55.5399 41.17C55.3199 41.14 55.1199 41.13 54.9099 41.13C54.0599 41.13 52.9599 41.23 52.0399 41.99C51.3999 42.52 50.9599 43.19 50.5999 43.74C49.9299 44.77 49.2699 45.81 48.6099 46.84L47.6199 48.39C47.1499 49.12 46.6799 49.86 46.1999 50.59C45.8599 51.11 45.7399 51.16 45.5199 51.16H45.3099C43.7999 51.15 42.2899 51.14 40.7599 51.14C38.9399 51.14 37.1099 51.15 35.2899 51.16H35.0799C33.4599 51.16 32.1999 51.93 31.5399 53.32C30.8399 54.81 31.0099 56.35 32.0199 57.66C32.7799 58.62 33.8699 59.13 35.1899 59.15C37.5499 59.16 39.9099 59.16 42.2799 59.16C44.2399 59.16 46.2099 59.16 48.1899 59.15C49.8599 59.13 51.1499 58.32 51.9399 56.8C52.3899 55.94 52.8699 55.09 53.3999 54.16C53.4199 54.13 53.4499 54.07 53.4899 54C53.7499 55.05 54.0199 56.16 54.1399 56.57L54.8599 59.2C55.1699 60.31 55.4899 61.44 55.8099 62.55C56.3999 64.61 57.7699 65.84 59.5699 65.93H59.6999L59.7499 65.94C61.4799 65.94 62.9499 64.79 63.6999 62.87C65.0599 59.39 66.4199 55.91 67.7899 52.42C68.8999 57.2 69.9999 61.97 71.0999 66.74L72.5299 72.93L73.3199 76.34L73.7299 78.19C74.0399 79.57 74.3699 81 74.7199 82.39C75.1399 84.1 76.3099 85.21 78.1199 85.52C78.3399 85.55 78.5399 85.57 78.7299 85.57C79.9199 85.57 80.9899 85.01 81.8199 83.96C82.2999 83.37 82.4799 82.7 82.6599 82.07C85.1499 72.86 87.6499 63.63 90.1299 54.41C90.6099 52.61 91.0899 50.81 91.5599 49C91.6999 48.47 91.8399 47.94 91.9799 47.41C92.2599 48.54 92.5299 49.66 92.7999 50.8L93.0099 51.69C93.3399 53.05 93.6599 54.41 93.9999 55.77C94.5399 57.98 96.0499 59.15 98.3599 59.15H125.93C127.3 59.15 128.44 58.71 129.22 57.87C129.91 57.12 130.26 56.11 130.28 54.77C130.28 54.25 130.28 53.73 130.25 53.22C130.23 52.82 130.22 52.41 130.22 51.96C129.58 37.72 123.4 24.64 112.8 15.13C101.75 5.19 88.0299 0.24 70.8499 0.02C70.5999 0.02 70.3499 0.02 70.0999 0.01C69.8399 0.01 69.5699 0 69.3099 0C68.9599 0 68.6199 0.01 68.2799 0.04L66.8999 0.15C65.0499 0.3 63.1299 0.45 61.2599 0.73C39.3899 3.95 23.3999 15.38 13.7499 34.72C7.39993 47.44 4.00993 61.33 0.719933 74.76L0.279933 76.57C-0.800067 80.99 1.29993 85.07 5.62993 86.98C7.38993 87.75 8.83993 88.18 10.1799 88.34L10.7899 88.41C11.6799 88.51 12.3299 88.59 12.4799 88.77C12.6899 89.03 12.8099 89.98 12.9799 91.29L13.0099 91.54C13.0699 92.03 13.0799 92.54 13.0799 93.08C13.0799 93.37 13.0799 93.65 13.0899 93.93C13.2899 99.82 13.4799 105.69 13.6699 111.58C13.8299 116.92 16.4799 120.58 21.5299 122.46C22.8999 122.97 24.3999 123.41 25.9899 123.76C28.9599 124.39 32.0199 124.7 35.3599 124.7C38.8799 124.7 42.6499 124.36 47.2199 123.63C47.3999 123.6 47.5599 123.58 47.7099 123.58C48.0199 123.58 48.2199 123.58 48.5099 124.31C49.6199 127.09 50.6399 129.59 51.8099 132.05C53.4299 135.45 55.0699 138.84 56.7099 142.22C58.3499 145.6 59.9899 148.98 61.6099 152.39C62.7299 154.69 64.4599 155.85 66.7399 155.85C67.0899 155.85 67.4499 155.82 67.8299 155.77C68.4499 155.68 69.0699 155.59 69.6899 155.5C71.9899 155.18 74.3599 154.85 76.5999 154.12C87.5199 150.54 97.6899 144.15 107.69 134.59C110.84 131.59 113.54 128.08 116.15 124.68C116.73 123.92 117.31 123.17 117.89 122.42C119.46 120.43 119.64 118.07 118.42 115.37C117.27 112.9 116.26 110.11 115.25 106.58C113.58 100.57 114.22 95.72 117.25 91.32C119.92 87.44 122.14 83.21 124.36 78.85C126.36 74.95 127.87 70.8 128.86 66.51L129.11 65.45H120.76L120.59 66.1C119.87 68.9 118.82 71.7 117.47 74.41C115.74 77.88 113.41 82.38 110.64 86.51C106.25 93.02 105.08 100.15 107.17 107.71C108.17 111.29 109.11 114.18 110.13 116.83C110.7 118.24 110.59 119.21 109.73 120.4C105.45 126.39 99.6099 131.84 91.3799 137.55C86.5499 140.88 80.0399 144.96 72.5199 146.92C70.9799 147.32 69.8699 147.6 69.1499 147.6C68.2299 147.6 67.9099 147.19 66.5099 144.18C64.7499 140.45 63.4599 137.74 62.4599 135.65C60.2533 131.01 58.2333 126.243 56.3999 121.35C55.7599 119.64 54.9699 117.53 53.9499 114.84L53.6999 114.17L45.9499 115.51C41.9099 116.21 38.5699 116.54 35.4499 116.54C31.3799 116.54 27.7199 115.96 24.2499 114.78C22.5899 114.22 21.7899 113.12 21.7399 111.33C21.6999 109.81 21.6599 108.29 21.6199 106.76C21.5399 103.13 21.4499 99.39 21.2299 95.7C21.0299 92.51 20.5799 89.09 19.8999 85.56C19.4199 83.05 17.5099 81.37 14.5299 80.82C12.6599 80.48 10.8199 80.08 9.08993 79.63C8.80993 79.56 8.44993 79.41 8.26993 79.1C8.08993 78.79 8.13993 78.38 8.21993 78.08L9.06993 74.64C12.2199 61.91 15.4699 48.75 21.7099 36.9C30.2599 20.8 44.2399 11.32 63.3199 8.74C66.2599 8.35 69.1799 8.15 71.9999 8.15C83.1299 8.15 93.3699 11.25 102.45 17.38C113.7 24.96 120.97 37.53 122.02 51.17C121.96 51.17 101.69 51.17 101.69 51.17C101.5 51.17 101.3 51.17 101.16 51.17L101.17 51.15Z" fill="white"/>
</mask>
<g mask="url(#mask0_9_54)">
<path d="M-0.800049 101.92L53.1199 155.85H-0.800049V101.92Z" fill="#AC48FA"/>
<path d="M-0.800049 101.03L54.0099 155.85H53.1199L-0.800049 101.92V101.03Z" fill="#AC48FA"/>
<path d="M-0.800049 100.13L54.91 155.85H54.0099L-0.800049 101.03V100.13Z" fill="#AB49FA"/>
<path d="M-0.800049 99.24L55.7999 155.85H54.91L-0.800049 100.13V99.24Z" fill="#AA4AFA"/>
<path d="M-0.800049 98.34L56.7 155.85H55.7999L-0.800049 99.24V98.34Z" fill="#AA4BFA"/>
<path d="M-0.800049 97.45L57.5999 155.85H56.7L-0.800049 98.34V97.45Z" fill="#A94CFA"/>
<path d="M-0.800049 96.55L58.49 155.85H57.5999L-0.800049 97.45V96.55Z" fill="#A84DFA"/>
<path d="M-0.800049 95.66L59.3899 155.85H58.49L-0.800049 96.55V95.66Z" fill="#A74EFA"/>
<path d="M-0.800049 94.76L60.2799 155.85H59.3899L-0.800049 95.66V94.76Z" fill="#A64FFA"/>
<path d="M-0.800049 93.87L61.18 155.85H60.2799L-0.800049 94.76V93.87Z" fill="#A650FA"/>
<path d="M-0.800049 92.97L62.07 155.85H61.18L-0.800049 93.87V92.97Z" fill="#A551FA"/>
<path d="M-0.800049 92.08L62.97 155.85H62.07L-0.800049 92.97V92.08Z" fill="#A452FA"/>
<path d="M-0.800049 91.18L63.86 155.85H62.97L-0.800049 92.08V91.18Z" fill="#A353FA"/>
<path d="M-0.800049 90.29L64.76 155.85H63.86L-0.800049 91.18V90.29Z" fill="#A254FA"/>
<path d="M-0.800049 89.39L65.65 155.85H64.76L-0.800049 90.29V89.39Z" fill="#A255FA"/>
<path d="M-0.800049 88.5L66.55 155.85H65.65L-0.800049 89.39V88.5Z" fill="#A156FA"/>
<path d="M-0.800049 87.6L67.44 155.85H66.55L-0.800049 88.5V87.6Z" fill="#A057FA"/>
<path d="M-0.800049 86.71L68.34 155.85H67.44L-0.800049 87.6V86.71Z" fill="#9F58FA"/>
<path d="M-0.800049 85.81L69.23 155.85H68.34L-0.800049 86.71V85.81Z" fill="#9F59FA"/>
<path d="M-0.800049 84.92L70.13 155.85H69.23L-0.800049 85.81V84.92Z" fill="#9E5AFA"/>
<path d="M-0.800049 84.02L71.02 155.85H70.13L-0.800049 84.92V84.02Z" fill="#9D5BFB"/>
<path d="M-0.800049 83.13L71.92 155.85H71.02L-0.800049 84.02V83.13Z" fill="#9C5CFB"/>
<path d="M-0.800049 82.23L72.81 155.85H71.92L-0.800049 83.13V82.23Z" fill="#9B5DFB"/>
<path d="M-0.800049 81.34L73.71 155.85H72.81L-0.800049 82.23V81.34Z" fill="#9B5EFB"/>
<path d="M-0.800049 80.44L74.6 155.85H73.71L-0.800049 81.34V80.44Z" fill="#9A5FFB"/>
<path d="M-0.800049 79.55L75.5 155.85H74.6L-0.800049 80.44V79.55Z" fill="#9960FB"/>
<path d="M-0.800049 78.65L76.39 155.85H75.5L-0.800049 79.55V78.65Z" fill="#9861FB"/>
<path d="M-0.800049 77.76L77.29 155.85H76.39L-0.800049 78.65V77.76Z" fill="#9762FB"/>
<path d="M-0.800049 76.86L78.18 155.85H77.29L-0.800049 77.76V76.86Z" fill="#9763FB"/>
<path d="M-0.800049 75.97L79.08 155.85H78.18L-0.800049 76.86V75.97Z" fill="#9664FB"/>
<path d="M-0.800049 75.07L79.97 155.85H79.08L-0.800049 75.97V75.07Z" fill="#9565FB"/>
<path d="M-0.800049 74.18L80.87 155.85H79.97L-0.800049 75.07V74.18Z" fill="#9466FB"/>
<path d="M-0.800049 73.28L81.76 155.85H80.87L-0.800049 74.18V73.28Z" fill="#9367FB"/>
<path d="M-0.800049 72.39L82.66 155.85H81.76L-0.800049 73.28V72.39Z" fill="#9368FB"/>
<path d="M-0.800049 71.49L83.55 155.85H82.66L-0.800049 72.39V71.49Z" fill="#9269FB"/>
<path d="M-0.800049 70.6L84.45 155.85H83.55L-0.800049 71.49V70.6Z" fill="#916AFB"/>
<path d="M-0.800049 69.7L85.34 155.85H84.45L-0.800049 70.6V69.7Z" fill="#906BFB"/>
<path d="M-0.800049 68.8L86.24 155.85H85.34L-0.800049 69.7V68.8Z" fill="#8F6CFB"/>
<path d="M-0.800049 67.91L87.13 155.85H86.24L-0.800049 68.8V67.91Z" fill="#8F6DFB"/>
<path d="M-0.800049 67.01L88.03 155.85H87.13L-0.800049 67.91V67.01Z" fill="#8E6EFB"/>
<path d="M-0.800049 66.12L88.92 155.85H88.03L-0.800049 67.01V66.12Z" fill="#8D6FFB"/>
<path d="M-0.800049 65.22L89.63 155.65L89.43 155.85H88.92L-0.800049 66.12V65.22Z" fill="#8C70FB"/>
<path d="M-0.800049 64.33L90.07 155.2L89.63 155.65L-0.800049 65.22V64.33Z" fill="#8B71FB"/>
<path d="M-0.800049 63.43L90.52 154.76L90.07 155.2L-0.800049 64.33V63.43Z" fill="#8B72FB"/>
<path d="M-0.800049 62.54L90.97 154.31L90.52 154.76L-0.800049 63.43V62.54Z" fill="#8A73FB"/>
<path d="M-0.800049 61.64L91.42 153.86L90.97 154.31L-0.800049 62.54V61.64Z" fill="#8974FB"/>
<path d="M-0.800049 60.75L91.86 153.41L91.42 153.86L-0.800049 61.64V60.75Z" fill="#8875FB"/>
<path d="M-0.800049 59.85L92.31 152.97L91.86 153.41L-0.800049 60.75V59.85Z" fill="#8876FB"/>
<path d="M-0.800049 58.96L92.76 152.52L92.31 152.97L-0.800049 59.85V58.96Z" fill="#8777FB"/>
<path d="M-0.800049 58.06L93.21 152.07L92.76 152.52L-0.800049 58.96V58.06Z" fill="#8678FB"/>
<path d="M-0.800049 57.17L93.65 151.62L93.21 152.07L-0.800049 58.06V57.17Z" fill="#8579FB"/>
<path d="M-0.800049 56.27L94.1 151.18L93.65 151.62L-0.800049 57.17V56.27Z" fill="#847AFB"/>
<path d="M-0.800049 55.38L94.55 150.73L94.1 151.18L-0.800049 56.27V55.38Z" fill="#847BFB"/>
<path d="M-0.800049 54.48L95 150.28L94.55 150.73L-0.800049 55.38V54.48Z" fill="#837CFB"/>
<path d="M-0.800049 53.59L95.44 149.83L95 150.28L-0.800049 54.48V53.59Z" fill="#827DFB"/>
<path d="M-0.800049 52.69L95.89 149.39L95.44 149.83L-0.800049 53.59V52.69Z" fill="#817EFB"/>
<path d="M-0.800049 51.8L96.34 148.94L95.89 149.39L-0.800049 52.69V51.8Z" fill="#807FFB"/>
<path d="M-0.800049 50.9L96.79 148.49L96.34 148.94L-0.800049 51.8V50.9Z" fill="#8081FC"/>
<path d="M-0.800049 50.01L97.23 148.04L96.79 148.49L-0.800049 50.9V50.01Z" fill="#7F82FC"/>
<path d="M-0.800049 49.11L97.68 147.6L97.23 148.04L-0.800049 50.01V49.11Z" fill="#7E83FC"/>
<path d="M-0.800049 48.22L98.13 147.15L97.68 147.6L-0.800049 49.11V48.22Z" fill="#7D84FC"/>
<path d="M-0.800049 47.32L98.58 146.7L98.13 147.15L-0.800049 48.22V47.32Z" fill="#7C85FC"/>
<path d="M-0.800049 46.43L99.02 146.25L98.58 146.7L-0.800049 47.32V46.43Z" fill="#7C86FC"/>
<path d="M-0.800049 45.53L99.47 145.81L99.02 146.25L-0.800049 46.43V45.53Z" fill="#7B87FC"/>
<path d="M-0.800049 44.64L99.92 145.36L99.47 145.81L-0.800049 45.53V44.64Z" fill="#7A88FC"/>
<path d="M-0.800049 43.74L100.37 144.91L99.92 145.36L-0.800049 44.64V43.74Z" fill="#7989FC"/>
<path d="M-0.800049 42.85L100.81 144.46L100.37 144.91L-0.800049 43.74V42.85Z" fill="#788AFC"/>
<path d="M-0.800049 41.95L101.26 144.02L100.81 144.46L-0.800049 42.85V41.95Z" fill="#788BFC"/>
<path d="M-0.800049 41.06L101.71 143.57L101.26 144.02L-0.800049 41.95V41.06Z" fill="#778CFC"/>
<path d="M-0.800049 40.16L102.16 143.12L101.71 143.57L-0.800049 41.06V40.16Z" fill="#768DFC"/>
<path d="M-0.800049 39.27L102.6 142.67L102.16 143.12L-0.800049 40.16V39.27Z" fill="#758EFC"/>
<path d="M-0.800049 38.37L103.05 142.22L102.6 142.67L-0.800049 39.27V38.37Z" fill="#758FFC"/>
<path d="M-0.800049 37.48L103.5 141.78L103.05 142.22L-0.800049 38.37V37.48Z" fill="#7490FC"/>
<path d="M-0.800049 36.76L-0.710049 36.67L103.95 141.33L103.5 141.78L-0.800049 37.48V36.76Z" fill="#7391FC"/>
<path d="M-0.270464 36.2284L-0.715942 36.6738L103.943 141.333L104.388 140.887L-0.270464 36.2284Z" fill="#7292FC"/>
<path d="M0.179484 35.7719L-0.265991 36.2174L104.393 140.876L104.838 140.431L0.179484 35.7719Z" fill="#7193FC"/>
<path d="M0.62663 35.3326L0.181152 35.7781L104.84 140.437L105.285 139.991L0.62663 35.3326Z" fill="#7194FC"/>
<path d="M1.07658 34.8862L0.631104 35.3317L105.29 139.991L105.735 139.545L1.07658 34.8862Z" fill="#7095FC"/>
<path d="M1.51957 34.4369L1.0741 34.8824L105.733 139.541L106.178 139.096L1.51957 34.4369Z" fill="#6F96FC"/>
<path d="M1.96953 33.9905L1.52405 34.436L106.183 139.095L106.628 138.649L1.96953 33.9905Z" fill="#6E97FC"/>
<path d="M2.41655 33.5412L1.97107 33.9867L106.63 138.646L107.075 138.2L2.41655 33.5412Z" fill="#6D98FC"/>
<path d="M2.86662 33.0948L2.42114 33.5403L107.08 138.199L107.525 137.754L2.86662 33.0948Z" fill="#6D99FC"/>
<path d="M3.30949 32.6455L2.86401 33.0909L107.523 137.75L107.968 137.304L3.30949 32.6455Z" fill="#6C9AFC"/>
<path d="M3.75956 32.1991L3.31409 32.6445L107.973 137.303L108.418 136.858L3.75956 32.1991Z" fill="#6B9BFC"/>
<path d="M4.20952 31.7427L3.76404 32.1882L108.423 136.847L108.868 136.402L4.20952 31.7427Z" fill="#6A9CFC"/>
<path d="M4.65666 31.3034L4.21118 31.7488L108.87 136.408L109.316 135.962L4.65666 31.3034Z" fill="#699DFC"/>
<path d="M5.10661 30.8469L4.66113 31.2924L109.32 135.951L109.765 135.506L5.10661 30.8469Z" fill="#699EFC"/>
<path d="M5.54948 30.4076L5.104 30.8531L109.763 135.512L110.208 135.066L5.54948 30.4076Z" fill="#689FFC"/>
<path d="M5.99955 29.9513L5.55408 30.3967L110.213 135.056L110.658 134.61L5.99955 29.9513Z" fill="#67A0FC"/>
<path d="M6.44657 29.5119L6.0011 29.9574L110.66 134.616L111.105 134.171L6.44657 29.5119Z" fill="#66A1FC"/>
<path d="M6.89665 29.0655L6.45117 29.511L111.11 134.17L111.556 133.724L6.89665 29.0655Z" fill="#65A2FC"/>
<path d="M7.33952 28.6162L6.89404 29.0616L111.553 133.721L111.998 133.275L7.33952 28.6162Z" fill="#65A3FC"/>
<path d="M7.78959 28.1698L7.34412 28.6152L112.003 133.274L112.448 132.829L7.78959 28.1698Z" fill="#64A4FC"/>
<path d="M8.23662 27.7205L7.79114 28.166L112.45 132.825L112.895 132.379L8.23662 27.7205Z" fill="#63A5FC"/>
<path d="M8.68657 27.2741L8.24109 27.7195L112.9 132.378L113.345 131.933L8.68657 27.2741Z" fill="#62A6FD"/>
<path d="M9.12956 26.8247L8.68408 27.2702L113.343 131.929L113.788 131.484L9.12956 26.8247Z" fill="#61A7FD"/>
<path d="M9.57951 26.3784L9.13403 26.8239L113.793 131.483L114.238 131.037L9.57951 26.3784Z" fill="#61A8FD"/>
<path d="M10.0267 25.929L9.58118 26.3745L114.24 131.033L114.686 130.588L10.0267 25.929Z" fill="#60A9FD"/>
<path d="M10.4766 25.4826L10.0311 25.9281L114.69 130.587L115.135 130.141L10.4766 25.4826Z" fill="#5FAAFD"/>
<path d="M10.9195 25.0333L10.474 25.4788L115.133 130.138L115.578 129.692L10.9195 25.0333Z" fill="#5EABFD"/>
<path d="M11.3696 24.5869L10.9241 25.0324L115.583 129.691L116.028 129.246L11.3696 24.5869Z" fill="#5EACFD"/>
<path d="M11.8166 24.1376L11.3711 24.5831L116.03 129.242L116.475 128.796L11.8166 24.1376Z" fill="#5DADFD"/>
<path d="M12.2666 23.6912L11.8212 24.1367L116.48 128.796L116.926 128.35L12.2666 23.6912Z" fill="#5CAEFD"/>
<path d="M12.7095 23.2519L12.264 23.6973L116.923 128.356L117.368 127.911L12.7095 23.2519Z" fill="#5BAFFD"/>
<path d="M13.1596 22.7955L12.7141 23.241L117.373 127.9L117.818 127.454L13.1596 22.7955Z" fill="#5AB0FD"/>
<path d="M13.6066 22.3562L13.1611 22.8016L117.82 127.461L118.265 127.015L13.6066 22.3562Z" fill="#5AB1FD"/>
<path d="M14.0566 21.8997L13.6111 22.3452L118.27 127.004L118.715 126.559L14.0566 21.8997Z" fill="#59B2FD"/>
<path d="M14.4996 21.4604L14.0541 21.9059L118.713 126.565L119.158 126.119L14.4996 21.4604Z" fill="#58B3FD"/>
<path d="M14.9495 21.004L14.504 21.4495L119.163 126.108L119.608 125.663L14.9495 21.004Z" fill="#57B4FD"/>
<path d="M15.3966 20.5647L14.9512 21.0102L119.61 125.669L120.056 125.224L15.3966 20.5647Z" fill="#56B5FD"/>
<path d="M15.8466 20.1083L15.4011 20.5538L120.06 125.213L120.505 124.767L15.8466 20.1083Z" fill="#56B6FD"/>
<path d="M16.2896 19.669L15.8441 20.1144L120.503 124.773L120.948 124.328L16.2896 19.669Z" fill="#55B7FD"/>
<path d="M16.7395 19.2126L16.2941 19.6581L120.953 124.317L121.398 123.871L16.7395 19.2126Z" fill="#54B8FD"/>
<path d="M17.451 18.5051L16.7439 19.2122L121.403 123.871L122.11 123.164L17.451 18.5051Z" fill="#54B8FD"/>
<path d="M18.1539 17.798L17.4468 18.5051L122.106 123.164L122.813 122.457L18.1539 17.798Z" fill="#54B9FD"/>
<path d="M18.8638 17.0939L18.1567 17.801L122.816 122.46L123.523 121.753L18.8638 17.0939Z" fill="#53BAFD"/>
<path d="M19.5639 16.394L18.8568 17.1011L123.516 121.76L124.223 121.053L19.5639 16.394Z" fill="#53BBFD"/>
<path d="M20.2739 15.6799L19.5668 16.387L124.226 121.046L124.933 120.339L20.2739 15.6799Z" fill="#53BCFD"/>
<path d="M20.9809 14.9729L20.2738 15.68L124.933 120.339L125.64 119.632L20.9809 14.9729Z" fill="#53BDFD"/>
<path d="M21.6839 14.2759L20.9768 14.983L125.636 119.642L126.343 118.935L21.6839 14.2759Z" fill="#52BEFD"/>
<path d="M22.3939 13.5618L21.6868 14.2689L126.346 118.928L127.053 118.221L22.3939 13.5618Z" fill="#52BFFD"/>
<path d="M23.0938 12.8618L22.3867 13.5689L127.046 118.228L127.753 117.521L23.0938 12.8618Z" fill="#52C0FD"/>
<path d="M23.8039 12.1478L23.0968 12.8549L127.756 117.514L128.463 116.807L23.8039 12.1478Z" fill="#51C1FD"/>
<path d="M24.5109 11.4507L23.8038 12.1578L128.463 116.817L129.17 116.11L24.5109 11.4507Z" fill="#51C2FD"/>
<path d="M25.2139 10.7437L24.5068 11.4508L129.166 116.11L129.873 115.403L25.2139 10.7437Z" fill="#51C3FD"/>
<path d="M25.21 10.74L25.92 10.04L130.31 114.42V114.97L129.87 115.4L25.21 10.74Z" fill="#51C4FD"/>
<path d="M25.9199 10.04L26.6299 9.33002L130.31 113.01V114.42L25.9199 10.04Z" fill="#50C5FD"/>
<path d="M26.63 9.33L27.33 8.62L130.31 111.6V113.01L26.63 9.33Z" fill="#50C6FD"/>
<path d="M27.33 8.61998L28.04 7.91998L130.31 110.19V111.6L27.33 8.61998Z" fill="#50C7FD"/>
<path d="M28.0399 7.92002L28.7399 7.21002L130.31 108.77V110.19L28.0399 7.92002Z" fill="#4FC8FD"/>
<path d="M28.74 7.21001L29.45 6.51001L130.31 107.36V108.77L28.74 7.21001Z" fill="#4FC9FD"/>
<path d="M29.45 6.50999L30.16 5.79999L130.31 105.95V107.36L29.45 6.50999Z" fill="#4FCAFD"/>
<path d="M30.1599 5.80003L30.8599 5.09003L130.31 104.54V105.95L30.1599 5.80003Z" fill="#4FCBFD"/>
<path d="M30.86 5.09001L31.57 4.39001L130.31 103.13V104.54L30.86 5.09001Z" fill="#4ECCFD"/>
<path d="M31.5699 4.38999L32.2699 3.67999L130.31 101.71V103.13L31.5699 4.38999Z" fill="#4ECDFD"/>
<path d="M32.2699 3.67998L32.9799 2.97998L130.31 100.3V101.71L32.2699 3.67998Z" fill="#4ECEFD"/>
<path d="M32.98 2.98002L33.69 2.27002L130.31 98.89V100.3L32.98 2.98002Z" fill="#4DCFFD"/>
<path d="M33.6899 2.27L34.3899 1.56L130.31 97.48V98.89L33.6899 2.27Z" fill="#4DD0FD"/>
<path d="M34.3899 1.55999L35.0999 0.859985L130.31 96.07V97.48L34.3899 1.55999Z" fill="#4DD1FD"/>
<path d="M35.1 0.860024L35.8 0.150024L130.31 94.65V96.07L35.1 0.860024Z" fill="#4DD2FD"/>
<path d="M35.7999 0.15L35.9599 0H37.0599L130.31 93.24V94.65L35.7999 0.15Z" fill="#4CD3FD"/>
<path d="M38.4799 0L130.31 91.83V93.24L37.0599 0H38.4799Z" fill="#4CD4FD"/>
<path d="M39.89 0L130.31 90.42V91.83L38.48 0H39.89Z" fill="#4CD5FD"/>
<path d="M41.2999 0L130.31 89.01V90.42L39.8899 0H41.2999Z" fill="#4BD6FD"/>
<path d="M42.7099 0L130.31 87.59V89.01L41.2999 0H42.7099Z" fill="#4BD7FD"/>
<path d="M44.12 0L130.31 86.18V87.59L42.71 0H44.12Z" fill="#4BD8FD"/>
<path d="M45.54 0L130.31 84.77V86.18L44.12 0H45.54Z" fill="#4BD9FD"/>
<path d="M46.9499 0L130.31 83.36V84.77L45.5399 0H46.9499Z" fill="#4ADAFD"/>
<path d="M48.36 0L130.31 81.95V83.36L46.95 0H48.36Z" fill="#4ADCFE"/>
<path d="M49.77 0L130.31 80.53V81.95L48.36 0H49.77Z" fill="#4ADDFE"/>
<path d="M51.1799 0L130.31 79.12V80.53L49.7699 0H51.1799Z" fill="#49DEFE"/>
<path d="M52.5999 0L130.31 77.71V79.12L51.1799 0H52.5999Z" fill="#49DFFE"/>
<path d="M54.01 0L130.31 76.3V77.71L52.6 0H54.01Z" fill="#49E0FE"/>
<path d="M55.42 0L130.31 74.89V76.3L54.01 0H55.42Z" fill="#49E1FE"/>
<path d="M56.8299 0L130.31 73.47V74.89L55.4199 0H56.8299Z" fill="#48E2FE"/>
<path d="M58.24 0L130.31 72.06V73.47L56.83 0H58.24Z" fill="#48E3FE"/>
<path d="M59.66 0L130.31 70.65V72.06L58.24 0H59.66Z" fill="#48E4FE"/>
<path d="M61.0699 0L130.31 69.24V70.65L59.6599 0H61.0699Z" fill="#47E5FE"/>
<path d="M62.4799 0L130.31 67.83V69.24L61.0699 0H62.4799Z" fill="#47E6FE"/>
<path d="M63.89 0L130.31 66.41V67.83L62.48 0H63.89Z" fill="#47E7FE"/>
<path d="M65.2999 0L130.31 65V66.41L63.8899 0H65.2999Z" fill="#47E8FE"/>
<path d="M66.7199 0L130.31 63.59V65L65.2999 0H66.7199Z" fill="#46E9FE"/>
<path d="M68.13 0L130.31 62.18V63.59L66.72 0H68.13Z" fill="#46EAFE"/>
<path d="M69.54 0L130.31 60.77V62.18L68.13 0H69.54Z" fill="#46EBFE"/>
<path d="M70.9499 0L130.31 59.35V60.77L69.5399 0H70.9499Z" fill="#45ECFE"/>
<path d="M72.36 0L130.31 57.94V59.35L70.95 0H72.36Z" fill="#45EDFE"/>
<path d="M73.78 0L130.31 56.53V57.94L72.36 0H73.78Z" fill="#45EEFE"/>
<path d="M75.1899 0L130.31 55.12V56.53L73.7799 0H75.1899Z" fill="#45EFFE"/>
<path d="M76.5999 0L130.31 53.71V55.12L75.1899 0H76.5999Z" fill="#44F0FE"/>
<path d="M78.01 0L130.31 52.29V53.71L76.6 0H78.01Z" fill="#44F1FE"/>
<path d="M79.42 0L130.31 50.88V52.29L78.01 0H79.42Z" fill="#44F2FE"/>
<path d="M80.8399 0L130.31 49.47V50.88L79.4199 0H80.8399Z" fill="#43F3FE"/>
<path d="M82.25 0L130.31 48.06V49.47L80.84 0H82.25Z" fill="#43F4FE"/>
<path d="M83.66 0L130.31 46.65V48.06L82.25 0H83.66Z" fill="#43F5FE"/>
<path d="M85.0699 0L130.31 45.23V46.65L83.6599 0H85.0699Z" fill="#43F6FE"/>
<path d="M86.4799 0L130.31 43.82V45.23L85.0699 0H86.4799Z" fill="#42F7FE"/>
<path d="M87.9 0L130.31 42.41V43.82L86.48 0H87.9Z" fill="#42F8FE"/>
<path d="M89.3099 0L130.31 41V42.41L87.8999 0H89.3099Z" fill="#42F9FE"/>
<path d="M90.7199 0L130.31 39.59V41L89.3099 0H90.7199Z" fill="#41FAFE"/>
<path d="M92.13 0L130.31 38.17V39.59L90.72 0H92.13Z" fill="#41FBFE"/>
<path d="M93.54 0L130.31 36.76V38.17L92.13 0H93.54Z" fill="#41FCFE"/>
<path d="M94.9599 0L130.31 35.35V36.76L93.5399 0H94.9599Z" fill="#41FDFE"/>
<path d="M96.37 0L130.31 33.94V35.35L94.96 0H96.37Z" fill="#40FEFE"/>
<path d="M97.78 0L130.31 32.53V33.94L96.37 0H97.78Z" fill="#40FFFE"/>
<path d="M130.31 32.53L97.7799 0H130.31V32.53Z" fill="#40FFFE"/>
</g>
</svg>
