<svg width="504" height="107" viewBox="0 0 504 107" fill="none" xmlns="http://www.w3.org/2000/svg">
<path d="M8.11023 102.627C10.2491 102.627 12.0584 100.956 12.0584 98.8047C12.0584 96.653 10.2491 94.9824 8.11023 94.9824C5.97131 94.9824 4.16211 96.653 4.16211 98.8047C4.16211 100.956 5.97131 102.627 8.11023 102.627Z" fill="#956DF8" stroke="#1E1E51" stroke-width="2"/>
<path d="M236.422 6.97816C236.422 3.01231 232.906 -0.181086 228.7 0.108046C225.112 0.354024 222.231 3.16334 222.042 6.60271C221.929 8.60937 222.718 10.4391 224.057 11.7639C226.428 14.1115 227.668 17.3006 227.668 20.5673V26.7858C227.668 38.9294 217.385 48.7728 204.7 48.7728H32.6412C18.2342 48.7728 6.55443 59.954 6.55443 73.746V84.2971C6.55443 87.7365 5.19307 91.0809 2.63713 93.4932C1.05037 94.9907 0.130779 97.1311 0.342647 99.47C0.671718 103.086 3.73703 105.982 7.51459 106.254C12.0855 106.582 15.9172 103.112 15.9172 98.8055C15.9172 96.6996 15.0021 94.7965 13.537 93.4371C11.0172 91.1068 9.67384 87.8444 9.67384 84.4913V73.746C9.67384 61.6024 19.9562 51.759 32.6412 51.759H204.7C219.107 51.759 230.787 40.5778 230.787 26.7858V20.33C230.787 17.1064 232.149 14.0468 234.461 11.7035C235.678 10.465 236.422 8.80358 236.422 6.97816ZM12.7978 98.8055C12.7978 101.278 10.6971 103.289 8.11414 103.289C5.53115 103.289 3.4305 101.278 3.4305 98.8055C3.4305 96.3328 5.53115 94.3218 8.11414 94.3218C10.6971 94.3218 12.7978 96.3328 12.7978 98.8055ZM229.228 10.8793C226.983 10.8793 225.152 9.13155 225.152 6.97816C225.152 4.8291 226.978 3.07704 229.228 3.07704C231.472 3.07704 233.303 4.82478 233.303 6.97816C233.303 9.12723 231.472 10.8793 229.228 10.8793Z" fill="#956DF8"/>
<path d="M254.047 84.5478V20.5634C254.047 17.2967 255.287 14.1076 257.658 11.76C258.997 10.4352 259.786 8.60548 259.673 6.59882C259.479 3.15945 256.599 0.350117 253.015 0.10414C248.809 -0.184992 245.293 3.00841 245.293 6.97426C245.293 8.79967 246.037 10.4611 247.254 11.6953C249.567 14.0429 250.928 17.0982 250.928 20.3218V84.263C250.928 87.7067 249.553 91.0554 246.979 93.4591C245.379 94.9522 244.446 97.1013 244.649 99.4446C244.969 103.069 248.034 105.978 251.825 106.25C256.396 106.578 260.228 103.113 260.228 98.8016C260.228 96.7086 259.326 94.8185 257.875 93.4591C255.377 91.1331 254.047 87.8836 254.047 84.5478ZM248.413 6.97858C248.413 4.82951 250.238 3.07745 252.488 3.07745C254.737 3.07745 256.563 4.82519 256.563 6.97858C256.563 9.12764 254.737 10.8797 252.488 10.8797C250.238 10.8797 248.413 9.12764 248.413 6.97858ZM252.425 103.285C249.842 103.285 247.741 101.274 247.741 98.8016C247.741 96.3288 249.842 94.3179 252.425 94.3179C255.008 94.3179 257.108 96.3288 257.108 98.8016C257.108 101.274 255.008 103.285 252.425 103.285Z" fill="#956DF8"/>
<path d="M252.421 102.629C254.56 102.629 256.369 100.958 256.369 98.8066C256.369 96.655 254.56 94.9844 252.421 94.9844C250.282 94.9844 248.473 96.655 248.473 98.8066C248.473 100.958 250.282 102.629 252.421 102.629Z" fill="#956DF8" stroke="#1E1E51" stroke-width="2"/>
<path d="M497.004 84.5478V73.7421C497.004 59.9501 485.324 48.7689 470.917 48.7689H298.858C286.173 48.7689 275.891 38.9255 275.891 26.7819V20.5634C275.891 17.2967 277.131 14.1076 279.502 11.76C280.84 10.4352 281.629 8.60548 281.517 6.59882C281.323 3.15945 278.442 0.350117 274.859 0.10414C270.653 -0.184992 267.137 3.00841 267.137 6.97426C267.137 8.79967 267.88 10.4611 269.098 11.6953C271.41 14.0429 272.772 17.0982 272.772 20.3218V26.7776C272.772 40.5696 284.451 51.7508 298.858 51.7508H470.917C483.602 51.7508 493.885 61.5942 493.885 73.7378V84.263C493.885 87.7067 492.51 91.0554 489.936 93.4591C488.336 94.9522 487.403 97.1013 487.605 99.4446C487.926 103.065 490.991 105.978 494.782 106.25C499.353 106.578 503.185 103.113 503.185 98.8016C503.185 96.7086 502.283 94.8185 500.831 93.4591C498.33 91.1331 497.004 87.8836 497.004 84.5478ZM270.256 6.97858C270.256 4.82951 272.082 3.07745 274.331 3.07745C276.581 3.07745 278.406 4.82519 278.406 6.97858C278.406 9.12764 276.581 10.8797 274.331 10.8797C272.082 10.8797 270.256 9.12764 270.256 6.97858ZM495.377 103.285C492.794 103.285 490.693 101.274 490.693 98.8016C490.693 96.3289 492.794 94.3179 495.377 94.3179C497.96 94.3179 500.061 96.3289 500.061 98.8016C500.061 101.274 497.96 103.285 495.377 103.285Z" fill="#956DF8"/>
<path d="M495.38 102.629C497.519 102.629 499.328 100.958 499.328 98.8066C499.328 96.655 497.519 94.9844 495.38 94.9844C493.241 94.9844 491.432 96.655 491.432 98.8066C491.432 100.958 493.241 102.629 495.38 102.629Z" fill="#956DF8" stroke="#1E1E51" stroke-width="2"/>
</svg>
