<?xml version="1.0" encoding="UTF-8"?>
<svg id="Layer_2" data-name="Layer 2" xmlns="http://www.w3.org/2000/svg" viewBox="0 0 439.54 431.53">
  <defs>
    <style>
      .cls-1 {
        fill: #080b0d;
      }

      .cls-2 {
        fill: #95c1e9;
      }
    </style>
  </defs>
  <g id="Layer_1-2" data-name="Layer 1">
    <g>
      <path class="cls-2" d="M219.01,431.53C97.78,431.41-.2,334.32,0,214.51,.2,96.05,99.07-.12,220.53,0c121.24,.12,219.21,97.21,219.01,217.02-.2,118.47-99.06,214.63-220.53,214.51ZM81.28,269.84c8.09-2.12,13.03-8.85,20.63-4.73,11.94,6.47,25.16,6.44,38.23,5.42,19.66-1.53,36.96-14.87,41.16-31.07,2.81-10.84-.38-17.5-10.6-22.02-2.23-.99-4.5-1.89-8.36-3.5,9.9-4.36,18.28-8.55,24.05-16.27,11.09-14.83,5.4-29.97-12.68-33.28-4.78-.88-9.71-1.35-14.57-1.39-15.66-.11-31.32,.09-46.99,.15-2.56,0-6.44-2.47-6.27,2.81,.12,3.94,3.55,2.92,5.99,2.99,8.29,.24,16.35-3.65,25.67-1.65-17.23,34.64-35.46,67.94-56.27,102.56Zm150.29-3.28c-.77-.43-1.5-1.13-2.31-1.25-15.59-2.38-17.21-4.93-9.69-18.49,13.76-24.81,27.91-49.4,42.11-73.96,4.23-7.31,15.98-9.61,26.25-5.69,9.16,3.5,10.47,10.65,8.97,19.19-3.33,18.94-20.54,33.43-40.05,33.84-3.38,.07-6.95-1.69-10.3,.69,20.39,10.4,63.35-9.05,63.3-38.18-.01-8.39-4.46-14.16-12.09-17.36-8.02-3.36-16.46-3.66-25.01-3.01-16.92,1.27-33.8,3.75-50.85,2.21-2.22-.2-4.47-4-6.63-.15-.53,.95-.69,2.63-.2,3.54,1.5,2.79,4.36,2.42,6.96,2.26,8.74-.54,17.43-2.15,27.21-1.22-8.15,19.1-18.93,36.15-28.88,53.63-6.61,11.62-13.36,23.16-19.71,34.92-3.79,7.02-1.09,11.09,6.68,12.11,8.19,1.08,16.15-.75,24.25-3.09Zm60.82-22c-4.21,3.61-3.45,7.28-4.75,10.14-3.59,7.95-.67,11.89,7.46,13.85,13.55,3.26,26.74,2.44,39.32-3.21,25.34-11.38,30.04-29.39,14.22-52.21-4.07-5.87-8.51-11.58-9.9-18.93-2.08-10.99,3.88-21.14,13.96-23.44,13.09-2.98,20.26,1.47,23.16,14.37,8.85-13.68,6.13-21.09-8.48-21.41-15.62-.34-27.49,6.46-35.05,20.62-6.63,12.42-5.42,23.77,3.11,34.67,2.01,2.57,3.9,5.24,5.75,7.93,6.83,9.96,7.18,17.85,1.25,26.21-7.22,10.17-23.26,15.87-35.93,12.73-10.5-2.6-15.07-9.56-14.1-21.32Z"/>
      <path class="cls-1" d="M81.28,269.84c20.82-34.61,39.05-67.92,56.27-102.56-9.32-1.99-17.38,1.9-25.67,1.65-2.45-.07-5.87,.95-5.99-2.99-.17-5.28,3.71-2.8,6.27-2.81,15.66-.05,31.33-.25,46.99-.15,4.86,.03,9.79,.51,14.57,1.39,18.07,3.32,23.76,18.45,12.68,33.28-5.77,7.72-14.15,11.91-24.05,16.27,3.86,1.62,6.13,2.52,8.36,3.5,10.22,4.53,13.41,11.19,10.6,22.02-4.2,16.19-21.5,29.53-41.16,31.07-13.07,1.02-26.29,1.05-38.23-5.42-7.6-4.11-12.54,2.62-20.63,4.73Zm63.17-57.81c14.57,1.29,23.96-6.49,30.87-18.07,6.01-10.07,4.75-19.78-2.61-24.38-9.67-6.05-20.14-3.54-26.48,6.8-14.5,23.64-26.34,48.71-39.33,73.16-3.95,7.43-.7,11.53,5.64,14.83,19.57,10.18,52.63-6.68,56.47-28.82,1.83-10.58-1.75-15.58-12.33-18.44-6-1.62-11.66,.01-17.46,.45-2.06,.16-4.07,.11-4.3-2.57-.21-2.54,1.49-3.38,3.68-3.36,1.95,.02,3.91,.25,5.86,.39Z"/>
      <path class="cls-1" d="M231.57,266.56c-8.1,2.34-16.05,4.16-24.25,3.09-7.77-1.02-10.48-5.09-6.68-12.11,6.36-11.76,13.1-23.3,19.71-34.92,9.95-17.48,20.73-34.53,28.88-53.63-9.78-.93-18.47,.68-27.21,1.22-2.6,.16-5.46,.53-6.96-2.26-.49-.91-.33-2.59,.2-3.54,2.16-3.85,4.41-.05,6.63,.15,17.05,1.53,33.92-.94,50.85-2.21,8.55-.64,16.99-.35,25.01,3.01,7.63,3.2,12.07,8.97,12.09,17.36,.05,29.14-42.91,48.59-63.3,38.18,3.34-2.39,6.92-.62,10.3-.69,19.52-.41,36.73-14.9,40.05-33.84,1.5-8.54,.19-15.69-8.97-19.19-10.27-3.92-22.03-1.62-26.25,5.69-14.19,24.56-28.34,49.16-42.11,73.96-7.52,13.56-5.9,16.11,9.69,18.49,.82,.12,1.54,.82,2.31,1.25Z"/>
      <path class="cls-1" d="M292.38,244.56c-.96,11.77,3.6,18.72,14.1,21.32,12.68,3.14,28.71-2.56,35.93-12.73,5.94-8.35,5.58-16.25-1.25-26.21-1.85-2.69-3.74-5.36-5.75-7.93-8.52-10.9-9.74-22.25-3.11-34.67,7.56-14.16,19.43-20.96,35.05-20.62,14.62,.31,17.33,7.72,8.48,21.41-2.89-12.9-10.07-17.35-23.16-14.37-10.08,2.29-16.04,12.45-13.96,23.44,1.39,7.35,5.83,13.06,9.9,18.93,15.82,22.82,11.12,40.84-14.22,52.21-12.58,5.65-25.77,6.47-39.32,3.21-8.13-1.96-11.05-5.9-7.46-13.85,1.29-2.86,.53-6.53,4.75-10.14Z"/>
      <path class="cls-2" d="M144.45,212.03c-1.95-.14-3.91-.37-5.86-.39-2.18-.02-3.89,.82-3.68,3.36,.22,2.68,2.24,2.73,4.3,2.57,5.81-.44,11.47-2.08,17.46-.45,10.58,2.86,14.16,7.85,12.33,18.44-3.84,22.15-36.9,39-56.47,28.82-6.34-3.3-9.58-7.39-5.64-14.83,12.99-24.45,24.83-49.53,39.33-73.16,6.34-10.34,16.81-12.85,26.48-6.8,7.37,4.61,8.62,14.32,2.61,24.38-6.91,11.58-16.31,19.36-30.87,18.07Z"/>
    </g>
  </g>
</svg>