<svg width="43" height="43" viewBox="0 0 43 43" fill="none" xmlns="http://www.w3.org/2000/svg">
<path d="M0 0H43V43H0V0Z" fill="black"/>
<path d="M12.4749 16.4114L29.3879 9.729L29.8965 11.0137L12.9812 17.6961L12.4727 16.4114H12.4749Z" fill="url(#paint0_linear_317_3499)"/>
<path d="M12.9348 24.5898L29.4204 31.9495L28.8556 33.2162L12.3701 25.8565L12.9348 24.5898Z" fill="url(#paint1_linear_317_3499)"/>
<path d="M11.7808 23.7834L29.0179 10.1958L29.8795 11.2915L12.6425 24.8791L11.7808 23.7834Z" fill="url(#paint2_linear_317_3499)"/>
<path d="M9.66213 24.9388C9.65757 26.1066 10.6026 27.0561 11.7703 27.0605C12.938 27.065 13.8875 26.12 13.8921 24.9523C13.8965 23.7845 12.9516 22.8351 11.7839 22.8306C10.6161 22.8261 9.66658 23.7711 9.66213 24.9388Z" fill="#36D6DA"/>
<path d="M27.6243 10.4578C27.6197 11.6256 28.5648 12.5751 29.7325 12.5796C30.9003 12.5841 31.8497 11.6391 31.8543 10.4714C31.8565 9.30361 30.9115 8.35412 29.7437 8.34963C28.576 8.34512 27.6265 9.29011 27.6221 10.4578" fill="#FFC438"/>
<path d="M13.0916 17.6831L30.0293 31.4552L29.1024 32.5958L12.1646 18.8238L13.0916 17.6831Z" fill="url(#paint3_linear_317_3499)"/>
<path d="M27.6455 32.1531C27.6411 33.3209 28.586 34.2704 29.7537 34.2749C30.9215 34.2794 31.871 33.3344 31.8755 32.1667C31.88 30.9989 30.935 30.0495 29.7673 30.0449C28.5996 30.0405 27.6501 30.9854 27.6455 32.1531Z" fill="#B41A40"/>
<path d="M9.61427 17.6845C9.60982 18.8522 10.5548 19.8017 11.7225 19.8061C12.8903 19.8107 13.8398 18.8656 13.8442 17.6979C13.8488 16.5302 12.9037 15.5807 11.736 15.5762C10.5682 15.5739 9.61883 16.5167 9.61427 17.6845Z" fill="#ED6737"/>
<defs>
<linearGradient id="paint0_linear_317_3499" x1="2.58553" y1="40.1711" x2="49.3189" y2="31.7277" gradientUnits="userSpaceOnUse">
<stop stop-color="#ED6737"/>
<stop offset="1" stop-color="#FFC438"/>
</linearGradient>
<linearGradient id="paint1_linear_317_3499" x1="3.04979" y1="3.5278" x2="50.4857" y2="14.2432" gradientUnits="userSpaceOnUse">
<stop stop-color="#36D6DA"/>
<stop offset="1" stop-color="#B41A40"/>
</linearGradient>
<linearGradient id="paint2_linear_317_3499" x1="2.11522" y1="45.8559" x2="49.2452" y2="15.713" gradientUnits="userSpaceOnUse">
<stop stop-color="#36D6DA"/>
<stop offset="1" stop-color="#FFC438"/>
</linearGradient>
<linearGradient id="paint3_linear_317_3499" x1="-2.29127" y1="4.07145" x2="44.0764" y2="35.5379" gradientUnits="userSpaceOnUse">
<stop stop-color="#ED6737"/>
<stop offset="1" stop-color="#B41A40"/>
</linearGradient>
</defs>
</svg>
