<svg width="45" height="43" viewBox="0 0 45 43" fill="none" xmlns="http://www.w3.org/2000/svg">
<path d="M22.7113 1.5H21.5C10.4543 1.5 1.5 10.4543 1.5 21.5C1.5 32.5457 10.4543 41.5 21.5 41.5H22.7113C33.757 41.5 42.7113 32.5457 42.7113 21.5C42.7113 10.4543 33.757 1.5 22.7113 1.5Z" fill="black"/>
<path d="M13.8264 16.9661L30.5381 10.3633L31.0406 11.6327L14.3267 18.2356L13.8242 16.9661H13.8264Z" fill="url(#paint0_linear_9_2)"/>
<path d="M14.2807 25.0469L30.57 32.3189L30.0119 33.5706L13.7227 26.2985L14.2807 25.0469Z" fill="url(#paint1_linear_9_2)"/>
<path d="M13.1406 24.25L30.1725 10.8242L31.0239 11.9069L13.9921 25.3327L13.1406 24.25Z" fill="url(#paint2_linear_9_2)"/>
<path d="M11.0469 25.3917C11.0424 26.5456 11.9762 27.4838 13.13 27.4882C14.2838 27.4926 15.222 26.5589 15.2265 25.4051C15.2309 24.2512 14.2972 23.3131 13.1434 23.3086C11.9895 23.3042 11.0513 24.2379 11.0469 25.3917Z" fill="#36D6DA"/>
<path d="M28.7952 11.0831C28.7907 12.237 29.7245 13.1752 30.8783 13.1796C32.0322 13.1841 32.9703 12.2503 32.9748 11.0965C32.977 9.94265 32.0433 9.00446 30.8894 9.00002C29.7356 8.99557 28.7974 9.92931 28.793 11.0831" fill="#FFC438"/>
<path d="M14.4355 18.2227L31.1716 31.8308L30.2557 32.9579L13.5195 19.3498L14.4355 18.2227Z" fill="url(#paint3_linear_9_2)"/>
<path d="M28.8164 32.5206C28.812 33.6745 29.7457 34.6127 30.8995 34.6171C32.0534 34.6216 32.9916 33.6878 32.996 32.534C33.0005 31.3801 32.0667 30.442 30.9129 30.4375C29.7591 30.4331 28.8209 31.3668 28.8164 32.5206Z" fill="#B41A40"/>
<path d="M11 18.2238C10.9956 19.3776 11.9293 20.3158 13.0831 20.3202C14.237 20.3247 15.1752 19.3909 15.1796 18.2371C15.1841 17.0833 14.2503 16.1451 13.0965 16.1406C11.9426 16.1384 11.0045 17.0699 11 18.2238Z" fill="#ED6737"/>
<defs>
<linearGradient id="paint0_linear_9_2" x1="14.8594" y1="17.7177" x2="31.5721" y2="11.1141" gradientUnits="userSpaceOnUse">
<stop stop-color="#ED6737"/>
<stop offset="1" stop-color="#FFC438"/>
</linearGradient>
<linearGradient id="paint1_linear_9_2" x1="14.9176" y1="25.7462" x2="31.2045" y2="33.018" gradientUnits="userSpaceOnUse">
<stop stop-color="#36D6DA"/>
<stop offset="1" stop-color="#B41A40"/>
</linearGradient>
<linearGradient id="paint2_linear_9_2" x1="14.0203" y1="26.2963" x2="31.0533" y2="12.8685" gradientUnits="userSpaceOnUse">
<stop stop-color="#36D6DA"/>
<stop offset="1" stop-color="#FFC438"/>
</linearGradient>
<linearGradient id="paint3_linear_9_2" x1="12.5789" y1="19.6179" x2="29.3171" y2="33.2255" gradientUnits="userSpaceOnUse">
<stop stop-color="#ED6737"/>
<stop offset="1" stop-color="#B41A40"/>
</linearGradient>
</defs>
</svg>
