<svg xmlns="http://www.w3.org/2000/svg" viewBox="0 0 45 45">
    <circle cx="22.5" cy="22.5" r="21" fill="#05492d" stroke="#fff" stroke-width="3" />
    <path
        d="M15.54,13.38c0-1.84,1.77-3.33,4-3.33,2.91,0,4.69,1.34,5.68,8.37h.64l.92-9.58c-6.6-2.27-14.68.14-14.83,7,0,7.45,11.85,7.45,11.85,14.26a3.53,3.53,0,0,1-3.76,3.34c-5.25,0-6.46-4.4-6.74-9H12.7L11,33.1a18.37,18.37,0,0,0,8.09,2.27c5-.07,8.37-3.76,8.51-7.66C27.6,20.26,15.54,18.7,15.54,13.38Z"
        fill="#fff" />
    <path d="M28.48,32.75a2.66,2.66,0,1,1,2.7,2.62A2.54,2.54,0,0,1,28.48,32.75Z" fill="#b4d625" />
</svg>