<?xml version="1.0" encoding="UTF-8"?>
<svg id="Layer_2" data-name="Layer 2" xmlns="http://www.w3.org/2000/svg" viewBox="0 0 512 512">
  <defs>
    <style>
      .cls-1 {
        fill: #004c2c;
      }

      .cls-2 {
        fill: #fcfdfd;
      }

      .cls-3 {
        fill: #a7db00;
      }
    </style>
  </defs>
  <g id="Layer_1-2" data-name="Layer 1">
    <g>
      <path class="cls-1" d="M256.03,511.91c-83.95,0-167.89-.02-251.84,.08C.97,512,0,511.61,0,508,.12,339.94,.12,171.88,.02,3.83,.02,.62,.85,.04,3.89,.04,171.95,.12,340,.13,508.06,0c3.75,0,3.91,1.18,3.91,4.27-.08,167.89-.08,335.79,.03,503.68,0,3.49-.78,4.06-4.13,4.05-83.95-.12-167.89-.09-251.84-.09Zm-3.38-433.74c-3.58,.22-9.24,.41-14.88,.93-23.99,2.2-46.81,8.31-67.12,21.69-31.81,20.95-46.68,50.55-43.58,88.66,1.57,19.28,10.9,34.96,24.31,48.44,14.34,14.42,31.55,24.88,48.81,35.28,16.51,9.96,33.41,19.32,48.54,31.4,14.02,11.2,25.68,24.16,30.75,41.93,10.9,38.18-14.39,58.77-38.85,61.17-37.23,3.66-67.9-10.65-83.49-49.62-7.94-19.83-10.98-40.67-12.28-61.84-.12-2,.41-4.67-3.17-4.26-2.7,.31-5.74-1.16-6.66,3.55-6.77,34.57-13.77,69.09-20.83,103.6-.73,3.57-.14,5.49,3.43,7.28,28.95,14.51,59.13,24.8,91.65,26.91,33.52,2.18,63.73-6.62,88.82-29.49,34.82-31.76,47.33-84.58,10.25-127.58-11.51-13.35-25.15-24.21-39.48-34.31-18.9-13.31-38.99-24.85-57.61-38.57-12.11-8.92-23.73-18.38-31.51-31.6-13.27-22.54-6.58-47,16.23-59.72,11.78-6.57,24.49-7.92,37.67-7.02,16.57,1.13,30.01,7.86,39.7,21.61,8.17,11.59,12.84,24.69,16.62,38.16,4.13,14.74,7.07,29.75,9.01,44.93,.45,3.56,2.02,4.06,5.17,4.21,3.79,.19,3.81-1.83,4.02-4.53,.43-5.64,1.19-11.25,1.73-16.89,3.19-33.13,6.28-66.28,9.63-99.4,.33-3.27-.64-4.24-3.45-5.14-19.96-6.42-40.42-9.48-63.42-9.81Zm114.87,295.51c-16.95,.11-30.25,13.24-30.27,29.9-.02,16.84,13.97,30.38,31.21,30.23,16.69-.15,30.16-13.56,30.27-30.12,.11-16.91-13.63-30.12-31.21-30Z"/>
      <path class="cls-2" d="M252.65,78.17c23,.32,43.47,3.39,63.42,9.81,2.81,.9,3.78,1.87,3.45,5.14-3.35,33.12-6.45,66.26-9.63,99.4-.54,5.63-1.3,11.25-1.73,16.89-.21,2.7-.23,4.72-4.02,4.53-3.15-.15-4.71-.65-5.17-4.21-1.93-15.18-4.87-30.18-9.01-44.93-3.78-13.47-8.45-26.57-16.62-38.16-9.69-13.75-23.13-20.48-39.7-21.61-13.18-.9-25.89,.45-37.67,7.02-22.81,12.72-29.5,37.18-16.23,59.72,7.79,13.22,19.4,22.67,31.51,31.6,18.62,13.72,38.71,25.26,57.61,38.57,14.33,10.09,27.97,20.96,39.48,34.31,37.08,43,24.57,95.82-10.25,127.58-25.08,22.88-55.29,31.67-88.82,29.49-32.52-2.11-62.7-12.4-91.65-26.91-3.57-1.79-4.16-3.71-3.43-7.28,7.05-34.51,14.05-69.04,20.83-103.6,.92-4.72,3.96-3.25,6.66-3.55,3.58-.41,3.04,2.27,3.17,4.26,1.31,21.17,4.35,42.01,12.28,61.84,15.59,38.97,46.26,53.28,83.49,49.62,24.46-2.4,49.74-22.99,38.85-61.17-5.07-17.78-16.73-30.73-30.75-41.93-15.13-12.08-32.03-21.45-48.54-31.4-17.25-10.4-34.46-20.86-48.81-35.28-13.41-13.48-22.74-29.17-24.31-48.44-3.1-38.11,11.77-67.71,43.58-88.66,20.31-13.38,43.13-19.49,67.12-21.69,5.63-.52,11.3-.71,14.88-.93Z"/>
      <path class="cls-3" d="M367.51,373.68c17.58-.12,31.31,13.09,31.21,30-.1,16.56-13.57,29.97-30.27,30.12-17.25,.16-31.24-13.39-31.21-30.23,.02-16.66,13.32-29.79,30.27-29.9Z"/>
    </g>
  </g>
</svg>