<svg width="20" height="20" viewBox="0 0 20 20" fill="none" xmlns="http://www.w3.org/2000/svg">
<path d="M4.37114e-07 10C4.94517e-07 11.3132 0.258658 12.6136 0.761205 13.8268C1.26375 15.0401 2.00035 16.1425 2.92893 17.0711C3.85752 17.9997 4.95991 18.7362 6.17317 19.2388C7.38642 19.7413 8.68678 20 10 20C12.6522 20 15.1957 18.9464 17.0711 17.0711C18.9464 15.1957 20 12.6522 20 10C20 8.68678 19.7413 7.38642 19.2388 6.17316C18.7363 4.95991 17.9997 3.85752 17.0711 2.92893C15.1957 1.05357 12.6522 -5.53044e-07 10 -4.37114e-07C7.34784 -3.21184e-07 4.8043 1.05357 2.92893 2.92893C1.05357 4.8043 3.21184e-07 7.34784 4.37114e-07 10ZM8 5L13 10L8 15L8 5Z" fill="white"/>
</svg>
