<svg width="16" height="15" viewBox="0 0 16 15" fill="none" xmlns="http://www.w3.org/2000/svg">
	<path
		d="M13.4059 0.0117188H3.06606C1.88482 0.0117188 0.923828 0.933558 0.923828 2.06667V11.9853C0.923828 13.1184 1.88482 14.0402 3.06606 14.0402H13.4059C14.5871 14.0402 15.5481 13.1184 15.5481 11.9853V2.06667C15.5481 0.933558 14.5871 0.0117188 13.4059 0.0117188ZM11.855 6.99856L11.5979 8.23154H9.94975V13.2182H8.66441V8.23154H7.09345V6.99856H8.66441V4.53262C8.66441 3.62608 9.43316 2.88865 10.3782 2.88865H11.9492V4.12163H9.94975V6.99856H11.855ZM14.6912 11.9853C14.6912 12.6651 14.1146 13.2182 13.4059 13.2182H10.8066V9.05352H12.3004L12.9002 6.17658H10.8066V4.94361H12.8061V2.06667H10.3782C8.96075 2.06667 7.80752 3.17292 7.80752 4.53262V6.17658H6.23655V9.05352H7.80752V13.2182H3.06606C2.35734 13.2182 1.78072 12.6651 1.78072 11.9853V2.06667C1.78072 1.38683 2.35734 0.8337 3.06606 0.8337H13.4059C14.1146 0.8337 14.6912 1.38683 14.6912 2.06667V11.9853Z"
		fill="white" />
</svg>