<svg width="27" height="27" viewBox="7 6 14 15" fill="none" xmlns="http://www.w3.org/2000/svg">
<path d="M17.4219 20.0469H11.0781C9.08437 20.0469 7.45312 18.4156 7.45312 16.4219V10.0781C7.45312 8.08437 9.08437 6.45312 11.0781 6.45312H17.4219C19.4156 6.45312 21.0469 8.08437 21.0469 10.0781V16.4219C21.0469 18.4156 19.4156 20.0469 17.4219 20.0469Z" stroke="white" stroke-width="0.7" stroke-miterlimit="10" stroke-linecap="round" stroke-linejoin="round"/>
<path d="M10.1719 11.8906H11.9844V17.3281H10.1719V11.8906Z" stroke="white" stroke-width="0.7" stroke-miterlimit="10" stroke-linecap="round" stroke-linejoin="round"/>
<path d="M16.2891 11.8906C15.8813 11.8906 15.4734 12.0266 15.1562 12.2531V11.8906H13.3438V17.3281H14.25H15.1562V14.3828C15.1562 14.0203 15.4734 13.7031 15.8359 13.7031C16.1984 13.7031 16.5156 14.0203 16.5156 14.3828V17.3281H18.3281V13.9297C18.3281 12.7969 17.4219 11.8906 16.2891 11.8906Z" stroke="white" stroke-width="0.7" stroke-miterlimit="10" stroke-linecap="round" stroke-linejoin="round"/>
<path d="M11.0781 10.5312C11.5786 10.5312 11.9844 10.1255 11.9844 9.625C11.9844 9.12449 11.5786 8.71875 11.0781 8.71875C10.5776 8.71875 10.1719 9.12449 10.1719 9.625C10.1719 10.1255 10.5776 10.5312 11.0781 10.5312Z" stroke="white" stroke-width="0.7" stroke-miterlimit="10" stroke-linecap="round" stroke-linejoin="round"/>
</svg>
 