<?xml version="1.0" encoding="UTF-8"?>
<svg id="_Слой_2" data-name="Слой 2" xmlns="http://www.w3.org/2000/svg" xmlns:xlink="http://www.w3.org/1999/xlink" viewBox="0 0 269 77">
  <defs>
    <style>
      .cls-1 {
        fill: #fff;
      }

      .cls-2 {
        fill: #956df8;
      }

      .cls-3 {
        clip-path: url(#clippath);
      }

      .cls-4 {
        fill: none;
      }
    </style>
    <clipPath id="clippath">
      <rect class="cls-4" x="16.53" y="12.82" width="52.11" height="52.11"/>
    </clipPath>
  </defs>
  <g id="_Слой_1-2" data-name="Слой 1">
    <rect class="cls-1" width="269" height="77" rx="15" ry="15"/>
    <g class="cls-3">
      <g>
        <path class="cls-2" d="m67.62,46.44h-7.32c-.56,0-1.02.46-1.02,1.02s.46,1.02,1.02,1.02h6.3v3.13h-22.13v-3.13h6.88c.56,0,1.02-.46,1.02-1.02s-.46-1.02-1.02-1.02h-17.23c-1.09,0-1.97-.88-1.97-1.97s.88-1.97,1.97-1.97h17.88c5.06,0,9.18-4.12,9.18-9.18v-.04c0-4.62-3.44-8.46-7.89-9.08l2.41-2.25h4.53c1.87,0,3.39-1.52,3.39-3.39v-2.34c0-1.87-1.52-3.39-3.39-3.39h-11.69c-1.87,0-3.39,1.52-3.39,3.39v2.34c0,1.87,1.52,3.39,3.39,3.39h1.24v2.16h-17.17v-2.16h1.44c1.87,0,3.39-1.52,3.39-3.39v-2.34c0-1.87-1.52-3.39-3.39-3.39h-11.69c-1.87,0-3.39,1.52-3.39,3.39v2.34c0,1.87,1.52,3.39,3.39,3.39h4.33l2.32,2.16h-11.46c-.56,0-1.02.46-1.02,1.02v5.17c0,.56.46,1.02,1.02,1.02h34.44c1.09,0,1.97.88,1.97,1.97v.04c0,1.09-.88,1.97-1.97,1.97h-17.88c-5.06,0-9.18,4.12-9.18,9.18,0,4.79,3.69,8.74,8.38,9.14l-2.35,2.2h-4.53c-1.87,0-3.39,1.52-3.39,3.39v2.34c0,1.87,1.52,3.39,3.39,3.39h11.69c1.87,0,3.39-1.52,3.39-3.39v-2.34c0-1.87-1.52-3.39-3.39-3.39h-1.24v-2.16h16.15v2.16h-1.44c-1.87,0-3.39,1.52-3.39,3.39v2.34c0,1.87,1.52,3.39,3.39,3.39h11.69c1.87,0,3.39-1.52,3.39-3.39v-2.34c0-1.87-1.52-3.39-3.39-3.39h-4.33l-2.31-2.16h10.99c.56,0,1.02-.46,1.02-1.02v-5.17c0-.56-.46-1.02-1.02-1.02ZM27.79,20.18c-.19-.18-.44-.27-.69-.27h-4.73c-.75,0-1.36-.61-1.36-1.36v-2.34c0-.75.61-1.36,1.36-1.36h11.69c.75,0,1.36.61,1.36,1.36v2.34c0,.75-.61,1.36-1.36,1.36h-2.46c-.56,0-1.02.46-1.02,1.02v1.85l-2.78-2.6Zm14.64,9.09h-23.87v-3.13h23.87v3.13Zm6.11-9.37c-.75,0-1.36-.61-1.36-1.36v-2.34c0-.75.61-1.36,1.36-1.36h11.69c.75,0,1.36.61,1.36,1.36v2.34c0,.75-.61,1.36-1.36,1.36h-4.93c-.26,0-.51.1-.69.27l-2.78,2.6v-1.85c0-.56-.46-1.02-1.02-1.02h-2.26Zm-4.07,17.42h7.52c2.21,0,4.01-1.8,4.01-4.01v-.04c0-2.21-1.8-4.01-4.01-4.01h-7.52v-3.13h7.52c3.94,0,7.14,3.2,7.14,7.14v.04c0,3.94-3.2,7.14-7.14,7.14h-7.52v-3.13Zm-6.34,20.51c.75,0,1.36.61,1.36,1.36v2.34c0,.75-.61,1.36-1.36,1.36h-11.69c-.75,0-1.36-.61-1.36-1.36v-2.34c0-.75.61-1.36,1.36-1.36h4.93c.26,0,.51-.1.69-.27l2.78-2.6v1.85c0,.56.46,1.02,1.02,1.02h2.26Zm4.31-6.23h-8.32c-3.94,0-7.14-3.2-7.14-7.14s3.2-7.14,7.14-7.14h8.32v3.13h-8.32c-2.21,0-4.01,1.8-4.01,4.01s1.8,4.01,4.01,4.01h8.32v3.13Zm15.42,5.96c.19.18.44.27.69.27h4.73c.75,0,1.36.61,1.36,1.36v2.34c0,.75-.61,1.36-1.36,1.36h-11.69c-.75,0-1.36-.61-1.36-1.36v-2.34c0-.75.61-1.36,1.36-1.36h2.46c.56,0,1.02-.46,1.02-1.02v-1.85l2.78,2.6Z"/>
        <path class="cls-2" d="m56.77,46.89c-.3-.46-.95-.59-1.41-.28-.46.31-.59.95-.28,1.41.31.46.95.59,1.41.28.46-.31.59-.95.28-1.41Z"/>
      </g>
    </g>
    <rect class="cls-2" x="79" y="12" width="180" height="26" rx="8" ry="8"/>
    <path class="cls-2" d="m88.12,61v-11.52h4.86c.11,0,.26,0,.45.02.19,0,.36.02.51.05.69.11,1.25.33,1.69.68.44.35.77.78.98,1.31.21.52.31,1.11.31,1.75s-.11,1.23-.32,1.76c-.21.52-.53.96-.98,1.3-.44.35-1,.57-1.68.68-.15.02-.32.04-.51.05-.19.01-.34.02-.45.02h-2.69v3.9h-2.18Zm2.18-5.94h2.59c.11,0,.24,0,.37-.02.13-.01.26-.03.37-.06.29-.08.52-.21.68-.4.16-.19.27-.4.33-.63.06-.23.1-.46.1-.66s-.03-.43-.1-.66c-.06-.23-.17-.45-.33-.63-.16-.19-.39-.33-.68-.41-.11-.03-.23-.05-.37-.06-.13-.01-.26-.02-.37-.02h-2.59v3.55Zm9.03-3.9v-1.92h2.18v1.92h-2.18Zm0,9.84v-8.64h2.18v8.64h-2.18Zm9.46.24c-.86,0-1.58-.2-2.15-.6s-1.01-.94-1.3-1.63c-.29-.69-.43-1.46-.43-2.33s.14-1.64.43-2.33c.29-.69.71-1.23,1.27-1.63s1.25-.6,2.07-.6,1.55.2,2.16.59c.61.39,1.09.94,1.42,1.62.34.68.51,1.46.51,2.34s-.17,1.64-.5,2.33c-.33.69-.79,1.23-1.39,1.63-.6.4-1.29.6-2.09.6Zm-4.26,3.6v-12.48h1.92v5.92h.27v6.56h-2.19Zm3.9-5.54c.47,0,.85-.12,1.15-.35.3-.23.52-.55.66-.94.14-.4.22-.84.22-1.33s-.07-.92-.22-1.31c-.15-.4-.38-.72-.7-.95-.31-.24-.71-.36-1.19-.36-.45,0-.82.11-1.1.33-.28.22-.48.53-.61.92-.13.39-.19.85-.19,1.38s.06.98.19,1.38c.13.39.34.7.62.92.29.22.68.33,1.17.33Zm10.75,1.94c-.88,0-1.67-.19-2.34-.57-.67-.38-1.2-.91-1.58-1.58-.38-.67-.57-1.44-.57-2.3,0-.94.19-1.77.56-2.46s.89-1.24,1.54-1.62c.66-.39,1.41-.58,2.26-.58.91,0,1.68.21,2.31.64.63.43,1.1,1.03,1.41,1.8s.41,1.68.32,2.73h-2.15v-.8c0-.88-.14-1.51-.42-1.9-.28-.39-.73-.58-1.37-.58-.74,0-1.29.23-1.64.68-.35.45-.52,1.11-.52,1.99,0,.81.17,1.43.52,1.87.35.44.87.66,1.54.66.43,0,.79-.09,1.1-.28.3-.19.54-.46.7-.81l2.18.62c-.32.79-.84,1.4-1.54,1.84-.7.44-1.46.66-2.3.66Zm-2.86-3.95v-1.62h5.73v1.62h-5.73Zm9.38,3.71v-11.76h2.18v11.76h-2.18Zm5.38-9.84v-1.92h2.18v1.92h-2.18Zm0,9.84v-8.64h2.18v8.64h-2.18Zm11.1,0v-4.08c0-.2-.01-.45-.03-.75-.02-.31-.09-.62-.2-.93-.11-.31-.3-.57-.55-.78-.25-.21-.61-.31-1.07-.31-.19,0-.39.03-.6.09s-.41.17-.6.34c-.19.17-.34.41-.46.74-.12.33-.18.76-.18,1.3l-1.25-.59c0-.68.14-1.32.42-1.92.28-.6.69-1.08,1.25-1.45.56-.37,1.26-.55,2.11-.55.68,0,1.23.11,1.66.34s.76.52.99.87c.24.35.41.72.51,1.1.1.38.16.73.18,1.04.02.31.03.54.03.69v4.85h-2.21Zm-5.9,0v-8.64h1.94v2.86h.27v5.78h-2.21Zm14.69.24c-.89,0-1.67-.19-2.34-.57-.67-.38-1.2-.91-1.58-1.58-.38-.67-.57-1.44-.57-2.3,0-.94.19-1.77.56-2.46.37-.7.89-1.24,1.54-1.62.66-.39,1.41-.58,2.26-.58.91,0,1.68.21,2.31.64.63.43,1.1,1.03,1.41,1.8s.41,1.68.32,2.73h-2.15v-.8c0-.88-.14-1.51-.42-1.9-.28-.39-.73-.58-1.37-.58-.74,0-1.29.23-1.64.68-.35.45-.52,1.11-.52,1.99,0,.81.17,1.43.52,1.87.35.44.87.66,1.54.66.43,0,.79-.09,1.1-.28.3-.19.54-.46.7-.81l2.18.62c-.33.79-.84,1.4-1.54,1.84-.7.44-1.46.66-2.3.66Zm-2.86-3.95v-1.62h5.73v1.62h-5.73Zm17.87,3.95c-.73,0-1.42-.13-2.07-.38-.66-.26-1.24-.65-1.74-1.15-.5-.51-.9-1.13-1.19-1.88-.29-.75-.43-1.61-.43-2.58,0-1.27.24-2.36.73-3.25.49-.9,1.15-1.58,1.97-2.05.83-.47,1.74-.7,2.74-.7,1.48,0,2.65.34,3.5,1.03.85.69,1.42,1.66,1.7,2.92l-2.22.32c-.21-.67-.55-1.21-1.02-1.61-.47-.41-1.07-.61-1.81-.62-.73-.01-1.34.15-1.82.47-.49.33-.85.79-1.1,1.38-.24.6-.36,1.3-.36,2.1s.12,1.49.36,2.08c.25.59.61,1.04,1.1,1.37.49.32,1.09.49,1.82.5.5.01.94-.08,1.34-.26.41-.18.75-.47,1.02-.86.28-.39.47-.89.59-1.5h-1.82v-1.68h4.14c.01.07.02.19.02.37,0,.18,0,.28,0,.3,0,1.1-.22,2.08-.67,2.94-.45.85-1.08,1.52-1.9,2.01-.82.48-1.78.72-2.89.72Zm11.72,0c-.89,0-1.67-.19-2.34-.57-.67-.38-1.2-.91-1.58-1.58-.38-.67-.57-1.44-.57-2.3,0-.94.19-1.77.56-2.46.37-.7.89-1.24,1.54-1.62.66-.39,1.41-.58,2.26-.58.91,0,1.68.21,2.31.64.63.43,1.1,1.03,1.41,1.8s.41,1.68.32,2.73h-2.15v-.8c0-.88-.14-1.51-.42-1.9-.28-.39-.73-.58-1.37-.58-.74,0-1.29.23-1.64.68-.35.45-.52,1.11-.52,1.99,0,.81.17,1.43.52,1.87.35.44.87.66,1.54.66.43,0,.79-.09,1.1-.28.3-.19.54-.46.7-.81l2.18.62c-.33.79-.84,1.4-1.54,1.84-.7.44-1.46.66-2.3.66Zm-2.86-3.95v-1.62h5.73v1.62h-5.73Zm14.88,3.71v-4.08c0-.2-.01-.45-.03-.75-.02-.31-.09-.62-.2-.93-.11-.31-.3-.57-.55-.78-.25-.21-.61-.31-1.07-.31-.19,0-.39.03-.6.09-.21.06-.41.17-.6.34-.19.17-.34.41-.46.74-.12.33-.18.76-.18,1.3l-1.25-.59c0-.68.14-1.32.42-1.92.28-.6.69-1.08,1.25-1.45.56-.37,1.26-.55,2.11-.55.68,0,1.23.11,1.66.34.43.23.76.52.99.87.24.35.41.72.51,1.1.1.38.16.73.18,1.04.02.31.03.54.03.69v4.85h-2.21Zm-5.9,0v-8.64h1.94v2.86h.27v5.78h-2.21Zm14.69.24c-.88,0-1.67-.19-2.34-.57-.67-.38-1.2-.91-1.58-1.58-.38-.67-.57-1.44-.57-2.3,0-.94.19-1.77.56-2.46.37-.7.89-1.24,1.54-1.62.66-.39,1.41-.58,2.26-.58.91,0,1.68.21,2.31.64.63.43,1.1,1.03,1.41,1.8s.41,1.68.32,2.73h-2.15v-.8c0-.88-.14-1.51-.42-1.9-.28-.39-.73-.58-1.37-.58-.74,0-1.29.23-1.64.68-.35.45-.52,1.11-.52,1.99,0,.81.17,1.43.52,1.87.35.44.87.66,1.54.66.43,0,.79-.09,1.1-.28.3-.19.54-.46.7-.81l2.18.62c-.32.79-.84,1.4-1.54,1.84-.7.44-1.46.66-2.3.66Zm-2.86-3.95v-1.62h5.73v1.62h-5.73Zm9.22,3.71v-8.64h1.92v2.11l-.21-.27c.11-.3.26-.57.45-.82.19-.25.42-.45.69-.61.21-.13.43-.23.68-.3.25-.07.5-.12.76-.14.26-.02.52-.02.78.02v2.03c-.24-.07-.52-.1-.84-.07-.32.02-.6.09-.86.22-.26.12-.47.27-.65.47-.18.19-.31.42-.4.69-.09.26-.14.56-.14.89v4.42h-2.19Zm9.46.24c-.62,0-1.14-.12-1.58-.35-.43-.24-.75-.56-.98-.95-.22-.4-.33-.84-.33-1.32,0-.4.06-.77.18-1.1.12-.33.32-.62.59-.87.28-.26.65-.47,1.11-.64.32-.12.7-.22,1.14-.31.44-.09.94-.18,1.5-.26.56-.09,1.18-.18,1.85-.28l-.78.43c0-.51-.12-.89-.37-1.13-.25-.24-.66-.36-1.23-.36-.32,0-.65.08-1,.23-.35.15-.59.43-.73.82l-1.97-.62c.22-.71.63-1.3,1.23-1.74.6-.45,1.42-.67,2.46-.67.76,0,1.44.12,2.03.35s1.04.64,1.34,1.22c.17.32.27.64.3.96.03.32.05.68.05,1.07v5.28h-1.9v-1.78l.27.37c-.42.58-.88,1-1.37,1.26-.49.26-1.1.38-1.85.38Zm.46-1.71c.4,0,.74-.07,1.01-.21.28-.14.5-.31.66-.49.17-.18.28-.33.34-.46.11-.23.18-.51.19-.82.02-.31.03-.58.03-.78l.64.16c-.64.11-1.17.2-1.57.27-.4.07-.72.13-.97.19-.25.06-.46.12-.65.19-.21.09-.39.18-.52.28-.13.1-.22.2-.29.32-.06.12-.09.25-.09.39,0,.2.05.37.14.51.1.14.24.25.42.32.18.07.4.11.65.11Zm12.29,1.47c-.6.11-1.18.16-1.76.14-.57-.01-1.08-.11-1.54-.3-.45-.19-.79-.5-1.02-.92-.21-.4-.33-.79-.34-1.2-.01-.41-.02-.87-.02-1.39v-7.38h2.18v7.25c0,.34,0,.64,0,.91,0,.27.07.48.17.64.19.3.5.47.92.5.42.03.89,0,1.4-.06v1.81Zm-6.14-6.96v-1.68h6.14v1.68h-6.14Zm8.87-2.88v-1.92h2.18v1.92h-2.18Zm0,9.84v-8.64h2.18v8.64h-2.18Zm9.1.24c-.87,0-1.63-.19-2.29-.58-.66-.39-1.17-.92-1.54-1.61-.36-.69-.54-1.48-.54-2.37s.19-1.69.56-2.38c.37-.69.89-1.22,1.54-1.61s1.41-.58,2.26-.58,1.63.19,2.29.58c.66.39,1.18.93,1.54,1.62.37.68.55,1.47.55,2.36s-.19,1.69-.56,2.38c-.37.68-.88,1.22-1.54,1.61-.66.38-1.42.58-2.28.58Zm0-2.03c.7,0,1.22-.23,1.56-.7.35-.47.52-1.08.52-1.82s-.18-1.38-.53-1.84c-.35-.46-.86-.69-1.55-.69-.47,0-.86.11-1.17.32-.3.21-.53.51-.68.89-.14.38-.22.82-.22,1.32,0,.77.17,1.39.52,1.85.35.45.87.68,1.54.68Zm12.67,1.79v-4.08c0-.2-.01-.45-.03-.75-.02-.31-.09-.62-.2-.93-.11-.31-.3-.57-.55-.78-.25-.21-.61-.31-1.07-.31-.19,0-.39.03-.6.09-.21.06-.41.17-.6.34-.19.17-.34.41-.46.74-.12.33-.18.76-.18,1.3l-1.25-.59c0-.68.14-1.32.42-1.92.28-.6.69-1.08,1.25-1.45.56-.37,1.26-.55,2.11-.55.68,0,1.23.11,1.66.34.43.23.76.52.99.87.24.35.41.72.51,1.1.1.38.16.73.18,1.04.02.31.03.54.03.69v4.85h-2.21Zm-5.9,0v-8.64h1.94v2.86h.27v5.78h-2.21Z"/>
    <path class="cls-1" d="m124.62,33.18v-1.8h2.04v1.8h-2.04Zm0-11.99v-1.8h2.04v1.8h-2.04Zm1.03,10.71c-.77,0-1.47-.14-2.08-.43-.61-.29-1.11-.7-1.49-1.22-.38-.53-.63-1.15-.74-1.88l2.02-.32c.14.59.42,1.06.85,1.41.44.35.95.53,1.55.53.57,0,1.03-.13,1.4-.4.38-.27.56-.59.56-.98,0-.26-.08-.48-.25-.65-.16-.18-.41-.32-.76-.43l-2.67-.83c-1.54-.47-2.31-1.42-2.31-2.82,0-.66.15-1.23.46-1.72.32-.49.76-.86,1.33-1.12.57-.26,1.25-.4,2.03-.39.72,0,1.35.14,1.9.39.56.24,1.02.6,1.39,1.07.38.47.65,1.03.82,1.7l-2.1.38c-.07-.32-.2-.6-.39-.84-.19-.24-.43-.43-.71-.57-.28-.14-.59-.22-.94-.23-.33,0-.63.04-.9.14-.26.1-.48.25-.64.44-.15.19-.23.4-.23.63,0,.26.11.48.33.67.22.18.57.35,1.05.48l1.9.54c.96.27,1.64.65,2.06,1.12.43.47.64,1.09.64,1.87,0,.68-.17,1.28-.52,1.79s-.83.92-1.45,1.21c-.61.29-1.33.43-2.15.43Zm8.23-.22v-8.58l-2.02,1.25v-2.25l2.02-1.22h2.09v10.8h-2.09Zm7.41,0v-8.58l-2.03,1.25v-2.25l2.03-1.22h2.08v10.8h-2.08Zm4.79,2.02l.12-.85c.24.02.43-.02.59-.12.15-.1.25-.24.31-.42.06-.18.07-.39.04-.63h-1.05v-2.04h2.04v2.04c0,.72-.17,1.26-.5,1.63-.33.37-.85.5-1.54.39Zm6.04-2.02l3.63-8.88h-4.62v-1.92h6.81v1.92l-3.62,8.88h-2.21Zm11.84.22c-.73,0-1.38-.15-1.95-.44-.56-.3-1.01-.71-1.33-1.23-.32-.53-.48-1.12-.48-1.79,0-.57.13-1.11.38-1.61.26-.51.63-.92,1.12-1.24l-.04.63c-.37-.36-.65-.73-.86-1.12-.21-.4-.31-.84-.31-1.34,0-.62.15-1.17.44-1.63.3-.47.71-.82,1.23-1.08.52-.26,1.13-.39,1.81-.39s1.28.13,1.8.39c.53.26.94.61,1.23,1.08.3.47.45,1.01.45,1.63,0,.5-.1.94-.29,1.34-.2.39-.49.77-.89,1.14v-.63c.47.3.84.71,1.1,1.22.26.51.39,1.05.39,1.62,0,.67-.16,1.27-.49,1.79-.32.52-.77.93-1.34,1.23-.57.3-1.22.44-1.95.44Zm0-1.92c.48,0,.87-.13,1.17-.39.3-.26.45-.65.45-1.16s-.15-.89-.45-1.15c-.3-.27-.69-.4-1.17-.4s-.87.14-1.16.4c-.29.26-.44.65-.44,1.15s.15.9.44,1.16c.29.26.68.39,1.16.39Zm0-5.04c.39,0,.71-.1.95-.29.24-.19.37-.49.37-.9s-.12-.7-.37-.9c-.24-.2-.56-.3-.95-.3s-.71.1-.95.3c-.24.2-.37.49-.37.9s.12.71.37.9c.24.19.56.29.95.29Zm10.33,6.96c-.8,0-1.5-.17-2.1-.5-.6-.33-1.07-.8-1.4-1.4-.33-.6-.5-1.3-.5-2.1v-3.24c0-.8.17-1.5.5-2.1.34-.6.8-1.07,1.4-1.4.6-.33,1.3-.5,2.1-.5s1.5.17,2.1.5c.6.33,1.07.8,1.4,1.4.33.6.5,1.3.5,2.1v3.24c0,.8-.17,1.5-.5,2.1-.34.6-.8,1.07-1.4,1.4-.6.33-1.3.5-2.1.5Zm0-1.93c.36,0,.68-.09.98-.26.29-.17.52-.4.69-.69.17-.29.25-.61.25-.97v-3.56c0-.36-.08-.68-.25-.97s-.4-.52-.69-.69c-.29-.17-.62-.26-.98-.26s-.68.08-.97.26c-.29.17-.52.4-.69.69s-.26.61-.26.97v3.56c0,.36.09.69.26.97.17.29.4.52.69.69.29.17.61.26.97.26Zm6.55,3.73l.12-.85c.24.02.43-.02.59-.12.15-.1.25-.24.31-.42.06-.18.07-.39.04-.63h-1.05v-2.04h2.04v2.04c0,.72-.17,1.26-.5,1.63-.33.37-.85.5-1.54.39Zm9.5-1.8c-.8,0-1.5-.17-2.1-.5-.6-.33-1.07-.8-1.4-1.4-.34-.6-.5-1.3-.5-2.1v-3.24c0-.8.17-1.5.5-2.1.33-.6.8-1.07,1.4-1.4.6-.33,1.3-.5,2.1-.5s1.5.17,2.1.5c.6.33,1.07.8,1.4,1.4.34.6.5,1.3.5,2.1v3.24c0,.8-.17,1.5-.5,2.1-.33.6-.8,1.07-1.4,1.4-.6.33-1.3.5-2.1.5Zm0-1.93c.36,0,.68-.09.98-.26.29-.17.52-.4.69-.69.17-.29.25-.61.25-.97v-3.56c0-.36-.08-.68-.25-.97-.17-.29-.4-.52-.69-.69-.29-.17-.62-.26-.98-.26s-.68.08-.97.26c-.29.17-.52.4-.69.69s-.26.61-.26.97v3.56c0,.36.09.69.26.97.17.29.4.52.69.69.29.17.61.26.97.26Zm10.71,1.93c-.8,0-1.5-.17-2.1-.5-.6-.33-1.07-.8-1.4-1.4-.34-.6-.5-1.3-.5-2.1v-3.24c0-.8.17-1.5.5-2.1s.8-1.07,1.4-1.4c.6-.33,1.3-.5,2.1-.5s1.5.17,2.1.5c.6.33,1.07.8,1.4,1.4.33.6.5,1.3.5,2.1v3.24c0,.8-.17,1.5-.5,2.1-.34.6-.8,1.07-1.4,1.4-.6.33-1.3.5-2.1.5Zm0-1.93c.36,0,.68-.09.98-.26.29-.17.52-.4.69-.69.17-.29.25-.61.25-.97v-3.56c0-.36-.08-.68-.25-.97-.17-.29-.4-.52-.69-.69-.29-.17-.62-.26-.98-.26s-.68.08-.97.26c-.29.17-.52.4-.69.69s-.26.61-.26.97v3.56c0,.36.09.69.26.97.17.29.4.52.69.69.29.17.61.26.97.26Zm10.71,1.93c-.8,0-1.5-.17-2.1-.5s-1.07-.8-1.4-1.4c-.34-.6-.5-1.3-.5-2.1v-3.24c0-.8.17-1.5.5-2.1s.8-1.07,1.4-1.4,1.3-.5,2.1-.5,1.5.17,2.1.5,1.07.8,1.4,1.4.5,1.3.5,2.1v3.24c0,.8-.17,1.5-.5,2.1-.33.6-.8,1.07-1.4,1.4s-1.3.5-2.1.5Zm0-1.93c.36,0,.68-.09.98-.26s.52-.4.69-.69c.17-.29.26-.61.26-.97v-3.56c0-.36-.08-.68-.26-.97s-.4-.52-.69-.69c-.29-.17-.61-.26-.98-.26s-.68.08-.97.26c-.29.17-.52.4-.69.69s-.26.61-.26.97v3.56c0,.36.09.69.26.97.17.29.4.52.69.69s.62.26.97.26Z"/>
  </g>
</svg>