<?xml version="1.0" encoding="UTF-8"?>
<svg id="_Слой_2" data-name="Слой 2" xmlns="http://www.w3.org/2000/svg" xmlns:xlink="http://www.w3.org/1999/xlink" viewBox="0 0 249 72">
  <defs>
    <style>
      .cls-1 {
        fill: #fff;
      }

      .cls-2 {
        fill: #956df8;
      }

      .cls-3 {
        fill: url(#_Безымянный_градиент_6-2);
        opacity: .43;
      }

      .cls-3, .cls-4, .cls-5 {
        isolation: isolate;
      }

      .cls-4 {
        fill: url(#_Безымянный_градиент_6);
        opacity: .74;
      }

      .cls-6 {
        fill: url(#_Безымянный_градиент_2);
      }

      .cls-5 {
        fill: url(#_Безымянный_градиент);
        opacity: .4;
      }

      .cls-7 {
        fill: url(#_Безымянный_градиент_4);
      }

      .cls-8 {
        fill: url(#_Безымянный_градиент_3);
      }
    </style>
    <linearGradient id="_Безымянный_градиент" data-name="Безымянный градиент" x1="37.18" y1="-5.45" x2="37.18" y2="68.79" gradientTransform="translate(0 62.31) scale(1 -1)" gradientUnits="userSpaceOnUse">
      <stop offset="0" stop-color="#e8ffff"/>
      <stop offset=".44" stop-color="#e6d6f8"/>
      <stop offset="1" stop-color="#e3a4f0"/>
    </linearGradient>
    <radialGradient id="_Безымянный_градиент_2" data-name="Безымянный градиент 2" cx="123.73" cy="1221.41" fx="123.73" fy="1221.41" r="1" gradientTransform="translate(-5027.62 50476.6) scale(40.93 -41.3)" gradientUnits="userSpaceOnUse">
      <stop offset="0" stop-color="#aefde3" stop-opacity="0"/>
      <stop offset=".26" stop-color="#c1e3e3" stop-opacity=".26"/>
      <stop offset="1" stop-color="#f49ae3"/>
    </radialGradient>
    <linearGradient id="_Безымянный_градиент_3" data-name="Безымянный градиент 3" x1="36.69" y1="26.63" x2="53.58" y2="39.15" gradientTransform="translate(0 62.31) scale(1 -1)" gradientUnits="userSpaceOnUse">
      <stop offset="0" stop-color="#966df9"/>
      <stop offset="1" stop-color="#bea4ff"/>
    </linearGradient>
    <linearGradient id="_Безымянный_градиент_4" data-name="Безымянный градиент 4" x1="22.78" y1="43.04" x2="55.64" y2="3.65" gradientTransform="translate(0 62.31) scale(1 -1)" gradientUnits="userSpaceOnUse">
      <stop offset="0" stop-color="#bea4ff"/>
      <stop offset=".99" stop-color="#9266fd"/>
    </linearGradient>
    <linearGradient id="_Безымянный_градиент_6" data-name="Безымянный градиент 6" x1="41.35" y1="49.59" x2="56.43" y2="27.73" gradientTransform="translate(0 62.31) scale(1 -1)" gradientUnits="userSpaceOnUse">
      <stop offset="0" stop-color="#fff"/>
      <stop offset="1" stop-color="#fff" stop-opacity="0"/>
    </linearGradient>
    <linearGradient id="_Безымянный_градиент_6-2" data-name="Безымянный градиент 6" x1="32.33" y1="3.29" x2="13.5" y2="31.21" xlink:href="#_Безымянный_градиент_6"/>
  </defs>
  <g id="_Слой_1-2" data-name="Слой 1">
    <rect class="cls-1" width="249" height="72" rx="15" ry="15"/>
    <path class="cls-5" d="m37.18,61.73c14.08,0,25.49-11.51,25.49-25.72s-11.41-25.72-25.49-25.72-25.49,11.51-25.49,25.72,11.41,25.72,25.49,25.72Z"/>
    <path class="cls-6" d="m37.17,60.33c13.32,0,24.11-10.89,24.11-24.33s-10.8-24.33-24.11-24.33-24.11,10.89-24.11,24.33,10.8,24.33,24.11,24.33Z"/>
    <path class="cls-8" d="m57.1,26.51c4.24,11.59-16.27,13.03-27.71,2.44,5.57,1.04,11.19-1.69,17.26-4.28,4.39-1.84,9.22-1.44,10.45,1.84Z"/>
    <path class="cls-7" d="m59.17,36.01c0,12.24-9.86,22.19-21.99,22.19s-21.99-9.95-21.99-22.19c0-3.83.99-7.41,2.66-10.6,3.75-6.91,12.38-.85,20.27,5.22,10.26,7.86,20.76,1.64,18.98-4.13,1.33,2.89,2.07,6.12,2.07,9.5Z"/>
    <path class="cls-4" d="m42.75,20.14c2.42.75,7.99,5.42,8.19,10.89.15,3.38,5.13,4.18,4.93-.25-.2-5.72-6.16-12.49-11-13.53-4.24-.9-4.19,2.24-2.12,2.89Z"/>
    <path class="cls-3" d="m31.9,52.22c-2.51-.5-8.43-4.68-9.12-10.1-.44-3.38-5.47-3.73-4.88.7.74,5.67,7.3,11.89,12.18,12.44,4.29.55,3.99-2.59,1.82-3.03Z"/>
    <path class="cls-1" d="m31.13,40.86c0,.94-.34,1.73-1.02,2.37-.67.63-1.49.95-2.45.95-1.21,0-2.13-.39-2.74-1.16-.62-.78-.92-1.79-.92-3.02,0-1.78.5-3.27,1.51-4.47,1.02-1.19,2.4-1.79,4.16-1.79.35,0,.61.05.77.14.17.08.28.21.34.39.06.18.08.4.08.67s-.02.49-.07.64c-.05.16-.1.28-.17.36-.07.08-.16.14-.28.18-.16.06-.43.08-.81.08s-.76.07-1.12.2c-.35.13-.63.29-.84.48-.41.38-.66.73-.76,1.04l-.07.2c.35-.16.69-.24,1.04-.24.92,0,1.71.31,2.37.92.66.61.99,1.29.99,2.06Zm-3.53,1.02c.72,0,1.08-.31,1.08-.94,0-.21-.08-.42-.25-.6-.16-.19-.42-.28-.78-.28s-.63.09-.83.27c-.19.17-.28.34-.28.52s0,.31.03.41c.03.09.07.2.14.31.13.21.43.32.9.32Zm11.67-1.18c0,1.05-.38,1.89-1.15,2.53-.76.63-1.61.95-2.58.95s-1.82-.32-2.59-.95c-.76-.63-1.13-1.48-1.13-2.53,0-.39.09-.77.28-1.13.2-.37.39-.64.57-.81l.29-.27c-.07-.06-.14-.13-.24-.22-.09-.09-.22-.29-.38-.6-.15-.32-.22-.64-.22-.98,0-.91.35-1.67,1.04-2.27.69-.6,1.49-.9,2.41-.9s1.71.3,2.38.91c.67.61,1.01,1.38,1.01,2.32,0,.28-.07.56-.21.85-.13.29-.27.51-.41.66l-.21.22c.08.07.19.16.31.29.13.12.3.37.5.76.21.38.32.77.32,1.16Zm-2.79-4.03c0-.19-.08-.36-.24-.52-.16-.17-.4-.25-.71-.25s-.54.08-.69.24c-.15.16-.22.34-.22.53s.08.36.24.53c.17.17.4.25.7.25s.54-.08.69-.25c.16-.17.24-.35.24-.53Zm-1.86,4.82c.21.22.53.34.94.34s.72-.11.92-.34c.21-.22.31-.46.31-.71s-.11-.5-.32-.73c-.21-.22-.51-.34-.92-.34s-.71.11-.92.34c-.21.21-.32.45-.32.71s.11.5.32.73Zm11.45-.07c0-.8.21-1.44.63-1.92.42-.48,1-.71,1.75-.71s1.33.23,1.74.7c.4.47.6,1.12.6,1.95s-.2,1.46-.6,1.92c-.4.45-.97.67-1.71.67s-1.33-.23-1.76-.7c-.43-.48-.64-1.11-.64-1.9Zm2.35.92c.57,0,.85-.32.85-.95,0-.34-.07-.57-.21-.71-.13-.14-.35-.21-.64-.21s-.5.07-.63.22c-.13.14-.2.38-.2.71s.07.58.2.73c.14.14.35.21.63.21Zm-8.25-6.02c0-.8.21-1.44.63-1.92.42-.48,1-.71,1.75-.71s1.32.23,1.72.7c.41.47.62,1.11.62,1.93s-.21,1.46-.62,1.92c-.4.45-.97.67-1.71.67s-1.31-.23-1.75-.7c-.43-.47-.64-1.1-.64-1.89Zm2.35.91c.56,0,.84-.31.84-.94,0-.34-.07-.57-.2-.71-.13-.14-.35-.21-.64-.21s-.5.07-.64.22c-.13.14-.2.38-.2.71s.07.56.21.71c.14.14.35.21.63.21Zm5.17-3.89c.12-.21.24-.32.35-.32.12,0,.29.06.52.18s.34.25.34.39c0,.07-.03.15-.1.27l-5.42,10.23-.03.04c-.1.19-.21.28-.32.28s-.28-.06-.5-.18c-.22-.11-.34-.22-.34-.34s.03-.22.1-.34l5.4-10.22Z"/>
    <path class="cls-2" d="m72.27,42v-11.52h2.21l5.01,7.68v-7.68h2.21v11.52h-2.21l-5.01-7.68v7.68h-2.21Zm16.31.24c-.89,0-1.67-.19-2.34-.57-.67-.38-1.2-.91-1.58-1.58-.38-.67-.57-1.44-.57-2.3,0-.94.19-1.77.56-2.46.37-.7.89-1.24,1.54-1.62.66-.39,1.41-.58,2.26-.58.91,0,1.68.21,2.31.64.63.43,1.1,1.03,1.41,1.8.3.77.41,1.68.32,2.73h-2.15v-.8c0-.88-.14-1.51-.42-1.9-.28-.39-.73-.58-1.37-.58-.74,0-1.29.23-1.64.68-.35.45-.52,1.11-.52,1.99,0,.81.17,1.43.52,1.87.35.44.87.66,1.54.66.43,0,.79-.09,1.1-.28.3-.19.54-.46.7-.81l2.18.62c-.33.79-.84,1.4-1.54,1.84-.7.44-1.46.66-2.3.66Zm-2.86-3.95v-1.62h5.73v1.62h-5.73Zm7.95,3.71l3.09-4.37-3.02-4.27h2.56l1.73,2.56,1.7-2.56h2.56l-3.02,4.27,3.1,4.37h-2.56l-1.78-2.66-1.79,2.66h-2.56Zm15.8,0c-.6.11-1.18.16-1.76.14-.57-.01-1.08-.11-1.54-.3-.45-.19-.79-.5-1.02-.92-.21-.39-.32-.79-.34-1.2,0-.41-.02-.87-.02-1.39v-7.38h2.18v7.25c0,.34,0,.64,0,.91.01.27.07.48.17.64.19.3.5.47.92.5.42.03.89,0,1.4-.06v1.81Zm-6.14-6.96v-1.68h6.14v1.68h-6.14Zm16.9,7.2c-.85,0-1.62-.15-2.31-.45-.68-.3-1.25-.74-1.69-1.3-.44-.57-.72-1.24-.83-2.02l2.27-.34c.16.66.49,1.17.99,1.53.5.36,1.07.54,1.71.54.36,0,.7-.06,1.04-.17s.61-.28.82-.5c.22-.22.33-.49.33-.81,0-.12-.02-.23-.06-.34-.03-.11-.09-.22-.17-.31s-.2-.19-.34-.27c-.14-.09-.33-.16-.55-.23l-2.99-.88c-.22-.06-.49-.15-.78-.27-.29-.12-.58-.29-.86-.5-.28-.22-.51-.51-.7-.86-.18-.36-.27-.82-.27-1.37,0-.77.19-1.42.58-1.93.39-.51.91-.89,1.56-1.14.65-.25,1.37-.37,2.16-.37.79.01,1.5.15,2.13.41.62.26,1.15.64,1.57,1.14.42.5.72,1.1.91,1.82l-2.35.4c-.09-.37-.24-.69-.47-.94-.23-.26-.5-.45-.82-.58-.31-.13-.65-.21-.99-.22-.34-.01-.66.04-.97.14-.3.1-.54.25-.74.45-.19.2-.28.43-.28.7,0,.25.08.46.23.62.15.15.35.28.58.38.23.1.47.18.72.24l2,.54c.3.08.63.19.99.32.36.13.71.31,1.04.54.34.23.61.53.82.91.22.38.33.86.33,1.44,0,.62-.13,1.16-.39,1.62-.26.46-.6.84-1.04,1.14-.44.3-.93.52-1.49.67-.55.15-1.12.22-1.7.22Zm12.21-.24c-.6.11-1.18.16-1.76.14-.57-.01-1.08-.11-1.54-.3-.45-.19-.79-.5-1.02-.92-.21-.39-.33-.79-.34-1.2-.01-.41-.02-.87-.02-1.39v-7.38h2.18v7.25c0,.34,0,.64,0,.91.01.27.07.48.17.64.19.3.5.47.92.5.42.03.89,0,1.4-.06v1.81Zm-6.14-6.96v-1.68h6.14v1.68h-6.14Zm12.26,7.2c-.89,0-1.67-.19-2.34-.57-.67-.38-1.2-.91-1.58-1.58-.38-.67-.57-1.44-.57-2.3,0-.94.19-1.77.56-2.46.37-.7.89-1.24,1.54-1.62.66-.39,1.41-.58,2.26-.58.91,0,1.68.21,2.31.64.63.43,1.1,1.03,1.41,1.8.3.77.41,1.68.32,2.73h-2.15v-.8c0-.88-.14-1.51-.42-1.9-.28-.39-.73-.58-1.37-.58-.74,0-1.29.23-1.64.68-.35.45-.52,1.11-.52,1.99,0,.81.17,1.43.52,1.87.35.44.87.66,1.54.66.43,0,.79-.09,1.1-.28.3-.19.54-.46.7-.81l2.18.62c-.33.79-.84,1.4-1.54,1.84-.7.44-1.46.66-2.3.66Zm-2.86-3.95v-1.62h5.73v1.62h-5.73Zm13.23,3.95c-.86,0-1.58-.2-2.15-.6-.58-.4-1.01-.94-1.3-1.63-.29-.69-.43-1.46-.43-2.33s.14-1.64.43-2.33c.29-.69.71-1.23,1.27-1.63s1.25-.6,2.07-.6,1.55.2,2.16.59c.61.39,1.09.94,1.42,1.62.34.68.51,1.46.51,2.34s-.17,1.64-.5,2.33c-.33.69-.79,1.23-1.39,1.63-.6.4-1.29.6-2.09.6Zm-4.26,3.6v-12.48h1.92v5.92h.27v6.56h-2.19Zm3.9-5.54c.47,0,.85-.12,1.15-.35.3-.23.52-.55.66-.94.14-.4.22-.84.22-1.33s-.07-.92-.22-1.31c-.15-.4-.38-.72-.7-.95-.31-.24-.71-.36-1.19-.36-.45,0-.82.11-1.1.33-.28.22-.48.53-.61.92-.13.39-.19.85-.19,1.38s.06.98.19,1.38c.13.39.34.7.62.92.29.22.68.33,1.17.33Zm9.88,1.94c-1.09,0-1.97-.25-2.64-.74-.67-.5-1.07-1.19-1.22-2.1l2.22-.34c.09.41.29.72.6.95.31.23.71.34,1.19.34.39,0,.7-.07.91-.22.21-.15.32-.37.32-.64,0-.17-.04-.31-.13-.41-.09-.11-.28-.21-.58-.31-.29-.1-.75-.23-1.38-.4-.7-.18-1.27-.38-1.69-.61-.42-.22-.73-.49-.91-.8-.19-.31-.28-.69-.28-1.14,0-.55.14-1.03.42-1.44.28-.41.68-.73,1.19-.94.52-.22,1.12-.34,1.82-.34s1.28.1,1.8.31c.52.21.94.5,1.26.89.33.38.53.84.6,1.36l-2.22.4c-.04-.32-.18-.57-.42-.76-.24-.19-.57-.3-.98-.33-.4-.03-.72.03-.97.16-.24.13-.36.33-.36.58,0,.15.05.27.15.38.11.1.32.21.65.31.33.11.83.25,1.5.42.66.17,1.18.37,1.58.6.4.22.69.5.87.82.18.31.27.7.27,1.14,0,.89-.32,1.58-.96,2.09-.64.51-1.53.76-2.66.76Zm9.86-.24v-11.52h4.61c.82,0,1.49.17,1.99.5.51.33.88.74,1.11,1.23.23.5.35,1,.35,1.5,0,.65-.15,1.18-.44,1.61-.29.43-.69.71-1.19.86v-.4c.72.15,1.26.48,1.62,1,.36.52.54,1.1.54,1.74,0,.69-.13,1.29-.38,1.82-.25.52-.64.93-1.15,1.23-.52.29-1.17.44-1.95.44h-5.1Zm2.21-2.05h2.67c.29,0,.55-.06.78-.18.23-.13.41-.3.54-.53.13-.23.2-.5.2-.81,0-.27-.06-.51-.17-.73-.11-.21-.28-.38-.51-.5-.22-.13-.5-.19-.84-.19h-2.67v2.94Zm0-4.98h2.37c.24,0,.46-.04.66-.13.19-.09.34-.22.46-.39.11-.18.17-.41.17-.7,0-.35-.11-.65-.33-.89-.22-.24-.54-.36-.95-.36h-2.37v2.46Zm12.51,7.26c-.87,0-1.63-.19-2.29-.58-.66-.39-1.17-.93-1.54-1.61-.36-.69-.54-1.48-.54-2.37s.19-1.69.56-2.38c.37-.69.89-1.22,1.54-1.61.66-.38,1.41-.58,2.26-.58s1.63.19,2.29.58c.66.39,1.18.93,1.54,1.62.37.68.55,1.47.55,2.36s-.19,1.69-.56,2.38c-.37.68-.88,1.22-1.54,1.61-.66.38-1.42.58-2.28.58Zm0-2.03c.7,0,1.22-.23,1.56-.7.35-.47.52-1.08.52-1.82s-.18-1.38-.53-1.84c-.35-.46-.86-.69-1.55-.69-.47,0-.86.11-1.17.32-.3.21-.53.51-.68.89-.14.38-.22.82-.22,1.32,0,.77.17,1.39.52,1.85.35.45.87.68,1.54.68Zm10.67,2.03c-.87,0-1.63-.19-2.29-.58-.66-.39-1.17-.93-1.54-1.61-.36-.69-.54-1.48-.54-2.37s.19-1.69.56-2.38c.37-.69.89-1.22,1.54-1.61s1.41-.58,2.26-.58,1.63.19,2.29.58c.66.39,1.18.93,1.54,1.62.37.68.55,1.47.55,2.36s-.19,1.69-.56,2.38c-.37.68-.88,1.22-1.54,1.61-.66.38-1.42.58-2.28.58Zm0-2.03c.7,0,1.22-.23,1.56-.7.35-.47.52-1.08.52-1.82s-.18-1.38-.53-1.84c-.35-.46-.86-.69-1.55-.69-.47,0-.86.11-1.17.32-.3.21-.53.51-.68.89-.14.38-.22.82-.22,1.32,0,.77.17,1.39.52,1.85.35.45.87.68,1.54.68Zm6.77,1.79l.02-11.52h2.21v7.04l2.93-4.16h2.69l-3.12,4.32,3.33,4.32h-2.83l-2.99-4.16v4.16h-2.22Zm13.34.24c-.89,0-1.67-.19-2.34-.57-.67-.38-1.2-.91-1.58-1.58-.38-.67-.57-1.44-.57-2.3,0-.94.19-1.77.56-2.46.37-.7.89-1.24,1.54-1.62.66-.39,1.41-.58,2.26-.58.91,0,1.68.21,2.31.64.63.43,1.1,1.03,1.41,1.8.3.77.41,1.68.32,2.73h-2.15v-.8c0-.88-.14-1.51-.42-1.9-.28-.39-.73-.58-1.37-.58-.74,0-1.29.23-1.64.68-.35.45-.52,1.11-.52,1.99,0,.81.17,1.43.52,1.87.35.44.87.66,1.54.66.43,0,.79-.09,1.1-.28.3-.19.54-.46.7-.81l2.18.62c-.33.79-.84,1.4-1.54,1.84-.7.44-1.46.66-2.3.66Zm-2.86-3.95v-1.62h5.73v1.62h-5.73Zm12.73,3.95c-.8,0-1.49-.2-2.09-.6-.6-.4-1.06-.94-1.4-1.63-.33-.69-.5-1.46-.5-2.33s.17-1.66.5-2.34c.34-.69.82-1.23,1.43-1.62.61-.39,1.33-.59,2.16-.59s1.51.2,2.07.6.98.94,1.27,1.63c.29.69.43,1.46.43,2.33s-.15,1.64-.44,2.33c-.29.69-.72,1.23-1.3,1.63-.58.4-1.29.6-2.15.6Zm.35-1.94c.48,0,.87-.11,1.16-.33.29-.22.5-.53.63-.92.13-.39.19-.85.19-1.38s-.06-.98-.19-1.38c-.13-.39-.33-.7-.62-.92-.28-.22-.64-.33-1.1-.33-.48,0-.88.12-1.2.36-.31.23-.54.55-.69.95-.15.39-.22.83-.22,1.31s.07.93.22,1.33c.14.39.36.71.66.94.3.23.68.35,1.15.35Zm1.98,1.7v-5.92h-.27v-5.6h2.19v11.52h-1.92Z"/>
  </g>
</svg>