<svg width="45" height="43" viewBox="0 0 45 43" fill="none" xmlns="http://www.w3.org/2000/svg">
<rect x="1.5" y="1.5" width="41.2113" height="40" rx="20" fill="#96C2EA" stroke="#96C2EA" stroke-width="3"/>
<path d="M13.928 16.024C14.4507 16.024 14.9307 16.1467 15.368 16.392C15.816 16.6267 16.168 16.952 16.424 17.368C16.68 17.7733 16.808 18.2213 16.808 18.712C16.808 19.4587 16.6427 20.0293 16.312 20.424C15.9813 20.8187 15.5333 21.1013 14.968 21.272V21.336C16.3653 21.656 17.064 22.568 17.064 24.072C17.064 24.6053 16.9253 25.096 16.648 25.544C16.3813 25.992 16.0133 26.3493 15.544 26.616C15.0853 26.872 14.5787 27 14.024 27H7.912V16.024H13.928ZM11 20.232H12.84C13.064 20.232 13.2507 20.1573 13.4 20.008C13.56 19.848 13.64 19.656 13.64 19.432V19.16C13.64 18.936 13.56 18.7493 13.4 18.6C13.2507 18.44 13.064 18.36 12.84 18.36H11V20.232ZM11 24.456H13.032C13.256 24.456 13.4427 24.3813 13.592 24.232C13.752 24.072 13.832 23.88 13.832 23.656V23.368C13.832 23.144 13.752 22.9573 13.592 22.808C13.4427 22.648 13.256 22.568 13.032 22.568H11V24.456ZM24.252 16.024C24.86 16.024 25.42 16.1733 25.932 16.472C26.4547 16.7707 26.8653 17.1813 27.164 17.704C27.4627 18.216 27.612 18.776 27.612 19.384V19.736C27.612 20.344 27.4627 20.9093 27.164 21.432C26.8653 21.944 26.4547 22.3493 25.932 22.648C25.42 22.9467 24.86 23.096 24.252 23.096H21.772V27H18.412V16.024H24.252ZM21.772 20.648H23.244C23.5427 20.648 23.7773 20.552 23.948 20.36C24.1187 20.1573 24.204 19.9333 24.204 19.688V19.496C24.204 19.2507 24.1187 19.032 23.948 18.84C23.788 18.6373 23.5533 18.536 23.244 18.536H21.772V20.648ZM33.1085 15.864C34.4098 15.864 35.4765 16.1467 36.3085 16.712C37.1512 17.2773 37.5725 18.1147 37.5725 19.224V19.416H34.5005V19.352C34.5005 19.0427 34.3885 18.792 34.1645 18.6C33.9512 18.3973 33.6205 18.296 33.1725 18.296C32.7352 18.296 32.4045 18.36 32.1805 18.488C31.9565 18.6053 31.8445 18.7653 31.8445 18.968C31.8445 19.2133 31.9725 19.4107 32.2285 19.56C32.4952 19.6987 32.8792 19.8213 33.3805 19.928L34.8045 20.248C36.7885 20.696 37.7805 21.7253 37.7805 23.336C37.7805 24.648 37.3485 25.6133 36.4845 26.232C35.6205 26.8507 34.4258 27.16 32.9005 27.16C32.0578 27.16 31.2792 27.032 30.5645 26.776C29.8605 26.52 29.2898 26.1307 28.8525 25.608C28.4258 25.0747 28.2125 24.4187 28.2125 23.64V23.448C28.2125 23.3627 28.2178 23.2987 28.2285 23.256H31.3325C31.3218 23.288 31.3165 23.352 31.3165 23.448C31.3165 23.7787 31.4285 24.0507 31.6525 24.264C31.8872 24.4773 32.2712 24.584 32.8045 24.584C33.3912 24.584 33.7912 24.5253 34.0045 24.408C34.2178 24.28 34.3245 24.1093 34.3245 23.896C34.3245 23.64 34.1752 23.448 33.8765 23.32C33.5778 23.1813 33.1085 23.0427 32.4685 22.904C31.6578 22.7333 30.9805 22.5467 30.4365 22.344C29.9032 22.1307 29.4392 21.7893 29.0445 21.32C28.6498 20.84 28.4525 20.184 28.4525 19.352C28.4525 18.6053 28.6552 17.9707 29.0605 17.448C29.4765 16.9253 30.0365 16.5307 30.7405 16.264C31.4445 15.9973 32.2338 15.864 33.1085 15.864Z" fill="white"/>
</svg>
