<svg width="512" height="512" viewBox="0 0 512 512" fill="none" xmlns="http://www.w3.org/2000/svg">
<path d="M256.03 511.91C172.08 511.91 88.14 511.89 4.19 511.99C0.97 512 0 511.61 0 508C0.12 339.94 0.12 171.88 0.02 3.83C0.02 0.62 0.85 0.04 3.89 0.04C171.95 0.12 340 0.13 508.06 0C511.81 0 511.97 1.18 511.97 4.27C511.89 172.16 511.89 340.06 512 507.95C512 511.44 511.22 512.01 507.87 512C423.92 511.88 339.98 511.91 256.03 511.91ZM252.65 78.17C249.07 78.39 243.41 78.58 237.77 79.1C213.78 81.3 190.96 87.41 170.65 100.79C138.84 121.74 123.97 151.34 127.07 189.45C128.64 208.73 137.97 224.41 151.38 237.89C165.72 252.31 182.93 262.77 200.19 273.17C216.7 283.13 233.6 292.49 248.73 304.57C262.75 315.77 274.41 328.73 279.48 346.5C290.38 384.68 265.09 405.27 240.63 407.67C203.4 411.33 172.73 397.02 157.14 358.05C149.2 338.22 146.16 317.38 144.86 296.21C144.74 294.21 145.27 291.54 141.69 291.95C138.99 292.26 135.95 290.79 135.03 295.5C128.26 330.07 121.26 364.59 114.2 399.1C113.47 402.67 114.06 404.59 117.63 406.38C146.58 420.89 176.76 431.18 209.28 433.29C242.8 435.47 273.01 426.67 298.1 403.8C332.92 372.04 345.43 319.22 308.35 276.22C296.84 262.87 283.2 252.01 268.87 241.91C249.97 228.6 229.88 217.06 211.26 203.34C199.15 194.42 187.53 184.96 179.75 171.74C166.48 149.2 173.17 124.74 195.98 112.02C207.76 105.45 220.47 104.1 233.65 105C250.22 106.13 263.66 112.86 273.35 126.61C281.52 138.2 286.19 151.3 289.97 164.77C294.1 179.51 297.04 194.52 298.98 209.7C299.43 213.26 301 213.76 304.15 213.91C307.94 214.1 307.96 212.08 308.17 209.38C308.6 203.74 309.36 198.13 309.9 192.49C313.09 159.36 316.18 126.21 319.53 93.09C319.86 89.82 318.89 88.85 316.08 87.95C296.12 81.53 275.66 78.47 252.66 78.14L252.65 78.17ZM367.52 373.68C350.57 373.79 337.27 386.92 337.25 403.58C337.23 420.42 351.22 433.96 368.46 433.81C385.15 433.66 398.62 420.25 398.73 403.69C398.84 386.78 385.1 373.57 367.52 373.69V373.68Z" fill="#004C2C"/>
<path d="M252.65 78.17C275.65 78.49 296.12 81.56 316.07 87.98C318.88 88.88 319.85 89.85 319.52 93.12C316.17 126.24 313.07 159.38 309.89 192.52C309.35 198.15 308.59 203.77 308.16 209.41C307.95 212.11 307.93 214.13 304.14 213.94C300.99 213.79 299.43 213.29 298.97 209.73C297.04 194.55 294.1 179.55 289.96 164.8C286.18 151.33 281.51 138.23 273.34 126.64C263.65 112.89 250.21 106.16 233.64 105.03C220.46 104.13 207.75 105.48 195.97 112.05C173.16 124.77 166.47 149.23 179.74 171.77C187.53 184.99 199.14 194.44 211.25 203.37C229.87 217.09 249.96 228.63 268.86 241.94C283.19 252.03 296.83 262.9 308.34 276.25C345.42 319.25 332.91 372.07 298.09 403.83C273.01 426.71 242.8 435.5 209.27 433.32C176.75 431.21 146.57 420.92 117.62 406.41C114.05 404.62 113.46 402.7 114.19 399.13C121.24 364.62 128.24 330.09 135.02 295.53C135.94 290.81 138.98 292.28 141.68 291.98C145.26 291.57 144.72 294.25 144.85 296.24C146.16 317.41 149.2 338.25 157.13 358.08C172.72 397.05 203.39 411.36 240.62 407.7C265.08 405.3 290.36 384.71 279.47 346.53C274.4 328.75 262.74 315.8 248.72 304.6C233.59 292.52 216.69 283.15 200.18 273.2C182.93 262.8 165.72 252.34 151.37 237.92C137.96 224.44 128.63 208.75 127.06 189.48C123.96 151.37 138.83 121.77 170.64 100.82C190.95 87.44 213.77 81.33 237.76 79.13C243.39 78.61 249.06 78.42 252.64 78.2L252.65 78.17Z" fill="#FCFDFD"/>
<path d="M367.51 373.68C385.09 373.56 398.82 386.77 398.72 403.68C398.62 420.24 385.15 433.65 368.45 433.8C351.2 433.96 337.21 420.41 337.24 403.57C337.26 386.91 350.56 373.78 367.51 373.67V373.68Z" fill="#A7DB00"/>
</svg>
