<svg width="457" height="182" viewBox="0 0 457 182" fill="none" xmlns="http://www.w3.org/2000/svg">
    <path
        d="M228.048 181.767H226.986C226.047 181.767 225.289 181.005 225.289 180.07C225.289 179.135 226.051 178.374 226.986 178.374H228.048C228.987 178.374 229.745 179.135 229.745 180.07C229.745 181.005 228.983 181.767 228.048 181.767Z"
        fill="currentColor" />
    <path
        d="M90.5127 181.77C89.7962 181.77 89.0797 181.758 88.3713 181.741C87.4324 181.717 86.6911 180.938 86.7158 179.999C86.7405 179.06 87.5271 178.319 88.4578 178.344C89.1414 178.36 89.8291 178.373 90.5169 178.373C91.4558 178.373 92.2135 179.134 92.2135 180.073C92.2094 181.012 91.4517 181.77 90.5127 181.77ZM205.994 181.77H203.894C202.955 181.77 202.197 181.008 202.197 180.073C202.197 179.139 202.959 178.377 203.894 178.377H205.994C206.933 178.377 207.691 179.139 207.691 180.073C207.691 181.008 206.929 181.77 205.994 181.77ZM182.895 181.77H180.795C179.856 181.77 179.098 181.008 179.098 180.073C179.098 179.139 179.86 178.377 180.795 178.377H182.895C183.834 178.377 184.592 179.139 184.592 180.073C184.592 181.008 183.834 181.77 182.895 181.77ZM159.801 181.77H157.7C156.761 181.77 156.004 181.008 156.004 180.073C156.004 179.139 156.766 178.377 157.7 178.377H159.801C160.74 178.377 161.497 179.139 161.497 180.073C161.497 181.008 160.74 181.77 159.801 181.77ZM136.706 181.77H134.606C133.667 181.77 132.909 181.008 132.909 180.073C132.909 179.139 133.671 178.377 134.606 178.377H136.706C137.645 178.377 138.403 179.139 138.403 180.073C138.403 181.008 137.645 181.77 136.706 181.77ZM113.611 181.77H111.511C110.572 181.77 109.815 181.008 109.815 180.073C109.815 179.139 110.576 178.377 111.511 178.377H113.611C114.55 178.377 115.308 179.139 115.308 180.073C115.308 181.008 114.546 181.77 113.611 181.77ZM67.69 178.768C67.5458 178.768 67.3976 178.747 67.2493 178.71C66.5575 178.525 65.8739 178.336 65.1903 178.134C64.2884 177.87 63.7736 176.927 64.0372 176.025C64.3008 175.123 65.2438 174.609 66.1457 174.872C66.8046 175.066 67.4635 175.251 68.1306 175.428C69.0366 175.671 69.5761 176.602 69.3331 177.508C69.1272 178.266 68.4395 178.768 67.69 178.768ZM46.3992 169.98C46.1109 169.98 45.8226 169.906 45.5549 169.753C44.9372 169.399 44.3195 169.033 43.71 168.662C42.907 168.176 42.6517 167.13 43.1376 166.331C43.6235 165.528 44.6695 165.273 45.4685 165.759C46.0574 166.113 46.6463 166.463 47.2434 166.809C48.0547 167.274 48.3347 168.316 47.8693 169.127C47.5564 169.675 46.9881 169.98 46.3992 169.98ZM28.0816 156.019C27.6492 156.019 27.2168 155.855 26.8874 155.529C26.3809 155.027 25.8784 154.52 25.3843 154.006C24.7336 153.33 24.7542 152.255 25.4296 151.605C26.1049 150.954 27.1798 150.975 27.8304 151.65C28.3081 152.144 28.79 152.634 29.2759 153.116C29.943 153.775 29.9472 154.85 29.2883 155.517C28.9588 155.85 28.5223 156.019 28.0816 156.019ZM13.944 137.85C13.3634 137.85 12.7951 137.549 12.478 137.014C12.1156 136.4 11.7655 135.783 11.4155 135.161C10.9584 134.341 11.2549 133.308 12.0744 132.851C12.8939 132.394 13.9276 132.69 14.3847 133.51C14.7183 134.107 15.0601 134.704 15.406 135.293C15.8837 136.1 15.6119 137.142 14.8047 137.619C14.5329 137.772 14.2364 137.85 13.944 137.85ZM4.94178 116.662C4.19639 116.662 3.5169 116.168 3.30687 115.419C3.11744 114.731 2.93213 114.043 2.75916 113.351C2.52855 112.441 3.08038 111.519 3.99049 111.288C4.9006 111.057 5.82307 111.609 6.05368 112.519C6.22253 113.186 6.39961 113.85 6.5808 114.508C6.83201 115.41 6.30488 116.349 5.39888 116.6C5.24651 116.642 5.09003 116.662 4.94178 116.662ZM1.70492 93.8682C0.778336 93.8682 0.0164681 93.1229 0.00823177 92.1922C0.00411362 91.8215 0 91.4468 0 91.072C0 90.7302 4.02172e-06 90.3925 0.00412217 90.0507C0.0164766 89.12 0.774214 88.3705 1.7008 88.3705C1.70903 88.3705 1.71315 88.3705 1.72138 88.3705C2.66032 88.3829 3.40983 89.1489 3.40159 90.0878C3.39748 90.4131 3.39747 90.7426 3.39747 91.0679C3.39747 91.4262 3.40159 91.7886 3.4057 92.1469C3.41806 93.0858 2.66445 93.8559 1.72963 93.8641C1.71727 93.8682 1.71316 93.8682 1.70492 93.8682ZM4.38171 71.0002C4.24582 71.0002 4.10579 70.9837 3.96578 70.9466C3.05567 70.716 2.50384 69.7936 2.73446 68.8876C2.90742 68.1957 3.09273 67.5039 3.28216 66.8203C3.53337 65.9143 4.46818 65.3872 5.37418 65.6384C6.27605 65.8896 6.8073 66.8244 6.5561 67.7304C6.3749 68.3893 6.19782 69.0523 6.02897 69.7194C5.8313 70.4854 5.13945 71.0002 4.38171 71.0002ZM12.8569 49.5858C12.5768 49.5858 12.2927 49.5158 12.0332 49.3717C11.2137 48.9146 10.9172 47.8809 11.3743 47.0614C11.7202 46.4354 12.0744 45.8177 12.4368 45.2C12.9104 44.3928 13.9523 44.121 14.7594 44.5946C15.5666 45.0682 15.8384 46.1101 15.3648 46.9173C15.0148 47.5103 14.6771 48.1074 14.3394 48.7086C14.0305 49.2728 13.454 49.5858 12.8569 49.5858ZM26.5538 31.0706C26.1296 31.0706 25.7055 30.9141 25.376 30.597C24.7006 29.9464 24.6801 28.8715 25.3307 28.1962C25.8249 27.6814 26.3232 27.1749 26.8297 26.6724C27.4969 26.0135 28.5717 26.0177 29.2306 26.6807C29.8895 27.3478 29.8854 28.4227 29.2224 29.0816C28.7364 29.5634 28.2546 30.0534 27.7769 30.5476C27.4433 30.8977 26.9986 31.0706 26.5538 31.0706ZM44.5213 16.6695C43.9489 16.6695 43.3888 16.3812 43.0676 15.8541C42.5816 15.051 42.8328 14.0092 43.6359 13.5191C44.2454 13.1485 44.8549 12.7861 45.4726 12.4319C46.2839 11.9624 47.3257 12.2425 47.7911 13.0537C48.2606 13.865 47.9805 14.9028 47.1693 15.3723C46.5762 15.7141 45.9873 16.0641 45.4026 16.4183C45.1225 16.5912 44.8219 16.6695 44.5213 16.6695ZM65.5733 7.36246C64.8402 7.36246 64.1607 6.88064 63.9425 6.14349C63.6789 5.24161 64.1937 4.29856 65.0914 4.035C65.775 3.83321 66.4628 3.63965 67.1505 3.45845C68.0565 3.21548 68.9872 3.75084 69.2302 4.65683C69.4731 5.56282 68.9378 6.49353 68.0318 6.7365C67.3688 6.91358 66.7058 7.09889 66.051 7.29244C65.8904 7.34186 65.7298 7.36246 65.5733 7.36246ZM88.3178 3.79614C87.3994 3.79614 86.6458 3.06311 86.6211 2.14064C86.5964 1.20171 87.3377 0.423377 88.2725 0.398669C88.9849 0.378078 89.6974 0.369841 90.4098 0.365723H90.4139C91.3487 0.365723 92.1106 1.12346 92.1106 2.05828C92.1147 2.99722 91.357 3.75908 90.418 3.7632C89.7303 3.76732 89.0426 3.77555 88.359 3.79202C88.3466 3.79614 88.3301 3.79614 88.3178 3.79614ZM205.895 3.76731H203.795C202.856 3.76731 202.098 3.00545 202.098 2.07064C202.098 1.13582 202.86 0.373961 203.795 0.373961H205.895C206.834 0.373961 207.592 1.13582 207.592 2.07064C207.592 3.00545 206.834 3.76731 205.895 3.76731ZM182.8 3.76731H180.7C179.761 3.76731 179.003 3.00545 179.003 2.07064C179.003 1.13582 179.765 0.373961 180.7 0.373961H182.8C183.739 0.373961 184.497 1.13582 184.497 2.07064C184.497 3.00545 183.735 3.76731 182.8 3.76731ZM159.702 3.76731H157.601C156.663 3.76731 155.905 3.00545 155.905 2.07064C155.905 1.13582 156.667 0.373961 157.601 0.373961H159.702C160.641 0.373961 161.398 1.13582 161.398 2.07064C161.398 3.00545 160.641 3.76731 159.702 3.76731ZM136.607 3.76731H134.507C133.568 3.76731 132.81 3.00545 132.81 2.07064C132.81 1.13582 133.572 0.373961 134.507 0.373961H136.607C137.546 0.373961 138.304 1.13582 138.304 2.07064C138.304 3.00545 137.546 3.76731 136.607 3.76731ZM113.513 3.76731H111.412C110.473 3.76731 109.716 3.00545 109.716 2.07064C109.716 1.13582 110.478 0.373961 111.412 0.373961H113.513C114.452 0.373961 115.209 1.13582 115.209 2.07064C115.209 3.00545 114.452 3.76731 113.513 3.76731Z"
        fill="currentColor" />
    <path
        d="M365.388 181.77H158.949V178.373H365.388C413.529 178.373 452.693 139.209 452.693 91.0679C452.693 42.9268 413.529 3.7632 365.388 3.7632H228.039V0.365723H365.388C415.399 0.365723 456.09 41.053 456.09 91.0679C456.09 115.295 446.655 138.072 429.524 155.204C412.392 172.335 389.615 181.77 365.388 181.77Z"
        fill="currentColor" />
</svg>