<svg width="100" height="96" viewBox="0 0 100 96" fill="none" xmlns="http://www.w3.org/2000/svg">
<path d="M26.7503 60.9373C27.6841 60.3987 28.0038 59.2031 27.4651 58.2693C26.9257 57.3362 25.731 57.0158 24.7971 57.5544C23.8633 58.0938 23.5429 59.2893 24.0823 60.2224C24.6209 61.1563 25.8164 61.4767 26.7503 60.9373Z" fill="#9E59F7"/>
<path d="M18.7469 74.4157L28.5827 91.4529C30.7052 95.1333 35.4797 96.4959 39.2555 94.3132C42.9916 92.1541 44.2756 87.3803 42.1142 83.6412L36.2549 73.491L41.3292 70.5613C42.263 70.0212 42.5834 68.8272 42.044 67.8933L39.5042 63.4942C39.8071 63.4355 41.7984 63.0449 76.9142 56.1563C81.2553 55.9205 83.8562 51.1728 81.6635 47.3771L75.1724 36.1345L79.3205 29.8517C79.7279 29.2337 79.7523 28.4395 79.3823 27.7986L75.4761 21.0328C75.106 20.392 74.4034 20.0166 73.6671 20.0601L66.1529 20.511L58.947 8.0293C57.9033 6.22113 56.0333 5.12631 53.9459 5.10037C53.9207 5.09961 53.8963 5.09961 53.8711 5.09961C51.8539 5.09961 50.0229 6.10364 48.938 7.80118L23.4237 40.3039L6.83667 49.8803C0.312774 53.6454 -1.94705 62.0149 1.83255 68.5563C5.28561 74.5378 12.5656 76.8907 18.7469 74.4157ZM38.7321 85.5951C39.8109 87.4612 39.1723 89.8492 37.3008 90.9303C35.4233 92.016 33.0322 91.3492 31.9656 89.5005L22.2 72.5839L28.9657 68.6776C40.2679 88.2562 38.5505 85.2815 38.7321 85.5951ZM34.3017 70.1074L32.3486 66.7245L35.7315 64.7714L37.6846 68.1543L34.3017 70.1074ZM72.6967 24.0312L75.3959 28.7065L72.9889 32.3518L68.3365 24.2929L72.6967 24.0312ZM52.2049 9.94275C52.729 9.08521 53.5606 8.9967 53.8978 9.00586C54.2312 9.00967 55.0621 9.11343 55.5633 9.98166L78.2806 49.3303C79.0207 50.6112 78.1212 52.2218 76.6372 52.2584C76.371 52.2645 76.2481 52.3126 75.5661 52.44L51.5358 10.8178C52.0401 10.1693 52.1049 10.1068 52.2049 9.94275ZM48.9364 14.129L71.5141 53.235L37.4397 59.9183L27.079 41.9732L48.9364 14.129ZM5.21542 66.6032C4.35788 65.1193 3.90469 63.4347 3.90469 61.7303C3.90469 58.2467 5.77695 55.0027 8.78979 53.2632L24.0127 44.4742L33.7784 61.3885L18.5554 70.1783C13.8916 72.87 7.90784 71.2663 5.21542 66.6032Z" fill="#9E59F7"/>
<path d="M20.6996 62.1741C20.1602 61.2403 18.9655 60.9198 18.0316 61.4592L14.6488 63.4123C13.7165 63.951 12.5194 63.6298 11.9808 62.6975C11.4414 61.7636 10.2466 61.4432 9.31277 61.9826C8.37893 62.522 8.05849 63.7168 8.59789 64.6506C10.2054 67.4353 13.7912 68.4172 16.6019 66.7952L19.9848 64.8421C20.9186 64.3027 21.239 63.1087 20.6996 62.1741Z" fill="#9E59F7"/>
<path d="M97.098 9.27835L86.2147 15.3346C85.2725 15.8595 84.933 17.0489 85.4579 17.9911C85.9812 18.9326 87.1699 19.2736 88.1144 18.7479L98.997 12.6917C99.94 12.1668 100.279 10.9774 99.7538 10.0352C99.2297 9.09219 98.0403 8.75344 97.098 9.27835Z" fill="#9E59F7"/>
<path d="M95.9551 29.5068L88.4088 27.4851C87.3666 27.2058 86.2955 27.8238 86.0162 28.866C85.737 29.9081 86.3558 30.9785 87.3979 31.2578L94.9449 33.2796C95.9932 33.5611 97.059 32.9332 97.3367 31.8987C97.616 30.8565 96.9972 29.7853 95.9551 29.5068Z" fill="#9E59F7"/>
<path d="M76.9935 2.18238L74.9694 9.72937C74.6902 10.7715 75.3082 11.842 76.3503 12.122C77.3918 12.4004 78.4629 11.784 78.7429 10.741L80.7662 3.19403C81.0455 2.15186 80.4275 1.08069 79.3853 0.801456C78.3439 0.52222 77.2727 1.1402 76.9935 2.18238Z" fill="#9E59F7"/>
</svg>
