<svg width="538" height="157" viewBox="0 0 538 157" fill="none" xmlns="http://www.w3.org/2000/svg">
<path d="M152.789 105.405V54.5774H161.503V79.486L184.507 54.5774H195.515L175.658 75.4155L196.958 105.405H186.308L169.645 81.7301L161.474 90.3471V105.405H152.789Z" fill="white"/>
<path d="M200.695 105.405V66.9249H207.569L208.295 72.5886C209.695 70.439 211.621 68.6852 213.889 67.4948C216.157 66.3043 218.691 65.7168 221.249 65.7883C229.421 65.7883 234.804 71.3063 234.804 79.9524V105.405H226.264V80.3507C226.264 76.0665 223.447 73.2395 218.674 73.2395C213.097 73.2395 209.331 77.1254 209.263 82.0994V105.415L200.695 105.405Z" fill="white"/>
<path d="M239.412 85.8007C239.412 73.2395 247.874 65.7592 259.086 65.7592C271.459 65.7592 278.701 74.5024 278.701 85.8007C278.701 98.799 270.52 106.493 259.086 106.493C246.645 106.493 239.412 97.711 239.412 85.8007ZM270.017 85.8007C270.017 78.1746 265.747 73.0938 259.086 73.0938C252.425 73.0938 248.097 78.1746 248.097 85.8007C248.097 94.2234 252.793 99.1584 259.086 99.1584C265.97 99.1584 270.017 93.4948 270.017 85.8007Z" fill="white"/>
<path d="M291.152 105.405L279.805 66.9249H288.518L296.264 94.8062L303.864 66.9249H310.961L318.629 94.5148L326.277 66.9249H334.991L323.634 105.405H314.814L307.427 79.1169L300.137 105.405H291.152Z" fill="white"/>
<path d="M338.913 105.405V51.0024H347.452V105.405H338.913Z" fill="white"/>
<path d="M352.729 86.3058C352.729 73.5989 361.055 65.7592 371.763 65.7592C382.471 65.7592 389.849 73.3852 390.071 85.8687V87.9088H361.268C361.849 94.7091 366.041 99.2362 372.557 99.2362C376.972 99.2362 380.302 97.0504 381.6 93.2033H389.926C387.99 101.48 381.532 106.493 372.499 106.493C360.764 106.493 352.729 98.119 352.729 86.3058ZM381.241 81.8759C380.157 76.3579 376.749 73.0258 371.763 73.0258C366.777 73.0258 362.933 76.3579 361.626 81.8759H381.241Z" fill="white"/>
<path d="M393.179 85.9464C393.179 74.0361 400.489 65.7591 410.694 65.7591C416.115 65.7591 420.608 68.0129 423.28 71.6463V50.9539H431.81V105.405H424.936L424.142 98.6047C421.973 103.462 417.19 106.522 410.974 106.522C400.634 106.493 393.179 98.1189 393.179 85.9464ZM423.28 85.8687C423.28 78.2523 418.943 72.948 412.717 72.948C406.492 72.948 401.932 78.3203 401.932 86.0144C401.932 93.7085 406.279 99.2361 412.582 99.2361C418.884 99.2361 423.28 93.7182 423.28 85.8687Z" fill="white"/>
<path d="M438.587 107.581H447.126C447.126 111.214 450.999 114.119 456.682 114.119C463.46 114.119 467.023 110.049 467.023 104.239V98.7989C464.563 102.5 460.294 104.822 454.804 104.822C444.522 104.822 437.145 96.8365 437.145 85.3926C437.145 73.9486 444.522 65.7882 454.727 65.7882C460.729 65.7882 465.58 68.6249 467.971 72.9091L468.688 66.954H475.465V104.239C475.465 114.411 468.301 121.085 456.653 121.085C445.936 121.085 438.587 115.858 438.587 107.581ZM466.984 85.2954C466.984 78.0288 462.646 73.0257 456.421 73.0257C450.196 73.0257 445.936 78.0288 445.936 85.3634C445.936 92.6981 450.205 97.6331 456.421 97.6331C462.637 97.6331 466.984 92.5523 466.984 85.2954Z" fill="white"/>
<path d="M480.519 86.3058C480.519 73.5989 488.845 65.7592 499.553 65.7592C510.262 65.7592 517.639 73.3852 517.862 85.8687V87.9088H489.058C489.639 94.7091 493.841 99.2362 500.347 99.2362C504.762 99.2362 508.093 97.0504 509.39 93.2033H517.717C515.78 101.48 509.322 106.493 500.289 106.493C488.555 106.493 480.519 98.119 480.519 86.3058ZM509.032 81.8759C507.948 76.3579 504.549 73.0258 499.553 73.0258C494.558 73.0258 490.724 76.3579 489.426 81.8759H509.032Z" fill="white"/>
<path d="M523.003 62.4075C523.005 60.9214 523.445 59.469 524.268 58.2335C525.091 56.9979 526.261 56.0344 527.628 55.4644C528.996 54.8944 530.502 54.7433 531.955 55.0302C533.408 55.3171 534.744 56.0292 535.795 57.0767C536.846 58.1242 537.564 59.4603 537.859 60.9166C538.154 62.3729 538.014 63.8844 537.454 65.2605C536.895 66.6367 535.942 67.8159 534.716 68.6498C533.49 69.4836 532.046 69.9347 530.565 69.9462C529.564 69.9898 528.565 69.825 527.632 69.4623C526.698 69.0995 525.849 68.5466 525.139 67.8383C524.428 67.1301 523.872 66.282 523.504 65.3473C523.137 64.4126 522.966 63.4117 523.003 62.4075ZM536.015 62.4075C535.989 61.3157 535.641 60.2561 535.015 59.3622C534.39 58.4683 533.515 57.7799 532.5 57.3837C531.486 56.9875 530.378 56.9012 529.314 57.1355C528.251 57.3698 527.281 57.9144 526.525 58.7007C525.77 59.4871 525.263 60.48 525.069 61.5546C524.874 62.6293 525.001 63.7376 525.432 64.7402C525.864 65.7429 526.582 66.595 527.495 67.1894C528.408 67.7839 529.476 68.094 530.565 68.081C531.301 68.0941 532.033 67.9547 532.714 67.6715C533.394 67.3884 534.01 66.9675 534.521 66.4352C535.033 65.9028 535.429 65.2705 535.686 64.5775C535.943 63.8845 536.055 63.1459 536.015 62.4075ZM527.582 65.8174V59.0171H531.32C531.615 58.9807 531.915 59.0058 532.201 59.0908C532.486 59.1758 532.751 59.3189 532.979 59.5113C533.207 59.7036 533.393 59.941 533.526 60.2086C533.659 60.4762 533.735 60.7684 533.75 61.0669C533.747 61.4881 533.607 61.8969 533.352 62.2316C533.097 62.5662 532.741 62.8087 532.336 62.9224C532.552 62.9597 532.752 63.0582 532.913 63.2063C533.075 63.3544 533.19 63.5458 533.246 63.7579L533.943 65.866H532.201L531.697 64.1173C531.661 63.9728 531.575 63.8457 531.455 63.7586C531.334 63.6715 531.187 63.63 531.039 63.6413H529.267V65.8368L527.582 65.8174ZM529.267 62.2327H531.368C531.602 62.2327 531.826 62.1395 531.991 61.9737C532.156 61.808 532.249 61.5831 532.249 61.3486C532.249 61.1142 532.156 60.8893 531.991 60.7235C531.826 60.5577 531.602 60.4646 531.368 60.4646H529.267V62.2327Z" fill="white"/>
<path d="M101.572 51.5367L101.437 50.9927L96.8184 31.9615C96.8184 31.8061 96.741 31.6506 96.7119 31.4758C96.6345 31.0969 96.5473 30.718 96.4311 30.3391C96.2088 29.507 95.7291 28.767 95.061 28.2259C94.3929 27.6847 93.5709 27.3702 92.7133 27.3276H92.5778C91.6975 27.3371 90.8441 27.633 90.1457 28.1708C89.4474 28.7086 88.9418 29.4592 88.7051 30.31C88.3275 31.5438 87.9789 32.8164 87.6497 34.0502L79.6816 63.8745L79.2362 65.526L73.1657 39.199C73.0786 38.859 73.0011 38.4995 72.8946 38.1498C72.7023 37.3504 72.2621 36.6329 71.6375 36.1005C71.0129 35.568 70.2361 35.2481 69.4188 35.1868H69.0316C68.2443 35.1785 67.4733 35.4112 66.8212 35.8537C66.1691 36.2963 65.6669 36.9278 65.3815 37.6641C64.8006 39.0436 64.2487 40.4716 63.7066 41.8608L63.3483 42.7643C63.1063 43.3958 62.8739 44.0272 62.6125 44.7073C62.6125 44.7073 60.8407 49.244 60.6761 49.6812C60.3954 48.7097 59.708 46.0868 59.708 46.0868L59.5627 45.5039C59.4904 45.1551 59.3966 44.8112 59.282 44.4741C59.0466 43.7042 58.594 43.0193 57.9789 42.5021C57.3637 41.9849 56.6125 41.6575 55.8159 41.5597C55.6031 41.5456 55.3896 41.5456 55.1769 41.5597C54.1365 41.4873 53.1051 41.7944 52.2723 42.4243C51.708 42.9362 51.2219 43.5286 50.8297 44.1827C50.152 45.2221 49.484 46.2616 48.8256 47.3108L47.8574 48.8749L46.4342 51.0898C46.0953 51.6047 45.9694 51.6533 45.7468 51.6533H45.5047H40.9349H35.4453H35.242C34.5014 51.6215 33.7682 51.8115 33.1354 52.199C32.5027 52.5865 31.9992 53.154 31.6887 53.8294C31.34 54.5266 31.1992 55.3099 31.2833 56.0854C31.3675 56.8609 31.673 57.5955 32.1632 58.201C32.5434 58.6798 33.0287 59.0639 33.5812 59.3234C34.1337 59.5829 34.7386 59.7108 35.3485 59.6971H48.4093C49.1981 59.709 49.9735 59.4915 50.6418 59.0709C51.3102 58.6503 51.8428 58.0445 52.1755 57.3267C52.6305 56.4621 53.1437 55.5975 53.6375 54.6649L53.7246 54.5094C53.986 55.5683 54.2668 56.6953 54.383 57.1033L55.1091 59.7457C55.4286 60.8726 55.7384 61.9995 56.0773 63.1167C56.6776 65.1957 58.0136 66.4391 59.8532 66.5266H59.9791C60.8792 66.4865 61.7447 66.1668 62.4558 65.6116C63.167 65.0564 63.6886 64.2932 63.9486 63.4276C65.317 59.9238 66.6853 56.4168 68.0537 52.9065C69.1574 57.6603 70.2708 62.4399 71.3939 67.2455L72.8268 73.492L73.582 76.9214L73.9983 78.7866C74.3178 80.1758 74.647 81.6136 74.9665 83.0222C75.1402 83.8446 75.5676 84.5913 76.188 85.1562C76.8084 85.7212 77.5904 86.0758 78.4229 86.1698C78.6293 86.1835 78.8363 86.1835 79.0426 86.1698C79.6488 86.163 80.2449 86.0136 80.783 85.7335C81.3211 85.4534 81.7862 85.0505 82.1408 84.5571C82.5606 83.9796 82.8482 83.3161 82.9831 82.6142C85.4875 73.3399 87.9854 64.0493 90.4768 54.7426C90.9609 52.9356 91.4418 51.119 91.9194 49.2926C92.0646 48.7583 92.2002 48.224 92.3357 47.6994C92.6165 48.836 92.8876 49.9629 93.1587 51.1093L93.3717 52.003C93.7009 53.3728 94.0301 54.7426 94.3399 56.1124C94.5193 57.1227 95.0665 58.0301 95.8752 58.6584C96.6838 59.2867 97.6963 59.5911 98.7161 59.5125H126.445C127.048 59.5506 127.653 59.4613 128.22 59.2505C128.787 59.0396 129.304 58.7119 129.737 58.2885C130.473 57.4222 130.854 56.3074 130.802 55.17C130.802 54.6454 130.802 54.1208 130.802 53.606C130.802 53.0911 130.802 52.7899 130.802 52.3333C130.502 45.2918 128.797 38.3823 125.786 32.0144C122.776 25.6465 118.523 19.9497 113.278 15.2619C102.153 5.22653 88.3759 0.242869 71.1325 0H69.5834C69.2349 0 68.8863 0 68.5475 0L67.163 0.155436C65.3041 0.310872 63.3774 0.466308 61.4991 0.738321C39.5407 3.97333 23.4979 15.5436 13.8064 34.9731C7.42608 47.7868 4.01808 61.7761 0.726257 75.3087L0.280893 77.1448C-0.803472 81.6039 1.30717 85.7035 5.65431 87.627C7.10095 88.3098 8.64129 88.7715 10.2241 88.9968L10.8438 89.0648C11.4258 89.0592 12.0016 89.1854 12.5284 89.4339C12.8351 90.2419 13.0052 91.0956 13.0319 91.9598V92.2124C13.0879 92.7285 13.1137 93.2475 13.1093 93.7667C13.1093 94.0582 13.1093 94.3399 13.1093 94.6216C13.303 100.557 13.5063 106.464 13.6902 112.4C13.8548 117.782 16.5076 121.463 21.5809 123.358C23.067 123.904 24.5912 124.339 26.1411 124.66C29.2344 125.32 32.3893 125.645 35.5518 125.631C39.5376 125.581 43.5131 125.214 47.4411 124.533C47.6042 124.505 47.7693 124.488 47.9349 124.485C48.2447 124.485 48.448 124.485 48.7385 125.213C49.8519 128.021 50.8781 130.537 52.0496 132.985C53.6762 136.411 55.3189 139.828 56.9777 143.234C58.6365 146.641 60.2663 150.06 61.867 153.493C62.2761 154.527 62.9866 155.413 63.9056 156.035C64.8245 156.657 65.9092 156.987 67.0177 156.981C67.3841 156.979 67.7498 156.95 68.1118 156.893L69.9804 156.621C72.3297 156.363 74.6523 155.902 76.9223 155.242C87.8821 151.628 98.0964 145.197 108.136 135.569C111.215 132.461 114.054 129.123 116.627 125.583C117.208 124.815 117.789 124.057 118.38 123.309C119.958 121.308 120.132 118.918 118.912 116.198C117.615 113.339 116.55 110.379 115.727 107.348C114.062 101.296 114.701 96.4091 117.741 91.9792C120.393 87.9611 122.783 83.775 124.896 79.4472C126.899 75.509 128.414 71.3395 129.407 67.0317L129.65 65.9631H121.275L121.1 66.614C120.357 69.5088 119.309 72.316 117.973 74.9881C115.94 79.1913 113.647 83.2632 111.109 87.1801C108.961 90.2489 107.531 93.7651 106.928 97.466C106.324 101.167 106.562 104.957 107.623 108.553C108.592 112.157 109.56 115.071 110.596 117.743C110.892 118.314 111.012 118.962 110.94 119.602C110.867 120.243 110.606 120.847 110.189 121.337C105.89 127.38 100.033 132.869 91.7935 138.62C86.9526 141.981 80.4077 146.081 72.8559 148.062C71.756 148.407 70.6238 148.639 69.4769 148.752C68.5572 148.752 68.228 148.334 66.8241 145.313C65.062 141.554 63.7647 138.824 62.7577 136.716C60.4272 132.048 58.3963 127.236 56.6776 122.309C56.0289 120.579 55.235 118.423 54.2184 115.751L53.9666 115.071L46.2212 116.422C42.7435 117.075 39.2156 117.423 35.6777 117.461C31.8581 117.502 28.0587 116.901 24.4371 115.683C23.6825 115.483 23.0199 115.028 22.5613 114.394C22.1026 113.76 21.876 112.987 21.9198 112.205L21.8036 107.61C21.7261 103.957 21.639 100.178 21.4163 96.4577C21.1871 93.0293 20.7408 89.6191 20.0802 86.2475C19.5961 83.7217 17.6791 82.0216 14.6875 81.4776C12.8092 81.1278 10.9696 80.7295 9.21722 80.2827C8.88644 80.2129 8.5932 80.0225 8.39427 79.7483C8.26378 79.4176 8.26378 79.0493 8.39427 78.7186L9.24627 75.2504C12.4025 62.427 15.675 49.1663 21.9391 37.2269C30.4688 20.9839 44.5172 11.4343 63.6678 8.84042C66.5559 8.44596 69.4668 8.24474 72.3815 8.2381C83.2393 8.15733 93.8663 11.382 102.86 17.4865C108.463 21.3166 113.138 26.3601 116.54 32.245C119.942 38.1298 121.983 44.7059 122.514 51.4882H101.572V51.5367Z" fill="white"/>
</svg>
